<svg version="1.1" xmlns="http://www.w3.org/2000/svg" viewBox="0 0 1095.2364217330123 543.0329045137084" width="1095.2364217330123" height="543.0329045137084">
  <!-- svg-source:excalidraw -->
  
  <defs>
    <style>
      @font-face {
        font-family: "Virgil";
        src: url("https://excalidraw.com/Virgil.woff2");
      }
      @font-face {
        font-family: "Cascadia";
        src: url("https://excalidraw.com/Cascadia.woff2");
      }
    </style>
  </defs>
  <rect x="0" y="0" width="1095.2364217330123" height="543.0329045137084" fill="#ffffff"></rect><g stroke-linecap="round" transform="translate(789.5221360187265 353.03290451370844) rotate(0 147.8571428571429 90)"><path d="M0 0 C0 0, 0 0, 0 0 M0 0 C0 0, 0 0, 0 0 M-0.26 6.4 C0.96 5, 2.17 3.6, 4.99 0.36 M-0.26 6.4 C1.16 4.76, 2.58 3.13, 4.99 0.36 M0.13 12.04 C2.8 8.97, 5.47 5.9, 10.63 -0.03 M0.13 12.04 C3.48 8.19, 6.83 4.34, 10.63 -0.03 M-0.13 18.44 C4.57 13.03, 9.28 7.62, 15.62 0.33 M-0.13 18.44 C3.46 14.31, 7.05 10.18, 15.62 0.33 M0.27 24.08 C8.25 14.9, 16.22 5.72, 21.26 -0.07 M0.27 24.08 C7.5 15.76, 14.74 7.43, 21.26 -0.07 M0 30.48 C9.18 19.93, 18.35 9.37, 26.25 0.29 M0 30.48 C9.13 19.98, 18.26 9.48, 26.25 0.29 M-0.26 36.88 C12.09 22.68, 24.43 8.48, 31.89 -0.1 M-0.26 36.88 C9.62 25.52, 19.5 14.15, 31.89 -0.1 M0.14 42.52 C13.97 26.61, 27.8 10.7, 36.88 0.26 M0.14 42.52 C9.09 32.22, 18.05 21.91, 36.88 0.26 M-0.12 48.92 C9.58 37.76, 19.28 26.6, 42.52 -0.14 M-0.12 48.92 C16.43 29.87, 32.99 10.83, 42.52 -0.14 M0.27 54.56 C11.39 41.78, 22.5 28.99, 47.51 0.22 M0.27 54.56 C16.37 36.04, 32.47 17.52, 47.51 0.22 M0.01 60.96 C20.54 37.34, 41.07 13.73, 53.15 -0.17 M0.01 60.96 C17.58 40.75, 35.14 20.54, 53.15 -0.17 M-0.25 67.36 C19.96 44.11, 40.17 20.86, 58.14 0.19 M-0.25 67.36 C21.63 42.19, 43.51 17.02, 58.14 0.19 M0.14 73 C22.41 47.38, 44.68 21.76, 63.78 -0.21 M0.14 73 C21.65 48.25, 43.17 23.51, 63.78 -0.21 M-0.12 79.4 C26.96 48.24, 54.04 17.09, 68.77 0.15 M-0.12 79.4 C20.01 56.24, 40.15 33.08, 68.77 0.15 M0.28 85.04 C24.15 57.58, 48.02 30.12, 74.41 -0.24 M0.28 85.04 C28.1 53.03, 55.93 21.02, 74.41 -0.24 M0.01 91.44 C17.83 70.95, 35.64 50.46, 79.4 0.12 M0.01 91.44 C27.89 59.38, 55.76 27.31, 79.4 0.12 M-0.25 97.84 C27.06 66.42, 54.37 35.01, 85.04 -0.28 M-0.25 97.84 C22.63 71.52, 45.51 45.2, 85.04 -0.28 M0.15 103.48 C31.8 67.07, 63.45 30.66, 90.03 0.08 M0.15 103.48 C19.91 80.74, 39.68 58, 90.03 0.08 M-0.11 109.88 C26.35 79.43, 52.82 48.99, 95.67 -0.31 M-0.11 109.88 C19.35 87.49, 38.81 65.1, 95.67 -0.31 M0.28 115.52 C25.65 86.34, 51.02 57.15, 100.66 0.05 M0.28 115.52 C28.21 83.39, 56.14 51.26, 100.66 0.05 M0.02 121.92 C35.75 80.82, 71.47 39.72, 106.3 -0.34 M0.02 121.92 C24.23 94.07, 48.44 66.21, 106.3 -0.34 M-0.24 128.32 C29.48 94.13, 59.2 59.94, 111.29 0.02 M-0.24 128.32 C35.06 87.7, 70.37 47.08, 111.29 0.02 M0.15 133.96 C41.91 85.92, 83.67 37.89, 116.27 0.38 M0.15 133.96 C40.86 87.13, 81.56 40.31, 116.27 0.38 M-0.11 140.36 C36.23 98.55, 72.57 56.74, 121.92 -0.02 M-0.11 140.36 C28.73 107.18, 57.58 74, 121.92 -0.02 M0.29 146 C28.22 113.87, 56.15 81.73, 126.91 0.34 M0.29 146 C30.78 110.93, 61.26 75.85, 126.91 0.34 M0.02 152.4 C41.8 104.34, 83.57 56.29, 132.55 -0.05 M0.02 152.4 C46.41 99.04, 92.79 45.68, 132.55 -0.05 M-0.24 158.8 C42.09 110.1, 84.41 61.41, 137.54 0.31 M-0.24 158.8 C45.08 106.66, 90.4 54.53, 137.54 0.31 M0.16 164.44 C36.09 123.11, 72.02 81.77, 143.18 -0.09 M0.16 164.44 C40.31 118.24, 80.47 72.05, 143.18 -0.09 M-0.1 170.84 C32.73 133.06, 65.57 95.29, 148.17 0.27 M-0.1 170.84 C45.3 118.6, 90.71 66.37, 148.17 0.27 M0.29 176.48 C46.72 123.07, 93.15 69.65, 153.81 -0.12 M0.29 176.48 C40.66 130.04, 81.03 83.6, 153.81 -0.12 M1.34 181.37 C45.35 130.74, 89.36 80.11, 158.8 0.24 M1.34 181.37 C36.75 140.63, 72.17 99.89, 158.8 0.24 M6.98 180.97 C43.13 139.39, 79.27 97.81, 164.44 -0.16 M6.98 180.97 C45.05 137.19, 83.11 93.4, 164.44 -0.16 M11.97 181.33 C45.28 143.01, 78.59 104.69, 169.43 0.2 M11.97 181.33 C74.66 109.22, 137.35 37.11, 169.43 0.2 M17.61 180.94 C58.13 134.34, 98.64 87.73, 175.07 -0.19 M17.61 180.94 C76.38 113.33, 135.15 45.73, 175.07 -0.19 M22.6 181.3 C63.83 133.87, 105.06 86.44, 180.06 0.17 M22.6 181.3 C69.84 126.96, 117.07 72.63, 180.06 0.17 M28.24 180.9 C87.2 113.08, 146.15 45.26, 185.7 -0.23 M28.24 180.9 C79.34 122.12, 130.44 63.34, 185.7 -0.23 M33.23 181.26 C78.7 128.96, 124.16 76.66, 190.69 0.13 M33.23 181.26 C75.04 133.17, 116.84 85.08, 190.69 0.13 M38.22 181.62 C75.19 139.09, 112.16 96.56, 196.33 -0.26 M38.22 181.62 C97.29 113.67, 156.36 45.72, 196.33 -0.26 M43.86 181.23 C85.52 133.3, 127.18 85.38, 201.32 0.1 M43.86 181.23 C105.38 110.46, 166.89 39.7, 201.32 0.1 M48.85 181.59 C88.76 135.68, 128.67 89.77, 206.96 -0.3 M48.85 181.59 C97.77 125.31, 146.69 69.04, 206.96 -0.3 M54.49 181.2 C113.67 113.12, 172.85 45.04, 211.95 0.06 M54.49 181.2 C91.09 139.1, 127.68 97, 211.95 0.06 M59.48 181.56 C108.68 124.96, 157.88 68.36, 217.59 -0.33 M59.48 181.56 C111.94 121.2, 164.41 60.85, 217.59 -0.33 M65.12 181.16 C115.99 122.65, 166.86 64.13, 222.58 0.03 M65.12 181.16 C113.7 125.28, 162.28 69.39, 222.58 0.03 M70.11 181.52 C110.45 135.11, 150.79 88.7, 228.22 -0.36 M70.11 181.52 C125.71 117.56, 181.31 53.6, 228.22 -0.36 M75.75 181.13 C110.51 141.14, 145.27 101.15, 233.21 0 M75.75 181.13 C138.39 109.07, 201.03 37.01, 233.21 0 M80.74 181.49 C142.69 110.22, 204.64 38.96, 238.19 0.36 M80.74 181.49 C126.51 128.84, 172.27 76.19, 238.19 0.36 M86.38 181.09 C133.24 127.18, 180.1 73.28, 243.84 -0.04 M86.38 181.09 C124.18 137.61, 161.98 94.13, 243.84 -0.04 M91.37 181.45 C154.23 109.14, 217.09 36.83, 248.82 0.32 M91.37 181.45 C151.45 112.34, 211.52 43.23, 248.82 0.32 M97.01 181.06 C159.41 109.27, 221.81 37.49, 254.47 -0.07 M97.01 181.06 C134.14 138.34, 171.27 95.63, 254.47 -0.07 M102 181.42 C135.02 143.43, 168.04 105.45, 259.45 0.29 M102 181.42 C144.19 132.89, 186.37 84.36, 259.45 0.29 M107.64 181.02 C150.72 131.46, 193.81 81.9, 265.1 -0.11 M107.64 181.02 C162.24 118.21, 216.84 55.41, 265.1 -0.11 M112.63 181.38 C163.99 122.29, 215.36 63.21, 270.08 0.25 M112.63 181.38 C160.55 126.25, 208.48 71.12, 270.08 0.25 M118.27 180.99 C165.56 126.59, 212.86 72.18, 275.73 -0.14 M118.27 180.99 C180.53 109.37, 242.78 37.75, 275.73 -0.14 M123.26 181.35 C172.71 124.46, 222.17 67.56, 280.71 0.22 M123.26 181.35 C163.63 134.91, 203.99 88.47, 280.71 0.22 M128.9 180.95 C185.81 115.49, 242.71 50.03, 286.36 -0.18 M128.9 180.95 C186.4 114.81, 243.9 48.66, 286.36 -0.18 M133.89 181.31 C181.56 126.48, 229.23 71.64, 291.34 0.18 M133.89 181.31 C165.44 145.02, 196.99 108.72, 291.34 0.18 M139.53 180.92 C195.31 116.75, 251.09 52.59, 296.33 0.54 M139.53 180.92 C186.66 126.71, 233.79 72.49, 296.33 0.54 M144.52 181.28 C187.82 131.47, 231.11 81.67, 296.07 6.94 M144.52 181.28 C178.43 142.27, 212.34 103.26, 296.07 6.94 M150.16 180.88 C193.52 131.01, 236.87 81.13, 296.46 12.58 M150.16 180.88 C180.43 146.07, 210.69 111.26, 296.46 12.58 M155.15 181.24 C186.24 145.48, 217.34 109.71, 296.2 18.98 M155.15 181.24 C200.97 128.53, 246.79 75.82, 296.2 18.98 M160.14 181.6 C188.84 148.59, 217.54 115.57, 296.6 24.63 M160.14 181.6 C207.95 126.61, 255.76 71.61, 296.6 24.63 M165.78 181.21 C208.68 131.86, 251.58 82.51, 296.34 31.02 M165.78 181.21 C206.63 134.22, 247.48 87.23, 296.34 31.02 M170.77 181.57 C200.69 147.15, 230.61 112.73, 296.07 37.42 M170.77 181.57 C215.66 129.92, 260.56 78.28, 296.07 37.42 M176.41 181.18 C223.94 126.5, 271.46 71.83, 296.47 43.06 M176.41 181.18 C213.4 138.63, 250.38 96.08, 296.47 43.06 M181.4 181.54 C220.08 137.03, 258.77 92.53, 296.21 49.46 M181.4 181.54 C218 139.43, 254.6 97.32, 296.21 49.46 M187.04 181.14 C216.83 146.87, 246.63 112.6, 296.6 55.1 M187.04 181.14 C213.5 150.7, 239.96 120.26, 296.6 55.1 M192.03 181.5 C231.05 136.61, 270.07 91.73, 296.34 61.5 M192.03 181.5 C221.34 147.78, 250.65 114.06, 296.34 61.5 M197.67 181.11 C234.14 139.15, 270.61 97.2, 296.08 67.9 M197.67 181.11 C232.63 140.89, 267.6 100.66, 296.08 67.9 M202.66 181.47 C224.56 156.27, 246.46 131.07, 296.47 73.54 M202.66 181.47 C235.95 143.16, 269.25 104.86, 296.47 73.54 M208.3 181.07 C240.81 143.68, 273.31 106.28, 296.21 79.94 M208.3 181.07 C234.89 150.49, 261.47 119.91, 296.21 79.94 M213.29 181.43 C239.33 151.48, 265.37 121.52, 296.61 85.58 M213.29 181.43 C230.91 161.16, 248.54 140.88, 296.61 85.58 M218.93 181.04 C243.03 153.31, 267.13 125.59, 296.34 91.98 M218.93 181.04 C238.04 159.06, 257.14 137.08, 296.34 91.98 M223.92 181.4 C239.99 162.91, 256.07 144.41, 296.08 98.38 M223.92 181.4 C251.54 149.62, 279.16 117.85, 296.08 98.38 M229.56 181 C249.72 157.81, 269.88 134.62, 296.48 104.02 M229.56 181 C253.87 153.03, 278.19 125.06, 296.48 104.02 M234.55 181.36 C252.41 160.82, 270.26 140.28, 296.22 110.42 M234.55 181.36 C256.83 155.72, 279.12 130.09, 296.22 110.42 M240.19 180.97 C252.01 167.37, 263.84 153.76, 296.61 116.06 M240.19 180.97 C259.25 159.04, 278.32 137.11, 296.61 116.06 M245.18 181.33 C258.1 166.46, 271.03 151.59, 296.35 122.46 M245.18 181.33 C260.59 163.59, 276.01 145.86, 296.35 122.46 M250.82 180.93 C267.59 161.64, 284.36 142.35, 296.09 128.86 M250.82 180.93 C262.91 167.02, 275 153.11, 296.09 128.86 M255.81 181.29 C270.67 164.19, 285.54 147.09, 296.48 134.5 M255.81 181.29 C268.71 166.46, 281.61 151.62, 296.48 134.5 M261.45 180.9 C271.25 169.62, 281.06 158.34, 296.22 140.9 M261.45 180.9 C273.93 166.55, 286.4 152.2, 296.22 140.9 M266.44 181.26 C275.37 170.99, 284.3 160.71, 296.62 146.54 M266.44 181.26 C278.04 167.91, 289.65 154.56, 296.62 146.54 M271.42 181.62 C279.06 172.83, 286.7 164.04, 296.35 152.94 M271.42 181.62 C277.2 174.98, 282.97 168.34, 296.35 152.94 M277.07 181.23 C281.36 176.29, 285.66 171.35, 296.09 159.34 M277.07 181.23 C281.64 175.97, 286.21 170.71, 296.09 159.34 M282.05 181.59 C287.4 175.44, 292.74 169.3, 296.49 164.98 M282.05 181.59 C285.15 178.02, 288.25 174.45, 296.49 164.98 M287.7 181.19 C290.69 177.75, 293.68 174.31, 296.23 171.38 M287.7 181.19 C290.1 178.43, 292.5 175.66, 296.23 171.38 M292.68 181.55 C293.72 180.36, 294.76 179.17, 296.62 177.02 M292.68 181.55 C293.67 180.42, 294.65 179.29, 296.62 177.02" stroke="#ced4da" stroke-width="0.5" fill="none"></path><path d="M0 0 C101.63 0, 203.25 0, 295.71 0 M0 0 C105.2 0, 210.4 0, 295.71 0 M295.71 0 C295.71 36.53, 295.71 73.07, 295.71 180 M295.71 0 C295.71 43.39, 295.71 86.78, 295.71 180 M295.71 180 C188.5 180, 81.29 180, 0 180 M295.71 180 C191.05 180, 86.39 180, 0 180 M0 180 C0 122.19, 0 64.38, 0 0 M0 180 C0 113.01, 0 46.02, 0 0" stroke="#000000" stroke-width="1" fill="none"></path></g><g stroke-linecap="round" transform="translate(824.5221360187265 474.31861879942267) rotate(0 110.71428571428555 20.857142857142776)"><path d="M0.78 0.44 C59.82 -0.84, 117.91 -2.81, 220.86 0.96 M0.68 -0.32 C62.5 1.85, 124.01 1.62, 222.23 -0.84 M221.72 0.06 C222.88 9.13, 221.26 22.21, 221.33 40.54 M222.31 -0.44 C221.86 10.34, 221.98 21.45, 221 42.34 M220.17 41.82 C140.6 40.54, 59.34 39.74, -1.18 42.65 M221.94 41.61 C158.41 42.39, 94.65 41.12, 0.36 41.9 M-0.69 40.04 C1.07 26.38, -0.28 13.53, -0.98 1.44 M0.38 42.38 C-0.31 30.69, -0.58 18.2, -0.94 -0.4" stroke="#000000" stroke-width="1" fill="none"></path></g><g transform="translate(837.4507074472981 482.67576165656556) rotate(0 46.5 12.5)"><text x="0" y="18" font-family="Virgil, Segoe UI Emoji" font-size="20px" fill="#000000" text-anchor="start" style="white-space: pre;" direction="ltr">Password</text></g><g stroke-linecap="round" transform="translate(824.5221360187265 422.89004737085133) rotate(0 110.71428571428555 20.85714285714289)"><path d="M0.63 0.73 C84.18 -1.72, 168.75 0.48, 221.08 -1.69 M0.5 0.69 C52.99 1.18, 106.75 -0.12, 221.05 -0.65 M223.2 -1.55 C221.63 13.02, 221.39 23.15, 220.7 39.94 M222.23 -0.66 C222.72 9.2, 221.37 20.13, 222.08 42.51 M221.41 40.8 C157.51 40.11, 93.34 42.76, -0.25 42.04 M221.59 42.51 C155.92 41.01, 91.65 41.67, 0.42 42.2 M1.31 40.94 C0.1 29.39, -0.83 16.64, -0.38 -0.58 M-0.43 42.42 C-0.86 27.74, -1.09 13.49, -0.92 -0.07" stroke="#000000" stroke-width="1" fill="none"></path></g><g transform="translate(837.4507074472981 431.247190227994) rotate(0 25 12.5)"><text x="0" y="18" font-family="Virgil, Segoe UI Emoji" font-size="20px" fill="#000000" text-anchor="start" style="white-space: pre;" direction="ltr">Email</text></g><g transform="translate(844.0459455425357 370.1995711803752) rotate(0 88 12.5)"><text x="0" y="18" font-family="Virgil, Segoe UI Emoji" font-size="20px" fill="#000000" text-anchor="start" style="white-space: pre;" direction="ltr">saml.othersite.com</text></g><g stroke-linecap="round" transform="translate(10 21.265047370851562) rotate(0 153.57142857142844 72.14285714285711)"><path d="M0 0 C0 0, 0 0, 0 0 M0 0 C0 0, 0 0, 0 0 M-0.26 6.4 C1.51 4.36, 3.28 2.32, 4.99 0.36 M-0.26 6.4 C1.1 4.83, 2.47 3.25, 4.99 0.36 M0.13 12.04 C3.55 8.11, 6.97 4.18, 10.63 -0.03 M0.13 12.04 C2.26 9.59, 4.39 7.14, 10.63 -0.03 M-0.13 18.44 C6 11.39, 12.13 4.33, 15.62 0.33 M-0.13 18.44 C6.03 11.36, 12.18 4.28, 15.62 0.33 M0.27 24.08 C6.6 16.79, 12.94 9.51, 21.26 -0.07 M0.27 24.08 C5.12 18.49, 9.98 12.9, 21.26 -0.07 M0 30.48 C6.86 22.59, 13.72 14.7, 26.25 0.29 M0 30.48 C5.84 23.76, 11.68 17.04, 26.25 0.29 M-0.26 36.88 C8.85 26.4, 17.95 15.93, 31.89 -0.1 M-0.26 36.88 C9.81 25.3, 19.88 13.72, 31.89 -0.1 M0.14 42.52 C10.78 30.28, 21.43 18.03, 36.88 0.26 M0.14 42.52 C13.44 27.22, 26.75 11.91, 36.88 0.26 M-0.12 48.92 C12.71 34.16, 25.54 19.39, 42.52 -0.14 M-0.12 48.92 C12.58 34.31, 25.28 19.69, 42.52 -0.14 M0.27 54.56 C15.63 36.89, 30.99 19.22, 47.51 0.22 M0.27 54.56 C18.1 34.05, 35.94 13.53, 47.51 0.22 M0.01 60.96 C18.61 39.57, 37.2 18.17, 53.15 -0.17 M0.01 60.96 C18.42 39.78, 36.83 18.6, 53.15 -0.17 M-0.25 67.36 C13.31 51.76, 26.87 36.15, 58.14 0.19 M-0.25 67.36 C17.12 47.37, 34.49 27.39, 58.14 0.19 M0.14 73 C18.56 51.81, 36.98 30.63, 63.78 -0.21 M0.14 73 C14.82 56.12, 29.49 39.24, 63.78 -0.21 M-0.12 79.4 C26.72 48.53, 53.55 17.65, 68.77 0.15 M-0.12 79.4 C21.36 54.69, 42.84 29.98, 68.77 0.15 M0.28 85.04 C25.66 55.84, 51.05 26.63, 74.41 -0.24 M0.28 85.04 C17.55 65.17, 34.82 45.3, 74.41 -0.24 M0.01 91.44 C30.96 55.84, 61.9 20.24, 79.4 0.12 M0.01 91.44 C21.53 66.69, 43.05 41.93, 79.4 0.12 M-0.25 97.84 C33.55 58.96, 67.35 20.08, 85.04 -0.28 M-0.25 97.84 C20.85 73.57, 41.94 49.31, 85.04 -0.28 M0.15 103.48 C30.69 68.35, 61.22 33.22, 90.03 0.08 M0.15 103.48 C34.92 63.48, 69.69 23.48, 90.03 0.08 M-0.11 109.88 C28.84 76.58, 57.78 43.27, 95.67 -0.31 M-0.11 109.88 C26.52 79.23, 53.16 48.59, 95.67 -0.31 M0.28 115.52 C36.44 73.92, 72.6 32.33, 100.66 0.05 M0.28 115.52 C33.59 77.21, 66.89 38.89, 100.66 0.05 M0.02 121.92 C39.94 75.99, 79.87 30.06, 106.3 -0.34 M0.02 121.92 C36.25 80.24, 72.47 38.57, 106.3 -0.34 M-0.24 128.32 C31.67 91.61, 63.58 54.89, 111.29 0.02 M-0.24 128.32 C37.6 84.78, 75.45 41.25, 111.29 0.02 M0.15 133.96 C34.52 94.43, 68.88 54.9, 116.27 0.38 M0.15 133.96 C42.19 85.6, 84.23 37.24, 116.27 0.38 M-0.11 140.36 C44.6 88.93, 89.31 37.49, 121.92 -0.02 M-0.11 140.36 C36.96 97.71, 74.04 55.06, 121.92 -0.02 M0.94 145.25 C26.96 115.31, 52.99 85.37, 126.91 0.34 M0.94 145.25 C36.08 104.82, 71.22 64.4, 126.91 0.34 M6.58 144.85 C52.44 92.1, 98.29 39.36, 132.55 -0.05 M6.58 144.85 C41.93 104.19, 77.28 63.52, 132.55 -0.05 M11.57 145.21 C38.67 114.03, 65.77 82.86, 137.54 0.31 M11.57 145.21 C54.4 95.94, 97.24 46.67, 137.54 0.31 M17.21 144.82 C49.47 107.71, 81.73 70.6, 143.18 -0.09 M17.21 144.82 C65.84 88.88, 114.47 32.94, 143.18 -0.09 M22.2 145.18 C59.14 102.69, 96.07 60.2, 148.17 0.27 M22.2 145.18 C47.95 115.55, 73.71 85.92, 148.17 0.27 M27.19 145.54 C69.45 96.92, 111.71 48.3, 153.81 -0.12 M27.19 145.54 C64.83 102.23, 102.48 58.92, 153.81 -0.12 M32.83 145.14 C80.25 90.59, 127.68 36.03, 158.8 0.24 M32.83 145.14 C63.37 110.02, 93.9 74.89, 158.8 0.24 M37.82 145.5 C76.09 101.48, 114.36 57.46, 164.44 -0.16 M37.82 145.5 C82.46 94.15, 127.1 42.79, 164.44 -0.16 M43.46 145.11 C76.8 106.76, 110.13 68.41, 169.43 0.2 M43.46 145.11 C73.07 111.05, 102.68 76.99, 169.43 0.2 M48.45 145.47 C96.66 90.01, 144.87 34.55, 175.07 -0.19 M48.45 145.47 C80.22 108.92, 111.99 72.37, 175.07 -0.19 M54.09 145.07 C94.59 98.48, 135.09 51.89, 180.06 0.17 M54.09 145.07 C88.66 105.31, 123.23 65.54, 180.06 0.17 M59.08 145.43 C84.74 115.92, 110.39 86.4, 185.7 -0.23 M59.08 145.43 C103.7 94.1, 148.32 42.78, 185.7 -0.23 M64.72 145.04 C111.95 90.7, 159.19 36.37, 190.69 0.13 M64.72 145.04 C97.92 106.85, 131.12 68.66, 190.69 0.13 M69.71 145.4 C109.63 99.47, 149.55 53.55, 196.33 -0.26 M69.71 145.4 C117.57 90.35, 165.42 35.29, 196.33 -0.26 M75.35 145 C102.67 113.57, 129.99 82.15, 201.32 0.1 M75.35 145 C102.6 113.65, 129.86 82.3, 201.32 0.1 M80.34 145.36 C115.81 104.55, 151.29 63.74, 206.96 -0.3 M80.34 145.36 C119.53 100.28, 158.72 55.19, 206.96 -0.3 M85.98 144.97 C124.19 101.02, 162.39 57.07, 211.95 0.06 M85.98 144.97 C131.04 93.13, 176.1 41.3, 211.95 0.06 M90.97 145.33 C138.17 91.03, 185.37 36.73, 217.59 -0.33 M90.97 145.33 C127.68 103.09, 164.4 60.86, 217.59 -0.33 M96.61 144.93 C128.63 108.1, 160.65 71.27, 222.58 0.03 M96.61 144.93 C124.76 112.55, 152.91 80.17, 222.58 0.03 M101.6 145.29 C137.39 104.12, 173.19 62.94, 228.22 -0.36 M101.6 145.29 C142.5 98.24, 183.4 51.19, 228.22 -0.36 M107.24 144.9 C151.8 93.65, 196.35 42.4, 233.21 0 M107.24 144.9 C152.63 92.69, 198.02 40.47, 233.21 0 M112.23 145.26 C139.13 114.32, 166.02 83.38, 238.19 0.36 M112.23 145.26 C159.27 91.15, 206.31 37.03, 238.19 0.36 M117.87 144.87 C149.36 108.64, 180.85 72.42, 243.84 -0.04 M117.87 144.87 C146.34 112.11, 174.82 79.36, 243.84 -0.04 M122.86 145.23 C171.11 89.72, 219.35 34.22, 248.82 0.32 M122.86 145.23 C156.48 106.55, 190.09 67.88, 248.82 0.32 M128.5 144.83 C160.66 107.84, 192.82 70.84, 254.47 -0.07 M128.5 144.83 C164.93 102.93, 201.35 61.03, 254.47 -0.07 M133.49 145.19 C174.17 98.4, 214.84 51.61, 259.45 0.29 M133.49 145.19 C182.61 88.69, 231.72 32.19, 259.45 0.29 M139.13 144.8 C170.11 109.16, 201.09 73.52, 265.1 -0.11 M139.13 144.8 C180.62 97.08, 222.1 49.35, 265.1 -0.11 M144.12 145.16 C191.87 90.23, 239.61 35.31, 270.08 0.25 M144.12 145.16 C193.26 88.63, 242.4 32.09, 270.08 0.25 M149.11 145.52 C194.97 92.76, 240.83 40, 275.73 -0.14 M149.11 145.52 C191.78 96.43, 234.45 47.34, 275.73 -0.14 M154.75 145.12 C181.36 114.51, 207.98 83.89, 280.71 0.22 M154.75 145.12 C189.51 105.14, 224.27 65.15, 280.71 0.22 M159.74 145.48 C198.81 100.53, 237.88 55.59, 286.36 -0.18 M159.74 145.48 C186.79 114.36, 213.84 83.25, 286.36 -0.18 M165.38 145.09 C202.36 102.54, 239.34 60, 291.34 0.18 M165.38 145.09 C205.28 99.18, 245.19 53.28, 291.34 0.18 M170.37 145.45 C202.47 108.52, 234.57 71.59, 296.99 -0.21 M170.37 145.45 C204.76 105.89, 239.15 66.33, 296.99 -0.21 M176.01 145.05 C202.96 114.05, 229.92 83.04, 301.97 0.15 M176.01 145.05 C219.22 95.35, 262.43 45.64, 301.97 0.15 M181 145.41 C222.73 97.41, 264.46 49.4, 307.62 -0.25 M181 145.41 C223.31 96.73, 265.63 48.05, 307.62 -0.25 M186.64 145.02 C231.85 93.01, 277.06 41, 307.36 6.15 M186.64 145.02 C216.32 110.87, 246.01 76.72, 307.36 6.15 M191.63 145.38 C230.12 101.1, 268.61 56.83, 307.09 12.55 M191.63 145.38 C218.85 114.07, 246.07 82.75, 307.09 12.55 M197.27 144.98 C229.38 108.04, 261.5 71.1, 307.49 18.19 M197.27 144.98 C227.87 109.78, 258.48 74.57, 307.49 18.19 M202.26 145.34 C225.93 118.12, 249.6 90.89, 307.23 24.59 M202.26 145.34 C235.99 106.54, 269.72 67.74, 307.23 24.59 M207.9 144.95 C237.09 111.37, 266.29 77.78, 306.97 30.99 M207.9 144.95 C242.72 104.9, 277.54 64.84, 306.97 30.99 M212.89 145.31 C234.69 120.23, 256.49 95.15, 307.36 36.63 M212.89 145.31 C245.69 107.58, 278.49 69.85, 307.36 36.63 M218.53 144.92 C238.79 121.61, 259.06 98.3, 307.1 43.03 M218.53 144.92 C248.77 110.13, 279.01 75.34, 307.1 43.03 M223.52 145.28 C251.9 112.63, 280.27 79.99, 307.49 48.67 M223.52 145.28 C255.45 108.54, 287.39 71.8, 307.49 48.67 M229.16 144.88 C256.64 113.27, 284.12 81.66, 307.23 55.07 M229.16 144.88 C259.02 110.53, 288.89 76.17, 307.23 55.07 M234.15 145.24 C263.27 111.74, 292.39 78.24, 306.97 61.47 M234.15 145.24 C255.9 120.22, 277.65 95.19, 306.97 61.47 M239.79 144.85 C255.78 126.45, 271.77 108.06, 307.36 67.11 M239.79 144.85 C264.85 116.02, 289.9 87.2, 307.36 67.11 M244.78 145.21 C259.33 128.46, 273.88 111.72, 307.1 73.51 M244.78 145.21 C262.94 124.32, 281.1 103.43, 307.1 73.51 M250.42 144.81 C265.78 127.14, 281.15 109.47, 307.5 79.15 M250.42 144.81 C265.44 127.54, 280.45 110.26, 307.5 79.15 M255.41 145.17 C271.98 126.1, 288.56 107.04, 307.24 85.55 M255.41 145.17 C273.97 123.82, 292.53 102.47, 307.24 85.55 M260.39 145.53 C276.7 126.77, 293.01 108.01, 306.97 91.95 M260.39 145.53 C277.97 125.31, 295.54 105.1, 306.97 91.95 M266.04 145.14 C278.6 130.69, 291.15 116.25, 307.37 97.59 M266.04 145.14 C274.71 135.16, 283.38 125.19, 307.37 97.59 M271.02 145.5 C285.25 129.14, 299.47 112.78, 307.11 103.99 M271.02 145.5 C281.57 133.37, 292.11 121.24, 307.11 103.99 M276.67 145.1 C285.75 134.65, 294.84 124.2, 307.5 109.63 M276.67 145.1 C288.02 132.04, 299.37 118.99, 307.5 109.63 M281.65 145.46 C287.53 138.7, 293.41 131.94, 307.24 116.03 M281.65 145.46 C290.55 135.24, 299.44 125.01, 307.24 116.03 M287.3 145.07 C294.49 136.79, 301.68 128.52, 306.98 122.43 M287.3 145.07 C292.53 139.05, 297.76 133.03, 306.98 122.43 M292.29 145.43 C296.81 140.23, 301.33 135.02, 307.37 128.07 M292.29 145.43 C297.47 139.46, 302.66 133.49, 307.37 128.07 M297.93 145.03 C300.26 142.36, 302.58 139.68, 307.11 134.47 M297.93 145.03 C301.11 141.37, 304.29 137.71, 307.11 134.47 M302.92 145.39 C304.57 143.49, 306.23 141.58, 307.51 140.11 M302.92 145.39 C304.03 144.11, 305.15 142.83, 307.51 140.11" stroke="#ced4da" stroke-width="0.5" fill="none"></path><path d="M0 0 C85.93 0, 171.86 0, 307.14 0 M0 0 C92.51 0, 185.02 0, 307.14 0 M307.14 0 C307.14 45.95, 307.14 91.9, 307.14 144.29 M307.14 0 C307.14 40.31, 307.14 80.62, 307.14 144.29 M307.14 144.29 C219.49 144.29, 131.84 144.29, 0 144.29 M307.14 144.29 C227.21 144.29, 147.27 144.29, 0 144.29 M0 144.29 C0 88.98, 0 33.68, 0 0 M0 144.29 C0 103.19, 0 62.09, 0 0" stroke="#000000" stroke-width="1" fill="none"></path></g><g stroke-linecap="round" transform="translate(56.428571428571104 91.12219022799468) rotate(0 110.71428571428555 20.857142857142833)"><path d="M0.27 0.11 L220.86 -1.8 L221.53 43.65 L1.71 43.07" stroke="none" stroke-width="0" fill="#228be6"></path><path d="M-1.71 0.08 C43.75 0.9, 88.58 0.66, 222.92 0.02 M-0.59 0.48 C75.21 0.04, 149.63 0.91, 222.1 0.16 M223.23 -0.94 C221.27 10.67, 219.99 24.06, 222.86 41.3 M221.23 0.8 C221.27 17.16, 221.69 32.6, 221 41.57 M220.82 42.63 C178.34 42.01, 133.19 41.72, -0.06 41.03 M221.45 41.75 C167.11 41.2, 113.47 42.25, -0.56 42.43 M1.12 41.98 C0.22 28.01, 0.98 18.06, -1.99 -0.3 M0.65 40.87 C-0.22 30.98, 0.08 19.21, 0.26 0.88" stroke="#ffffff" stroke-width="1" fill="none"></path></g><g transform="translate(135.21428571428532 99.47933308513734) rotate(0 31.5 12.5)"><text x="31.5" y="18" font-family="Virgil, Segoe UI Emoji" font-size="20px" fill="#ffffff" text-anchor="middle" style="white-space: pre;" direction="ltr">Log In</text></g><g transform="translate(115.71428571428532 36.05076165656578) rotate(0 57 12.5)"><text x="0" y="18" font-family="Virgil, Segoe UI Emoji" font-size="20px" fill="#000000" text-anchor="start" style="white-space: pre;" direction="ltr">example.com</text></g><g stroke-linecap="round"><g transform="translate(319.37202380952385 77.5978987069484) rotate(0 226.52050728918903 -0.3081991222301781)"><path d="M0.66 0.91 C76.28 1.08, 377.82 0.28, 453.49 0.19 M-0.45 0.34 C74.99 0.24, 376.49 -1.25, 452.28 -1.55" stroke="#087f5b" stroke-width="1" fill="none"></path></g><g transform="translate(319.37202380952385 77.5978987069484) rotate(0 226.52050728918903 -0.3081991222301781)"><path d="M425.66 8.01 C433.27 6.95, 441.48 3.25, 451.81 -3.12 M424.22 8.41 C434.38 5.45, 446.54 0.72, 453.2 -1.4" stroke="#087f5b" stroke-width="1" fill="none"></path></g><g transform="translate(319.37202380952385 77.5978987069484) rotate(0 226.52050728918903 -0.3081991222301781)"><path d="M425.57 -12.51 C433.07 -7.85, 441.3 -5.82, 451.81 -3.12 M424.13 -12.11 C434.51 -7.13, 446.71 -3.92, 453.2 -1.4" stroke="#087f5b" stroke-width="1" fill="none"></path></g></g><g transform="translate(428.3005952380954 32.503142608946746) rotate(0 78 12.5)"><text x="0" y="18" font-family="Virgil, Segoe UI Emoji" font-size="20px" fill="#000000" text-anchor="start" style="white-space: pre;" direction="ltr">OpenID Connect</text></g><g transform="translate(397.0505952380954 144.16980927561372) rotate(0 151.5 25)"><text x="0" y="18" font-family="Virgil, Segoe UI Emoji" font-size="20px" fill="#000000" text-anchor="start" style="white-space: pre;" direction="ltr">Back to web app with code</text><text x="0" y="43" font-family="Virgil, Segoe UI Emoji" font-size="20px" fill="#000000" text-anchor="start" style="white-space: pre;" direction="ltr">grant, exchanged for ID token</text></g><g stroke-linecap="round"><g transform="translate(758.7206996833206 131.1774147665178) rotate(0 -120.35742478836278 1.0202166717166392)"><path d="M0.22 -0.28 C-40.05 -0.05, -201.08 2.16, -240.94 2.32" stroke="#ffffff" stroke-width="1.5" fill="none" stroke-dasharray="8 9"></path></g><g transform="translate(758.7206996833206 131.1774147665178) rotate(0 -120.35742478836278 1.0202166717166392)"><path d="M-213.32 -9.78 C-221.09 -2.58, -233.84 -0.44, -241.79 1.21" stroke="#ffffff" stroke-width="1.5" fill="none"></path></g><g transform="translate(758.7206996833206 131.1774147665178) rotate(0 -120.35742478836278 1.0202166717166392)"><path d="M-213.12 10.74 C-221.13 10.59, -233.94 5.37, -241.79 1.21" stroke="#ffffff" stroke-width="1.5" fill="none"></path></g></g><g stroke-linecap="round"><g transform="translate(764.9706996833206 120.32866999461521) rotate(0 -220.8526755396956 2.2363179849842822)"><path d="M-0.28 -0.94 C-74.29 -0.08, -369.01 4.52, -443.07 5.41 M1.77 1.18 C-72.38 1.71, -368.89 3.09, -443.47 3.86" stroke="#087f5b" stroke-width="1" fill="none"></path></g><g transform="translate(764.9706996833206 120.32866999461521) rotate(0 -220.8526755396956 2.2363179849842822)"><path d="M-416.93 -4.86 C-424.17 -3.65, -436.43 0.39, -444.59 4.87 M-415.21 -7.07 C-426.03 -1.66, -436.49 2.27, -443.27 3.84" stroke="#087f5b" stroke-width="1" fill="none"></path></g><g transform="translate(764.9706996833206 120.32866999461521) rotate(0 -220.8526755396956 2.2363179849842822)"><path d="M-416.78 15.66 C-424.11 9.11, -436.43 5.39, -444.59 4.87 M-415.06 13.45 C-425.89 11.23, -436.41 7.55, -443.27 3.84" stroke="#087f5b" stroke-width="1" fill="none"></path></g></g><g stroke-linecap="round" transform="translate(784.314264273471 10) rotate(0 143.33333333333326 87.5)"><path d="M0 0 C0 0, 0 0, 0 0 M0 0 C0 0, 0 0, 0 0 M0.13 12.04 C3.56 8.1, 6.99 4.15, 10.63 -0.03 M0.13 12.04 C2.75 9.04, 5.36 6.03, 10.63 -0.03 M0.27 24.08 C7.52 15.74, 14.77 7.4, 21.26 -0.07 M0.27 24.08 C5.23 18.37, 10.19 12.67, 21.26 -0.07 M-0.26 36.88 C6.57 29.03, 13.39 21.17, 31.89 -0.1 M-0.26 36.88 C9.29 25.9, 18.84 14.91, 31.89 -0.1 M-0.12 48.92 C14.95 31.58, 30.02 14.24, 42.52 -0.14 M-0.12 48.92 C16.43 29.88, 32.98 10.84, 42.52 -0.14 M0.01 60.96 C14.89 43.84, 29.78 26.71, 53.15 -0.17 M0.01 60.96 C20.74 37.12, 41.46 13.27, 53.15 -0.17 M0.14 73 C22.29 47.53, 44.43 22.05, 63.78 -0.21 M0.14 73 C25.36 43.99, 50.58 14.98, 63.78 -0.21 M0.28 85.04 C16.33 66.57, 32.39 48.1, 74.41 -0.24 M0.28 85.04 C22.84 59.08, 45.4 33.13, 74.41 -0.24 M-0.25 97.84 C17.54 77.37, 35.33 56.91, 85.04 -0.28 M-0.25 97.84 C25.9 67.76, 52.04 37.68, 85.04 -0.28 M-0.11 109.88 C35.25 69.19, 70.62 28.51, 95.67 -0.31 M-0.11 109.88 C26.73 78.99, 53.58 48.11, 95.67 -0.31 M0.02 121.92 C24.01 94.32, 48 66.72, 106.3 -0.34 M0.02 121.92 C29.66 87.82, 59.31 53.72, 106.3 -0.34 M0.15 133.96 C28.79 101.02, 57.42 68.08, 116.27 0.38 M0.15 133.96 C37.57 90.91, 74.99 47.86, 116.27 0.38 M0.29 146 C25.73 116.73, 51.17 87.47, 126.91 0.34 M0.29 146 C36.66 104.16, 73.03 62.31, 126.91 0.34 M-0.24 158.8 C29.8 124.24, 59.84 89.69, 137.54 0.31 M-0.24 158.8 C40.92 111.45, 82.07 64.11, 137.54 0.31 M-0.1 170.84 C51.27 111.73, 102.65 52.63, 148.17 0.27 M-0.1 170.84 C32.46 133.37, 65.03 95.91, 148.17 0.27 M3.97 178.35 C37.08 140.25, 70.2 102.16, 158.8 0.24 M3.97 178.35 C41.47 135.21, 78.97 92.07, 158.8 0.24 M14.6 178.31 C74.33 109.6, 134.07 40.88, 169.43 0.2 M14.6 178.31 C73.14 110.97, 131.68 43.62, 169.43 0.2 M25.23 178.28 C60.14 138.12, 95.05 97.95, 180.06 0.17 M25.23 178.28 C63.84 133.86, 102.45 89.45, 180.06 0.17 M35.86 178.25 C75.04 133.17, 114.22 88.09, 190.69 0.13 M35.86 178.25 C94.51 110.77, 153.16 43.3, 190.69 0.13 M46.49 178.21 C78.23 141.69, 109.98 105.17, 201.32 0.1 M46.49 178.21 C105.45 110.38, 164.42 42.54, 201.32 0.1 M57.12 178.18 C118.04 108.09, 178.97 38, 211.95 0.06 M57.12 178.18 C96.13 133.3, 135.14 88.42, 211.95 0.06 M67.75 178.14 C124.36 113.01, 180.98 47.88, 222.58 0.03 M67.75 178.14 C123.7 113.77, 179.65 49.41, 222.58 0.03 M78.38 178.11 C119.13 131.23, 159.88 84.35, 233.21 0 M78.38 178.11 C131.29 117.23, 184.21 56.36, 233.21 0 M89.01 178.07 C132.59 127.93, 176.18 77.79, 243.84 -0.04 M89.01 178.07 C132.32 128.24, 175.64 78.41, 243.84 -0.04 M99.64 178.04 C135.13 137.2, 170.63 96.37, 254.47 -0.07 M99.64 178.04 C131.63 141.24, 163.62 104.43, 254.47 -0.07 M109.61 178.76 C169.88 109.43, 230.14 40.1, 265.1 -0.11 M109.61 178.76 C154.52 127.09, 199.44 75.42, 265.1 -0.11 M120.24 178.72 C162.17 130.49, 204.1 82.25, 275.73 -0.14 M120.24 178.72 C169.82 121.69, 219.4 64.65, 275.73 -0.14 M130.87 178.69 C174.39 128.63, 217.91 78.56, 286.36 -0.18 M130.87 178.69 C178.38 124.03, 225.89 69.38, 286.36 -0.18 M141.5 178.66 C182.75 131.2, 224 83.75, 292.39 5.07 M141.5 178.66 C196.57 115.3, 251.65 51.95, 292.39 5.07 M152.13 178.62 C182.36 143.85, 212.58 109.08, 292.53 17.11 M152.13 178.62 C195.78 128.41, 239.43 78.2, 292.53 17.11 M162.76 178.59 C206.96 127.74, 251.16 76.9, 292.66 29.15 M162.76 178.59 C207.64 126.96, 252.51 75.34, 292.66 29.15 M173.39 178.55 C198.52 149.64, 223.66 120.73, 292.14 41.95 M173.39 178.55 C203.06 144.42, 232.73 110.29, 292.14 41.95 M184.02 178.52 C214.45 143.51, 244.88 108.51, 292.27 53.99 M184.02 178.52 C213.78 144.29, 243.53 110.06, 292.27 53.99 M194.65 178.48 C228.65 139.38, 262.64 100.27, 292.4 66.03 M194.65 178.48 C227.06 141.2, 259.48 103.91, 292.4 66.03 M205.28 178.45 C233 146.56, 260.72 114.67, 292.54 78.07 M205.28 178.45 C229.88 150.15, 254.47 121.86, 292.54 78.07 M215.91 178.41 C236.12 155.16, 256.34 131.91, 292.67 90.11 M215.91 178.41 C241.18 149.34, 266.45 120.27, 292.67 90.11 M226.54 178.38 C251.65 149.49, 276.76 120.61, 292.15 102.91 M226.54 178.38 C246.82 155.05, 267.11 131.71, 292.15 102.91 M237.17 178.34 C251.45 161.92, 265.72 145.5, 292.28 114.95 M237.17 178.34 C252.6 160.59, 268.03 142.84, 292.28 114.95 M247.8 178.31 C257.61 167.03, 267.41 155.75, 292.41 126.99 M247.8 178.31 C257.33 167.35, 266.85 156.4, 292.41 126.99 M258.43 178.28 C271.96 162.72, 285.48 147.16, 292.55 139.03 M258.43 178.28 C271.58 163.16, 284.72 148.04, 292.55 139.03 M269.06 178.24 C275.76 170.54, 282.45 162.83, 292.68 151.07 M269.06 178.24 C275.34 171.02, 281.61 163.8, 292.68 151.07 M279.69 178.21 C284.65 172.5, 289.62 166.79, 292.16 163.87 M279.69 178.21 C283.56 173.76, 287.43 169.31, 292.16 163.87" stroke="#228be6" stroke-width="1" fill="none"></path><path d="M0 0 C88.56 0, 177.11 0, 286.67 0 M0 0 C77.89 0, 155.78 0, 286.67 0 M286.67 0 C286.67 45.46, 286.67 90.92, 286.67 175 M286.67 0 C286.67 52.95, 286.67 105.9, 286.67 175 M286.67 175 C222.05 175, 157.43 175, 0 175 M286.67 175 C203.88 175, 121.09 175, 0 175 M0 175 C0 122.96, 0 70.93, 0 0 M0 175 C0 134.15, 0 93.3, 0 0" stroke="#000000" stroke-width="2" fill="none"></path></g><g stroke-linecap="round"><g transform="translate(925.980930940138 186.66666666666652) rotate(0 0.272975137168487 76.94669117914202)"><path d="M-0.56 0.65 C-0.7 26.41, -1.02 128.41, -0.99 153.95 M1.34 -0.06 C1.58 25.4, 1.66 126.84, 1.21 152.16" stroke="#087f5b" stroke-width="1" fill="none"></path></g><g transform="translate(925.980930940138 186.66666666666652) rotate(0 0.272975137168487 76.94669117914202)"><path d="M-7.78 122.25 C-5.05 131.48, -2.25 141.94, -0.35 151.35 M-8.13 123.29 C-6.69 131.91, -2.79 139.26, 1.91 152.41" stroke="#087f5b" stroke-width="1" fill="none"></path></g><g transform="translate(925.980930940138 186.66666666666652) rotate(0 0.272975137168487 76.94669117914202)"><path d="M12.74 122.39 C9.53 131.49, 6.4 141.91, -0.35 151.35 M12.39 123.43 C8.4 131.99, 6.87 139.3, 1.91 152.41" stroke="#087f5b" stroke-width="1" fill="none"></path></g></g><g transform="translate(881.9809309401371 75) rotate(0 44 22.5)"><text x="44" y="32" font-family="Virgil, Segoe UI Emoji" font-size="36px" fill="#000000" text-anchor="middle" style="white-space: pre;" direction="ltr">Okta</text></g><g transform="translate(949.314264273471 240.66666666666674) rotate(0 37 17.5)"><text x="0" y="25" font-family="Virgil, Segoe UI Emoji" font-size="28px" fill="#000000" text-anchor="start" style="white-space: pre;" direction="ltr">SAML</text></g></svg>