<svg version="1.1" xmlns="http://www.w3.org/2000/svg" viewBox="0 0 1110 317.80042881962504" width="1110" height="317.80042881962504">
  <!-- svg-source:excalidraw -->
  
  <defs>
    <style>
      @font-face {
        font-family: "Virgil";
        src: url("https://excalidraw.com/Virgil.woff2");
      }
      @font-face {
        font-family: "Cascadia";
        src: url("https://excalidraw.com/Cascadia.woff2");
      }
    </style>
  </defs>
  <rect x="0" y="0" width="1110" height="317.80042881962504" fill="#ffffff"></rect><g stroke-linecap="round" transform="translate(14.195966983345897 14.107142857142776) rotate(0 153.57142857142844 72.14285714285717)"><path d="M0 0 C0 0, 0 0, 0 0 M0 0 C0 0, 0 0, 0 0 M-0.26 6.4 C1.41 4.47, 3.08 2.55, 4.99 0.36 M-0.26 6.4 C1.07 4.87, 2.39 3.35, 4.99 0.36 M0.13 12.04 C3.96 7.63, 7.8 3.23, 10.63 -0.03 M0.13 12.04 C4.09 7.48, 8.06 2.93, 10.63 -0.03 M-0.13 18.44 C5.53 11.93, 11.19 5.41, 15.62 0.33 M-0.13 18.44 C3.62 14.13, 7.37 9.81, 15.62 0.33 M0.27 24.08 C7.56 15.69, 14.86 7.29, 21.26 -0.07 M0.27 24.08 C6.51 16.9, 12.75 9.72, 21.26 -0.07 M0 30.48 C7.72 21.6, 15.44 12.73, 26.25 0.29 M0 30.48 C8.28 20.96, 16.56 11.44, 26.25 0.29 M-0.26 36.88 C8.55 26.75, 17.36 16.62, 31.89 -0.1 M-0.26 36.88 C9.68 25.45, 19.61 14.02, 31.89 -0.1 M0.14 42.52 C13.49 27.16, 26.83 11.81, 36.88 0.26 M0.14 42.52 C7.92 33.57, 15.7 24.62, 36.88 0.26 M-0.12 48.92 C9.67 37.65, 19.47 26.38, 42.52 -0.14 M-0.12 48.92 C9.79 37.51, 19.71 26.1, 42.52 -0.14 M0.27 54.56 C10.79 42.46, 21.3 30.36, 47.51 0.22 M0.27 54.56 C15.17 37.42, 30.07 20.28, 47.51 0.22 M0.01 60.96 C19.38 38.67, 38.76 16.39, 53.15 -0.17 M0.01 60.96 C15.9 42.68, 31.78 24.41, 53.15 -0.17 M-0.25 67.36 C13.83 51.15, 27.92 34.95, 58.14 0.19 M-0.25 67.36 C21.67 42.14, 43.59 16.92, 58.14 0.19 M0.14 73 C25.11 44.27, 50.08 15.55, 63.78 -0.21 M0.14 73 C16.08 54.67, 32.01 36.34, 63.78 -0.21 M-0.12 79.4 C13.83 63.36, 27.77 47.32, 68.77 0.15 M-0.12 79.4 C13.79 63.4, 27.7 47.4, 68.77 0.15 M0.28 85.04 C21.85 60.23, 43.42 35.41, 74.41 -0.24 M0.28 85.04 C18.06 64.58, 35.84 44.13, 74.41 -0.24 M0.01 91.44 C16.18 72.85, 32.34 54.25, 79.4 0.12 M0.01 91.44 C29.04 58.04, 58.08 24.65, 79.4 0.12 M-0.25 97.84 C17.01 77.99, 34.26 58.14, 85.04 -0.28 M-0.25 97.84 C28.01 65.33, 56.27 32.82, 85.04 -0.28 M0.15 103.48 C32.16 66.65, 64.18 29.82, 90.03 0.08 M0.15 103.48 C27 72.58, 53.86 41.69, 90.03 0.08 M-0.11 109.88 C31.71 73.27, 63.54 36.65, 95.67 -0.31 M-0.11 109.88 C38.16 65.85, 76.44 21.81, 95.67 -0.31 M0.28 115.52 C28.96 82.52, 57.65 49.53, 100.66 0.05 M0.28 115.52 C39.83 70.02, 79.38 24.52, 100.66 0.05 M0.02 121.92 C26.69 91.23, 53.37 60.55, 106.3 -0.34 M0.02 121.92 C24.52 93.73, 49.03 65.54, 106.3 -0.34 M-0.24 128.32 C25.61 98.57, 51.47 68.83, 111.29 0.02 M-0.24 128.32 C33.79 89.16, 67.83 50.01, 111.29 0.02 M0.15 133.96 C45.73 81.53, 91.31 29.09, 116.27 0.38 M0.15 133.96 C25.8 104.45, 51.46 74.94, 116.27 0.38 M-0.11 140.36 C42.36 91.5, 84.84 42.64, 121.92 -0.02 M-0.11 140.36 C30.03 105.69, 60.17 71.02, 121.92 -0.02 M0.94 145.25 C45.67 93.8, 90.39 42.35, 126.91 0.34 M0.94 145.25 C36 104.91, 71.07 64.58, 126.91 0.34 M6.58 144.85 C32.05 115.56, 57.52 86.26, 132.55 -0.05 M6.58 144.85 C43.75 102.09, 80.92 59.34, 132.55 -0.05 M11.57 145.21 C36.87 116.11, 62.17 87.01, 137.54 0.31 M11.57 145.21 C52.07 98.62, 92.58 52.03, 137.54 0.31 M17.21 144.82 C51.97 104.84, 86.72 64.86, 143.18 -0.09 M17.21 144.82 C53.25 103.37, 89.28 61.92, 143.18 -0.09 M22.2 145.18 C67.06 93.57, 111.92 41.96, 148.17 0.27 M22.2 145.18 C70.07 90.11, 117.94 35.04, 148.17 0.27 M27.19 145.54 C60.75 106.93, 94.31 68.32, 153.81 -0.12 M27.19 145.54 C67.39 99.3, 107.58 53.06, 153.81 -0.12 M32.83 145.14 C72.05 100.03, 111.27 54.91, 158.8 0.24 M32.83 145.14 C69.9 102.5, 106.97 59.85, 158.8 0.24 M37.82 145.5 C85.88 90.22, 133.94 34.93, 164.44 -0.16 M37.82 145.5 C69.19 109.41, 100.56 73.32, 164.44 -0.16 M43.46 145.11 C83.87 98.62, 124.29 52.13, 169.43 0.2 M43.46 145.11 C70.65 113.84, 97.83 82.56, 169.43 0.2 M48.45 145.47 C79.26 110.02, 110.08 74.57, 175.07 -0.19 M48.45 145.47 C98.64 87.73, 148.83 29.99, 175.07 -0.19 M54.09 145.07 C92.27 101.15, 130.45 57.23, 180.06 0.17 M54.09 145.07 C92.76 100.6, 131.42 56.12, 180.06 0.17 M59.08 145.43 C109.02 87.98, 158.97 30.52, 185.7 -0.23 M59.08 145.43 C89.93 109.94, 120.79 74.45, 185.7 -0.23 M64.72 145.04 C107.64 95.67, 150.56 46.3, 190.69 0.13 M64.72 145.04 C95.08 110.12, 125.44 75.19, 190.69 0.13 M69.71 145.4 C118.45 89.33, 167.18 33.27, 196.33 -0.26 M69.71 145.4 C111.61 97.2, 153.51 49, 196.33 -0.26 M75.35 145 C123.25 89.9, 171.15 34.8, 201.32 0.1 M75.35 145 C113.43 101.21, 151.5 57.41, 201.32 0.1 M80.34 145.36 C115.9 104.45, 151.47 63.54, 206.96 -0.3 M80.34 145.36 C125.96 92.89, 171.58 40.41, 206.96 -0.3 M85.98 144.97 C127.85 96.8, 169.72 48.64, 211.95 0.06 M85.98 144.97 C121.99 103.54, 158 62.12, 211.95 0.06 M90.97 145.33 C136.88 92.52, 182.79 39.71, 217.59 -0.33 M90.97 145.33 C128.32 102.36, 165.67 59.39, 217.59 -0.33 M96.61 144.93 C143.46 91.05, 190.3 37.16, 222.58 0.03 M96.61 144.93 C146.75 87.26, 196.88 29.59, 222.58 0.03 M101.6 145.29 C129.99 112.63, 158.38 79.97, 228.22 -0.36 M101.6 145.29 C134.41 107.55, 167.22 69.81, 228.22 -0.36 M107.24 144.9 C137.16 110.49, 167.08 76.07, 233.21 0 M107.24 144.9 C152.05 93.36, 196.85 41.82, 233.21 0 M112.23 145.26 C146.77 105.53, 181.31 65.79, 238.19 0.36 M112.23 145.26 C142.17 110.82, 172.11 76.38, 238.19 0.36 M117.87 144.87 C159.71 96.74, 201.54 48.62, 243.84 -0.04 M117.87 144.87 C154.02 103.28, 190.17 61.7, 243.84 -0.04 M122.86 145.23 C152.44 111.19, 182.02 77.16, 248.82 0.32 M122.86 145.23 C170.31 90.64, 217.76 36.06, 248.82 0.32 M128.5 144.83 C156.54 112.58, 184.58 80.32, 254.47 -0.07 M128.5 144.83 C157.57 111.4, 186.63 77.96, 254.47 -0.07 M133.49 145.19 C164.05 110.03, 194.62 74.87, 259.45 0.29 M133.49 145.19 C169.14 104.18, 204.79 63.17, 259.45 0.29 M139.13 144.8 C181.96 95.53, 224.79 46.26, 265.1 -0.11 M139.13 144.8 C168.97 110.47, 198.82 76.14, 265.1 -0.11 M144.12 145.16 C187.96 94.72, 231.81 44.28, 270.08 0.25 M144.12 145.16 C185 98.13, 225.88 51.1, 270.08 0.25 M149.11 145.52 C184.47 104.83, 219.84 64.15, 275.73 -0.14 M149.11 145.52 C182.82 106.73, 216.54 67.94, 275.73 -0.14 M154.75 145.12 C181.93 113.86, 209.1 82.6, 280.71 0.22 M154.75 145.12 C196.32 97.3, 237.89 49.48, 280.71 0.22 M159.74 145.48 C197.68 101.83, 235.62 58.18, 286.36 -0.18 M159.74 145.48 C196.53 103.15, 233.33 60.82, 286.36 -0.18 M165.38 145.09 C193.63 112.59, 221.88 80.09, 291.34 0.18 M165.38 145.09 C201.81 103.18, 238.23 61.28, 291.34 0.18 M170.37 145.45 C198.76 112.79, 227.15 80.13, 296.99 -0.21 M170.37 145.45 C220.08 88.26, 269.79 31.08, 296.99 -0.21 M176.01 145.05 C222.16 91.97, 268.31 38.88, 301.97 0.15 M176.01 145.05 C207.84 108.44, 239.67 71.82, 301.97 0.15 M181 145.41 C224.08 95.86, 267.16 46.3, 307.62 -0.25 M181 145.41 C214.66 106.69, 248.32 67.97, 307.62 -0.25 M186.64 145.02 C228.74 96.58, 270.85 48.15, 307.36 6.15 M186.64 145.02 C214.66 112.78, 242.69 80.54, 307.36 6.15 M191.63 145.38 C226.15 105.67, 260.67 65.96, 307.09 12.55 M191.63 145.38 C227.99 103.55, 264.36 61.71, 307.09 12.55 M197.27 144.98 C229.49 107.92, 261.71 70.85, 307.49 18.19 M197.27 144.98 C230.35 106.94, 263.42 68.89, 307.49 18.19 M202.26 145.34 C224.91 119.29, 247.56 93.23, 307.23 24.59 M202.26 145.34 C239.56 102.43, 276.87 59.52, 307.23 24.59 M207.9 144.95 C230.88 118.52, 253.86 92.08, 306.97 30.99 M207.9 144.95 C236.63 111.91, 265.35 78.86, 306.97 30.99 M212.89 145.31 C247.85 105.09, 282.82 64.87, 307.36 36.63 M212.89 145.31 C242.52 111.23, 272.14 77.14, 307.36 36.63 M218.53 144.92 C237.71 122.85, 256.89 100.79, 307.1 43.03 M218.53 144.92 C244.76 114.74, 271 84.56, 307.1 43.03 M223.52 145.28 C249.17 115.77, 274.81 86.27, 307.49 48.67 M223.52 145.28 C250.98 113.69, 278.44 82.1, 307.49 48.67 M229.16 144.88 C245.49 126.1, 261.82 107.31, 307.23 55.07 M229.16 144.88 C258.37 111.28, 287.58 77.68, 307.23 55.07 M234.15 145.24 C258.13 117.66, 282.1 90.07, 306.97 61.47 M234.15 145.24 C251.91 124.81, 269.67 104.38, 306.97 61.47 M239.79 144.85 C265.93 114.78, 292.07 84.7, 307.36 67.11 M239.79 144.85 C256.01 126.18, 272.23 107.52, 307.36 67.11 M244.78 145.21 C258.07 129.92, 271.36 114.63, 307.1 73.51 M244.78 145.21 C264.94 122.01, 285.1 98.82, 307.1 73.51 M250.42 144.81 C264.16 129.01, 277.9 113.2, 307.5 79.15 M250.42 144.81 C271.61 120.44, 292.79 96.07, 307.5 79.15 M255.41 145.17 C270.6 127.7, 285.78 110.23, 307.24 85.55 M255.41 145.17 C272.82 125.14, 290.24 105.11, 307.24 85.55 M260.39 145.53 C273.25 130.74, 286.11 115.95, 306.97 91.95 M260.39 145.53 C274.63 129.15, 288.87 112.77, 306.97 91.95 M266.04 145.14 C281.26 127.62, 296.49 110.11, 307.37 97.59 M266.04 145.14 C276.89 132.65, 287.74 120.17, 307.37 97.59 M271.02 145.5 C282.28 132.55, 293.54 119.59, 307.11 103.99 M271.02 145.5 C283.39 131.27, 295.75 117.05, 307.11 103.99 M276.67 145.1 C282.93 137.9, 289.19 130.7, 307.5 109.63 M276.67 145.1 C288.86 131.08, 301.04 117.06, 307.5 109.63 M281.65 145.46 C291.43 134.22, 301.2 122.97, 307.24 116.03 M281.65 145.46 C287.85 138.34, 294.05 131.21, 307.24 116.03 M287.3 145.07 C291.72 139.98, 296.15 134.89, 306.98 122.43 M287.3 145.07 C291.96 139.7, 296.63 134.33, 306.98 122.43 M292.29 145.43 C295.81 141.38, 299.33 137.33, 307.37 128.07 M292.29 145.43 C297.19 139.79, 302.1 134.14, 307.37 128.07 M297.93 145.03 C300 142.65, 302.08 140.26, 307.11 134.47 M297.93 145.03 C299.78 142.9, 301.64 140.77, 307.11 134.47 M302.92 145.39 C303.96 144.19, 305.01 142.99, 307.51 140.11 M302.92 145.39 C304.63 143.42, 306.34 141.45, 307.51 140.11" stroke="#ced4da" stroke-width="0.5" fill="none"></path><path d="M0 0 C87.15 0, 174.29 0, 307.14 0 M0 0 C70.45 0, 140.9 0, 307.14 0 M307.14 0 C307.14 32.29, 307.14 64.58, 307.14 144.29 M307.14 0 C307.14 51, 307.14 102, 307.14 144.29 M307.14 144.29 C243.09 144.29, 179.03 144.29, 0 144.29 M307.14 144.29 C188.52 144.29, 69.89 144.29, 0 144.29 M0 144.29 C0 109.02, 0 73.74, 0 0 M0 144.29 C0 87.58, 0 30.88, 0 0" stroke="#000000" stroke-width="1" fill="none"></path></g><g stroke-linecap="round" transform="translate(60.624538411917 83.96428571428578) rotate(0 110.71428571428567 20.857142857142833)"><path d="M1.64 0.91 L220.76 -1.69 L221.83 39.92 L-1.14 42.24" stroke="none" stroke-width="0" fill="#228be6"></path><path d="M1.52 -1.6 C72.24 3.5, 143.89 3.03, 220.86 -1.22 M0.66 0.69 C56.83 -2.52, 113.81 -2.36, 222.04 -0.66 M221.29 0.32 C219.91 11.82, 221.37 25.65, 223 42.78 M221.61 0.17 C220.46 11.08, 220.6 23.13, 222.17 40.8 M221.72 41.28 C173.28 41.91, 126.09 40.47, 1.13 43.2 M221.36 42.44 C155.26 40.81, 90.93 39.54, 0.75 41.23 M1.11 42.94 C-1.85 28.86, -0.3 13.28, -0.51 1.86 M-0.72 41.94 C-0.57 26.64, -0.78 11.51, 0.4 -0.96" stroke="#ffffff" stroke-width="1" fill="none"></path></g><g transform="translate(139.41025269763122 92.32142857142856) rotate(0 31.5 12.5)"><text x="31.5" y="18" font-family="Virgil, Segoe UI Emoji" font-size="20px" fill="#ffffff" text-anchor="middle" style="white-space: pre;" direction="ltr">Log In</text></g><g transform="translate(119.91025269763122 28.892857142856997) rotate(0 57 12.5)"><text x="0" y="18" font-family="Virgil, Segoe UI Emoji" font-size="20px" fill="#000000" text-anchor="start" style="white-space: pre;" direction="ltr">example.com</text></g><g stroke-linecap="round" transform="translate(784.374538411917 10) rotate(0 147.8571428571429 90)"><path d="M0 0 C0 0, 0 0, 0 0 M0 0 C0 0, 0 0, 0 0 M-0.26 6.4 C1.72 4.12, 3.71 1.83, 4.99 0.36 M-0.26 6.4 C1.03 4.91, 2.33 3.42, 4.99 0.36 M0.13 12.04 C3.24 8.46, 6.35 4.89, 10.63 -0.03 M0.13 12.04 C2.3 9.55, 4.46 7.06, 10.63 -0.03 M-0.13 18.44 C3.05 14.78, 6.23 11.13, 15.62 0.33 M-0.13 18.44 C4.44 13.18, 9.02 7.92, 15.62 0.33 M0.27 24.08 C6.06 17.42, 11.85 10.76, 21.26 -0.07 M0.27 24.08 C5.11 18.52, 9.94 12.95, 21.26 -0.07 M0 30.48 C6.17 23.38, 12.34 16.29, 26.25 0.29 M0 30.48 C10.23 18.72, 20.45 6.96, 26.25 0.29 M-0.26 36.88 C6.87 28.68, 13.99 20.49, 31.89 -0.1 M-0.26 36.88 C6.88 28.66, 14.02 20.45, 31.89 -0.1 M0.14 42.52 C14.64 25.84, 29.13 9.17, 36.88 0.26 M0.14 42.52 C8.71 32.66, 17.27 22.81, 36.88 0.26 M-0.12 48.92 C9.26 38.13, 18.64 27.34, 42.52 -0.14 M-0.12 48.92 C10.03 37.24, 20.18 25.56, 42.52 -0.14 M0.27 54.56 C12.63 40.35, 24.98 26.14, 47.51 0.22 M0.27 54.56 C15.45 37.1, 30.62 19.65, 47.51 0.22 M0.01 60.96 C14.43 44.36, 28.86 27.77, 53.15 -0.17 M0.01 60.96 C15.75 42.85, 31.49 24.74, 53.15 -0.17 M-0.25 67.36 C21.99 41.77, 44.23 16.19, 58.14 0.19 M-0.25 67.36 C15.2 49.59, 30.64 31.82, 58.14 0.19 M0.14 73 C25 44.4, 49.86 15.81, 63.78 -0.21 M0.14 73 C17.67 52.84, 35.2 32.68, 63.78 -0.21 M-0.12 79.4 C24.8 50.73, 49.72 22.07, 68.77 0.15 M-0.12 79.4 C19.5 56.82, 39.13 34.25, 68.77 0.15 M0.28 85.04 C22.97 58.93, 45.66 32.83, 74.41 -0.24 M0.28 85.04 C16.24 66.68, 32.2 48.32, 74.41 -0.24 M0.01 91.44 C29.96 56.99, 59.91 22.54, 79.4 0.12 M0.01 91.44 C25.01 62.69, 50 33.94, 79.4 0.12 M-0.25 97.84 C30.51 62.45, 61.27 27.07, 85.04 -0.28 M-0.25 97.84 C18.22 76.59, 36.69 55.34, 85.04 -0.28 M0.15 103.48 C23.94 76.12, 47.72 48.75, 90.03 0.08 M0.15 103.48 C26.94 72.66, 53.73 41.84, 90.03 0.08 M-0.11 109.88 C20.09 86.63, 40.3 63.38, 95.67 -0.31 M-0.11 109.88 C32.53 72.32, 65.17 34.77, 95.67 -0.31 M0.28 115.52 C22.89 89.51, 45.51 63.49, 100.66 0.05 M0.28 115.52 C29.31 82.12, 58.35 48.72, 100.66 0.05 M0.02 121.92 C34.87 81.83, 69.72 41.73, 106.3 -0.34 M0.02 121.92 C33.03 83.95, 66.03 45.98, 106.3 -0.34 M-0.24 128.32 C35.94 86.69, 72.13 45.06, 111.29 0.02 M-0.24 128.32 C39.21 82.93, 78.67 37.54, 111.29 0.02 M0.15 133.96 C34.57 94.37, 68.98 54.78, 116.27 0.38 M0.15 133.96 C24.46 106, 48.76 78.05, 116.27 0.38 M-0.11 140.36 C47.68 85.38, 95.47 30.41, 121.92 -0.02 M-0.11 140.36 C32.61 102.72, 65.33 65.08, 121.92 -0.02 M0.29 146 C40.21 100.08, 80.13 54.15, 126.91 0.34 M0.29 146 C48.58 90.45, 96.87 34.89, 126.91 0.34 M0.02 152.4 C42.46 103.58, 84.9 54.76, 132.55 -0.05 M0.02 152.4 C29.13 118.91, 58.24 85.42, 132.55 -0.05 M-0.24 158.8 C40.77 111.62, 81.78 64.44, 137.54 0.31 M-0.24 158.8 C45.54 106.14, 91.31 53.48, 137.54 0.31 M0.16 164.44 C52.77 103.92, 105.37 43.4, 143.18 -0.09 M0.16 164.44 C44.02 113.98, 87.89 63.52, 143.18 -0.09 M-0.1 170.84 C54.84 107.63, 109.79 44.42, 148.17 0.27 M-0.1 170.84 C33.72 131.93, 67.54 93.02, 148.17 0.27 M0.29 176.48 C39.6 131.26, 78.91 86.04, 153.81 -0.12 M0.29 176.48 C36.91 134.36, 73.52 92.23, 153.81 -0.12 M1.34 181.37 C60.42 113.41, 119.5 45.44, 158.8 0.24 M1.34 181.37 C63.73 109.6, 126.12 37.83, 158.8 0.24 M6.98 180.97 C49.58 131.97, 92.18 82.96, 164.44 -0.16 M6.98 180.97 C44.03 138.36, 81.08 95.74, 164.44 -0.16 M11.97 181.33 C69.71 114.91, 127.45 48.49, 169.43 0.2 M11.97 181.33 C47.36 140.63, 82.74 99.92, 169.43 0.2 M17.61 180.94 C74.46 115.54, 131.31 50.14, 175.07 -0.19 M17.61 180.94 C69.28 121.5, 120.94 62.07, 175.07 -0.19 M22.6 181.3 C72.1 124.36, 121.59 67.42, 180.06 0.17 M22.6 181.3 C63.97 133.71, 105.34 86.11, 180.06 0.17 M28.24 180.9 C66.25 137.19, 104.25 93.47, 185.7 -0.23 M28.24 180.9 C69.04 133.97, 109.84 87.04, 185.7 -0.23 M33.23 181.26 C64.95 144.77, 96.67 108.28, 190.69 0.13 M33.23 181.26 C83.66 123.25, 134.09 65.24, 190.69 0.13 M38.22 181.62 C83.96 129, 129.71 76.38, 196.33 -0.26 M38.22 181.62 C98.5 112.28, 158.78 42.93, 196.33 -0.26 M43.86 181.23 C95.1 122.28, 146.34 63.34, 201.32 0.1 M43.86 181.23 C101.86 114.51, 159.85 47.8, 201.32 0.1 M48.85 181.59 C87.88 136.69, 126.91 91.79, 206.96 -0.3 M48.85 181.59 C105.53 116.39, 162.21 51.18, 206.96 -0.3 M54.49 181.2 C117.11 109.16, 179.74 37.12, 211.95 0.06 M54.49 181.2 C92.09 137.94, 129.69 94.69, 211.95 0.06 M59.48 181.56 C110.07 123.36, 160.65 65.17, 217.59 -0.33 M59.48 181.56 C101.49 133.23, 143.5 84.91, 217.59 -0.33 M65.12 181.16 C103.51 137, 141.91 92.83, 222.58 0.03 M65.12 181.16 C116.21 122.38, 167.31 63.61, 222.58 0.03 M70.11 181.52 C114.17 130.84, 158.22 80.16, 228.22 -0.36 M70.11 181.52 C115.75 129.02, 161.39 76.51, 228.22 -0.36 M75.75 181.13 C123.51 126.18, 171.27 71.24, 233.21 0 M75.75 181.13 C119.72 130.55, 163.69 79.96, 233.21 0 M80.74 181.49 C136.96 116.81, 193.18 52.14, 238.19 0.36 M80.74 181.49 C116.04 140.88, 151.34 100.27, 238.19 0.36 M86.38 181.09 C138.32 121.34, 190.26 61.59, 243.84 -0.04 M86.38 181.09 C136.42 123.53, 186.45 65.98, 243.84 -0.04 M91.37 181.45 C147 117.45, 202.64 53.45, 248.82 0.32 M91.37 181.45 C151.19 112.63, 211.01 43.82, 248.82 0.32 M97.01 181.06 C142.85 128.32, 188.7 75.59, 254.47 -0.07 M97.01 181.06 C146.72 123.87, 196.43 66.69, 254.47 -0.07 M102 181.42 C153.92 121.69, 205.84 61.97, 259.45 0.29 M102 181.42 C145.23 131.69, 188.45 81.96, 259.45 0.29 M107.64 181.02 C149.98 132.31, 192.33 83.6, 265.1 -0.11 M107.64 181.02 C156.4 124.93, 205.16 68.84, 265.1 -0.11 M112.63 181.38 C161.84 124.77, 211.05 68.16, 270.08 0.25 M112.63 181.38 C165.78 120.24, 218.93 59.1, 270.08 0.25 M118.27 180.99 C174.8 115.96, 231.33 50.93, 275.73 -0.14 M118.27 180.99 C180.81 109.05, 243.35 37.1, 275.73 -0.14 M123.26 181.35 C185 110.33, 246.73 39.31, 280.71 0.22 M123.26 181.35 C156.25 143.4, 189.23 105.46, 280.71 0.22 M128.9 180.95 C187.37 113.7, 245.84 46.44, 286.36 -0.18 M128.9 180.95 C166.18 138.07, 203.45 95.2, 286.36 -0.18 M133.89 181.31 C168.97 140.95, 204.06 100.59, 291.34 0.18 M133.89 181.31 C171.96 137.52, 210.04 93.72, 291.34 0.18 M139.53 180.92 C191.24 121.43, 242.96 61.94, 296.33 0.54 M139.53 180.92 C194.05 118.2, 248.57 55.48, 296.33 0.54 M144.52 181.28 C193.5 124.93, 242.49 68.58, 296.07 6.94 M144.52 181.28 C204.66 112.09, 264.81 42.91, 296.07 6.94 M150.16 180.88 C204.65 118.2, 259.14 55.52, 296.46 12.58 M150.16 180.88 C180.95 145.46, 211.75 110.04, 296.46 12.58 M155.15 181.24 C208.16 120.26, 261.17 59.28, 296.2 18.98 M155.15 181.24 C204.23 124.78, 253.31 68.32, 296.2 18.98 M160.14 181.6 C194.43 142.15, 228.73 102.7, 296.6 24.63 M160.14 181.6 C210.12 124.1, 260.1 66.6, 296.6 24.63 M165.78 181.21 C208.5 132.07, 251.22 82.92, 296.34 31.02 M165.78 181.21 C215.31 124.23, 264.84 67.26, 296.34 31.02 M170.77 181.57 C199.91 148.04, 229.06 114.51, 296.07 37.42 M170.77 181.57 C210.54 135.82, 250.31 90.06, 296.07 37.42 M176.41 181.18 C211 141.38, 245.59 101.59, 296.47 43.06 M176.41 181.18 C210.78 141.64, 245.15 102.1, 296.47 43.06 M181.4 181.54 C226.92 129.17, 272.44 76.81, 296.21 49.46 M181.4 181.54 C207.45 151.56, 233.51 121.58, 296.21 49.46 M187.04 181.14 C212.59 151.75, 238.14 122.36, 296.6 55.1 M187.04 181.14 C217.15 146.5, 247.26 111.86, 296.6 55.1 M192.03 181.5 C227.2 141.04, 262.37 100.58, 296.34 61.5 M192.03 181.5 C214.88 155.21, 237.73 128.93, 296.34 61.5 M197.67 181.11 C227.32 147, 256.97 112.89, 296.08 67.9 M197.67 181.11 C223.46 151.44, 249.25 121.77, 296.08 67.9 M202.66 181.47 C227.34 153.07, 252.02 124.68, 296.47 73.54 M202.66 181.47 C228.81 151.38, 254.96 121.3, 296.47 73.54 M208.3 181.07 C234.26 151.21, 260.22 121.35, 296.21 79.94 M208.3 181.07 C241.35 143.05, 274.41 105.02, 296.21 79.94 M213.29 181.43 C237.99 153.01, 262.7 124.59, 296.61 85.58 M213.29 181.43 C242.61 147.7, 271.94 113.96, 296.61 85.58 M218.93 181.04 C248.5 147.02, 278.08 113, 296.34 91.98 M218.93 181.04 C238.71 158.28, 258.5 135.52, 296.34 91.98 M223.92 181.4 C250.91 150.35, 277.9 119.3, 296.08 98.38 M223.92 181.4 C241.65 161, 259.37 140.61, 296.08 98.38 M229.56 181 C255.83 150.79, 282.09 120.57, 296.48 104.02 M229.56 181 C253.02 154.01, 276.49 127.02, 296.48 104.02 M234.55 181.36 C255.88 156.82, 277.22 132.27, 296.22 110.42 M234.55 181.36 C254.75 158.12, 274.96 134.87, 296.22 110.42 M240.19 180.97 C258.35 160.08, 276.51 139.19, 296.61 116.06 M240.19 180.97 C252.72 166.56, 265.25 152.14, 296.61 116.06 M245.18 181.33 C259.36 165.02, 273.54 148.71, 296.35 122.46 M245.18 181.33 C256.78 167.98, 268.38 154.63, 296.35 122.46 M250.82 180.93 C261.19 169.01, 271.56 157.08, 296.09 128.86 M250.82 180.93 C261.76 168.36, 272.69 155.78, 296.09 128.86 M255.81 181.29 C269.88 165.11, 283.95 148.92, 296.48 134.5 M255.81 181.29 C269.34 165.73, 282.87 150.16, 296.48 134.5 M261.45 180.9 C273.18 167.41, 284.91 153.91, 296.22 140.9 M261.45 180.9 C271.6 169.23, 281.74 157.55, 296.22 140.9 M266.44 181.26 C276.85 169.28, 287.27 157.29, 296.62 146.54 M266.44 181.26 C275.37 170.98, 284.3 160.71, 296.62 146.54 M271.42 181.62 C279.75 172.04, 288.08 162.46, 296.35 152.94 M271.42 181.62 C278.07 173.98, 284.71 166.33, 296.35 152.94 M277.07 181.23 C284.33 172.87, 291.59 164.52, 296.09 159.34 M277.07 181.23 C283.32 174.04, 289.56 166.85, 296.09 159.34 M282.05 181.59 C285.95 177.1, 289.85 172.61, 296.49 164.98 M282.05 181.59 C287.4 175.44, 292.74 169.29, 296.49 164.98 M287.7 181.19 C290.91 177.5, 294.11 173.81, 296.23 171.38 M287.7 181.19 C290.28 178.22, 292.86 175.26, 296.23 171.38 M292.68 181.55 C293.71 180.37, 294.74 179.18, 296.62 177.02 M292.68 181.55 C293.54 180.56, 294.4 179.57, 296.62 177.02" stroke="#ced4da" stroke-width="0.5" fill="none"></path><path d="M0 0 C88.98 0, 177.96 0, 295.71 0 M0 0 C83.87 0, 167.73 0, 295.71 0 M295.71 0 C295.71 38.08, 295.71 76.16, 295.71 180 M295.71 0 C295.71 40.62, 295.71 81.25, 295.71 180 M295.71 180 C218.8 180, 141.89 180, 0 180 M295.71 180 C225.49 180, 155.27 180, 0 180 M0 180 C0 142.04, 0 104.08, 0 0 M0 180 C0 129.41, 0 78.82, 0 0" stroke="#000000" stroke-width="1" fill="none"></path></g><g stroke-linecap="round" transform="translate(819.374538411917 131.28571428571433) rotate(0 110.71428571428555 20.857142857142833)"><path d="M-0.57 -1.22 C86.09 -2.82, 175.39 0.08, 222.8 -0.28 M0.61 -0.66 C50.57 1.54, 102.05 0.96, 221.57 -0.76 M223 1.07 C221.03 10.79, 219.97 24.1, 221.76 40.23 M222.17 -0.91 C220.32 9.2, 220.62 18.94, 221.18 41.32 M222.56 43.2 C138.68 40.9, 54.64 41.39, 1.46 40.63 M222.18 41.23 C138.23 40.52, 54.29 40.86, 0.53 40.94 M-0.51 43.57 C1.23 26.93, 1.15 7.05, 0.45 -0.38 M0.4 40.76 C0.98 30.09, -0.17 16.72, 0.2 -0.9" stroke="#000000" stroke-width="1" fill="none"></path></g><g transform="translate(832.3031098404886 139.6428571428571) rotate(0 46.5 12.5)"><text x="0" y="18" font-family="Virgil, Segoe UI Emoji" font-size="20px" fill="#000000" text-anchor="start" style="white-space: pre;" direction="ltr">Password</text></g><g stroke-linecap="round" transform="translate(819.374538411917 79.85714285714289) rotate(0 110.71428571428555 20.857142857142833)"><path d="M-0.74 -1.58 C82.58 2.68, 163.08 1.07, 220.2 -0.26 M-0.08 0.53 C55.43 1.4, 109.5 0.69, 221.29 -0.14 M221.1 -1.07 C220.37 15.8, 222.09 29.38, 219.93 40.51 M220.57 -0.18 C221.18 10.52, 221.49 20.3, 222.16 41.46 M221.37 41.09 C155.81 43.24, 94.5 42.28, 1.35 43.24 M221.91 41.85 C170.63 41.13, 119.93 39.88, 0.85 41.61 M1.18 43.55 C1.2 25.26, 0.56 11.28, -0.21 -0.79 M0.82 42.17 C-0.5 29.46, 0.03 17.99, -0.57 0.26" stroke="#000000" stroke-width="1" fill="none"></path></g><g transform="translate(832.3031098404886 88.21428571428567) rotate(0 25 12.5)"><text x="0" y="18" font-family="Virgil, Segoe UI Emoji" font-size="20px" fill="#000000" text-anchor="start" style="white-space: pre;" direction="ltr">Email</text></g><g transform="translate(827.2316812690592 20.499999999999886) rotate(0 79.5 12.5)"><text x="0" y="18" font-family="Virgil, Segoe UI Emoji" font-size="20px" fill="#000000" text-anchor="start" style="white-space: pre;" direction="ltr">login.example.com</text></g><g stroke-linecap="round"><g transform="translate(323.56799079286975 69.62167717293141) rotate(0 229.04653196435981 -1.4579972070688427)"><path d="M-0.28 0.14 C75.95 -0.53, 382.03 -2.55, 458.38 -3.06 M1.77 -0.83 C77.85 -0.82, 382.06 -1.64, 457.98 -1.8" stroke="#087f5b" stroke-width="1" fill="none"></path></g><g transform="translate(323.56799079286975 69.62167717293141) rotate(0 229.04653196435981 -1.4579972070688427)"><path d="M430.06 10.28 C439.61 5.43, 450.58 -0.32, 456.44 -2.61 M430.26 7.84 C440.5 4.77, 450.56 0.77, 457.56 -2.48" stroke="#087f5b" stroke-width="1" fill="none"></path></g><g transform="translate(323.56799079286975 69.62167717293141) rotate(0 229.04653196435981 -1.4579972070688427)"><path d="M430.01 -10.24 C439.75 -7.25, 450.74 -5.16, 456.44 -2.61 M430.22 -12.68 C440.61 -8.49, 450.68 -5.22, 457.56 -2.48" stroke="#087f5b" stroke-width="1" fill="none"></path></g></g><g transform="translate(407.4965622214413 22.011904761904816) rotate(0 136.5 12.5)"><text x="0" y="18" font-family="Virgil, Segoe UI Emoji" font-size="20px" fill="#000000" text-anchor="start" style="white-space: pre;" direction="ltr">OpenID Connect (code flow)</text></g><g transform="translate(401.2465622214413 137.01190476190482) rotate(0 151.5 25)"><text x="0" y="18" font-family="Virgil, Segoe UI Emoji" font-size="20px" fill="#000000" text-anchor="start" style="white-space: pre;" direction="ltr">Back to web app with code</text><text x="0" y="43" font-family="Virgil, Segoe UI Emoji" font-size="20px" fill="#000000" text-anchor="start" style="white-space: pre;" direction="ltr">grant, exchanged for ID token</text></g><g stroke-linecap="round"><g transform="translate(766.25 121.82284763505345) rotate(0 -167.57872164429432 1.6673052952764351)"><path d="M-0.53 0.47 C-56.33 0.77, -278.86 2.44, -334.62 2.86" stroke="#ffffff" stroke-width="1.5" fill="none" stroke-dasharray="8 9"></path></g><g transform="translate(766.25 121.82284763505345) rotate(0 -167.57872164429432 1.6673052952764351)"><path d="M-305.73 -8.28 C-316.21 -6.01, -324.77 -0.12, -333.29 2.05" stroke="#ffffff" stroke-width="1.5" fill="none"></path></g><g transform="translate(766.25 121.82284763505345) rotate(0 -167.57872164429432 1.6673052952764351)"><path d="M-305.57 12.24 C-316.29 8.11, -324.89 7.6, -333.29 2.05" stroke="#ffffff" stroke-width="1.5" fill="none"></path></g></g><g stroke-linecap="round"><g transform="translate(772.5 110.72469034447317) rotate(0 -223.63297357868396 2.9714357939201363)"><path d="M-0.54 -0.11 C-75.51 0.89, -374.06 6.06, -448.65 7.15 M1.38 -1.21 C-73.34 -0.04, -371.48 3.93, -446.57 5.44" stroke="#087f5b" stroke-width="1" fill="none"></path></g><g transform="translate(772.5 110.72469034447317) rotate(0 -223.63297357868396 2.9714357939201363)"><path d="M-418.73 -7.28 C-428.31 -2.16, -440.62 4.14, -445.05 3.53 M-417.91 -5.18 C-428.5 -1.84, -437.03 1.37, -446.61 5.24" stroke="#087f5b" stroke-width="1" fill="none"></path></g><g transform="translate(772.5 110.72469034447317) rotate(0 -223.63297357868396 2.9714357939201363)"><path d="M-418.39 13.24 C-428.3 10.2, -440.75 8.32, -445.05 3.53 M-417.57 15.34 C-428.45 11.84, -437.09 8.22, -446.61 5.24" stroke="#087f5b" stroke-width="1" fill="none"></path></g></g><g transform="translate(805 232.55042881962504) rotate(0 147.5 37.5)"><text x="0" y="18" font-family="Virgil, Segoe UI Emoji" font-size="20px" fill="#000000" text-anchor="start" style="white-space: pre;" direction="ltr">Authorization server handles</text><text x="0" y="43" font-family="Virgil, Segoe UI Emoji" font-size="20px" fill="#000000" text-anchor="start" style="white-space: pre;" direction="ltr">login and security, establishes</text><text x="0" y="68" font-family="Virgil, Segoe UI Emoji" font-size="20px" fill="#000000" text-anchor="start" style="white-space: pre;" direction="ltr">session for user</text></g><g transform="translate(10 283.80042881962504) rotate(0 258 12)"><text x="0" y="19" font-family="Cascadia, Segoe UI Emoji" font-size="20px" fill="#000000" text-anchor="start" style="white-space: pre;" direction="ltr">Set-Cookie: sessionid=f00b43; Max-Age: 86400</text></g><g stroke-linecap="round"><g transform="translate(161.1664124408876 161.55042881962504) rotate(0 -5.360602883999263 60.22618739731615)"><path d="M1 0.3 C-0.65 8.25, -7.22 28.82, -9.21 48.81 C-11.19 68.8, -10.72 108.1, -10.93 120.24 M0.06 -0.58 C-1.74 7.98, -7.82 29.45, -9.78 49.72 C-11.75 69.99, -11.68 108.81, -11.72 121.03" stroke="#000000" stroke-width="1" fill="none"></path></g><g transform="translate(161.1664124408876 161.55042881962504) rotate(0 -5.360602883999263 60.22618739731615)"><path d="M-21.37 93.99 C-19.97 102.72, -16.03 113.58, -10.96 122.47 M-22.86 93.38 C-18.89 100.03, -16.79 105.54, -12.58 120.42" stroke="#000000" stroke-width="1" fill="none"></path></g><g transform="translate(161.1664124408876 161.55042881962504) rotate(0 -5.360602883999263 60.22618739731615)"><path d="M-0.85 94.06 C-6.77 102.94, -10.16 113.77, -10.96 122.47 M-2.33 93.45 C-3.11 100.06, -5.74 105.56, -12.58 120.42" stroke="#000000" stroke-width="1" fill="none"></path></g></g></svg>