<svg version="1.1" xmlns="http://www.w3.org/2000/svg" viewBox="0 0 1110 417.85995262914867" width="1110" height="417.85995262914867">
  <!-- svg-source:excalidraw -->
  
  <defs>
    <style>
      @font-face {
        font-family: "Virgil";
        src: url("https://excalidraw.com/Virgil.woff2");
      }
      @font-face {
        font-family: "Cascadia";
        src: url("https://excalidraw.com/Cascadia.woff2");
      }
    </style>
  </defs>
  <rect x="0" y="0" width="1110" height="417.85995262914867" fill="#ffffff"></rect><g stroke-linecap="round" transform="translate(14.195966983345897 63.166666666666515) rotate(0 153.57142857142844 72.14285714285711)"><path d="M0 0 C0 0, 0 0, 0 0 M0 0 C0 0, 0 0, 0 0 M-0.26 6.4 C1.68 4.16, 3.62 1.93, 4.99 0.36 M-0.26 6.4 C1.51 4.36, 3.27 2.33, 4.99 0.36 M0.13 12.04 C2.65 9.14, 5.18 6.24, 10.63 -0.03 M0.13 12.04 C2.87 8.9, 5.6 5.75, 10.63 -0.03 M-0.13 18.44 C5.72 11.71, 11.58 4.97, 15.62 0.33 M-0.13 18.44 C5.86 11.54, 11.86 4.65, 15.62 0.33 M0.27 24.08 C5.88 17.63, 11.49 11.17, 21.26 -0.07 M0.27 24.08 C6.94 16.4, 13.62 8.72, 21.26 -0.07 M0 30.48 C7.04 22.38, 14.08 14.28, 26.25 0.29 M0 30.48 C9.77 19.25, 19.53 8.02, 26.25 0.29 M-0.26 36.88 C10.83 24.13, 21.91 11.38, 31.89 -0.1 M-0.26 36.88 C8.74 26.52, 17.74 16.17, 31.89 -0.1 M0.14 42.52 C14.34 26.18, 28.55 9.84, 36.88 0.26 M0.14 42.52 C10.32 30.81, 20.5 19.1, 36.88 0.26 M-0.12 48.92 C16.68 29.59, 33.48 10.26, 42.52 -0.14 M-0.12 48.92 C10.77 36.39, 21.66 23.86, 42.52 -0.14 M0.27 54.56 C17.65 34.57, 35.03 14.58, 47.51 0.22 M0.27 54.56 C10.82 42.43, 21.36 30.3, 47.51 0.22 M0.01 60.96 C15.99 42.57, 31.98 24.19, 53.15 -0.17 M0.01 60.96 C14.07 44.78, 28.13 28.61, 53.15 -0.17 M-0.25 67.36 C15.35 49.4, 30.96 31.45, 58.14 0.19 M-0.25 67.36 C23.02 40.59, 46.29 13.82, 58.14 0.19 M0.14 73 C13.81 57.27, 27.48 41.55, 63.78 -0.21 M0.14 73 C21.69 48.21, 43.24 23.42, 63.78 -0.21 M-0.12 79.4 C17.38 59.26, 34.89 39.13, 68.77 0.15 M-0.12 79.4 C24.14 51.5, 48.39 23.6, 68.77 0.15 M0.28 85.04 C18.8 63.73, 37.33 42.42, 74.41 -0.24 M0.28 85.04 C16.55 66.32, 32.82 47.6, 74.41 -0.24 M0.01 91.44 C24.75 62.98, 49.49 34.53, 79.4 0.12 M0.01 91.44 C23.35 64.6, 46.68 37.76, 79.4 0.12 M-0.25 97.84 C32.49 60.17, 65.24 22.51, 85.04 -0.28 M-0.25 97.84 C21.95 72.3, 44.15 46.76, 85.04 -0.28 M0.15 103.48 C30.46 68.61, 60.77 33.74, 90.03 0.08 M0.15 103.48 C35.65 62.64, 71.15 21.8, 90.03 0.08 M-0.11 109.88 C34.25 70.35, 68.6 30.83, 95.67 -0.31 M-0.11 109.88 C31.01 74.07, 62.13 38.27, 95.67 -0.31 M0.28 115.52 C24.62 87.53, 48.95 59.53, 100.66 0.05 M0.28 115.52 C29.11 82.36, 57.94 49.19, 100.66 0.05 M0.02 121.92 C40.44 75.42, 80.87 28.91, 106.3 -0.34 M0.02 121.92 C30.66 86.67, 61.3 51.43, 106.3 -0.34 M-0.24 128.32 C27.94 95.89, 56.13 63.47, 111.29 0.02 M-0.24 128.32 C40.29 81.69, 80.83 35.06, 111.29 0.02 M0.15 133.96 C25.56 104.73, 50.97 75.49, 116.27 0.38 M0.15 133.96 C39.19 89.05, 78.22 44.15, 116.27 0.38 M-0.11 140.36 C25.23 111.21, 50.56 82.07, 121.92 -0.02 M-0.11 140.36 C33.75 101.41, 67.61 62.46, 121.92 -0.02 M0.94 145.25 C39.77 100.57, 78.6 55.9, 126.91 0.34 M0.94 145.25 C34.36 106.8, 67.79 68.35, 126.91 0.34 M6.58 144.85 C39.44 107.06, 72.29 69.26, 132.55 -0.05 M6.58 144.85 C37.32 109.49, 68.06 74.13, 132.55 -0.05 M11.57 145.21 C42.66 109.44, 73.76 73.67, 137.54 0.31 M11.57 145.21 C59.88 89.64, 108.18 34.07, 137.54 0.31 M17.21 144.82 C65.08 89.75, 112.95 34.69, 143.18 -0.09 M17.21 144.82 C59.88 95.73, 102.55 46.65, 143.18 -0.09 M22.2 145.18 C59.58 102.17, 96.97 59.17, 148.17 0.27 M22.2 145.18 C48.56 114.86, 74.91 84.54, 148.17 0.27 M27.19 145.54 C58.46 109.57, 89.72 73.6, 153.81 -0.12 M27.19 145.54 C77.61 87.53, 128.04 29.53, 153.81 -0.12 M32.83 145.14 C68.65 103.94, 104.47 62.73, 158.8 0.24 M32.83 145.14 C79.71 91.21, 126.59 37.29, 158.8 0.24 M37.82 145.5 C83.08 93.44, 128.34 41.37, 164.44 -0.16 M37.82 145.5 C78.34 98.89, 118.86 52.27, 164.44 -0.16 M43.46 145.11 C81.24 101.64, 119.03 58.18, 169.43 0.2 M43.46 145.11 C82.86 99.79, 122.25 54.47, 169.43 0.2 M48.45 145.47 C89.15 98.65, 129.85 51.83, 175.07 -0.19 M48.45 145.47 C94.36 92.65, 140.27 39.84, 175.07 -0.19 M54.09 145.07 C104.22 87.41, 154.35 29.74, 180.06 0.17 M54.09 145.07 C102.27 89.65, 150.44 34.23, 180.06 0.17 M59.08 145.43 C105.02 92.59, 150.95 39.74, 185.7 -0.23 M59.08 145.43 C90.14 109.7, 121.21 73.96, 185.7 -0.23 M64.72 145.04 C102.12 102.02, 139.52 59, 190.69 0.13 M64.72 145.04 C108.01 95.24, 151.3 45.44, 190.69 0.13 M69.71 145.4 C97.52 113.41, 125.32 81.42, 196.33 -0.26 M69.71 145.4 C101.19 109.18, 132.67 72.97, 196.33 -0.26 M75.35 145 C110.53 104.53, 145.71 64.07, 201.32 0.1 M75.35 145 C109.32 105.93, 143.29 66.85, 201.32 0.1 M80.34 145.36 C111.22 109.84, 142.11 74.31, 206.96 -0.3 M80.34 145.36 C120.06 99.67, 159.79 53.97, 206.96 -0.3 M85.98 144.97 C122.73 102.7, 159.47 60.43, 211.95 0.06 M85.98 144.97 C116.81 109.51, 147.64 74.04, 211.95 0.06 M90.97 145.33 C129.19 101.36, 167.41 57.4, 217.59 -0.33 M90.97 145.33 C134.38 95.39, 177.8 45.44, 217.59 -0.33 M96.61 144.93 C127.46 109.45, 158.31 73.96, 222.58 0.03 M96.61 144.93 C129.87 106.67, 163.13 68.41, 222.58 0.03 M101.6 145.29 C136.25 105.44, 170.89 65.58, 228.22 -0.36 M101.6 145.29 C139.49 101.71, 177.37 58.13, 228.22 -0.36 M107.24 144.9 C146.74 99.47, 186.23 54.04, 233.21 0 M107.24 144.9 C149.28 96.54, 191.32 48.18, 233.21 0 M112.23 145.26 C156.76 94.04, 201.28 42.81, 238.19 0.36 M112.23 145.26 C150.88 100.8, 189.53 56.34, 238.19 0.36 M117.87 144.87 C147.65 110.61, 177.43 76.35, 243.84 -0.04 M117.87 144.87 C164.59 91.12, 211.31 37.38, 243.84 -0.04 M122.86 145.23 C166.92 94.54, 210.98 43.85, 248.82 0.32 M122.86 145.23 C167.05 94.39, 211.24 43.56, 248.82 0.32 M128.5 144.83 C155.76 113.47, 183.02 82.11, 254.47 -0.07 M128.5 144.83 C166.73 100.86, 204.95 56.88, 254.47 -0.07 M133.49 145.19 C181.97 89.42, 230.46 33.64, 259.45 0.29 M133.49 145.19 C180.99 90.55, 228.48 35.92, 259.45 0.29 M139.13 144.8 C166.9 112.85, 194.67 80.91, 265.1 -0.11 M139.13 144.8 C185.79 91.12, 232.46 37.44, 265.1 -0.11 M144.12 145.16 C193.91 87.88, 243.7 30.6, 270.08 0.25 M144.12 145.16 C193.56 88.28, 243.01 31.4, 270.08 0.25 M149.11 145.52 C184.49 104.81, 219.88 64.1, 275.73 -0.14 M149.11 145.52 C177.17 113.23, 205.24 80.94, 275.73 -0.14 M154.75 145.12 C183.9 111.59, 213.06 78.05, 280.71 0.22 M154.75 145.12 C200.73 92.23, 246.71 39.33, 280.71 0.22 M159.74 145.48 C208.94 88.88, 258.14 32.28, 286.36 -0.18 M159.74 145.48 C187.34 113.73, 214.94 81.98, 286.36 -0.18 M165.38 145.09 C210.47 93.22, 255.56 41.35, 291.34 0.18 M165.38 145.09 C206.12 98.22, 246.85 51.36, 291.34 0.18 M170.37 145.45 C196.56 115.32, 222.75 85.19, 296.99 -0.21 M170.37 145.45 C212.3 97.21, 254.22 48.98, 296.99 -0.21 M176.01 145.05 C220.53 93.84, 265.05 42.62, 301.97 0.15 M176.01 145.05 C208.42 107.77, 240.84 70.48, 301.97 0.15 M181 145.41 C226.25 93.35, 271.51 41.29, 307.62 -0.25 M181 145.41 C211.87 109.9, 242.74 74.39, 307.62 -0.25 M186.64 145.02 C212.06 115.77, 237.49 86.52, 307.36 6.15 M186.64 145.02 C212.89 114.82, 239.14 84.62, 307.36 6.15 M191.63 145.38 C229.45 101.87, 267.27 58.36, 307.09 12.55 M191.63 145.38 C220.45 112.22, 249.28 79.06, 307.09 12.55 M197.27 144.98 C223.31 115.03, 249.35 85.08, 307.49 18.19 M197.27 144.98 C221.01 117.67, 244.76 90.35, 307.49 18.19 M202.26 145.34 C240.95 100.84, 279.64 56.33, 307.23 24.59 M202.26 145.34 C239.33 102.7, 276.4 60.05, 307.23 24.59 M207.9 144.95 C242.69 104.93, 277.47 64.91, 306.97 30.99 M207.9 144.95 C239.97 108.06, 272.04 71.16, 306.97 30.99 M212.89 145.31 C250.28 102.3, 287.67 59.28, 307.36 36.63 M212.89 145.31 C247.84 105.11, 282.79 64.9, 307.36 36.63 M218.53 144.92 C253.09 105.16, 287.65 65.4, 307.1 43.03 M218.53 144.92 C251.82 106.62, 285.11 68.32, 307.1 43.03 M223.52 145.28 C247.76 117.39, 272 89.51, 307.49 48.67 M223.52 145.28 C242.53 123.41, 261.53 101.54, 307.49 48.67 M229.16 144.88 C244.96 126.7, 260.77 108.52, 307.23 55.07 M229.16 144.88 C249.95 120.97, 270.73 97.06, 307.23 55.07 M234.15 145.24 C262.59 112.52, 291.04 79.8, 306.97 61.47 M234.15 145.24 C253.07 123.48, 271.99 101.71, 306.97 61.47 M239.79 144.85 C263.49 117.58, 287.19 90.32, 307.36 67.11 M239.79 144.85 C256.7 125.4, 273.6 105.95, 307.36 67.11 M244.78 145.21 C257.82 130.21, 270.86 115.2, 307.1 73.51 M244.78 145.21 C264.64 122.36, 284.5 99.52, 307.1 73.51 M250.42 144.81 C262.53 130.88, 274.65 116.94, 307.5 79.15 M250.42 144.81 C264.35 128.79, 278.27 112.77, 307.5 79.15 M255.41 145.17 C271.79 126.32, 288.18 107.48, 307.24 85.55 M255.41 145.17 C268.99 129.55, 282.57 113.92, 307.24 85.55 M260.39 145.53 C273.35 130.63, 286.3 115.73, 306.97 91.95 M260.39 145.53 C275.53 128.12, 290.66 110.71, 306.97 91.95 M266.04 145.14 C276.24 133.4, 286.45 121.66, 307.37 97.59 M266.04 145.14 C276.8 132.76, 287.55 120.39, 307.37 97.59 M271.02 145.5 C280.17 134.98, 289.32 124.45, 307.11 103.99 M271.02 145.5 C279.36 135.91, 287.7 126.32, 307.11 103.99 M276.67 145.1 C282.88 137.96, 289.09 130.81, 307.5 109.63 M276.67 145.1 C285.75 134.66, 294.82 124.22, 307.5 109.63 M281.65 145.46 C290.81 134.93, 299.96 124.41, 307.24 116.03 M281.65 145.46 C288.35 137.77, 295.04 130.07, 307.24 116.03 M287.3 145.07 C294.06 137.29, 300.81 129.52, 306.98 122.43 M287.3 145.07 C292.35 139.26, 297.4 133.45, 306.98 122.43 M292.29 145.43 C295.67 141.54, 299.05 137.65, 307.37 128.07 M292.29 145.43 C297.96 138.9, 303.64 132.36, 307.37 128.07 M297.93 145.03 C300.69 141.86, 303.45 138.68, 307.11 134.47 M297.93 145.03 C300.22 142.4, 302.51 139.76, 307.11 134.47 M302.92 145.39 C304.75 143.28, 306.59 141.17, 307.51 140.11 M302.92 145.39 C304.28 143.83, 305.64 142.26, 307.51 140.11" stroke="#ced4da" stroke-width="0.5" fill="none"></path><path d="M0 0 C63 0, 126.01 0, 307.14 0 M0 0 C118.05 0, 236.11 0, 307.14 0 M307.14 0 C307.14 45.08, 307.14 90.16, 307.14 144.29 M307.14 0 C307.14 33.32, 307.14 66.64, 307.14 144.29 M307.14 144.29 C224.05 144.29, 140.95 144.29, 0 144.29 M307.14 144.29 C191.84 144.29, 76.53 144.29, 0 144.29 M0 144.29 C0 93.82, 0 43.35, 0 0 M0 144.29 C0 95.96, 0 47.63, 0 0" stroke="#000000" stroke-width="1" fill="none"></path></g><g stroke-linecap="round" transform="translate(60.624538411917 133.02380952380963) rotate(0 110.71428571428567 20.85714285714289)"><path d="M0.28 0.21 L221.22 -1.69 L222.25 40.55 L1.18 42.28" stroke="none" stroke-width="0" fill="#228be6"></path><path d="M1.63 1.46 C62.36 1.55, 123.64 -1.23, 221.2 1.46 M-0.01 0.48 C48.35 -1.14, 97.1 -1.38, 221.03 0.11 M220.02 -0.81 C221.65 14.02, 220.53 24.76, 220.87 40.33 M221.31 -0.43 C220.69 13.92, 220.08 27.96, 222.42 41.42 M221.29 41.2 C134.04 42.89, 50.11 40.46, -1.58 43.02 M222.21 42.18 C143.11 41.8, 63.96 42.46, -0.82 42.14 M-0.93 42.03 C0.9 27.63, -1.14 12.56, 1.8 0.7 M-0.24 41.7 C0.02 26.94, 0.89 10.46, 0.77 -0.94" stroke="#ffffff" stroke-width="1" fill="none"></path></g><g transform="translate(139.41025269763122 141.3809523809523) rotate(0 31.5 12.5)"><text x="31.5" y="18" font-family="Virgil, Segoe UI Emoji" font-size="20px" fill="#ffffff" text-anchor="middle" style="white-space: pre;" direction="ltr">Log In</text></g><g transform="translate(101.16025269763122 80.45238095238074) rotate(0 76 12.5)"><text x="0" y="18" font-family="Virgil, Segoe UI Emoji" font-size="20px" fill="#000000" text-anchor="start" style="white-space: pre;" direction="ltr">app.example.com</text></g><g stroke-linecap="round" transform="translate(784.374538411917 59.0595238095234) rotate(0 147.8571428571429 90)"><path d="M0 0 C0 0, 0 0, 0 0 M0 0 C0 0, 0 0, 0 0 M-0.26 6.4 C0.97 4.98, 2.2 3.57, 4.99 0.36 M-0.26 6.4 C1.17 4.75, 2.61 3.1, 4.99 0.36 M0.13 12.04 C4.15 7.42, 8.16 2.8, 10.63 -0.03 M0.13 12.04 C2.46 9.36, 4.79 6.68, 10.63 -0.03 M-0.13 18.44 C5.08 12.45, 10.28 6.46, 15.62 0.33 M-0.13 18.44 C4.54 13.06, 9.22 7.69, 15.62 0.33 M0.27 24.08 C8.38 14.75, 16.49 5.41, 21.26 -0.07 M0.27 24.08 C4.85 18.81, 9.43 13.55, 21.26 -0.07 M0 30.48 C8.18 21.07, 16.36 11.66, 26.25 0.29 M0 30.48 C8.39 20.83, 16.78 11.18, 26.25 0.29 M-0.26 36.88 C6.57 29.02, 13.4 21.17, 31.89 -0.1 M-0.26 36.88 C6.42 29.2, 13.09 21.52, 31.89 -0.1 M0.14 42.52 C12.27 28.56, 24.41 14.6, 36.88 0.26 M0.14 42.52 C11.9 28.99, 23.66 15.46, 36.88 0.26 M-0.12 48.92 C14.06 32.6, 28.25 16.28, 42.52 -0.14 M-0.12 48.92 C16.36 29.96, 32.84 11, 42.52 -0.14 M0.27 54.56 C14.6 38.08, 28.93 21.59, 47.51 0.22 M0.27 54.56 C18.55 33.53, 36.83 12.51, 47.51 0.22 M0.01 60.96 C12.42 46.68, 24.83 32.4, 53.15 -0.17 M0.01 60.96 C11.25 48.02, 22.5 35.09, 53.15 -0.17 M-0.25 67.36 C12.12 53.12, 24.5 38.88, 58.14 0.19 M-0.25 67.36 C12.6 52.57, 25.45 37.79, 58.14 0.19 M0.14 73 C20.24 49.88, 40.33 26.77, 63.78 -0.21 M0.14 73 C19.28 50.98, 38.43 28.96, 63.78 -0.21 M-0.12 79.4 C13.73 63.46, 27.58 47.53, 68.77 0.15 M-0.12 79.4 C15.75 61.15, 31.61 42.89, 68.77 0.15 M0.28 85.04 C29.47 51.46, 58.66 17.88, 74.41 -0.24 M0.28 85.04 C24.95 56.65, 49.63 28.27, 74.41 -0.24 M0.01 91.44 C22.23 65.89, 44.44 40.33, 79.4 0.12 M0.01 91.44 C19.02 69.57, 38.03 47.71, 79.4 0.12 M-0.25 97.84 C33.55 58.96, 67.34 20.09, 85.04 -0.28 M-0.25 97.84 C29.39 63.74, 59.03 29.65, 85.04 -0.28 M0.15 103.48 C20.04 80.59, 39.94 57.7, 90.03 0.08 M0.15 103.48 C34.31 64.18, 68.48 24.88, 90.03 0.08 M-0.11 109.88 C25.35 80.59, 50.81 51.29, 95.67 -0.31 M-0.11 109.88 C23.39 82.84, 46.9 55.8, 95.67 -0.31 M0.28 115.52 C26.67 85.16, 53.07 54.8, 100.66 0.05 M0.28 115.52 C40.03 69.8, 79.77 24.08, 100.66 0.05 M0.02 121.92 C27.59 90.21, 55.15 58.5, 106.3 -0.34 M0.02 121.92 C30.64 86.69, 61.27 51.46, 106.3 -0.34 M-0.24 128.32 C22.71 101.91, 45.67 75.5, 111.29 0.02 M-0.24 128.32 C37.85 84.5, 75.94 40.67, 111.29 0.02 M0.15 133.96 C28.91 100.88, 57.67 67.79, 116.27 0.38 M0.15 133.96 C46.4 80.76, 92.65 27.55, 116.27 0.38 M-0.11 140.36 C38.38 96.08, 76.87 51.8, 121.92 -0.02 M-0.11 140.36 C34.35 100.72, 68.81 61.07, 121.92 -0.02 M0.29 146 C27.58 114.6, 54.88 83.2, 126.91 0.34 M0.29 146 C33.11 108.24, 65.94 70.47, 126.91 0.34 M0.02 152.4 C29.32 118.69, 58.62 84.99, 132.55 -0.05 M0.02 152.4 C52.36 92.19, 104.7 31.98, 132.55 -0.05 M-0.24 158.8 C49.65 101.41, 99.53 44.03, 137.54 0.31 M-0.24 158.8 C29.45 124.64, 59.14 90.48, 137.54 0.31 M0.16 164.44 C31.1 128.84, 62.04 93.25, 143.18 -0.09 M0.16 164.44 C38.28 120.59, 76.4 76.73, 143.18 -0.09 M-0.1 170.84 C29.57 136.69, 59.25 102.55, 148.17 0.27 M-0.1 170.84 C55.11 107.32, 110.32 43.81, 148.17 0.27 M0.29 176.48 C55.36 113.12, 110.44 49.77, 153.81 -0.12 M0.29 176.48 C61.01 106.63, 121.73 36.78, 153.81 -0.12 M1.34 181.37 C41.8 134.83, 82.25 88.29, 158.8 0.24 M1.34 181.37 C47.97 127.73, 94.59 74.1, 158.8 0.24 M6.98 180.97 C65.22 113.98, 123.46 46.99, 164.44 -0.16 M6.98 180.97 C52.83 128.24, 98.67 75.5, 164.44 -0.16 M11.97 181.33 C70.78 113.68, 129.59 46.02, 169.43 0.2 M11.97 181.33 C61.41 124.46, 110.85 67.59, 169.43 0.2 M17.61 180.94 C70.42 120.19, 123.23 59.44, 175.07 -0.19 M17.61 180.94 C76.44 113.27, 135.27 45.59, 175.07 -0.19 M22.6 181.3 C54.89 144.15, 87.19 107, 180.06 0.17 M22.6 181.3 C56.32 142.51, 90.03 103.73, 180.06 0.17 M28.24 180.9 C60.53 143.77, 92.81 106.63, 185.7 -0.23 M28.24 180.9 C71.39 131.27, 114.54 81.64, 185.7 -0.23 M33.23 181.26 C83.77 123.13, 134.3 65, 190.69 0.13 M33.23 181.26 C87.65 118.66, 142.08 56.05, 190.69 0.13 M38.22 181.62 C84.48 128.4, 130.75 75.18, 196.33 -0.26 M38.22 181.62 C91.1 120.79, 143.98 59.96, 196.33 -0.26 M43.86 181.23 C91.79 126.09, 139.72 70.96, 201.32 0.1 M43.86 181.23 C94.02 123.53, 144.18 65.83, 201.32 0.1 M48.85 181.59 C108.29 113.21, 167.74 44.82, 206.96 -0.3 M48.85 181.59 C97.53 125.58, 146.22 69.58, 206.96 -0.3 M54.49 181.2 C94.3 135.4, 134.11 89.6, 211.95 0.06 M54.49 181.2 C102.33 126.16, 150.18 71.12, 211.95 0.06 M59.48 181.56 C122.25 109.34, 185.03 37.12, 217.59 -0.33 M59.48 181.56 C100.33 134.57, 141.17 87.58, 217.59 -0.33 M65.12 181.16 C108.85 130.86, 152.58 80.56, 222.58 0.03 M65.12 181.16 C117.62 120.77, 170.12 60.37, 222.58 0.03 M70.11 181.52 C127.31 115.72, 184.51 49.91, 228.22 -0.36 M70.11 181.52 C111.31 134.12, 152.52 86.72, 228.22 -0.36 M75.75 181.13 C107.96 144.08, 140.16 107.03, 233.21 0 M75.75 181.13 C107.27 144.87, 138.78 108.62, 233.21 0 M80.74 181.49 C118.57 137.97, 156.4 94.45, 238.19 0.36 M80.74 181.49 C128.06 127.05, 175.38 72.61, 238.19 0.36 M86.38 181.09 C129.35 131.67, 172.31 82.24, 243.84 -0.04 M86.38 181.09 C142.72 116.29, 199.05 51.48, 243.84 -0.04 M91.37 181.45 C133.34 133.17, 175.31 84.89, 248.82 0.32 M91.37 181.45 C150.39 113.55, 209.42 45.65, 248.82 0.32 M97.01 181.06 C134.23 138.24, 171.45 95.43, 254.47 -0.07 M97.01 181.06 C131.82 141.02, 166.63 100.97, 254.47 -0.07 M102 181.42 C139.61 138.15, 177.22 94.88, 259.45 0.29 M102 181.42 C163.61 110.54, 225.23 39.66, 259.45 0.29 M107.64 181.02 C149.01 133.43, 190.38 85.84, 265.1 -0.11 M107.64 181.02 C149.47 132.91, 191.29 84.79, 265.1 -0.11 M112.63 181.38 C147.18 141.64, 181.73 101.9, 270.08 0.25 M112.63 181.38 C154.9 132.75, 197.18 84.12, 270.08 0.25 M118.27 180.99 C155.07 138.65, 191.88 96.32, 275.73 -0.14 M118.27 180.99 C169.93 121.56, 221.59 62.13, 275.73 -0.14 M123.26 181.35 C160.18 138.87, 197.1 96.4, 280.71 0.22 M123.26 181.35 C160.41 138.61, 197.56 95.88, 280.71 0.22 M128.9 180.95 C167.5 136.55, 206.11 92.14, 286.36 -0.18 M128.9 180.95 C177.08 125.53, 225.26 70.1, 286.36 -0.18 M133.89 181.31 C192.85 113.49, 251.81 45.67, 291.34 0.18 M133.89 181.31 C186.51 120.78, 239.13 60.24, 291.34 0.18 M139.53 180.92 C187.66 125.56, 235.79 70.19, 296.33 0.54 M139.53 180.92 C179.95 134.42, 220.38 87.92, 296.33 0.54 M144.52 181.28 C189.03 130.07, 233.54 78.87, 296.07 6.94 M144.52 181.28 C192.21 126.41, 239.91 71.55, 296.07 6.94 M150.16 180.88 C185.71 139.99, 221.26 99.09, 296.46 12.58 M150.16 180.88 C194.48 129.91, 238.79 78.93, 296.46 12.58 M155.15 181.24 C198.98 130.82, 242.82 80.4, 296.2 18.98 M155.15 181.24 C203.08 126.1, 251.01 70.96, 296.2 18.98 M160.14 181.6 C213.54 120.17, 266.94 58.74, 296.6 24.63 M160.14 181.6 C204.03 131.11, 247.93 80.61, 296.6 24.63 M165.78 181.21 C206.01 134.93, 246.24 88.66, 296.34 31.02 M165.78 181.21 C202.71 138.73, 239.64 96.24, 296.34 31.02 M170.77 181.57 C208.87 137.74, 246.97 93.9, 296.07 37.42 M170.77 181.57 C202.77 144.76, 234.77 107.95, 296.07 37.42 M176.41 181.18 C204.32 149.07, 232.22 116.97, 296.47 43.06 M176.41 181.18 C203.8 149.67, 231.18 118.17, 296.47 43.06 M181.4 181.54 C209.79 148.87, 238.19 116.21, 296.21 49.46 M181.4 181.54 C205.08 154.3, 228.76 127.06, 296.21 49.46 M187.04 181.14 C230.25 131.44, 273.45 81.74, 296.6 55.1 M187.04 181.14 C227.66 134.42, 268.27 87.7, 296.6 55.1 M192.03 181.5 C223.45 145.35, 254.88 109.2, 296.34 61.5 M192.03 181.5 C227.23 141.01, 262.43 100.52, 296.34 61.5 M197.67 181.11 C233.94 139.38, 270.22 97.65, 296.08 67.9 M197.67 181.11 C228.85 145.24, 260.03 109.38, 296.08 67.9 M202.66 181.47 C227.07 153.38, 251.48 125.3, 296.47 73.54 M202.66 181.47 C237.65 141.21, 272.65 100.95, 296.47 73.54 M208.3 181.07 C234.14 151.34, 259.99 121.61, 296.21 79.94 M208.3 181.07 C242.01 142.29, 275.73 103.51, 296.21 79.94 M213.29 181.43 C240.98 149.57, 268.68 117.71, 296.61 85.58 M213.29 181.43 C238.13 152.86, 262.96 124.29, 296.61 85.58 M218.93 181.04 C247.83 147.79, 276.73 114.54, 296.34 91.98 M218.93 181.04 C242.06 154.43, 265.19 127.83, 296.34 91.98 M223.92 181.4 C241.26 161.44, 258.61 141.49, 296.08 98.38 M223.92 181.4 C242.58 159.93, 261.24 138.46, 296.08 98.38 M229.56 181 C254.56 152.24, 279.56 123.48, 296.48 104.02 M229.56 181 C249.74 157.79, 269.91 134.58, 296.48 104.02 M234.55 181.36 C254.31 158.63, 274.07 135.9, 296.22 110.42 M234.55 181.36 C250.67 162.82, 266.79 144.27, 296.22 110.42 M240.19 180.97 C258.57 159.83, 276.95 138.68, 296.61 116.06 M240.19 180.97 C253.82 165.28, 267.46 149.6, 296.61 116.06 M245.18 181.33 C256.59 168.2, 268.01 155.06, 296.35 122.46 M245.18 181.33 C259.22 165.17, 273.26 149.02, 296.35 122.46 M250.82 180.93 C261 169.23, 271.18 157.52, 296.09 128.86 M250.82 180.93 C263.5 166.35, 276.17 151.77, 296.09 128.86 M255.81 181.29 C264.47 171.33, 273.14 161.36, 296.48 134.5 M255.81 181.29 C269.08 166.02, 282.36 150.75, 296.48 134.5 M261.45 180.9 C272.92 167.7, 284.4 154.5, 296.22 140.9 M261.45 180.9 C274.95 165.37, 288.46 149.83, 296.22 140.9 M266.44 181.26 C274.55 171.93, 282.66 162.59, 296.62 146.54 M266.44 181.26 C272.69 174.07, 278.93 166.89, 296.62 146.54 M271.42 181.62 C278.01 174.04, 284.6 166.46, 296.35 152.94 M271.42 181.62 C277.64 174.47, 283.85 167.32, 296.35 152.94 M277.07 181.23 C284.36 172.84, 291.65 164.45, 296.09 159.34 M277.07 181.23 C284.05 173.19, 291.03 165.16, 296.09 159.34 M282.05 181.59 C286.6 176.35, 291.15 171.12, 296.49 164.98 M282.05 181.59 C287.2 175.67, 292.35 169.75, 296.49 164.98 M287.7 181.19 C289.94 178.61, 292.18 176.03, 296.23 171.38 M287.7 181.19 C289.56 179.05, 291.42 176.91, 296.23 171.38 M292.68 181.55 C294 180.04, 295.31 178.53, 296.62 177.02 M292.68 181.55 C293.92 180.13, 295.16 178.7, 296.62 177.02" stroke="#ced4da" stroke-width="0.5" fill="none"></path><path d="M0 0 C85.39 0, 170.79 0, 295.71 0 M0 0 C73.32 0, 146.65 0, 295.71 0 M295.71 0 C295.71 54.86, 295.71 109.72, 295.71 180 M295.71 0 C295.71 48.14, 295.71 96.29, 295.71 180 M295.71 180 C230.41 180, 165.11 180, 0 180 M295.71 180 C197.98 180, 100.25 180, 0 180 M0 180 C0 119.89, 0 59.78, 0 0 M0 180 C0 129.2, 0 78.4, 0 0" stroke="#000000" stroke-width="1" fill="none"></path></g><g stroke-linecap="round" transform="translate(819.374538411917 180.34523809523807) rotate(0 110.71428571428555 20.85714285714289)"><path d="M-0.22 1.46 C85.38 1.93, 174.39 1.3, 222.38 -0.9 M-0.4 0.11 C61.76 1.2, 123.26 0.32, 221.08 0.04 M220.87 -1.38 C221.73 13.43, 219.66 30.62, 220.57 41.06 M222.42 -0.29 C221.92 13.48, 221.05 27.67, 221.13 40.92 M219.85 43.02 C141.1 39.68, 59.16 41.87, 0.93 42.24 M220.61 42.14 C161.13 42.23, 99.49 42.28, 0.13 42.01 M1.8 42.41 C1.72 28.82, 1.97 17.28, -0.03 -0.36 M0.77 40.77 C-0.15 26.23, -0.39 9.68, 0.41 -0.58" stroke="#000000" stroke-width="1" fill="none"></path></g><g transform="translate(832.3031098404886 188.70238095238074) rotate(0 46.5 12.5)"><text x="0" y="18" font-family="Virgil, Segoe UI Emoji" font-size="20px" fill="#000000" text-anchor="start" style="white-space: pre;" direction="ltr">Password</text></g><g stroke-linecap="round" transform="translate(819.374538411917 128.91666666666652) rotate(0 110.71428571428555 20.85714285714289)"><path d="M-1.38 0.61 C52.04 -1.63, 103.3 -2.51, 221.06 -1.01 M0.02 0.27 C55.48 -0.84, 111.04 -0.2, 222.03 -0.44 M221.94 -2 C219.75 11.27, 220.46 22.36, 222.08 39.85 M222.31 -0.39 C221.85 15.67, 221.55 30.71, 222.1 42.13 M222.38 41.1 C171.67 44.73, 122.27 43.68, -0.46 41.09 M221.7 41.26 C142.97 42.26, 66.26 42.96, -0.11 41.13 M1.44 40.79 C1.31 31.85, -0.4 22.6, 1.48 1.39 M0.14 41.82 C-0.42 29.32, 0.09 18.03, 0.59 0.28" stroke="#000000" stroke-width="1" fill="none"></path></g><g transform="translate(832.3031098404886 137.27380952380918) rotate(0 25 12.5)"><text x="0" y="18" font-family="Virgil, Segoe UI Emoji" font-size="20px" fill="#000000" text-anchor="start" style="white-space: pre;" direction="ltr">Email</text></g><g transform="translate(827.2316812690592 69.5595238095234) rotate(0 79.5 12.5)"><text x="0" y="18" font-family="Virgil, Segoe UI Emoji" font-size="20px" fill="#000000" text-anchor="start" style="white-space: pre;" direction="ltr">login.example.com</text></g><g stroke-linecap="round"><g transform="translate(323.56799079286975 118.68120098245481) rotate(0 228.30862959605247 -0.7832177597516647)"><path d="M0.66 -0.62 C76.74 -1.16, 381.05 -2.82, 457.07 -3.23 M-0.45 1.66 C75.39 1.27, 379.97 -1.44, 455.99 -2.06" stroke="#087f5b" stroke-width="1" fill="none"></path></g><g transform="translate(323.56799079286975 118.68120098245481) rotate(0 228.30862959605247 -0.7832177597516647)"><path d="M426.84 8.02 C436.56 3.64, 446.65 1.18, 456.04 -1.44 M427.93 9.14 C435.18 5.42, 443.16 2.08, 456.24 -3.06" stroke="#087f5b" stroke-width="1" fill="none"></path></g><g transform="translate(323.56799079286975 118.68120098245481) rotate(0 228.30862959605247 -0.7832177597516647)"><path d="M426.67 -12.5 C436.44 -9.7, 446.59 -4.97, 456.04 -1.44 M427.76 -11.38 C434.91 -9.45, 442.94 -7.14, 456.24 -3.06" stroke="#087f5b" stroke-width="1" fill="none"></path></g></g><g transform="translate(407.4965622214413 71.07142857142844) rotate(0 146 12.5)"><text x="0" y="18" font-family="Virgil, Segoe UI Emoji" font-size="20px" fill="#000000" text-anchor="start" style="white-space: pre;" direction="ltr">OpenID Connect (implicit flow)</text></g><g transform="translate(401.2465622214413 186.07142857142844) rotate(0 156.5 25)"><text x="0" y="18" font-family="Virgil, Segoe UI Emoji" font-size="20px" fill="#000000" text-anchor="start" style="white-space: pre;" direction="ltr">Back to web app with ID token</text><text x="0" y="43" font-family="Virgil, Segoe UI Emoji" font-size="20px" fill="#000000" text-anchor="start" style="white-space: pre;" direction="ltr">and access token</text></g><g transform="translate(827.8537050785849 10) rotate(0 101 12.5)"><text x="0" y="18" font-family="Virgil, Segoe UI Emoji" font-size="20px" fill="#000000" text-anchor="start" style="white-space: pre;" direction="ltr">Authorization Server</text></g><g stroke-linecap="round"><g transform="translate(766.25 170.87535332986772) rotate(0 -167.75547080031743 1.6105883890386394)"><path d="M0.15 0.03 C-55.7 0.66, -279.49 2.69, -335.66 3.19" stroke="#ffffff" stroke-width="1.5" fill="none" stroke-dasharray="8 9"></path></g><g transform="translate(766.25 170.87535332986772) rotate(0 -167.75547080031743 1.6105883890386394)"><path d="M-307.51 -6.7 C-315.17 -6.05, -322.55 -1.91, -334.26 2.16" stroke="#ffffff" stroke-width="1.5" fill="none"></path></g><g transform="translate(766.25 170.87535332986772) rotate(0 -167.75547080031743 1.6105883890386394)"><path d="M-307.33 13.82 C-314.94 9.31, -322.37 8.29, -334.26 2.16" stroke="#ffffff" stroke-width="1.5" fill="none"></path></g></g><g stroke-linecap="round"><g transform="translate(772.5 159.7842141539968) rotate(0 -224.40799994389522 3.0791029913376633)"><path d="M0.03 0.37 C-74.5 1.27, -373.08 4.53, -447.74 5.54 M-1.41 -0.48 C-76.08 0.54, -374.26 5.26, -448.85 6.63" stroke="#087f5b" stroke-width="1" fill="none"></path></g><g transform="translate(772.5 159.7842141539968) rotate(0 -224.40799994389522 3.0791029913376633)"><path d="M-420.21 -4.59 C-429.34 -2.17, -434.96 2.76, -449.87 6.15 M-421.83 -4.88 C-428.65 -1.54, -436.48 2.14, -449.78 7.41" stroke="#087f5b" stroke-width="1" fill="none"></path></g><g transform="translate(772.5 159.7842141539968) rotate(0 -224.40799994389522 3.0791029913376633)"><path d="M-419.86 15.93 C-429.11 13.13, -434.81 12.85, -449.87 6.15 M-421.49 15.64 C-428.26 13.4, -436.18 11.49, -449.78 7.41" stroke="#087f5b" stroke-width="1" fill="none"></path></g></g><g transform="translate(805 281.60995262914867) rotate(0 147.5 37.5)"><text x="0" y="18" font-family="Virgil, Segoe UI Emoji" font-size="20px" fill="#000000" text-anchor="start" style="white-space: pre;" direction="ltr">Authorization server handles</text><text x="0" y="43" font-family="Virgil, Segoe UI Emoji" font-size="20px" fill="#000000" text-anchor="start" style="white-space: pre;" direction="ltr">login and security, establishes</text><text x="0" y="68" font-family="Virgil, Segoe UI Emoji" font-size="20px" fill="#000000" text-anchor="start" style="white-space: pre;" direction="ltr">session for user</text></g><g transform="translate(10 332.85995262914867) rotate(0 235.5 37.5)"><text x="0" y="18" font-family="Virgil, Segoe UI Emoji" font-size="20px" fill="#000000" text-anchor="start" style="white-space: pre;" direction="ltr">Store tokens locally with JavaScript</text><text x="0" y="43" font-family="Virgil, Segoe UI Emoji" font-size="20px" fill="#000000" text-anchor="start" style="white-space: pre;" direction="ltr">Use ID token to know who the user is</text><text x="0" y="68" font-family="Virgil, Segoe UI Emoji" font-size="20px" fill="#000000" text-anchor="start" style="white-space: pre;" direction="ltr">Attach access token to outgoing API requests</text></g><g stroke-linecap="round"><g transform="translate(161.1664124408876 210.60995262914867) rotate(0 -5.788209262245232 60.17108042247605)"><path d="M-0.84 -0.48 C-2.55 8.04, -8.11 30.6, -9.86 50.84 C-11.61 71.08, -11.16 109.36, -11.36 120.96 M0.92 -1.78 C-0.98 6.43, -8.55 28.5, -10.78 49.16 C-13 69.81, -12.41 110.14, -12.45 122.13" stroke="#000000" stroke-width="1" fill="none"></path></g><g transform="translate(161.1664124408876 210.60995262914867) rotate(0 -5.788209262245232 60.17108042247605)"><path d="M-23.59 94.06 C-18.03 102.33, -16.49 112.13, -13.83 122.64 M-23.21 93.63 C-20.61 98.68, -18.09 106.23, -12.74 123.01" stroke="#000000" stroke-width="1" fill="none"></path></g><g transform="translate(161.1664124408876 210.60995262914867) rotate(0 -5.788209262245232 60.17108042247605)"><path d="M-3.07 94 C-4.31 102.15, -9.56 111.97, -13.83 122.64 M-2.69 93.58 C-4.19 98.61, -5.78 106.18, -12.74 123.01" stroke="#000000" stroke-width="1" fill="none"></path></g></g></svg>