<svg version="1.1" xmlns="http://www.w3.org/2000/svg" viewBox="0 0 1164.7602312568188 502.5" width="1164.7602312568188" height="502.5">
  <!-- svg-source:excalidraw -->
  
  <defs>
    <style>
      @font-face {
        font-family: "Virgil";
        src: url("https://excalidraw.com/Virgil.woff2");
      }
      @font-face {
        font-family: "Cascadia";
        src: url("https://excalidraw.com/Cascadia.woff2");
      }
    </style>
  </defs>
  <rect x="0" y="0" width="1164.7602312568188" height="502.5" fill="#ffffff"></rect><g stroke-linecap="round" transform="translate(374.76023125681877 10) rotate(0 390 173.125)"><path d="M86.56 0 M86.56 0 C315.37 -1.44, 543 -1.02, 693.44 0 M86.56 0 C241.37 -0.44, 396.13 -0.49, 693.44 0 M693.44 0 C750.5 1.43, 779.61 30.6, 780 86.56 M693.44 0 C751.05 1.92, 781.72 28.34, 780 86.56 M780 86.56 C778.74 140.68, 780.31 195.24, 780 259.69 M780 86.56 C779.92 127.37, 778.65 166.01, 780 259.69 M780 259.69 C778.75 319, 749.46 348.17, 693.44 346.25 M780 259.69 C782.27 319.33, 750.14 346.74, 693.44 346.25 M693.44 346.25 C490.01 348.61, 287.21 348.77, 86.56 346.25 M693.44 346.25 C529.75 347.8, 365.8 348.15, 86.56 346.25 M86.56 346.25 C29.18 348.15, 0.75 315.8, 0 259.69 M86.56 346.25 C28.64 347.98, -0.02 319.67, 0 259.69 M0 259.69 C0.55 224.12, 1.28 187.76, 0 86.56 M0 259.69 C-1.87 195.49, -2.48 133.63, 0 86.56 M0 86.56 C-0.12 27.65, 28.35 -0.47, 86.56 0 M0 86.56 C-1.1 26.57, 30.06 0.37, 86.56 0" stroke="#1864ab" stroke-width="2" fill="none"></path></g><g stroke-linecap="round" transform="translate(15.445966983345897 75.98669035209195) rotate(0 153.57142857142844 72.14285714285711)"><path d="M0 0 C0 0, 0 0, 0 0 M0 0 C0 0, 0 0, 0 0 M-0.26 6.4 C0.89 5.07, 2.04 3.75, 4.99 0.36 M-0.26 6.4 C1.01 4.94, 2.28 3.47, 4.99 0.36 M0.13 12.04 C3.26 8.44, 6.39 4.85, 10.63 -0.03 M0.13 12.04 C3.34 8.35, 6.54 4.67, 10.63 -0.03 M-0.13 18.44 C6.16 11.2, 12.46 3.96, 15.62 0.33 M-0.13 18.44 C5.96 11.43, 12.06 4.42, 15.62 0.33 M0.27 24.08 C6.25 17.2, 12.23 10.32, 21.26 -0.07 M0.27 24.08 C7.83 15.38, 15.39 6.68, 21.26 -0.07 M0 30.48 C7.86 21.44, 15.72 12.4, 26.25 0.29 M0 30.48 C8.42 20.79, 16.84 11.11, 26.25 0.29 M-0.26 36.88 C10.45 24.56, 21.16 12.24, 31.89 -0.1 M-0.26 36.88 C8.68 26.59, 17.62 16.31, 31.89 -0.1 M0.14 42.52 C10.42 30.69, 20.71 18.86, 36.88 0.26 M0.14 42.52 C12.82 27.93, 25.5 13.35, 36.88 0.26 M-0.12 48.92 C16.8 29.45, 33.73 9.98, 42.52 -0.14 M-0.12 48.92 C9.67 37.65, 19.47 26.38, 42.52 -0.14 M0.27 54.56 C17.45 34.8, 34.64 15.03, 47.51 0.22 M0.27 54.56 C10.9 42.33, 21.54 30.1, 47.51 0.22 M0.01 60.96 C12.87 46.17, 25.72 31.38, 53.15 -0.17 M0.01 60.96 C15.96 42.61, 31.91 24.26, 53.15 -0.17 M-0.25 67.36 C19.27 44.9, 38.8 22.44, 58.14 0.19 M-0.25 67.36 C16.7 47.86, 33.65 28.36, 58.14 0.19 M0.14 73 C22.07 47.77, 44 22.55, 63.78 -0.21 M0.14 73 C24.85 44.58, 49.55 16.17, 63.78 -0.21 M-0.12 79.4 C16.15 60.68, 32.42 41.96, 68.77 0.15 M-0.12 79.4 C22.9 52.92, 45.91 26.44, 68.77 0.15 M0.28 85.04 C29.36 51.59, 58.43 18.14, 74.41 -0.24 M0.28 85.04 C23.02 58.87, 45.77 32.7, 74.41 -0.24 M0.01 91.44 C21.81 66.36, 43.61 41.29, 79.4 0.12 M0.01 91.44 C24.95 62.75, 49.89 34.07, 79.4 0.12 M-0.25 97.84 C32.44 60.24, 65.12 22.64, 85.04 -0.28 M-0.25 97.84 C23.91 70.04, 48.07 42.25, 85.04 -0.28 M0.15 103.48 C28.53 70.83, 56.91 38.18, 90.03 0.08 M0.15 103.48 C22.79 77.43, 45.43 51.38, 90.03 0.08 M-0.11 109.88 C31.19 73.87, 62.49 37.86, 95.67 -0.31 M-0.11 109.88 C24.65 81.39, 49.42 52.89, 95.67 -0.31 M0.28 115.52 C39.13 70.83, 77.98 26.14, 100.66 0.05 M0.28 115.52 C33.73 77.05, 67.17 38.57, 100.66 0.05 M0.02 121.92 C36.48 79.97, 72.95 38.02, 106.3 -0.34 M0.02 121.92 C41.25 74.49, 82.48 27.06, 106.3 -0.34 M-0.24 128.32 C41.75 80.01, 83.74 31.7, 111.29 0.02 M-0.24 128.32 C22.92 101.67, 46.08 75.03, 111.29 0.02 M0.15 133.96 C42.34 85.43, 84.53 36.89, 116.27 0.38 M0.15 133.96 C39.71 88.46, 79.26 42.95, 116.27 0.38 M-0.11 140.36 C40.56 93.57, 81.23 46.78, 121.92 -0.02 M-0.11 140.36 C35.17 99.77, 70.45 59.19, 121.92 -0.02 M0.94 145.25 C29.85 111.99, 58.76 78.74, 126.91 0.34 M0.94 145.25 C51.33 87.29, 101.71 29.33, 126.91 0.34 M6.58 144.85 C52.87 91.61, 99.15 38.37, 132.55 -0.05 M6.58 144.85 C38.76 107.84, 70.93 70.83, 132.55 -0.05 M11.57 145.21 C61.28 88.03, 110.99 30.85, 137.54 0.31 M11.57 145.21 C57.35 92.55, 103.12 39.9, 137.54 0.31 M17.21 144.82 C61.29 94.12, 105.36 43.42, 143.18 -0.09 M17.21 144.82 C61.11 94.32, 105 43.83, 143.18 -0.09 M22.2 145.18 C50.25 112.91, 78.29 80.65, 148.17 0.27 M22.2 145.18 C52.72 110.07, 83.24 74.96, 148.17 0.27 M27.19 145.54 C54.1 114.58, 81.01 83.62, 153.81 -0.12 M27.19 145.54 C61.92 105.59, 96.65 65.64, 153.81 -0.12 M32.83 145.14 C69.17 103.34, 105.51 61.54, 158.8 0.24 M32.83 145.14 C78.46 92.66, 124.08 40.17, 158.8 0.24 M37.82 145.5 C69.25 109.34, 100.69 73.18, 164.44 -0.16 M37.82 145.5 C76.17 101.39, 114.52 57.27, 164.44 -0.16 M43.46 145.11 C78.47 104.84, 113.47 64.57, 169.43 0.2 M43.46 145.11 C76.55 107.04, 109.64 68.98, 169.43 0.2 M48.45 145.47 C75.15 114.75, 101.85 84.04, 175.07 -0.19 M48.45 145.47 C95.09 91.81, 141.73 38.16, 175.07 -0.19 M54.09 145.07 C90.33 103.39, 126.56 61.71, 180.06 0.17 M54.09 145.07 C104.15 87.49, 154.21 29.9, 180.06 0.17 M59.08 145.43 C86.31 114.11, 113.53 82.79, 185.7 -0.23 M59.08 145.43 C105.79 91.7, 152.5 37.96, 185.7 -0.23 M64.72 145.04 C105.72 97.88, 146.71 50.72, 190.69 0.13 M64.72 145.04 C94.2 111.12, 123.69 77.21, 190.69 0.13 M69.71 145.4 C99.65 110.96, 129.58 76.52, 196.33 -0.26 M69.71 145.4 C103.49 106.54, 137.27 67.68, 196.33 -0.26 M75.35 145 C101.79 114.59, 128.24 84.17, 201.32 0.1 M75.35 145 C119.99 93.65, 164.63 42.3, 201.32 0.1 M80.34 145.36 C107.14 114.53, 133.94 83.7, 206.96 -0.3 M80.34 145.36 C129.5 88.82, 178.65 32.27, 206.96 -0.3 M85.98 144.97 C120.07 105.76, 154.16 66.54, 211.95 0.06 M85.98 144.97 C130.6 93.64, 175.22 42.31, 211.95 0.06 M90.97 145.33 C133.8 96.06, 176.63 46.79, 217.59 -0.33 M90.97 145.33 C131.94 98.19, 172.92 51.06, 217.59 -0.33 M96.61 144.93 C127.86 108.99, 159.1 73.05, 222.58 0.03 M96.61 144.93 C139.88 95.17, 183.14 45.4, 222.58 0.03 M101.6 145.29 C149.05 90.71, 196.49 36.13, 228.22 -0.36 M101.6 145.29 C130.39 112.18, 159.18 79.06, 228.22 -0.36 M107.24 144.9 C156.83 87.86, 206.42 30.81, 233.21 0 M107.24 144.9 C138.24 109.25, 169.23 73.59, 233.21 0 M112.23 145.26 C155.11 95.93, 197.99 46.61, 238.19 0.36 M112.23 145.26 C152.28 99.18, 192.33 53.11, 238.19 0.36 M117.87 144.87 C164.46 91.28, 211.04 37.69, 243.84 -0.04 M117.87 144.87 C155.66 101.4, 193.45 57.93, 243.84 -0.04 M122.86 145.23 C150.03 113.97, 177.2 82.72, 248.82 0.32 M122.86 145.23 C170.47 90.46, 218.08 35.69, 248.82 0.32 M128.5 144.83 C172.57 94.13, 216.64 43.44, 254.47 -0.07 M128.5 144.83 C173.52 93.05, 218.54 41.26, 254.47 -0.07 M133.49 145.19 C163.95 110.15, 194.42 75.1, 259.45 0.29 M133.49 145.19 C165.48 108.39, 197.47 71.59, 259.45 0.29 M139.13 144.8 C179.19 98.71, 219.25 52.63, 265.1 -0.11 M139.13 144.8 C187.54 89.11, 235.96 33.41, 265.1 -0.11 M144.12 145.16 C171.97 113.12, 199.82 81.08, 270.08 0.25 M144.12 145.16 C189.04 93.48, 233.96 41.81, 270.08 0.25 M149.11 145.52 C195.89 91.7, 242.68 37.88, 275.73 -0.14 M149.11 145.52 C194.82 92.92, 240.54 40.33, 275.73 -0.14 M154.75 145.12 C182.04 113.73, 209.32 82.34, 280.71 0.22 M154.75 145.12 C200.18 92.86, 245.61 40.59, 280.71 0.22 M159.74 145.48 C186.38 114.84, 213.02 84.19, 286.36 -0.18 M159.74 145.48 C208.08 89.86, 256.43 34.25, 286.36 -0.18 M165.38 145.09 C197.19 108.5, 228.99 71.91, 291.34 0.18 M165.38 145.09 C203.79 100.9, 242.2 56.72, 291.34 0.18 M170.37 145.45 C203.01 107.89, 235.66 70.34, 296.99 -0.21 M170.37 145.45 C215.31 93.74, 260.26 42.04, 296.99 -0.21 M176.01 145.05 C202.94 114.08, 229.87 83.1, 301.97 0.15 M176.01 145.05 C212.82 102.71, 249.63 60.36, 301.97 0.15 M181 145.41 C224.02 95.93, 267.03 46.44, 307.62 -0.25 M181 145.41 C219.34 101.3, 257.69 57.19, 307.62 -0.25 M186.64 145.02 C228.46 96.91, 270.27 48.81, 307.36 6.15 M186.64 145.02 C233.66 90.93, 280.68 36.84, 307.36 6.15 M191.63 145.38 C237.25 92.9, 282.87 40.41, 307.09 12.55 M191.63 145.38 C221.87 110.59, 252.12 75.79, 307.09 12.55 M197.27 144.98 C236.65 99.68, 276.03 54.38, 307.49 18.19 M197.27 144.98 C233.39 103.43, 269.51 61.88, 307.49 18.19 M202.26 145.34 C241.5 100.2, 280.74 55.06, 307.23 24.59 M202.26 145.34 C242.43 99.13, 282.61 52.91, 307.23 24.59 M207.9 144.95 C239.04 109.13, 270.18 73.31, 306.97 30.99 M207.9 144.95 C227.9 121.94, 247.91 98.93, 306.97 30.99 M212.89 145.31 C244.69 108.72, 276.5 72.13, 307.36 36.63 M212.89 145.31 C234.6 120.33, 256.31 95.36, 307.36 36.63 M218.53 144.92 C249.2 109.64, 279.86 74.36, 307.1 43.03 M218.53 144.92 C251.41 107.09, 284.29 69.27, 307.1 43.03 M223.52 145.28 C253.36 110.94, 283.21 76.61, 307.49 48.67 M223.52 145.28 C247.18 118.05, 270.85 90.83, 307.49 48.67 M229.16 144.88 C255.92 114.09, 282.68 83.31, 307.23 55.07 M229.16 144.88 C257.17 112.66, 285.18 80.43, 307.23 55.07 M234.15 145.24 C249.64 127.42, 265.13 109.6, 306.97 61.47 M234.15 145.24 C251 125.85, 267.86 106.46, 306.97 61.47 M239.79 144.85 C257 125.05, 274.2 105.26, 307.36 67.11 M239.79 144.85 C263.57 117.49, 287.35 90.14, 307.36 67.11 M244.78 145.21 C263.62 123.53, 282.46 101.86, 307.1 73.51 M244.78 145.21 C262.57 124.74, 280.36 104.27, 307.1 73.51 M250.42 144.81 C272.87 118.99, 295.32 93.16, 307.5 79.15 M250.42 144.81 C267.64 125, 284.87 105.19, 307.5 79.15 M255.41 145.17 C272.44 125.58, 289.47 105.99, 307.24 85.55 M255.41 145.17 C269.13 129.39, 282.85 113.61, 307.24 85.55 M260.39 145.53 C275.83 127.77, 291.27 110.01, 306.97 91.95 M260.39 145.53 C270.82 133.54, 281.24 121.55, 306.97 91.95 M266.04 145.14 C274.6 135.29, 283.17 125.43, 307.37 97.59 M266.04 145.14 C278.61 130.68, 291.17 116.22, 307.37 97.59 M271.02 145.5 C278.33 137.09, 285.64 128.69, 307.11 103.99 M271.02 145.5 C281.75 133.15, 292.48 120.81, 307.11 103.99 M276.67 145.1 C287.91 132.17, 299.15 119.24, 307.5 109.63 M276.67 145.1 C287.54 132.6, 298.4 120.1, 307.5 109.63 M281.65 145.46 C286.79 139.55, 291.93 133.65, 307.24 116.03 M281.65 145.46 C291.02 134.69, 300.38 123.92, 307.24 116.03 M287.3 145.07 C291.98 139.68, 296.66 134.29, 306.98 122.43 M287.3 145.07 C292.67 138.89, 298.04 132.71, 306.98 122.43 M292.29 145.43 C296.54 140.54, 300.79 135.65, 307.37 128.07 M292.29 145.43 C295.86 141.31, 299.44 137.19, 307.37 128.07 M297.93 145.03 C301.38 141.06, 304.83 137.09, 307.11 134.47 M297.93 145.03 C301.07 141.41, 304.22 137.8, 307.11 134.47 M302.92 145.39 C304.12 144.01, 305.32 142.63, 307.51 140.11 M302.92 145.39 C304.67 143.37, 306.43 141.35, 307.51 140.11" stroke="#ced4da" stroke-width="0.5" fill="none"></path><path d="M0 0 C68.18 0, 136.35 0, 307.14 0 M0 0 C67.94 0, 135.87 0, 307.14 0 M307.14 0 C307.14 39.52, 307.14 79.04, 307.14 144.29 M307.14 0 C307.14 33.91, 307.14 67.81, 307.14 144.29 M307.14 144.29 C201.59 144.29, 96.04 144.29, 0 144.29 M307.14 144.29 C223.77 144.29, 140.39 144.29, 0 144.29 M0 144.29 C0 92.76, 0 41.23, 0 0 M0 144.29 C0 93.9, 0 43.51, 0 0" stroke="#000000" stroke-width="1" fill="none"></path></g><g stroke-linecap="round" transform="translate(61.874538411917 145.84383320923507) rotate(0 110.71428571428567 20.85714285714289)"><path d="M-0.35 -1.53 L221.82 -1.93 L223.42 41.62 L-1.7 40.87" stroke="none" stroke-width="0" fill="#228be6"></path><path d="M-1.63 -0.83 C79.24 -1.88, 161.08 -2.27, 221.81 -1.36 M0.55 -0.6 C55.14 0.5, 112.39 0.43, 221.41 -0.23 M219.74 0.06 C221 12.37, 223.1 28.84, 220.76 40.41 M222.09 -0.42 C222.42 13.01, 221.53 26.39, 221.91 42.15 M220.01 42.93 C154.66 44.67, 87.5 42.81, 1.09 41.22 M221.79 41.06 C154.56 41.56, 85.24 41.49, 0.46 42.21 M0.56 42.25 C-1.64 31.39, -0.52 23.43, 0.3 0.98 M0.18 41.08 C-1.38 27.6, -0.84 14.15, -0.81 0.28" stroke="#ffffff" stroke-width="1" fill="none"></path></g><g transform="translate(140.66025269763122 154.20097606637773) rotate(0 31.5 12.5)"><text x="31.5" y="18" font-family="Virgil, Segoe UI Emoji" font-size="20px" fill="#ffffff" text-anchor="middle" style="white-space: pre;" direction="ltr">Log In</text></g><g transform="translate(112.41025269763122 90.77240463780618) rotate(0 60 12.5)"><text x="0" y="18" font-family="Virgil, Segoe UI Emoji" font-size="20px" fill="#000000" text-anchor="start" style="white-space: pre;" direction="ltr">Example App</text></g><g stroke-linecap="round" transform="translate(785.624538411917 71.87954749494929) rotate(0 147.8571428571429 90)"><path d="M0 0 C0 0, 0 0, 0 0 M0 0 C0 0, 0 0, 0 0 M-0.26 6.4 C1.64 4.21, 3.54 2.03, 4.99 0.36 M-0.26 6.4 C1.22 4.69, 2.71 2.98, 4.99 0.36 M0.13 12.04 C4.1 7.47, 8.07 2.91, 10.63 -0.03 M0.13 12.04 C2.81 8.96, 5.49 5.87, 10.63 -0.03 M-0.13 18.44 C3.04 14.8, 6.2 11.15, 15.62 0.33 M-0.13 18.44 C4.32 13.32, 8.77 8.21, 15.62 0.33 M0.27 24.08 C5.46 18.11, 10.65 12.14, 21.26 -0.07 M0.27 24.08 C4.5 19.21, 8.74 14.34, 21.26 -0.07 M0 30.48 C6.64 22.84, 13.28 15.21, 26.25 0.29 M0 30.48 C10.21 18.75, 20.41 7.01, 26.25 0.29 M-0.26 36.88 C10.45 24.56, 21.15 12.25, 31.89 -0.1 M-0.26 36.88 C10.93 24.01, 22.12 11.14, 31.89 -0.1 M0.14 42.52 C12.65 28.12, 25.17 13.73, 36.88 0.26 M0.14 42.52 C7.63 33.91, 15.12 25.29, 36.88 0.26 M-0.12 48.92 C13.8 32.9, 27.73 16.88, 42.52 -0.14 M-0.12 48.92 C12.27 34.66, 24.67 20.4, 42.52 -0.14 M0.27 54.56 C14.37 38.34, 28.47 22.12, 47.51 0.22 M0.27 54.56 C11.8 41.3, 23.32 28.04, 47.51 0.22 M0.01 60.96 C14.91 43.82, 29.8 26.69, 53.15 -0.17 M0.01 60.96 C20.77 37.08, 41.52 13.21, 53.15 -0.17 M-0.25 67.36 C15.61 49.11, 31.48 30.86, 58.14 0.19 M-0.25 67.36 C13.73 51.27, 27.71 35.19, 58.14 0.19 M0.14 73 C19.7 50.5, 39.26 28, 63.78 -0.21 M0.14 73 C17.47 53.06, 34.8 33.13, 63.78 -0.21 M-0.12 79.4 C14.79 62.25, 29.69 45.1, 68.77 0.15 M-0.12 79.4 C16.03 60.83, 32.17 42.25, 68.77 0.15 M0.28 85.04 C21.16 61.01, 42.05 36.98, 74.41 -0.24 M0.28 85.04 C24.35 57.35, 48.42 29.66, 74.41 -0.24 M0.01 91.44 C31.74 54.95, 63.46 18.45, 79.4 0.12 M0.01 91.44 C22.81 65.22, 45.6 39, 79.4 0.12 M-0.25 97.84 C28.63 64.62, 57.51 31.39, 85.04 -0.28 M-0.25 97.84 C16.86 78.15, 33.97 58.47, 85.04 -0.28 M0.15 103.48 C27.05 72.53, 53.96 41.57, 90.03 0.08 M0.15 103.48 C33.41 65.21, 66.68 26.95, 90.03 0.08 M-0.11 109.88 C35.69 68.69, 71.5 27.49, 95.67 -0.31 M-0.11 109.88 C30.25 74.95, 60.61 40.03, 95.67 -0.31 M0.28 115.52 C30.86 80.35, 61.43 45.17, 100.66 0.05 M0.28 115.52 C27.36 84.37, 54.43 53.23, 100.66 0.05 M0.02 121.92 C36.62 79.82, 73.22 37.71, 106.3 -0.34 M0.02 121.92 C37.72 78.55, 75.42 35.18, 106.3 -0.34 M-0.24 128.32 C23.76 100.7, 47.76 73.09, 111.29 0.02 M-0.24 128.32 C31.72 91.55, 63.68 54.78, 111.29 0.02 M0.15 133.96 C42.89 84.79, 85.63 35.63, 116.27 0.38 M0.15 133.96 C41.83 86.01, 83.52 38.06, 116.27 0.38 M-0.11 140.36 C41.62 92.35, 83.35 44.35, 121.92 -0.02 M-0.11 140.36 C40.79 93.31, 81.69 46.26, 121.92 -0.02 M0.29 146 C28.61 113.42, 56.93 80.84, 126.91 0.34 M0.29 146 C30.51 111.23, 60.74 76.45, 126.91 0.34 M0.02 152.4 C27.41 120.89, 54.8 89.38, 132.55 -0.05 M0.02 152.4 C32.38 115.18, 64.73 77.96, 132.55 -0.05 M-0.24 158.8 C34.33 119.03, 68.91 79.26, 137.54 0.31 M-0.24 158.8 C36.58 116.44, 73.41 74.08, 137.54 0.31 M0.16 164.44 C34.77 124.62, 69.38 84.81, 143.18 -0.09 M0.16 164.44 C36.8 122.29, 73.44 80.13, 143.18 -0.09 M-0.1 170.84 C37.04 128.11, 74.18 85.38, 148.17 0.27 M-0.1 170.84 C56.5 105.72, 113.1 40.6, 148.17 0.27 M0.29 176.48 C45.05 124.99, 89.81 73.5, 153.81 -0.12 M0.29 176.48 C50.67 118.53, 101.04 60.58, 153.81 -0.12 M1.34 181.37 C61.8 111.81, 122.27 42.26, 158.8 0.24 M1.34 181.37 C45.98 130.01, 90.63 78.66, 158.8 0.24 M6.98 180.97 C55.78 124.84, 104.58 68.7, 164.44 -0.16 M6.98 180.97 C43.32 139.18, 79.65 97.38, 164.44 -0.16 M11.97 181.33 C55.11 131.71, 98.24 82.09, 169.43 0.2 M11.97 181.33 C65.18 120.13, 118.38 58.92, 169.43 0.2 M17.61 180.94 C58.96 133.37, 100.31 85.8, 175.07 -0.19 M17.61 180.94 C56.81 135.85, 96.01 90.76, 175.07 -0.19 M22.6 181.3 C70.44 126.27, 118.27 71.24, 180.06 0.17 M22.6 181.3 C65.79 131.61, 108.99 81.92, 180.06 0.17 M28.24 180.9 C63.84 139.96, 99.43 99.01, 185.7 -0.23 M28.24 180.9 C72.59 129.89, 116.94 78.87, 185.7 -0.23 M33.23 181.26 C83.3 123.67, 133.37 66.07, 190.69 0.13 M33.23 181.26 C78.3 129.41, 123.38 77.56, 190.69 0.13 M38.22 181.62 C83.7 129.31, 129.17 76.99, 196.33 -0.26 M38.22 181.62 C92.27 119.44, 146.33 57.26, 196.33 -0.26 M43.86 181.23 C94.54 122.93, 145.21 64.64, 201.32 0.1 M43.86 181.23 C96.02 121.23, 148.18 61.23, 201.32 0.1 M48.85 181.59 C87.69 136.91, 126.53 92.23, 206.96 -0.3 M48.85 181.59 C89.44 134.89, 130.03 88.2, 206.96 -0.3 M54.49 181.2 C114.58 112.07, 174.68 42.94, 211.95 0.06 M54.49 181.2 C90.85 139.37, 127.21 97.54, 211.95 0.06 M59.48 181.56 C108.39 125.29, 157.31 69.02, 217.59 -0.33 M59.48 181.56 C117.56 114.74, 175.64 47.93, 217.59 -0.33 M65.12 181.16 C116.24 122.36, 167.35 63.56, 222.58 0.03 M65.12 181.16 C123.53 113.97, 181.93 46.79, 222.58 0.03 M70.11 181.52 C133.19 108.95, 196.27 36.38, 228.22 -0.36 M70.11 181.52 C106.3 139.89, 142.48 98.27, 228.22 -0.36 M75.75 181.13 C113.38 137.84, 151 94.56, 233.21 0 M75.75 181.13 C107.4 144.72, 139.05 108.31, 233.21 0 M80.74 181.49 C119.41 137, 158.08 92.51, 238.19 0.36 M80.74 181.49 C129.65 125.22, 178.56 68.96, 238.19 0.36 M86.38 181.09 C145.23 113.4, 204.07 45.71, 243.84 -0.04 M86.38 181.09 C139.12 120.42, 191.86 59.75, 243.84 -0.04 M91.37 181.45 C137.24 128.68, 183.11 75.92, 248.82 0.32 M91.37 181.45 C137.96 127.85, 184.55 74.26, 248.82 0.32 M97.01 181.06 C134.64 137.78, 172.26 94.49, 254.47 -0.07 M97.01 181.06 C136.47 135.66, 175.93 90.27, 254.47 -0.07 M102 181.42 C163.27 110.94, 224.54 40.45, 259.45 0.29 M102 181.42 C162.16 112.21, 222.33 42.99, 259.45 0.29 M107.64 181.02 C155.76 125.66, 203.89 70.31, 265.1 -0.11 M107.64 181.02 C169.04 110.4, 230.43 39.77, 265.1 -0.11 M112.63 181.38 C160.33 126.51, 208.03 71.64, 270.08 0.25 M112.63 181.38 C172.57 112.43, 232.51 43.47, 270.08 0.25 M118.27 180.99 C166.4 125.63, 214.52 70.27, 275.73 -0.14 M118.27 180.99 C159.03 134.1, 199.78 87.22, 275.73 -0.14 M123.26 181.35 C155.96 143.73, 188.66 106.11, 280.71 0.22 M123.26 181.35 C157.45 142.02, 191.64 102.68, 280.71 0.22 M128.9 180.95 C181.15 120.84, 233.41 60.74, 286.36 -0.18 M128.9 180.95 C180.46 121.65, 232.01 62.34, 286.36 -0.18 M133.89 181.31 C195.16 110.83, 256.43 40.35, 291.34 0.18 M133.89 181.31 C170.27 139.46, 206.66 97.6, 291.34 0.18 M139.53 180.92 C192.54 119.94, 245.54 58.97, 296.33 0.54 M139.53 180.92 C191.24 121.43, 242.95 61.95, 296.33 0.54 M144.52 181.28 C196.66 121.3, 248.8 61.31, 296.07 6.94 M144.52 181.28 C186.36 133.15, 228.2 85.01, 296.07 6.94 M150.16 180.88 C185.12 140.67, 220.08 100.45, 296.46 12.58 M150.16 180.88 C203.43 119.61, 256.69 58.34, 296.46 12.58 M155.15 181.24 C194.67 135.79, 234.18 90.33, 296.2 18.98 M155.15 181.24 C186.17 145.56, 217.19 109.88, 296.2 18.98 M160.14 181.6 C188.82 148.61, 217.51 115.61, 296.6 24.63 M160.14 181.6 C213.7 119.98, 267.27 58.36, 296.6 24.63 M165.78 181.21 C193.98 148.76, 222.19 116.32, 296.34 31.02 M165.78 181.21 C197.67 144.52, 229.57 107.83, 296.34 31.02 M170.77 181.57 C219.44 125.58, 268.11 69.59, 296.07 37.42 M170.77 181.57 C213.56 132.35, 256.35 83.12, 296.07 37.42 M176.41 181.18 C210.18 142.33, 243.95 103.48, 296.47 43.06 M176.41 181.18 C217.84 133.52, 259.26 85.86, 296.47 43.06 M181.4 181.54 C224.01 132.52, 266.61 83.5, 296.21 49.46 M181.4 181.54 C204.5 154.96, 227.61 128.38, 296.21 49.46 M187.04 181.14 C210.75 153.87, 234.45 126.6, 296.6 55.1 M187.04 181.14 C212.47 151.89, 237.9 122.64, 296.6 55.1 M192.03 181.5 C225.07 143.49, 258.12 105.47, 296.34 61.5 M192.03 181.5 C226.06 142.35, 260.09 103.21, 296.34 61.5 M197.67 181.11 C224.51 150.23, 251.36 119.34, 296.08 67.9 M197.67 181.11 C220.24 155.14, 242.81 129.18, 296.08 67.9 M202.66 181.47 C225.63 155.04, 248.6 128.62, 296.47 73.54 M202.66 181.47 C234.08 145.32, 265.51 109.17, 296.47 73.54 M208.3 181.07 C235.8 149.43, 263.31 117.79, 296.21 79.94 M208.3 181.07 C241.25 143.16, 274.21 105.25, 296.21 79.94 M213.29 181.43 C241.25 149.27, 269.21 117.1, 296.61 85.58 M213.29 181.43 C230.78 161.31, 248.27 141.19, 296.61 85.58 M218.93 181.04 C242.92 153.44, 266.92 125.83, 296.34 91.98 M218.93 181.04 C243.75 152.48, 268.58 123.92, 296.34 91.98 M223.92 181.4 C240.54 162.27, 257.17 143.15, 296.08 98.38 M223.92 181.4 C252.62 148.37, 281.33 115.35, 296.08 98.38 M229.56 181 C246.17 161.89, 262.79 142.78, 296.48 104.02 M229.56 181 C245.15 163.07, 260.74 145.14, 296.48 104.02 M234.55 181.36 C254.98 157.86, 275.42 134.35, 296.22 110.42 M234.55 181.36 C253.62 159.43, 272.68 137.49, 296.22 110.42 M240.19 180.97 C252.77 166.49, 265.36 152.02, 296.61 116.06 M240.19 180.97 C256.66 162.03, 273.12 143.08, 296.61 116.06 M245.18 181.33 C260.62 163.57, 276.06 145.8, 296.35 122.46 M245.18 181.33 C256.38 168.44, 267.58 155.56, 296.35 122.46 M250.82 180.93 C266.23 163.21, 281.63 145.49, 296.09 128.86 M250.82 180.93 C268.55 160.54, 286.28 140.14, 296.09 128.86 M255.81 181.29 C270.68 164.19, 285.55 147.08, 296.48 134.5 M255.81 181.29 C270.68 164.19, 285.55 147.08, 296.48 134.5 M261.45 180.9 C269.01 172.21, 276.56 163.52, 296.22 140.9 M261.45 180.9 C269.82 171.27, 278.19 161.64, 296.22 140.9 M266.44 181.26 C272.71 174.04, 278.99 166.82, 296.62 146.54 M266.44 181.26 C274.05 172.5, 281.66 163.74, 296.62 146.54 M271.42 181.62 C278.45 173.54, 285.48 165.45, 296.35 152.94 M271.42 181.62 C277.94 174.12, 284.46 166.63, 296.35 152.94 M277.07 181.23 C282.3 175.21, 287.52 169.2, 296.09 159.34 M277.07 181.23 C283.65 173.66, 290.22 166.09, 296.09 159.34 M282.05 181.59 C286 177.05, 289.94 172.52, 296.49 164.98 M282.05 181.59 C286.24 176.77, 290.43 171.95, 296.49 164.98 M287.7 181.19 C290.03 178.51, 292.36 175.83, 296.23 171.38 M287.7 181.19 C290.91 177.49, 294.13 173.79, 296.23 171.38 M292.68 181.55 C294.03 180.01, 295.37 178.47, 296.62 177.02 M292.68 181.55 C293.78 180.29, 294.87 179.04, 296.62 177.02" stroke="#ced4da" stroke-width="0.5" fill="none"></path><path d="M0 0 C80.43 0, 160.85 0, 295.71 0 M0 0 C62.14 0, 124.29 0, 295.71 0 M295.71 0 C295.71 50.87, 295.71 101.74, 295.71 180 M295.71 0 C295.71 66.02, 295.71 132.04, 295.71 180 M295.71 180 C198.28 180, 100.84 180, 0 180 M295.71 180 C178.62 180, 61.52 180, 0 180 M0 180 C0 139.89, 0 99.77, 0 0 M0 180 C0 143.55, 0 107.11, 0 0" stroke="#000000" stroke-width="1" fill="none"></path></g><g stroke-linecap="round" transform="translate(820.624538411917 193.1652617806635) rotate(0 110.71428571428555 20.85714285714289)"><path d="M0.38 -1.36 C58.05 2.1, 117.08 2.18, 220.24 -1.55 M-0.01 -0.23 C60.84 0.48, 121.34 -0.08, 221.46 -0.15 M220.76 -1.3 C222.09 11.44, 222.06 21.08, 220.59 43.05 M221.91 0.44 C221.37 12.16, 221.98 23.21, 222.13 42.01 M222.51 41.22 C133.14 41.02, 43.88 42.27, -1.3 43.37 M221.88 42.21 C136.03 43.33, 52.24 43.38, 0.23 41.05 M0.3 42.7 C0.68 34.25, -1.42 23.24, -1.27 -1.95 M-0.81 42 C0.01 29.97, 0.37 18.79, 1 -0.05" stroke="#000000" stroke-width="1" fill="none"></path></g><g transform="translate(833.5531098404886 201.52240463780663) rotate(0 46.5 12.5)"><text x="0" y="18" font-family="Virgil, Segoe UI Emoji" font-size="20px" fill="#000000" text-anchor="start" style="white-space: pre;" direction="ltr">Password</text></g><g stroke-linecap="round" transform="translate(820.624538411917 141.73669035209195) rotate(0 110.71428571428555 20.85714285714289)"><path d="M-0.82 1.02 C53.29 2.61, 106.7 -0.04, 220.97 1.09 M0.23 -0.17 C59.05 -0.23, 117.89 0.35, 220.88 0.76 M221.72 1.56 C221.55 17.11, 220.45 32.91, 221.19 41.26 M221.47 0.15 C222.28 12.26, 222.34 26.46, 222.42 42.07 M221.53 41.18 C156.13 41.89, 91.09 42.83, 1.42 40.15 M220.67 41.91 C138.6 43.05, 55.84 42.14, -0.64 41.53 M0.59 43.66 C-1.57 30.79, -1.33 17.22, -0.73 -0.86 M-0.17 40.95 C0.53 28.57, 1.33 17.3, -0.85 -0.42" stroke="#000000" stroke-width="1" fill="none"></path></g><g transform="translate(833.5531098404886 150.09383320923507) rotate(0 25 12.5)"><text x="0" y="18" font-family="Virgil, Segoe UI Emoji" font-size="20px" fill="#000000" text-anchor="start" style="white-space: pre;" direction="ltr">Email</text></g><g transform="translate(828.4816812690592 82.37954749494929) rotate(0 79.5 12.5)"><text x="0" y="18" font-family="Virgil, Segoe UI Emoji" font-size="20px" fill="#000000" text-anchor="start" style="white-space: pre;" direction="ltr">login.example.com</text></g><g stroke-linecap="round"><g transform="translate(324.81799079286975 131.5012246678807) rotate(0 228.0888147602658 -1.2642916623177598)"><path d="M-0.83 -1.08 C75.42 -1.5, 380.72 -1.53, 457.01 -1.77 M0.94 0.97 C77.04 0.14, 380.06 -3.13, 455.89 -3.5" stroke="#087f5b" stroke-width="1" fill="none"></path></g><g transform="translate(324.81799079286975 131.5012246678807) rotate(0 228.0888147602658 -1.2642916623177598)"><path d="M425.99 6.47 C436.34 3.76, 442.42 1.17, 456.43 -3.89 M427.61 6.36 C437.58 4.47, 445.2 -0.26, 456.04 -2.72" stroke="#087f5b" stroke-width="1" fill="none"></path></g><g transform="translate(324.81799079286975 131.5012246678807) rotate(0 228.0888147602658 -1.2642916623177598)"><path d="M425.82 -14.05 C436.35 -11.38, 442.47 -8.6, 456.43 -3.89 M427.44 -14.16 C437.29 -9.6, 444.96 -7.89, 456.04 -2.72" stroke="#087f5b" stroke-width="1" fill="none"></path></g></g><g transform="translate(393.7465622214413 82.64145225685434) rotate(0 178.5 12.5)"><text x="0" y="18" font-family="Virgil, Segoe UI Emoji" font-size="20px" fill="#000000" text-anchor="start" style="white-space: pre;" direction="ltr">OpenID Connect (code flow + PKCE)</text></g><g transform="translate(402.4965622214413 197.64145225685434) rotate(0 151 37.5)"><text x="0" y="18" font-family="Virgil, Segoe UI Emoji" font-size="20px" fill="#000000" text-anchor="start" style="white-space: pre;" direction="ltr">Back to app with code grant, </text><text x="0" y="43" font-family="Virgil, Segoe UI Emoji" font-size="20px" fill="#000000" text-anchor="start" style="white-space: pre;" direction="ltr">exchanged for ID token and</text><text x="0" y="68" font-family="Virgil, Segoe UI Emoji" font-size="20px" fill="#000000" text-anchor="start" style="white-space: pre;" direction="ltr">access token</text></g><g transform="translate(829.1037050785849 22.82002368542544) rotate(0 101 12.5)"><text x="0" y="18" font-family="Virgil, Segoe UI Emoji" font-size="20px" fill="#000000" text-anchor="start" style="white-space: pre;" direction="ltr">Authorization Server</text></g><g transform="translate(144.8179907928702 32.82002368542544) rotate(0 27 12.5)"><text x="0" y="18" font-family="Virgil, Segoe UI Emoji" font-size="20px" fill="#000000" text-anchor="start" style="white-space: pre;" direction="ltr">Client</text></g><g stroke-linecap="round"><g transform="translate(767.5 181.62114501618748) rotate(0 -215.13573230378995 0.22006766173876713)"><path d="M-0.31 0.32 C-71.91 0.35, -358.22 0.17, -429.96 0.12" stroke="#ffffff" stroke-width="1.5" fill="none" stroke-dasharray="8 9"></path></g><g transform="translate(767.5 181.62114501618748) rotate(0 -215.13573230378995 0.22006766173876713)"><path d="M-401.22 -10.51 C-408.98 -9.16, -416.71 -5.1, -431.22 1.87" stroke="#ffffff" stroke-width="1.5" fill="none"></path></g><g transform="translate(767.5 181.62114501618748) rotate(0 -215.13573230378995 0.22006766173876713)"><path d="M-401.24 10.01 C-408.99 5.9, -416.71 4.5, -431.22 1.87" stroke="#ffffff" stroke-width="1.5" fill="none"></path></g></g><g stroke-linecap="round"><g transform="translate(773.75 172.6042378394227) rotate(0 -223.9085699335858 2.4856983047562835)"><path d="M0.32 -0.23 C-74.22 0.71, -372.66 4.3, -447.28 5.37 M-0.97 -1.4 C-75.65 -0.31, -373.61 4.91, -448.14 6.37" stroke="#087f5b" stroke-width="1" fill="none"></path></g><g transform="translate(773.75 172.6042378394227) rotate(0 -223.9085699335858 2.4856983047562835)"><path d="M-420.53 -4.12 C-430.21 -1.05, -437.23 0.84, -446.39 7.94 M-419.36 -4.27 C-427.02 -1.91, -434.48 1.27, -448.37 6.51" stroke="#087f5b" stroke-width="1" fill="none"></path></g><g transform="translate(773.75 172.6042378394227) rotate(0 -223.9085699335858 2.4856983047562835)"><path d="M-420.15 16.4 C-429.89 13.35, -437.02 9.11, -446.39 7.94 M-418.98 16.24 C-426.61 13.14, -434.17 10.84, -448.37 6.51" stroke="#087f5b" stroke-width="1" fill="none"></path></g></g><g transform="translate(806.25 293.1799763145741) rotate(0 141 25)"><text x="0" y="18" font-family="Virgil, Segoe UI Emoji" font-size="20px" fill="#000000" text-anchor="start" style="white-space: pre;" direction="ltr">Authorization server handles</text><text x="0" y="43" font-family="Virgil, Segoe UI Emoji" font-size="20px" fill="#000000" text-anchor="start" style="white-space: pre;" direction="ltr">login and security</text></g><g transform="translate(10 358.1799763145741) rotate(0 235.5 37.5)"><text x="0" y="18" font-family="Virgil, Segoe UI Emoji" font-size="20px" fill="#000000" text-anchor="start" style="white-space: pre;" direction="ltr">Store tokens in protected device storage</text><text x="0" y="43" font-family="Virgil, Segoe UI Emoji" font-size="20px" fill="#000000" text-anchor="start" style="white-space: pre;" direction="ltr">Use ID token to know who the user is</text><text x="0" y="68" font-family="Virgil, Segoe UI Emoji" font-size="20px" fill="#000000" text-anchor="start" style="white-space: pre;" direction="ltr">Attach access token to outgoing API requests</text></g><g stroke-linecap="round"><g transform="translate(162.4164124408876 223.4299763145741) rotate(0 -10.00482199857936 66.85272962695922)"><path d="M-1.01 0.04 C-2.66 8.22, -6.89 26.8, -10.13 49.24 C-13.36 71.68, -18.49 120.74, -20.45 134.69 M0.66 -0.99 C-1.15 7.32, -7.63 28.08, -11.18 50.38 C-14.74 72.69, -18.88 118.96, -20.67 132.84" stroke="#000000" stroke-width="1" fill="none"></path></g><g transform="translate(162.4164124408876 223.4299763145741) rotate(0 -10.00482199857936 66.85272962695922)"><path d="M-27.73 103.35 C-27.02 113.69, -22.18 119.45, -21.97 133.14 M-28.21 104.37 C-25.18 114.45, -22.23 126.17, -20.23 132.88" stroke="#000000" stroke-width="1" fill="none"></path></g><g transform="translate(162.4164124408876 223.4299763145741) rotate(0 -10.00482199857936 66.85272962695922)"><path d="M-7.33 105.59 C-12.34 115.13, -13.23 120.26, -21.97 133.14 M-7.82 106.61 C-12.5 115.97, -17.26 126.85, -20.23 132.88" stroke="#000000" stroke-width="1" fill="none"></path></g></g><g transform="translate(374.76023125681877 467.5) rotate(0 195.5 12.5)"><text x="0" y="18" font-family="Virgil, Segoe UI Emoji" font-size="20px" fill="#862e9c" text-anchor="start" style="white-space: pre;" direction="ltr">* PKCE - Proof Key for Code Exchange</text></g><g transform="translate(1007.2602312568188 377.25) rotate(0 55 17.5)"><text x="0" y="25" font-family="Virgil, Segoe UI Emoji" font-size="28px" fill="#1864ab" text-anchor="start" style="white-space: pre;" direction="ltr">AppAuth</text></g></svg>