<svg version="1.1" xmlns="http://www.w3.org/2000/svg" viewBox="0 0 480.53351955304765 335.0000000000001" width="480.53351955304765" height="335.0000000000001">
  <!-- svg-source:excalidraw -->
  
  <defs>
    <style>
      @font-face {
        font-family: "Virgil";
        src: url("https://excalidraw.com/Virgil.woff2");
      }
      @font-face {
        font-family: "Cascadia";
        src: url("https://excalidraw.com/Cascadia.woff2");
      }
    </style>
  </defs>
  <rect x="0" y="0" width="480.53351955304765" height="335.0000000000001" fill="#ffffff"></rect><g stroke-linecap="round" transform="translate(10 10) rotate(0 123.62430167597768 32.11592178770948)"><path d="M0 0 C0 0, 0 0, 0 0 M0 0 C0 0, 0 0, 0 0 M-0.35 5.85 C2.03 4.14, 3.06 2.6, 4.26 1.05 M0.06 6.29 C1.85 4.53, 3.31 2.31, 4.72 0.43 M1.66 13.14 C2.7 10.27, 6.43 4.83, 11.43 0.88 M-0.12 12.47 C3.68 7.26, 7.06 3.35, 10.58 0.44 M-0.17 20.18 C4.46 11.62, 7.61 6.53, 17.55 1.27 M0.85 18.02 C3.4 14.71, 6.31 10.9, 15.24 -0.31 M0.99 24.18 C3.58 19.45, 9.27 13.4, 21.91 0.28 M0.95 24.31 C6.7 15.96, 12.06 9.17, 21.42 -0.58 M0.46 28.79 C7.84 22.19, 18.85 9.93, 27.21 0.67 M0.18 30.74 C10.44 18.9, 21.3 7.38, 26.07 -0.02 M-0.21 36.46 C10.5 26.03, 18.2 12.68, 31.9 1.62 M-1.22 36.34 C10.62 25.18, 20.24 14.64, 31.19 -1.03 M-1.66 40.8 C12.9 26.55, 28.31 11.77, 36.3 0.76 M-0.8 42.75 C9.11 32.46, 18.44 20.64, 37.48 0.95 M-1.48 48.63 C18.08 29.7, 30.75 10.82, 41.1 -1.99 M-1.03 48.04 C16.32 29.53, 32.85 10.22, 43.49 -0.03 M-0.41 56.5 C12.11 40.25, 25.69 26.33, 49.21 1.34 M1.23 54.09 C14.11 38.48, 25.89 24.81, 47.28 -0.73 M-0.47 60.58 C17.78 40.03, 31.61 20.24, 52.26 -1.38 M0.37 60.14 C16.37 42.29, 33.02 22.15, 53.59 -0.23 M2.88 66.9 C18.05 46.25, 36.25 25.7, 56.51 -0.56 M2.52 65.91 C17.3 46.15, 34.96 24.72, 57.45 -0.27 M6.6 65.2 C18.4 51.05, 33.03 34.72, 65.31 -1.1 M7.18 65.19 C20.87 49.7, 33.19 34.41, 63.39 -0.69 M10.02 66.53 C27.85 45.77, 44.62 28.16, 69.02 -0.58 M11.88 66.2 C23.78 52.52, 36.1 37.71, 69.07 0.21 M18.54 65.22 C29.34 49.74, 42.88 36.58, 75.45 -1.43 M17.58 65.41 C33.37 45.72, 50.12 24.66, 74.44 0.18 M22.92 67.55 C34.92 50.15, 49.19 35.29, 79.78 -1.11 M22.68 64.88 C38.09 48.66, 53.94 30.65, 79.39 0.71 M27.06 66.18 C44.61 50.44, 56.7 30.48, 87.04 -0.35 M28.55 64.63 C47.06 43.82, 66.68 22.19, 84.92 -0.45 M31.93 64.09 C47.14 47.97, 62.24 33.01, 90.01 -1.25 M32.13 65.21 C56.08 40.74, 78.57 14.51, 90.78 0.34 M40.03 64.33 C52.8 48.16, 68.05 29.96, 95.69 0.43 M38.15 65.28 C51.33 51.47, 62.81 37.51, 96.65 -0.8 M43.3 65.84 C58.77 45.03, 78.89 26.42, 99.2 1.18 M43.74 66.27 C58.81 50.02, 72.97 31.8, 99.77 0.32 M47.56 65.24 C71.96 41.04, 94.3 11.91, 106.24 1.48 M48.6 65.89 C66.63 46.59, 82.16 28.52, 106.11 0.54 M52.47 64.72 C69.59 51.07, 81.59 34.68, 111.03 -0.35 M53.66 64.79 C77.22 39.87, 98.62 13.07, 112.02 0.98 M59.94 65.76 C74.92 48.8, 85.85 33.21, 118.07 0.41 M59.24 66.1 C79.07 42.16, 99.71 19.62, 116.74 0.33 M66.1 64.98 C83.55 44.46, 99.87 23.92, 123.4 0.9 M65.7 66.08 C82.58 44.9, 101.55 24.88, 121.33 0.75 M69.71 63.98 C92.67 40.15, 115.68 14.94, 125.76 -1.16 M69.57 65.66 C88.31 45.28, 106.56 25.7, 126.6 0.67 M76.1 65.12 C97.96 42.92, 115.6 19.99, 134.43 -1.04 M76.27 65.07 C96.08 41.82, 118.33 17.82, 132.64 -0.83 M81.62 65.33 C91.53 51.61, 108.14 35.74, 137.13 0.95 M80.21 65.42 C95 49.91, 109.54 34.07, 137.43 0.55 M85.56 63.94 C104.19 45.36, 120.25 25.4, 144.47 1.14 M85.47 65.29 C102.82 46.07, 118.46 27.71, 143.04 -0.09 M90.62 64.48 C113.05 39.49, 133.77 17.15, 149.88 0.43 M91.94 64.35 C113.34 40.58, 135.04 15.65, 148.25 -0.21 M94.81 66.5 C113.24 44.35, 130.09 25.32, 154.07 -1.98 M96 65.9 C110.18 50.86, 123.55 34.34, 154.74 -0.28 M103.91 63.39 C120.28 47.42, 137.49 28.79, 156.94 -0.73 M102.67 64.53 C121.18 42.43, 139.3 22.71, 159.73 0.84 M107.4 66.17 C122 49.06, 136.01 31.25, 166.02 1.47 M108.23 64.65 C128.46 40.46, 151.39 15.64, 164.13 -0.52 M114.89 65.31 C136.18 40.67, 155.54 14.36, 168.43 1.71 M112.44 64.14 C126.41 49.16, 140.97 33.43, 169.19 -0.24 M116.09 66.57 C131.02 49.78, 145.73 32.77, 175.31 -1.36 M117.14 64.91 C134.5 45.7, 153.04 26, 174.69 -0.82 M124.53 65.52 C143.14 45.3, 163.3 20.81, 181.72 0.32 M123.8 65.25 C138.64 48.68, 152.71 31.78, 179.56 -0.79 M128.85 63.62 C140.78 49.93, 159.01 29.24, 187.15 -2.02 M129.39 64.65 C149.63 40.79, 170.98 15.72, 186.07 -1.1 M133.98 66.31 C145.5 51.04, 154.86 39.05, 191.39 1.9 M133.39 65.73 C148.45 48.6, 162.78 33.32, 190.45 -0.54 M138.9 63.53 C157.34 43.21, 175.01 20.36, 194.99 -0.82 M140.24 65.46 C153.07 50.8, 164.9 34.99, 197.07 -0.15 M142.64 67.54 C161.63 47.59, 179.25 24.65, 203.22 1.56 M145.02 64.86 C158.52 49.11, 173.55 30.32, 201.09 -0.61 M150.65 64.76 C173.34 38.73, 195.56 13.91, 206.48 -0.76 M150.61 65.53 C163.16 50.18, 178.54 33.91, 206.61 -0.66 M156.79 65.56 C172.89 46.12, 188.92 27.69, 212.23 0.69 M155.32 65.27 C172.06 45.11, 188.12 26.32, 211.34 -0.51 M161.74 64.08 C181.77 40.46, 204.61 14.57, 217.48 -1.56 M160.07 64.67 C175.53 46.79, 191.67 29.9, 216.75 -0.22 M166.93 64.04 C185.84 44.94, 205.03 21.97, 220.66 0.95 M166.04 66.69 C183.21 43.44, 202.7 22.58, 222.73 0.87 M173.02 66.54 C193.52 39.79, 215.57 17.98, 230.1 -1.66 M171.82 65.28 C189.36 43.87, 208.29 21.67, 227.71 -0.28 M177.78 63.9 C195.14 46.09, 212.37 23.46, 231.95 -1.71 M177.07 64.95 C190.19 47.36, 205.95 31.11, 233.39 0.23 M182.57 63.44 C193.58 51.67, 206.17 38.71, 237.98 0.53 M181.69 65.39 C197.13 48.57, 211.08 31.69, 238.18 -0.46 M186.27 65.35 C199.23 50.15, 208.14 37.47, 244.77 0.95 M187.45 65.02 C198.82 52.67, 209.69 39.12, 243.14 0.89 M191.69 66.41 C209.25 42.38, 226.93 23.7, 246.31 2.38 M193.17 65.63 C211.23 44.83, 229.02 23.7, 248.3 0.24 M195.56 65.89 C215.45 44.41, 232.2 25.5, 249.11 6.21 M198.36 65.95 C216.88 43.38, 237.25 19.91, 248.49 6.58 M202.89 65.32 C214.57 51.09, 228.8 38.29, 249.99 12.6 M202.38 64.25 C219.57 45.35, 238.78 25.52, 248.86 14 M209.01 66.3 C221.72 49.26, 234.52 34.54, 248.72 20.13 M208.11 65.92 C218.75 53.75, 227.92 41.62, 248.19 20.07 M213.9 66.34 C219.25 54.61, 227.28 47.12, 249.84 26.56 M213.09 66.08 C225.22 51.48, 234.88 39.87, 248.47 24.45 M220.22 64.64 C228.46 54.21, 236.23 44.94, 249.85 32.97 M219.17 65.2 C228.07 53.85, 237.4 42.46, 248.84 31.72 M223.68 65.91 C229.37 59.5, 236.56 51.26, 249.04 38.22 M223.69 65.6 C229.4 59.19, 235.42 53.16, 249.06 37.69 M231 66.23 C236.59 56.92, 242.98 48.86, 247.38 42.85 M229.13 65.18 C235.72 57.16, 244.37 48.24, 248.16 44.05 M234.38 64.78 C236.99 63.64, 240.29 57.11, 248.33 51.59 M234.24 65.87 C240.17 59.73, 246.05 52.77, 248 50.65 M240.87 65.62 C241.81 61.01, 246.33 56.97, 249.49 56.79 M239.79 65.39 C242.69 63.25, 244.74 60.33, 248.89 56.14 M244.86 66.03 C246.08 65.45, 245.78 63.9, 247.8 62.44 M244.86 65.94 C246.23 64.34, 246.92 63.16, 248.08 61.81" stroke="#fab005" stroke-width="0.5" fill="none"></path><path d="M1.62 -1.38 C90.38 -1.35, 181.87 -0.27, 246.79 1.55 M-0.68 -0.31 C77.6 0.73, 154.47 2.11, 247.36 0.71 M246.05 0.17 C248.87 19.08, 247.31 41.85, 248.26 62.54 M247.3 0.81 C247.53 16.01, 247.68 32.74, 246.71 64.68 M247.05 63.54 C157.89 63.05, 67.84 64.77, -0.93 63.49 M247.19 64.09 C157.89 63.92, 68.66 63.7, -0.04 63.41 M-1.78 63.47 C0.79 41.98, -0.79 19.16, -0.21 -0.52 M0.62 65.12 C0.37 47.19, -1.36 29.17, 0.41 0.64" stroke="#343a40" stroke-width="1" fill="none"></path></g><g stroke-linecap="round" transform="translate(10 77.75139664804442) rotate(0 123.62430167597768 47.51396648044691)"><path d="M0 0 C0 0, 0 0, 0 0 M0 0 C0 0, 0 0, 0 0 M-0.31 6.88 C1.41 5.69, 1.39 4.18, 4.44 0.24 M-0.48 6.11 C1.44 4.4, 4.01 2.07, 4.62 0.01 M-1.18 13.59 C3.83 7.41, 8.52 5.24, 10.08 1.51 M0.52 12.72 C3.59 8.34, 6.61 5.16, 11.39 -0.41 M1.31 17.99 C4.3 11.73, 14.09 5.51, 15.14 -0.06 M-0.96 17.99 C5.25 11.97, 11.62 4.93, 15.97 -0.49 M-0.23 24.96 C5.28 18, 9.03 14.04, 22.43 1.74 M-0.16 23.27 C5.36 17.6, 11.88 11.91, 22.06 0.75 M-1.98 29.1 C4.12 22.85, 10.33 18.86, 26.15 0.04 M-0.73 31.25 C6.13 22.16, 14.01 14.34, 26.73 0.03 M0.47 36.09 C11.28 22.63, 22.79 8.91, 30.22 0.61 M0.01 37.01 C7.57 26.9, 15.56 17.85, 32.08 0.28 M-1.05 43.12 C10.05 29.8, 20.96 20.83, 38.08 0.06 M1.12 43.04 C8.97 31.81, 19.77 21.89, 37.12 0.24 M-2.02 48.97 C11.07 35.53, 21.61 23.65, 43.12 1.63 M-1.07 49.11 C13.01 32.82, 26.97 17.08, 42.88 -1.03 M0.52 54.54 C16.68 35.67, 29.09 17.97, 46.6 1.01 M-0.46 55.56 C17.28 35.05, 35.02 14.96, 48.09 -0.53 M1.92 60.71 C15.98 40.61, 31.33 20.39, 52.13 -1.82 M0.53 60.95 C12.23 47.75, 24.65 31.69, 52.33 -0.71 M-0.3 68.86 C18.52 45.23, 36.04 23.94, 59.58 -0.83 M-0.58 67.37 C14.3 50.39, 27.15 34.82, 57.69 0.12 M-1.22 74.96 C20.11 49.34, 42.5 26.89, 63.5 -0.08 M0.59 72.27 C14.03 57.08, 25.66 42.06, 63.94 0.36 M-1.32 77.62 C20.63 57.53, 39.56 32.13, 67.1 0.08 M-0.74 79.37 C19.55 57.05, 37.98 33.75, 68.14 0.73 M1.3 84.65 C30.86 51.33, 56.12 17.55, 72.67 -1.19 M0.99 84.91 C23.87 58.65, 48.61 29.89, 73.86 -1.13 M-1.13 92.9 C30.14 58.13, 56.78 28.44, 79.49 0.59 M0.27 92.34 C28.51 59.93, 57.96 26.79, 78.79 0.94 M3.04 97.25 C22.66 71.54, 44.95 44.95, 86.3 -0.93 M1.42 97.07 C27.78 67.14, 53.29 37.45, 85.9 0.16 M8.12 94.75 C30.58 71.04, 49.66 44.54, 89.26 -1.18 M6.48 95.36 C31.13 66.45, 56.29 36.92, 89.11 0.49 M12.36 95.68 C36.73 69.05, 58.96 39.19, 96.3 -0.79 M12.26 97.23 C43 60.57, 75.3 22.78, 96.47 -0.85 M18.32 96.08 C35.55 70.92, 58.86 48.69, 101.16 0.17 M17.38 95.7 C34.01 75.2, 49.84 55.68, 99.76 0.25 M22.79 96.04 C44.57 70.65, 66.97 47.03, 105.76 -1.98 M21.97 96.9 C54.28 59.94, 85.29 24.97, 105.67 -0.62 M27.27 95.58 C60.64 60.14, 94.12 22.71, 110.16 -0.68 M28.82 96.72 C54.47 66.8, 80.71 35.94, 111.49 -0.81 M31.91 96.39 C60.57 62.89, 88.18 31.43, 114.36 1.34 M33.02 96.35 C51.33 74.65, 70.3 53.17, 115.55 0.74 M37.92 97.7 C57.41 73.58, 75.96 49.66, 123.46 -1.77 M39.17 94.9 C66.66 62.16, 96.98 28.63, 122.21 -0.63 M45.53 98.06 C75.22 61.52, 103.41 27.21, 126.94 1.01 M43 96.98 C69.75 68, 93.66 38.79, 127.77 -0.51 M48.44 95.17 C68.41 73.9, 89.01 47.8, 134.44 0.15 M48.51 95.3 C81.56 59.26, 113.15 23.67, 131.98 -1.02 M55.7 95.68 C76.92 67.11, 101.5 41.91, 135.63 1.41 M53.65 96.27 C75.93 70.15, 98.89 43.45, 136.69 -0.25 M58.21 95 C79.75 72.19, 101.64 46.96, 144.73 -0.4 M59.5 96.59 C87.78 61.91, 117.23 28.65, 144 -0.67 M66.64 95.14 C95.57 57.9, 132.02 22.2, 148.4 -1.54 M63.86 96.85 C79.83 76.99, 97.01 57.38, 148.93 -0.51 M69.2 97.23 C87.59 72.59, 110.96 49.93, 154.18 0.4 M69.81 96.83 C99.66 64.39, 126.14 32.42, 153.59 -0.19 M76.84 95.62 C98.9 69.1, 126.35 39.68, 158.44 -1.64 M74.63 95.42 C99.51 68.4, 123.92 40.62, 159.78 0.3 M78.53 97.93 C113.49 59.1, 145.95 22.26, 162.84 1.62 M79.73 97.4 C106.59 65.63, 133.05 35.11, 165.22 -1.05 M84.97 95.6 C105.62 73.74, 127.2 47.11, 170.19 -0.4 M86.15 95.81 C113.84 63.64, 141.41 32.4, 170.16 0.37 M92.59 95.71 C107.26 75.46, 127.68 53.9, 176.99 -0.35 M91.21 96.55 C124.75 57.9, 157.59 20.39, 175.52 -0.64 M95.94 94.81 C125.11 65.14, 153.27 31.17, 181.28 -1.08 M96.7 95.96 C115.81 72.94, 136.1 50.81, 179.62 -0.5 M103.65 94.71 C120.22 76.45, 136.79 55.12, 187.13 -1.88 M101.49 95.42 C131.64 61.59, 161.54 27.55, 186.24 0.77 M106.87 96.28 C130.76 72.64, 148.3 45.77, 192.56 1.37 M107.73 96.92 C135.53 63.26, 163.51 31.74, 191.36 0.11 M111.19 95.33 C131.49 74.53, 149.06 51.08, 197.98 -2.02 M111.46 95.71 C139.83 62.89, 169.51 31.33, 197.27 -0.96 M117.1 96.32 C141.27 68.54, 161.31 44.67, 202.12 -1.72 M118.82 95.84 C138.99 71.53, 159.12 47.61, 201.23 0.23 M123.91 96.28 C146.03 66.39, 173.14 41.54, 206.47 -0.57 M122.65 96.77 C153.3 62.61, 181.38 31.01, 207.65 -0.89 M130.19 94.52 C155.16 67.47, 178.19 39.21, 211.24 1.25 M128.7 94.98 C149.73 74.21, 168.33 52.33, 212.71 0.47 M133.72 96.54 C162.82 60.42, 197.44 25.23, 215.76 -0.02 M134.23 96.55 C161.82 64.69, 191.05 31.27, 218.56 0.04 M139.92 95.74 C162.29 67.52, 186.15 38.61, 222.44 0.16 M140.23 96.72 C158.56 74.09, 179.27 50.32, 221.93 -0.92 M145.78 97.36 C165.27 73.6, 184.22 50.43, 229.21 0.39 M144.01 96.58 C173.12 63.36, 200.96 31.73, 228.31 0 M148.29 96.14 C182.36 58.3, 213.23 25.29, 233.45 1.18 M149.41 96.55 C169.86 75.33, 188.03 54.86, 232.63 0.92 M156.43 96.29 C183.66 63.24, 215.31 28.07, 239.76 -0.53 M155.44 97.04 C182.58 66.23, 209.23 35.85, 238.71 0.03 M159.52 97.15 C185.37 67.2, 210.48 40.25, 243.22 0.75 M160.4 96.04 C182.61 69.41, 204.04 44.37, 243.23 0.44 M167.25 97.15 C186.31 73.78, 205.4 49.71, 249.89 1.82 M164.6 95.71 C193.99 64.09, 223.4 30.48, 248.01 0.77 M170.04 95.48 C190.13 72.91, 208.02 51.91, 248.02 6.41 M170.48 95.92 C191.21 73.75, 210.39 49.63, 247.87 7.5 M175.03 96.04 C199.43 71.21, 221.09 43.54, 249.77 13.38 M175.24 96.95 C192.2 78.99, 205.63 61.42, 248.12 13.03 M182.5 97.13 C206.59 66.47, 228.54 40.15, 247.89 20.4 M181.07 94.98 C208.42 66.29, 233.19 35.4, 247.89 20.04 M185.79 95.36 C209.01 69.2, 233.67 43.06, 249.5 24.71 M187.73 96.76 C210.25 69.59, 232.75 44.38, 247.74 26.1 M191.12 96.13 C206.67 78.79, 225.43 57.4, 247.34 31.22 M192.09 95.9 C208.32 78.1, 224.49 58.91, 247.52 32.53 M196.76 97.76 C215.48 71.92, 235.52 48.24, 247.54 39.01 M198.07 95.75 C210.31 79.76, 224.33 64.05, 247.91 36.7 M202.3 97.52 C209.86 85.29, 219.76 74.68, 249.54 45.2 M201.55 97.21 C213.9 81.15, 226.97 67.55, 249.06 42.64 M206.39 96.19 C219.2 80.18, 234.72 67.45, 249.92 51.49 M208.92 96.11 C225.05 77.56, 238.88 60.84, 248.12 49.4 M212.7 95.9 C227.81 80.86, 241.13 66.75, 249.54 56.2 M212.66 96.8 C221.52 85.6, 229.99 75.52, 249.13 55.87 M220.35 95.89 C225.68 87.23, 231.6 81.53, 246.85 60.39 M218.57 96.68 C229.84 83.1, 242.06 69.47, 247.99 62.64 M221.85 94.39 C233.56 84.1, 242.97 73.65, 247.6 68.35 M223.39 95.91 C231.41 87.45, 237.72 81.16, 248.97 67.34 M229.53 96.36 C235.93 88.47, 243.28 80.09, 246.81 73.49 M229.97 95.88 C235.54 87.94, 243.55 80.16, 248.32 74.22 M233.49 95.38 C237.67 89.69, 243.93 84.4, 246.55 78.83 M234.89 96.9 C236.92 92.43, 240.27 90.37, 248.81 79.52 M239.99 96.88 C242.95 93.99, 246.21 90.59, 248.9 86.75 M239.76 96.46 C242.57 91.92, 246.81 88.97, 248.59 85.58 M245.07 95.86 C246.12 95.1, 246.3 94.85, 248.23 92.59 M244.78 96.28 C246.41 94.9, 247.48 93.15, 248.01 92.45" stroke="#15aabf" stroke-width="0.5" fill="none"></path><path d="M-1.49 -0.1 C76.95 -0.27, 151.08 0.5, 247.21 1.43 M-0.66 0.79 C74.95 0.7, 149.37 0.81, 248.05 -0.35 M248.36 -0.75 C246.24 27.17, 247.1 58.9, 247.97 95.12 M247.4 0.33 C247.87 21.66, 247.49 43.98, 247.94 95.25 M246.61 95.29 C169.16 94.08, 92.92 93.17, 0.38 93.64 M247.18 95.42 C185.84 96.95, 123.66 95.84, 0.14 95.24 M1.36 94.67 C-0.86 67.85, 1.3 38.39, 0.04 -0.41 M-0.56 95.03 C0.6 62.39, -0.13 28.53, -0.96 -0.53" stroke="#343a40" stroke-width="1" fill="none"></path></g><g stroke-linecap="round" transform="translate(10 177.1787709497211) rotate(0 123.62430167597768 73.91061452513952)"><path d="M0 0 C0 0, 0 0, 0 0 M0 0 C0 0, 0 0, 0 0 M0.09 6.35 C1.59 3.59, 4.31 2.56, 5.71 0.08 M-0.59 6.25 C1.47 4.64, 3.51 2.7, 5.32 -0.03 M-0.97 11.3 C3.05 7.35, 8.9 2.53, 10.43 -0.8 M0.75 11.68 C2.92 8.96, 6.06 4.89, 10.42 0.65 M-0.91 17.48 C4.09 11.58, 8.94 6.83, 16.33 -0.68 M0 18.07 C3.09 13.37, 7.3 9.34, 16 0.02 M0.87 24.19 C5.8 17.42, 15.09 9.63, 21.07 -0.95 M0.78 23.49 C6.5 17.58, 13.56 9.92, 21.25 -0.59 M0.06 31.32 C7.75 21.1, 17.11 10.45, 28.01 0.57 M0.19 29.86 C5.3 23.93, 10.82 17.57, 25.35 0.55 M-0.28 38.06 C9.32 22.73, 20.02 11.35, 32.68 1.3 M0.74 36.84 C12.6 23.17, 24.94 9.39, 31.14 0.04 M-0.11 42.17 C12.35 25.19, 24.62 10.61, 35.23 -1.02 M0.13 41.85 C10.23 31.26, 17.54 20.95, 36.34 0.43 M1.38 49.44 C13.56 31.77, 28.07 17.04, 41.5 -1.27 M-0.11 49.29 C12.17 33.16, 25.91 18.79, 42.45 0.11 M2.23 53.59 C12.93 41.2, 26.82 25.75, 47.63 -1.64 M-0.46 55.13 C12.8 38.14, 26.18 24.04, 48.07 0.26 M-1.77 61.51 C22.75 36.17, 41.98 12.22, 53.08 -0.51 M-0.02 61.87 C21.03 37.02, 41.13 12.44, 53.73 0.67 M-0.64 69.14 C14.3 47.79, 28.79 29.71, 57.19 0.75 M-0.38 67.17 C22.68 42.56, 43.3 17.19, 57.25 0.77 M1.6 74.93 C20.25 49.63, 44.03 25.71, 64.26 0.98 M1.04 73.02 C20.75 51.51, 39.78 27.67, 64.6 -0.59 M0.81 79.31 C22.93 52.98, 44.19 28.02, 68.11 0.4 M0.62 79.86 C21.19 55.46, 42.04 33.1, 69.21 -0.15 M-0.91 86.57 C24.65 55.71, 47.43 29.88, 73.15 -0.2 M-0.3 84.29 C21.84 59.01, 43.36 33.42, 74.82 -0.36 M-0.59 92.1 C23.01 64.05, 43.44 40.15, 78.92 1.76 M0.96 90.95 C27.3 60.72, 52.49 31.79, 78.86 -0.48 M-0.07 96.29 C25.76 66.89, 54.62 33.42, 85.16 -2.22 M-0.45 98.16 C28.62 62.23, 58.8 27.24, 85.24 -0.66 M-0.07 103.96 C28.44 71.16, 58.8 36.65, 88.4 1.52 M0.79 104.09 C25.51 74.49, 52.27 43.77, 89.75 0.95 M-0.4 109.87 C24.76 84.27, 48.03 54.59, 94.97 -0.04 M0.74 109.96 C26.52 79.83, 51.28 50.39, 94.84 0.11 M0.45 114.56 C28.43 80.88, 58.71 47.43, 101.63 -1.41 M0.41 114.59 C26.8 84.64, 53.11 54.86, 101.02 -0.58 M1.89 121.6 C39.61 76.1, 77.24 34.48, 104.55 0.6 M-0.91 121.43 C35.62 80.43, 71.69 38.09, 105.69 0.19 M1.63 129.53 C21.63 101.21, 43.78 75.41, 111.95 0.09 M0.55 129.13 C33.79 90.43, 66.68 53.92, 110.44 -0.61 M-0.47 133.24 C33.9 96.13, 63.92 59.54, 116.48 1.95 M-0.35 134.71 C34.81 95.64, 70.25 54.38, 115.31 0.24 M-0.59 139.48 C38.61 92.66, 81.41 44.34, 123.02 -0.64 M0.01 139.77 C37.65 97.15, 74.87 52.48, 121.36 -0.56 M-0.48 144.74 C28.63 113.88, 55.92 81.94, 126.6 1.2 M1.12 146.07 C46.16 92.92, 93.13 38.27, 126.32 1.27 M1.01 148.22 C42.43 103.89, 85.13 55.49, 130.74 -2.04 M2.72 149.23 C52.31 92.65, 102.65 35.53, 131.77 -0.71 M8.39 147.99 C47.88 104.87, 88.91 56.02, 138.06 1.01 M7.99 150.62 C36.6 116.66, 65.1 84.88, 137.47 0.21 M12.16 148.75 C44.42 115.65, 73.65 77.85, 141.3 -0.33 M11.95 149.82 C47.94 111.2, 82.66 71.92, 143.24 0.8 M19.75 149.92 C55.97 108.09, 93.99 63.63, 149.94 0.52 M19.22 150.43 C67.86 93.55, 118 35.36, 147.27 -0.15 M22.8 148.65 C73.24 95.29, 118.44 43.24, 153.2 0.49 M23.01 149.83 C55.87 111.27, 89.82 73.71, 153.98 -1.01 M28.2 148.93 C78.61 92.47, 128.03 34.32, 158.63 2.1 M29.04 149.98 C62.75 109.69, 97.97 70.05, 158.34 0.67 M32.68 148.89 C62.35 118.8, 87.5 91.38, 163.19 -1.37 M33.83 149.42 C76.65 100.59, 120.26 51.22, 163.77 -1 M37.86 149.86 C77.34 104.9, 113.49 65.46, 167.77 1.32 M38.57 150.1 C83.38 98.92, 128.47 47.52, 170.42 -0.27 M44.81 151.68 C75.73 113.18, 103.77 81.68, 176.31 0.53 M45.45 149.35 C71.72 116.31, 100.69 85.14, 175.05 -0.89 M49.14 149.77 C94.43 98.51, 136.9 51.46, 178.3 0.97 M49.53 148.75 C91.66 102.46, 135.17 54.61, 179.35 -0.21 M55.52 150.43 C78.45 119.18, 105.82 91.27, 183.88 -1.15 M55.03 150.05 C97.4 99.47, 139.94 51.81, 185.83 -0.25 M60.76 147.94 C103.41 99.73, 150.53 49.02, 190.41 1.07 M61.25 150.06 C90.8 115.4, 122.29 82.61, 190.09 0.2 M64.38 151.79 C118.89 88.77, 171.74 29.31, 197.51 -1.56 M64.84 150.58 C94.6 117.88, 122.73 87.38, 196.73 0.49 M71.68 147.86 C118.55 96.63, 166.78 39.03, 201.62 0.85 M71.69 149.28 C109.73 106.54, 146.14 64.04, 201.68 -0.01 M76.27 149.61 C125.49 91.52, 174.21 34.5, 207.09 -1.58 M77.25 149.63 C117.2 103.33, 156.11 55.74, 206.01 -0.96 M83.16 151.26 C124.35 100.14, 166.71 50.51, 212.7 0.75 M82.39 149.8 C113.7 112.71, 146.67 75.58, 212.31 0.81 M87.33 150.97 C122.02 109.61, 161.46 66.95, 218.77 -1.92 M87.74 150.56 C114.66 120.26, 142.03 88.43, 218.51 0.24 M92.76 148.06 C127.05 111.58, 158.57 75.25, 221.69 0.46 M93.52 150.17 C129.7 108.16, 165.89 66.92, 222.25 -0.06 M99.01 150.16 C132.75 110.85, 169.19 68.21, 229.01 -1.05 M97.9 150.34 C143.44 95.83, 190.77 41.47, 228.7 -0.92 M104.28 150.42 C149.15 96.54, 193.21 46.82, 233.95 0.85 M102.84 149.06 C135.03 115.1, 165.47 77.98, 232.9 -0.67 M108 150.69 C144.64 106.45, 183.36 60.4, 237.88 -0.46 M108.44 150.58 C160.3 92.15, 210.03 33.18, 238.98 0.46 M113.19 151.47 C159.45 98.53, 203.55 46.54, 244.1 -1.97 M114.09 151.04 C144.21 115.01, 174.77 79.25, 243.75 0.55 M120.32 151.3 C164.45 94.33, 213.02 39.8, 249.05 3.06 M118.16 150.57 C170.28 92.78, 219.39 36.5, 248.69 1.89 M123.17 148.29 C151.88 118.83, 179.91 89.32, 248.12 8.12 M124.57 150.55 C157.04 110.38, 191.7 70.91, 249.5 6.61 M129.22 147.94 C158.8 117.9, 184.75 83.53, 247.97 13.02 M129 150.19 C176.38 96.66, 222.11 43.37, 249.27 14.09 M136.23 148.44 C178.76 96.33, 223.82 45.03, 249.85 18.92 M134.22 149.47 C174.67 103.08, 214.71 57.01, 247.54 18.61 M141.28 147.78 C177.44 105.25, 215.14 65.29, 250.04 24.49 M140.97 149 C171.68 112.24, 205.61 74.41, 247.48 25.3 M145.33 148.96 C181.37 109.33, 220.85 65.89, 249.67 33.39 M145.25 151.01 C167.08 122.74, 190.56 98.19, 247.58 32.26 M150.32 151.2 C176 121.81, 202.83 91.42, 249.13 36.11 M151.22 149.18 C171.95 123.41, 194.37 98.92, 248.8 36.21 M155.69 151.09 C181.13 118.58, 209.83 84.49, 246.66 45.26 M156.48 149.57 C175.58 128.38, 194.24 105.57, 248.91 44.44 M159.47 149.81 C181.11 125.53, 203.31 99.68, 248.72 49.46 M160.99 150.55 C185.1 121.4, 211.73 92.52, 247.7 50.41 M166.83 150.3 C197.43 114.78, 228.05 75.86, 247.85 56.75 M166.35 149.67 C197.65 113.56, 229.64 75.84, 248.58 55.94 M171.13 148.44 C194.66 123.48, 218.05 94.46, 246.53 60.1 M172.65 149.58 C201.04 115.37, 232.01 81.3, 247.23 62.37 M178.53 150.27 C202.92 123.95, 226.13 96.77, 249.55 69.26 M177.87 148.96 C193.48 131.4, 211.41 111.81, 247.75 67.18 M180.99 151.13 C202.19 125.04, 225.22 102.93, 248.6 76.05 M182.66 150.37 C203.38 126.73, 222.42 103.18, 248.05 74.95 M188.87 148.9 C200.25 131.57, 217.08 117.36, 246.68 82.2 M187.72 149.24 C206.52 127.79, 227.85 103.2, 248.01 79.97 M191.99 151.15 C207.96 132.61, 223.23 113.56, 249.92 84.83 M192.6 149.69 C213.69 126.84, 233.61 102.44, 248.11 85.41 M200.2 148.33 C214.77 130.92, 232.94 111.1, 249.43 91.91 M199.13 149.47 C212.67 134.74, 226.36 118.27, 249.06 93.5 M204.4 148.97 C217.71 134.28, 232.43 115.87, 247.74 100.14 M204.16 149.9 C219.64 132.01, 234.92 113.36, 248.97 99.15 M209.16 148.88 C220.64 136.11, 232.39 123.46, 249.3 106.21 M208.98 150.72 C223.91 132.81, 239.39 114.19, 247.72 103.87 M213.73 150.3 C224.65 138.41, 231.44 126.6, 246.95 112.68 M214.13 150.04 C223.49 138.54, 230.79 129.66, 248.13 111.45 M220.66 151.13 C231.31 136.43, 240.48 126.55, 247.71 115.41 M218.74 149.22 C226.5 143.68, 232.36 135.96, 247.59 116.06 M224.14 148.82 C232.35 143.14, 237.35 134.26, 248.68 121.08 M224.75 149.54 C230.78 143.49, 237.99 135.44, 248.68 123.48 M229.9 149.84 C233 146.98, 237.04 140.66, 249.39 127.02 M229.5 149.33 C237.87 142.41, 244.56 133.18, 249.36 127.69 M237.02 149.14 C237.87 146.96, 245.41 139.99, 248.39 134.48 M235.37 150.19 C238.04 147.71, 240.59 142.72, 248.33 135.82 M240.58 148.79 C241.69 148.77, 243.87 144.98, 247.84 140.93 M240.9 150.19 C243.24 147.5, 245.24 144.65, 247.59 141.07" stroke="#ced4da" stroke-width="0.5" fill="none"></path><path d="M-0.29 -0.51 C80.71 -0.12, 159.54 -1.34, 246.91 0.74 M0 0.71 C81.12 1.25, 161.23 0.36, 246.81 0.66 M245.84 -1.85 C248.88 37.76, 246.34 76.19, 245.53 147.15 M246.96 0.25 C247.96 35.68, 248.93 72.02, 247.48 147.05 M248.23 148.96 C150.85 146.41, 52.89 146.59, -0.24 149.33 M246.67 147.06 C181.32 146.98, 114.79 145.95, -0.72 148.09 M1.94 148.04 C-1.52 108.82, 0.79 65.69, 1.94 -0.22 M0.85 148.38 C-0.83 100.54, -0.44 53.11, -0.47 0.93" stroke="#343a40" stroke-width="1" fill="none"></path></g><g transform="translate(56.546089385465166 29.79748603351959) rotate(0 77.07821229050273 12.318435754189942)"><text x="77.0782122905027" y="17.636871508379883" font-family="Virgil, Segoe UI Emoji" font-size="19.70949720670392px" fill="#343a40" text-anchor="middle" style="white-space: pre;" direction="ltr">OpenID Connect</text></g><g transform="translate(82.59078212292843 112.9469273743016) rotate(0 51.03351955307261 12.318435754189935)"><text x="51.03351955307259" y="17.636871508379883" font-family="Virgil, Segoe UI Emoji" font-size="19.70949720670387px" fill="#343a40" text-anchor="middle" style="white-space: pre;" direction="ltr">OAuth 2.0</text></g><g transform="translate(105.81983240221598 240.53072625698215) rotate(0 27.804469273742995 12.318435754189949)"><text x="27.80446927374301" y="17.636871508379883" font-family="Virgil, Segoe UI Emoji" font-size="19.709497206703894px" fill="#343a40" text-anchor="middle" style="white-space: pre;" direction="ltr">HTTP</text></g><g stroke-linecap="round"><g transform="translate(321.3968979889112 45.12077643386647) rotate(0 -30.132029310509722 0.23723514384645483)"><path d="M0.84 0.99 C-9.25 0.83, -51.1 -0.41, -61.11 -0.52" stroke="#343a40" stroke-width="1.5" fill="none" stroke-dasharray="8 9"></path></g><g transform="translate(321.3968979889112 45.12077643386647) rotate(0 -30.132029310509722 0.23723514384645483)"><path d="M-31.05 -11.3 C-41.36 -5.51, -47.21 -4.36, -60.69 0.24" stroke="#343a40" stroke-width="1.5" fill="none"></path></g><g transform="translate(321.3968979889112 45.12077643386647) rotate(0 -30.132029310509722 0.23723514384645483)"><path d="M-31.49 9.22 C-41.78 9.77, -47.51 5.7, -60.69 0.24" stroke="#343a40" stroke-width="1.5" fill="none"></path></g></g><g transform="translate(331.15921787707 31.117318435754214) rotate(0 69.68715083798884 12.318435754189942)"><text x="0" y="17.636871508379883" font-family="Virgil, Segoe UI Emoji" font-size="19.709497206703908px" fill="#e67700" text-anchor="start" style="white-space: pre;" direction="ltr">Authentication</text></g><g transform="translate(339.958100558659 109.42737430167585) rotate(0 64.40782122905023 12.318435754189935)"><text x="0" y="17.636871508379883" font-family="Virgil, Segoe UI Emoji" font-size="19.70949720670388px" fill="#0b7285" text-anchor="start" style="white-space: pre;" direction="ltr">Authorization</text></g><g stroke-linecap="round"><g transform="translate(332.00718122580133 120.15708828735069) rotate(0 -35.65231134838018 0.3881529548098115)"><path d="M0.74 0.59 C-11.15 0.57, -59.75 -0.01, -72.04 0.26" stroke="#343a40" stroke-width="1.5" fill="none" stroke-dasharray="8 9"></path></g><g transform="translate(332.00718122580133 120.15708828735069) rotate(0 -35.65231134838018 0.3881529548098115)"><path d="M-42.9 -9.9 C-52.17 -8.84, -55.68 -5.52, -71.54 0.38" stroke="#343a40" stroke-width="1.5" fill="none"></path></g><g transform="translate(332.00718122580133 120.15708828735069) rotate(0 -35.65231134838018 0.3881529548098115)"><path d="M-42.84 10.62 C-52.19 6.75, -55.7 5.13, -71.54 0.38" stroke="#343a40" stroke-width="1.5" fill="none"></path></g></g></svg>