<svg version="1.1" xmlns="http://www.w3.org/2000/svg" viewBox="0 0 1269.8286832372964 759.3883140633047" width="3809.4860497118893" height="2278.164942189914">
  <!-- svg-source:excalidraw -->
  
  <defs>
    <style>
      @font-face {
        font-family: "Virgil";
        src: url("https://excalidraw.com/Virgil.woff2");
      }
      @font-face {
        font-family: "Cascadia";
        src: url("https://excalidraw.com/Cascadia.woff2");
      }
    </style>
  </defs>
  <rect x="0" y="0" width="1269.8286832372964" height="759.3883140633047" fill="#ffffff"></rect><g stroke-linecap="round" transform="translate(82.0565476190477 554.5952380952384) rotate(0 153.57142857142844 72.14285714285711)"><path d="M0 0 C0 0, 0 0, 0 0 M0 0 C0 0, 0 0, 0 0 M-0.26 6.4 C1.28 4.62, 2.82 2.85, 4.99 0.36 M-0.26 6.4 C1 4.95, 2.25 3.51, 4.99 0.36 M0.13 12.04 C3.28 8.42, 6.43 4.79, 10.63 -0.03 M0.13 12.04 C3.08 8.65, 6.04 5.25, 10.63 -0.03 M-0.13 18.44 C4.17 13.49, 8.47 8.55, 15.62 0.33 M-0.13 18.44 C3.13 14.69, 6.38 10.95, 15.62 0.33 M0.27 24.08 C4.63 19.06, 8.99 14.05, 21.26 -0.07 M0.27 24.08 C5.76 17.76, 11.26 11.43, 21.26 -0.07 M0 30.48 C6.43 23.09, 12.85 15.71, 26.25 0.29 M0 30.48 C5.4 24.27, 10.8 18.06, 26.25 0.29 M-0.26 36.88 C10.27 24.77, 20.8 12.66, 31.89 -0.1 M-0.26 36.88 C9.44 25.72, 19.14 14.57, 31.89 -0.1 M0.14 42.52 C13.48 27.17, 26.83 11.81, 36.88 0.26 M0.14 42.52 C7.76 33.76, 15.37 25, 36.88 0.26 M-0.12 48.92 C11.89 35.1, 23.9 21.28, 42.52 -0.14 M-0.12 48.92 C15.48 30.97, 31.08 13.02, 42.52 -0.14 M0.27 54.56 C18.9 33.13, 37.52 11.71, 47.51 0.22 M0.27 54.56 C14.27 38.46, 28.27 22.35, 47.51 0.22 M0.01 60.96 C13.51 45.43, 27.01 29.9, 53.15 -0.17 M0.01 60.96 C20.42 37.48, 40.83 13.99, 53.15 -0.17 M-0.25 67.36 C12.26 52.96, 24.77 38.57, 58.14 0.19 M-0.25 67.36 C21.46 42.38, 43.17 17.41, 58.14 0.19 M0.14 73 C18.52 51.86, 36.89 30.72, 63.78 -0.21 M0.14 73 C22.4 47.4, 44.65 21.8, 63.78 -0.21 M-0.12 79.4 C21.27 54.8, 42.65 30.19, 68.77 0.15 M-0.12 79.4 C16.87 59.85, 33.86 40.31, 68.77 0.15 M0.28 85.04 C29.28 51.67, 58.29 18.3, 74.41 -0.24 M0.28 85.04 C16.6 66.26, 32.93 47.47, 74.41 -0.24 M0.01 91.44 C22.34 65.76, 44.66 40.08, 79.4 0.12 M0.01 91.44 C27.64 59.66, 55.26 27.89, 79.4 0.12 M-0.25 97.84 C19.19 75.48, 38.63 53.12, 85.04 -0.28 M-0.25 97.84 C18.29 76.51, 36.83 55.19, 85.04 -0.28 M0.15 103.48 C30.33 68.76, 60.51 34.04, 90.03 0.08 M0.15 103.48 C19.64 81.05, 39.14 58.63, 90.03 0.08 M-0.11 109.88 C21.52 85, 43.14 60.11, 95.67 -0.31 M-0.11 109.88 C31.17 73.89, 62.46 37.9, 95.67 -0.31 M0.28 115.52 C39.87 69.98, 79.46 24.43, 100.66 0.05 M0.28 115.52 C21.23 91.43, 42.17 67.33, 100.66 0.05 M0.02 121.92 C29.05 88.52, 58.09 55.12, 106.3 -0.34 M0.02 121.92 C42.31 73.27, 84.59 24.63, 106.3 -0.34 M-0.24 128.32 C43.05 78.51, 86.34 28.71, 111.29 0.02 M-0.24 128.32 C43.54 77.96, 87.31 27.6, 111.29 0.02 M0.15 133.96 C25.6 104.69, 51.05 75.41, 116.27 0.38 M0.15 133.96 C28.59 101.25, 57.02 68.54, 116.27 0.38 M-0.11 140.36 C43.71 89.94, 87.54 39.53, 121.92 -0.02 M-0.11 140.36 C30.61 105.01, 61.34 69.67, 121.92 -0.02 M0.94 145.25 C48.01 91.1, 95.08 36.95, 126.91 0.34 M0.94 145.25 C44.45 95.19, 87.96 45.14, 126.91 0.34 M6.58 144.85 C51.97 92.64, 97.35 40.44, 132.55 -0.05 M6.58 144.85 C54.93 89.23, 103.28 33.61, 132.55 -0.05 M11.57 145.21 C37.74 115.1, 63.92 85, 137.54 0.31 M11.57 145.21 C54.59 95.72, 97.61 46.24, 137.54 0.31 M17.21 144.82 C62.01 93.29, 106.8 41.76, 143.18 -0.09 M17.21 144.82 C42.42 115.82, 67.63 86.82, 143.18 -0.09 M22.2 145.18 C54.11 108.46, 86.03 71.75, 148.17 0.27 M22.2 145.18 C64.92 96.04, 107.63 46.9, 148.17 0.27 M27.19 145.54 C67.7 98.93, 108.22 52.33, 153.81 -0.12 M27.19 145.54 C55.83 112.59, 84.47 79.64, 153.81 -0.12 M32.83 145.14 C58.43 115.69, 84.03 86.24, 158.8 0.24 M32.83 145.14 C59.06 114.97, 85.29 84.8, 158.8 0.24 M37.82 145.5 C80.76 96.1, 123.71 46.7, 164.44 -0.16 M37.82 145.5 C63.34 116.14, 88.87 86.77, 164.44 -0.16 M43.46 145.11 C70.07 114.5, 96.68 83.89, 169.43 0.2 M43.46 145.11 C79.11 104.1, 114.75 63.09, 169.43 0.2 M48.45 145.47 C87.7 100.32, 126.94 55.17, 175.07 -0.19 M48.45 145.47 C96.56 90.12, 144.67 34.78, 175.07 -0.19 M54.09 145.07 C103.48 88.26, 152.87 31.45, 180.06 0.17 M54.09 145.07 C87.04 107.17, 119.99 69.27, 180.06 0.17 M59.08 145.43 C89.47 110.47, 119.87 75.5, 185.7 -0.23 M59.08 145.43 C88.08 112.08, 117.07 78.72, 185.7 -0.23 M64.72 145.04 C105.21 98.47, 145.69 51.9, 190.69 0.13 M64.72 145.04 C103.29 100.67, 141.86 56.3, 190.69 0.13 M69.71 145.4 C113.78 94.7, 157.85 44.01, 196.33 -0.26 M69.71 145.4 C111.56 97.26, 153.4 49.12, 196.33 -0.26 M75.35 145 C117.65 96.35, 159.94 47.69, 201.32 0.1 M75.35 145 C118.58 95.28, 161.81 45.55, 201.32 0.1 M80.34 145.36 C126.37 92.41, 172.4 39.46, 206.96 -0.3 M80.34 145.36 C115.82 104.55, 151.3 63.73, 206.96 -0.3 M85.98 144.97 C115.31 111.24, 144.63 77.5, 211.95 0.06 M85.98 144.97 C131.69 92.39, 177.39 39.81, 211.95 0.06 M90.97 145.33 C119.71 112.26, 148.46 79.2, 217.59 -0.33 M90.97 145.33 C140.11 88.8, 189.26 32.26, 217.59 -0.33 M96.61 144.93 C143.33 91.19, 190.05 37.45, 222.58 0.03 M96.61 144.93 C136.87 98.62, 177.14 52.3, 222.58 0.03 M101.6 145.29 C150.97 88.5, 200.34 31.71, 228.22 -0.36 M101.6 145.29 C149.47 90.22, 197.35 35.15, 228.22 -0.36 M107.24 144.9 C153.79 91.36, 200.33 37.82, 233.21 0 M107.24 144.9 C136.47 111.28, 165.69 77.66, 233.21 0 M112.23 145.26 C151.86 99.67, 191.49 54.09, 238.19 0.36 M112.23 145.26 C148.53 103.5, 184.84 61.74, 238.19 0.36 M117.87 144.87 C144.19 114.59, 170.51 84.31, 243.84 -0.04 M117.87 144.87 C153.46 103.92, 189.05 62.98, 243.84 -0.04 M122.86 145.23 C170.02 90.97, 217.19 36.71, 248.82 0.32 M122.86 145.23 C169.53 91.54, 216.2 37.85, 248.82 0.32 M128.5 144.83 C170.14 96.94, 211.77 49.05, 254.47 -0.07 M128.5 144.83 C168.53 98.78, 208.57 52.73, 254.47 -0.07 M133.49 145.19 C178.03 93.95, 222.57 42.71, 259.45 0.29 M133.49 145.19 C182.75 88.52, 232.02 31.85, 259.45 0.29 M139.13 144.8 C181.51 96.05, 223.89 47.29, 265.1 -0.11 M139.13 144.8 C183.03 94.3, 226.93 43.8, 265.1 -0.11 M144.12 145.16 C187.88 94.82, 231.63 44.49, 270.08 0.25 M144.12 145.16 C185.72 97.3, 227.31 49.45, 270.08 0.25 M149.11 145.52 C185.81 103.3, 222.51 61.07, 275.73 -0.14 M149.11 145.52 C180.68 109.2, 212.25 72.88, 275.73 -0.14 M154.75 145.12 C187.73 107.18, 220.71 69.25, 280.71 0.22 M154.75 145.12 C190.29 104.24, 225.83 63.35, 280.71 0.22 M159.74 145.48 C186.95 114.18, 214.16 82.88, 286.36 -0.18 M159.74 145.48 C192.54 107.74, 225.35 70, 286.36 -0.18 M165.38 145.09 C204.93 99.59, 244.49 54.08, 291.34 0.18 M165.38 145.09 C210.12 93.62, 254.86 42.15, 291.34 0.18 M170.37 145.45 C220.58 87.68, 270.8 29.92, 296.99 -0.21 M170.37 145.45 C205.91 104.56, 241.45 63.68, 296.99 -0.21 M176.01 145.05 C217.83 96.95, 259.64 48.84, 301.97 0.15 M176.01 145.05 C222.83 91.19, 269.66 37.32, 301.97 0.15 M181 145.41 C216.56 104.5, 252.13 63.59, 307.62 -0.25 M181 145.41 C229.24 89.92, 277.47 34.43, 307.62 -0.25 M186.64 145.02 C217.38 109.66, 248.12 74.3, 307.36 6.15 M186.64 145.02 C231.09 93.89, 275.54 42.75, 307.36 6.15 M191.63 145.38 C234.89 95.61, 278.15 45.84, 307.09 12.55 M191.63 145.38 C225.22 106.73, 258.82 68.08, 307.09 12.55 M197.27 144.98 C222.83 115.58, 248.38 86.19, 307.49 18.19 M197.27 144.98 C229.8 107.56, 262.33 70.14, 307.49 18.19 M202.26 145.34 C238.56 103.58, 274.87 61.82, 307.23 24.59 M202.26 145.34 C234.35 108.43, 266.44 71.51, 307.23 24.59 M207.9 144.95 C240.05 107.97, 272.19 70.99, 306.97 30.99 M207.9 144.95 C239.32 108.81, 270.74 72.67, 306.97 30.99 M212.89 145.31 C243.42 110.19, 273.95 75.06, 307.36 36.63 M212.89 145.31 C249.19 103.55, 285.5 61.78, 307.36 36.63 M218.53 144.92 C236.62 124.1, 254.72 103.29, 307.1 43.03 M218.53 144.92 C246.24 113.04, 273.94 81.17, 307.1 43.03 M223.52 145.28 C256.81 106.98, 290.09 68.69, 307.49 48.67 M223.52 145.28 C244.5 121.14, 265.49 97, 307.49 48.67 M229.16 144.88 C248.98 122.08, 268.8 99.28, 307.23 55.07 M229.16 144.88 C258.43 111.22, 287.69 77.55, 307.23 55.07 M234.15 145.24 C257.17 118.76, 280.19 92.27, 306.97 61.47 M234.15 145.24 C255.25 120.97, 276.35 96.7, 306.97 61.47 M239.79 144.85 C257.83 124.09, 275.87 103.34, 307.36 67.11 M239.79 144.85 C260.74 120.75, 281.69 96.65, 307.36 67.11 M244.78 145.21 C269.33 116.96, 293.89 88.71, 307.1 73.51 M244.78 145.21 C260.68 126.91, 276.58 108.62, 307.1 73.51 M250.42 144.81 C270.29 121.96, 290.15 99.1, 307.5 79.15 M250.42 144.81 C269.78 122.54, 289.14 100.27, 307.5 79.15 M255.41 145.17 C265.9 133.1, 276.4 121.02, 307.24 85.55 M255.41 145.17 C274.14 123.62, 292.87 102.07, 307.24 85.55 M260.39 145.53 C270.3 134.13, 280.21 122.74, 306.97 91.95 M260.39 145.53 C278.89 124.25, 297.39 102.97, 306.97 91.95 M266.04 145.14 C277.41 132.05, 288.79 118.97, 307.37 97.59 M266.04 145.14 C282.08 126.69, 298.12 108.24, 307.37 97.59 M271.02 145.5 C281.39 133.57, 291.76 121.65, 307.11 103.99 M271.02 145.5 C279.43 135.83, 287.84 126.16, 307.11 103.99 M276.67 145.1 C283.03 137.78, 289.4 130.46, 307.5 109.63 M276.67 145.1 C288.34 131.68, 300.01 118.25, 307.5 109.63 M281.65 145.46 C287.01 139.3, 292.36 133.14, 307.24 116.03 M281.65 145.46 C289.58 136.35, 297.5 127.24, 307.24 116.03 M287.3 145.07 C294.22 137.11, 301.13 129.15, 306.98 122.43 M287.3 145.07 C293.99 137.37, 300.69 129.66, 306.98 122.43 M292.29 145.43 C297.22 139.75, 302.15 134.08, 307.37 128.07 M292.29 145.43 C296.87 140.15, 301.46 134.87, 307.37 128.07 M297.93 145.03 C300.93 141.58, 303.93 138.13, 307.11 134.47 M297.93 145.03 C301.1 141.39, 304.26 137.74, 307.11 134.47 M302.92 145.39 C304.75 143.28, 306.58 141.17, 307.51 140.11 M302.92 145.39 C303.87 144.3, 304.82 143.2, 307.51 140.11" stroke="#ced4da" stroke-width="0.5" fill="none"></path><path d="M0 0 C103.86 0, 207.73 0, 307.14 0 M0 0 C61.85 0, 123.71 0, 307.14 0 M307.14 0 C307.14 50.3, 307.14 100.59, 307.14 144.29 M307.14 0 C307.14 41.41, 307.14 82.83, 307.14 144.29 M307.14 144.29 C234.8 144.29, 162.46 144.29, 0 144.29 M307.14 144.29 C228.47 144.29, 149.79 144.29, 0 144.29 M0 144.29 C0 106.32, 0 68.36, 0 0 M0 144.29 C0 94.21, 0 44.13, 0 0" stroke="#000000" stroke-width="1" fill="none"></path></g><g transform="translate(154.9136904761899 572.2380952380955) rotate(0 80 12.5)"><text x="0" y="18" font-family="Virgil, Segoe UI Emoji" font-size="20px" fill="#000000" text-anchor="start" style="white-space: pre;" direction="ltr">Yelp Angular app</text></g><g transform="translate(201.84226190476147 624.1666666666667) rotate(0 24.5 12.5)"><text x="24.5" y="18" font-family="Virgil, Segoe UI Emoji" font-size="20px" fill="#000000" text-anchor="middle" style="white-space: pre;" direction="ltr">Hello!</text></g><g stroke-linecap="round" transform="translate(67.77083333333303 63.16666666666663) rotate(0 153.57142857142844 72.14285714285712)"><path d="M0 0 C0 0, 0 0, 0 0 M0 0 C0 0, 0 0, 0 0 M-0.26 6.4 C1.63 4.23, 3.51 2.06, 4.99 0.36 M-0.26 6.4 C1.75 4.09, 3.76 1.77, 4.99 0.36 M0.13 12.04 C2.53 9.28, 4.92 6.53, 10.63 -0.03 M0.13 12.04 C3.51 8.16, 6.88 4.28, 10.63 -0.03 M-0.13 18.44 C5.76 11.66, 11.65 4.88, 15.62 0.33 M-0.13 18.44 C3.33 14.46, 6.79 10.48, 15.62 0.33 M0.27 24.08 C6.33 17.11, 12.39 10.14, 21.26 -0.07 M0.27 24.08 C5.85 17.66, 11.43 11.24, 21.26 -0.07 M0 30.48 C7.6 21.74, 15.19 13.01, 26.25 0.29 M0 30.48 C8.91 20.23, 17.82 9.99, 26.25 0.29 M-0.26 36.88 C9.71 25.41, 19.67 13.95, 31.89 -0.1 M-0.26 36.88 C11.65 23.18, 23.56 9.48, 31.89 -0.1 M0.14 42.52 C14.52 25.97, 28.91 9.42, 36.88 0.26 M0.14 42.52 C14.8 25.65, 29.47 8.78, 36.88 0.26 M-0.12 48.92 C11.52 35.53, 23.16 22.14, 42.52 -0.14 M-0.12 48.92 C14.17 32.48, 28.46 16.04, 42.52 -0.14 M0.27 54.56 C13.56 39.28, 26.85 23.99, 47.51 0.22 M0.27 54.56 C10.51 42.78, 20.75 31, 47.51 0.22 M0.01 60.96 C17.16 41.23, 34.31 21.5, 53.15 -0.17 M0.01 60.96 C19.71 38.3, 39.41 15.64, 53.15 -0.17 M-0.25 67.36 C21.53 42.3, 43.31 17.24, 58.14 0.19 M-0.25 67.36 C15.57 49.15, 31.39 30.95, 58.14 0.19 M0.14 73 C17.22 53.35, 34.3 33.71, 63.78 -0.21 M0.14 73 C19.16 51.12, 38.18 29.25, 63.78 -0.21 M-0.12 79.4 C27.13 48.05, 54.38 16.71, 68.77 0.15 M-0.12 79.4 C13.77 63.42, 27.65 47.45, 68.77 0.15 M0.28 85.04 C21.26 60.9, 42.24 36.76, 74.41 -0.24 M0.28 85.04 C18.98 63.53, 37.68 42.01, 74.41 -0.24 M0.01 91.44 C23.15 64.82, 46.28 38.21, 79.4 0.12 M0.01 91.44 C24.55 63.21, 49.09 34.98, 79.4 0.12 M-0.25 97.84 C17.15 77.82, 34.55 57.8, 85.04 -0.28 M-0.25 97.84 C31.71 61.08, 63.66 24.32, 85.04 -0.28 M0.15 103.48 C28.68 70.65, 57.22 37.83, 90.03 0.08 M0.15 103.48 C23.09 77.08, 46.04 50.69, 90.03 0.08 M-0.11 109.88 C22.16 84.25, 44.44 58.63, 95.67 -0.31 M-0.11 109.88 C30.59 74.56, 61.3 39.23, 95.67 -0.31 M0.28 115.52 C34.87 75.74, 69.45 35.95, 100.66 0.05 M0.28 115.52 C36.68 73.65, 73.07 31.78, 100.66 0.05 M0.02 121.92 C24.89 93.3, 49.77 64.69, 106.3 -0.34 M0.02 121.92 C37.8 78.46, 75.57 35, 106.3 -0.34 M-0.24 128.32 C39.63 82.45, 79.5 36.59, 111.29 0.02 M-0.24 128.32 C34.83 87.97, 69.91 47.62, 111.29 0.02 M0.15 133.96 C27.77 102.19, 55.39 70.41, 116.27 0.38 M0.15 133.96 C29.85 99.79, 59.56 65.62, 116.27 0.38 M-0.11 140.36 C43.24 90.49, 86.59 40.62, 121.92 -0.02 M-0.11 140.36 C31.06 104.5, 62.22 68.65, 121.92 -0.02 M0.94 145.25 C43.46 96.34, 85.97 47.43, 126.91 0.34 M0.94 145.25 C27.26 114.97, 53.58 84.7, 126.91 0.34 M6.58 144.85 C38.18 108.5, 69.78 72.15, 132.55 -0.05 M6.58 144.85 C43.2 102.73, 79.82 60.61, 132.55 -0.05 M11.57 145.21 C60.77 88.62, 109.96 32.03, 137.54 0.31 M11.57 145.21 C51.02 99.82, 90.48 54.44, 137.54 0.31 M17.21 144.82 C64 91, 110.78 37.18, 143.18 -0.09 M17.21 144.82 C65.91 88.8, 114.61 32.78, 143.18 -0.09 M22.2 145.18 C62.33 99.02, 102.45 52.86, 148.17 0.27 M22.2 145.18 C57.21 104.91, 92.21 64.64, 148.17 0.27 M27.19 145.54 C72.52 93.39, 117.85 41.24, 153.81 -0.12 M27.19 145.54 C61.43 106.15, 95.66 66.77, 153.81 -0.12 M32.83 145.14 C58.93 115.11, 85.04 85.09, 158.8 0.24 M32.83 145.14 C73.53 98.32, 114.24 51.49, 158.8 0.24 M37.82 145.5 C71.48 106.78, 105.14 68.05, 164.44 -0.16 M37.82 145.5 C79.63 97.41, 121.44 49.31, 164.44 -0.16 M43.46 145.11 C69.44 115.22, 95.43 85.33, 169.43 0.2 M43.46 145.11 C78.74 104.52, 114.02 63.93, 169.43 0.2 M48.45 145.47 C81.91 106.98, 115.36 68.49, 175.07 -0.19 M48.45 145.47 C88.35 99.57, 128.25 53.66, 175.07 -0.19 M54.09 145.07 C83 111.82, 111.91 78.56, 180.06 0.17 M54.09 145.07 C90.72 102.93, 127.36 60.79, 180.06 0.17 M59.08 145.43 C101.68 96.43, 144.28 47.42, 185.7 -0.23 M59.08 145.43 C88.86 111.17, 118.65 76.91, 185.7 -0.23 M64.72 145.04 C96.81 108.12, 128.9 71.21, 190.69 0.13 M64.72 145.04 C103.56 100.36, 142.4 55.68, 190.69 0.13 M69.71 145.4 C117.81 90.06, 165.92 34.72, 196.33 -0.26 M69.71 145.4 C102.81 107.32, 135.91 69.24, 196.33 -0.26 M75.35 145 C103.56 112.55, 131.77 80.1, 201.32 0.1 M75.35 145 C125.3 87.54, 175.25 30.08, 201.32 0.1 M80.34 145.36 C119.09 100.78, 157.84 56.21, 206.96 -0.3 M80.34 145.36 C108.92 112.49, 137.49 79.62, 206.96 -0.3 M85.98 144.97 C129.2 95.25, 172.42 45.54, 211.95 0.06 M85.98 144.97 C115 111.59, 144.01 78.21, 211.95 0.06 M90.97 145.33 C134.07 95.75, 177.17 46.17, 217.59 -0.33 M90.97 145.33 C131.59 98.6, 172.21 51.87, 217.59 -0.33 M96.61 144.93 C144.76 89.55, 192.9 34.17, 222.58 0.03 M96.61 144.93 C146.44 87.62, 196.27 30.3, 222.58 0.03 M101.6 145.29 C142.43 98.32, 183.27 51.34, 228.22 -0.36 M101.6 145.29 C127 116.07, 152.4 86.85, 228.22 -0.36 M107.24 144.9 C154.53 90.5, 201.82 36.1, 233.21 0 M107.24 144.9 C143.64 103.03, 180.04 61.16, 233.21 0 M112.23 145.26 C138.18 115.41, 164.13 85.55, 238.19 0.36 M112.23 145.26 C147.48 104.71, 182.72 64.17, 238.19 0.36 M117.87 144.87 C158.29 98.37, 198.71 51.87, 243.84 -0.04 M117.87 144.87 C145.36 113.25, 172.84 81.64, 243.84 -0.04 M122.86 145.23 C168.04 93.25, 213.21 41.28, 248.82 0.32 M122.86 145.23 C152.34 111.31, 181.82 77.39, 248.82 0.32 M128.5 144.83 C163.87 104.14, 199.25 63.45, 254.47 -0.07 M128.5 144.83 C166.53 101.09, 204.56 57.34, 254.47 -0.07 M133.49 145.19 C166.51 107.2, 199.54 69.21, 259.45 0.29 M133.49 145.19 C171.27 101.73, 209.05 58.27, 259.45 0.29 M139.13 144.8 C174.6 104, 210.06 63.21, 265.1 -0.11 M139.13 144.8 C185.69 91.23, 232.26 37.67, 265.1 -0.11 M144.12 145.16 C170.87 114.38, 197.62 83.61, 270.08 0.25 M144.12 145.16 C191.36 90.82, 238.59 36.48, 270.08 0.25 M149.11 145.52 C176.12 114.44, 203.14 83.36, 275.73 -0.14 M149.11 145.52 C182.27 107.36, 215.44 69.21, 275.73 -0.14 M154.75 145.12 C182.36 113.37, 209.96 81.61, 280.71 0.22 M154.75 145.12 C194.77 99.08, 234.79 53.04, 280.71 0.22 M159.74 145.48 C201.62 97.3, 243.5 49.12, 286.36 -0.18 M159.74 145.48 C201.55 97.38, 243.37 49.28, 286.36 -0.18 M165.38 145.09 C203.99 100.68, 242.59 56.27, 291.34 0.18 M165.38 145.09 C196.56 109.22, 227.73 73.36, 291.34 0.18 M170.37 145.45 C214.97 94.14, 259.56 42.84, 296.99 -0.21 M170.37 145.45 C213.03 96.38, 255.68 47.3, 296.99 -0.21 M176.01 145.05 C202.76 114.28, 229.51 83.51, 301.97 0.15 M176.01 145.05 C206.83 109.6, 237.65 74.14, 301.97 0.15 M181 145.41 C226.61 92.94, 272.22 40.47, 307.62 -0.25 M181 145.41 C225.98 93.67, 270.96 41.92, 307.62 -0.25 M186.64 145.02 C221.51 104.91, 256.38 64.79, 307.36 6.15 M186.64 145.02 C216.89 110.23, 247.13 75.43, 307.36 6.15 M191.63 145.38 C226.43 105.34, 261.24 65.3, 307.09 12.55 M191.63 145.38 C222.75 109.58, 253.87 73.78, 307.09 12.55 M197.27 144.98 C219.55 119.36, 241.82 93.73, 307.49 18.19 M197.27 144.98 C237.76 98.41, 278.25 51.83, 307.49 18.19 M202.26 145.34 C232.33 110.75, 262.41 76.15, 307.23 24.59 M202.26 145.34 C231.12 112.15, 259.97 78.95, 307.23 24.59 M207.9 144.95 C230.92 118.47, 253.93 91.99, 306.97 30.99 M207.9 144.95 C243.39 104.13, 278.87 63.31, 306.97 30.99 M212.89 145.31 C240.3 113.78, 267.71 82.24, 307.36 36.63 M212.89 145.31 C248.56 104.28, 284.23 63.24, 307.36 36.63 M218.53 144.92 C251.64 106.83, 284.74 68.75, 307.1 43.03 M218.53 144.92 C249.28 109.54, 280.04 74.16, 307.1 43.03 M223.52 145.28 C244.61 121.01, 265.7 96.75, 307.49 48.67 M223.52 145.28 C248.25 116.82, 272.99 88.37, 307.49 48.67 M229.16 144.88 C247.49 123.79, 265.82 102.71, 307.23 55.07 M229.16 144.88 C254.1 116.19, 279.04 87.5, 307.23 55.07 M234.15 145.24 C261.27 114.04, 288.39 82.84, 306.97 61.47 M234.15 145.24 C259.91 115.6, 285.68 85.96, 306.97 61.47 M239.79 144.85 C262.61 118.59, 285.43 92.34, 307.36 67.11 M239.79 144.85 C254.72 127.68, 269.64 110.51, 307.36 67.11 M244.78 145.21 C258.54 129.37, 272.31 113.54, 307.1 73.51 M244.78 145.21 C269.36 116.93, 293.94 88.65, 307.1 73.51 M250.42 144.81 C262.92 130.43, 275.43 116.05, 307.5 79.15 M250.42 144.81 C265.17 127.85, 279.91 110.89, 307.5 79.15 M255.41 145.17 C267.19 131.61, 278.98 118.06, 307.24 85.55 M255.41 145.17 C269.2 129.31, 282.99 113.44, 307.24 85.55 M260.39 145.53 C275.73 127.89, 291.07 110.24, 306.97 91.95 M260.39 145.53 C279.02 124.11, 297.64 102.69, 306.97 91.95 M266.04 145.14 C282.04 126.73, 298.04 108.32, 307.37 97.59 M266.04 145.14 C279.67 129.46, 293.3 113.78, 307.37 97.59 M271.02 145.5 C283.04 131.68, 295.05 117.85, 307.11 103.99 M271.02 145.5 C280.91 134.13, 290.79 122.76, 307.11 103.99 M276.67 145.1 C287.74 132.36, 298.82 119.62, 307.5 109.63 M276.67 145.1 C287.68 132.44, 298.69 119.77, 307.5 109.63 M281.65 145.46 C287 139.32, 292.34 133.17, 307.24 116.03 M281.65 145.46 C288.58 137.5, 295.5 129.54, 307.24 116.03 M287.3 145.07 C294.51 136.77, 301.73 128.47, 306.98 122.43 M287.3 145.07 C291.84 139.84, 296.39 134.61, 306.98 122.43 M292.29 145.43 C297.56 139.36, 302.83 133.3, 307.37 128.07 M292.29 145.43 C295.91 141.26, 299.53 137.09, 307.37 128.07 M297.93 145.03 C300.65 141.9, 303.38 138.76, 307.11 134.47 M297.93 145.03 C300.18 142.45, 302.42 139.86, 307.11 134.47 M302.92 145.39 C304.12 144.01, 305.32 142.63, 307.51 140.11 M302.92 145.39 C304.73 143.31, 306.54 141.23, 307.51 140.11" stroke="#ced4da" stroke-width="0.5" fill="none"></path><path d="M0 0 C111.29 0, 222.57 0, 307.14 0 M0 0 C65.81 0, 131.63 0, 307.14 0 M307.14 0 C307.14 36.96, 307.14 73.92, 307.14 144.29 M307.14 0 C307.14 48.46, 307.14 96.91, 307.14 144.29 M307.14 144.29 C219.35 144.29, 131.55 144.29, 0 144.29 M307.14 144.29 C224.79 144.29, 142.44 144.29, 0 144.29 M0 144.29 C0 90.48, 0 36.68, 0 0 M0 144.29 C0 110.62, 0 76.95, 0 0" stroke="#000000" stroke-width="1" fill="none"></path></g><g stroke-linecap="round" transform="translate(114.19940476190368 133.02380952380955) rotate(0 110.71428571428555 20.857142857142833)"><path d="M1.92 0.99 L221.93 1.35 L221.59 43.07 L-1.79 40.88" stroke="none" stroke-width="0" fill="#fd7e14"></path><path d="M-0.26 1.5 C78.04 3.34, 156.25 2.74, 222.69 -1.48 M0.44 -0.55 C82.55 2.23, 164.22 2.08, 221.94 -0.38 M221.29 1.38 C220.46 14.8, 221.58 27.45, 220.23 42.43 M222.14 -0.76 C220.17 17.01, 220.42 33.23, 222.31 41.57 M221.57 41.36 C159.69 43.18, 98.07 42.81, -1.1 41.16 M221.1 42.31 C140.28 43.36, 58.19 44.17, -0.48 42.34 M1.55 39.89 C-2.14 31.56, 0.55 21.94, 0.36 -1.33 M-0.3 41.49 C-0.46 26.87, -0.17 11.13, 0.21 -0.88" stroke="#000000" stroke-width="1" fill="none"></path></g><g transform="translate(125.98511904761835 141.38095238095232) rotate(0 99 12.5)"><text x="99" y="18" font-family="Virgil, Segoe UI Emoji" font-size="20px" fill="#000000" text-anchor="middle" style="white-space: pre;" direction="ltr">Connect with Google</text></g><g transform="translate(150.98511904761835 80.45238095238085) rotate(0 80 12.5)"><text x="0" y="18" font-family="Virgil, Segoe UI Emoji" font-size="20px" fill="#000000" text-anchor="start" style="white-space: pre;" direction="ltr">Yelp Angular app</text></g><g stroke-linecap="round"><g transform="translate(39.16834886128254 238.44305004657855) rotate(0 16.749659024746506 -14.189081460155393)" fill-rule="evenodd"><path d="M8.97 -25.33 C8.97 -25.33, 8.97 -25.33, 8.97 -25.33 M8.97 -25.33 C8.97 -25.33, 8.97 -25.33, 8.97 -25.33 M6.39 -17.93 C9.64 -19.99, 12.33 -23.93, 17.85 -28.65 M7.25 -16.78 C11.09 -21.04, 14.48 -24.6, 16.44 -28.27 M4.28 -6.91 C10.42 -13.85, 14.79 -23.68, 20.76 -25.18 M5.87 -9.73 C11.64 -15.52, 16.3 -22.63, 20.88 -26.69 M3.54 2.4 C9.54 -5.63, 16.66 -14.22, 22.14 -25.08 M0.63 0.49 C11.18 -8.66, 19.06 -18.4, 24.8 -24.31 M8.73 1.89 C13.41 -8.12, 22.16 -14.25, 27.14 -22.84 M6.74 0.73 C11.89 -3.65, 15.38 -8.25, 27.68 -21.63 M11.97 2.55 C19.02 -4.51, 24.07 -10.03, 28.95 -19.38 M12.09 1.96 C18.96 -6.54, 25.89 -14.64, 29.34 -19.27 M16.19 0.86 C22.75 -2.21, 24.97 -9.51, 31.11 -16.73 M18.51 1.8 C22.16 -3.49, 26.03 -8.8, 32.54 -15.79 M22.58 0.63 C28.21 -3.6, 30.27 -9.38, 34.92 -11.35 M23.66 1.07 C25 -1.98, 27.58 -4.94, 32.68 -11.18 M27.03 2.13 C28.77 0.39, 31.56 -1.72, 33.56 -5.94 M27.7 1.73 C28.74 0.56, 30.16 -1.09, 33.67 -4.97" stroke="#15aabf" stroke-width="0.5" fill="none"></path><path d="M-0.65 1.05 C-0.22 -2.16, -0.42 -13.13, 2.4 -18.22 C5.21 -23.31, 11.96 -29.08, 16.22 -29.49 C20.48 -29.91, 25.5 -25.41, 27.95 -20.72 C30.39 -16.03, 35.65 -4.96, 30.87 -1.35 C26.08 2.25, 4.28 0.57, -0.76 0.9 M1.21 0.56 C2 -2.48, 2.04 -15.13, 4.49 -20.01 C6.94 -24.89, 11.89 -28.8, 15.92 -28.72 C19.94 -28.63, 25.87 -24.18, 28.63 -19.51 C31.39 -14.83, 37.21 -3.95, 32.48 -0.64 C27.75 2.66, 5.39 0.29, 0.26 0.33" stroke="#000000" stroke-width="1" fill="none"></path></g></g><g stroke-linecap="round" transform="translate(47.05326062478434 194.81276333950808) rotate(0 8.183329809053248 7.160413582921677)"><path d="M4.04 0.86 C4.04 0.86, 4.04 0.86, 4.04 0.86 M4.04 0.86 C4.04 0.86, 4.04 0.86, 4.04 0.86 M0.75 10.67 C4.29 7.61, 6.42 5.2, 10.5 -0.61 M1.5 8.93 C3.21 7.69, 5.76 4.79, 9.9 0.99 M4.41 14.75 C7.01 9.72, 8.49 7.73, 14.02 2.48 M4.14 13.26 C5.76 11.13, 8.66 7.81, 13.96 2.89 M6.99 14.6 C10.93 13.03, 12.52 10.27, 15.89 5.11 M7.98 14.68 C10.33 12.13, 12.2 9.64, 15.58 5.34" stroke="#15aabf" stroke-width="0.5" fill="none"></path><path d="M11.04 0.42 C12.4 0.95, 13.22 2.23, 13.99 3.59 C14.77 4.94, 15.62 7.04, 15.7 8.56 C15.78 10.09, 15.57 11.68, 14.5 12.73 C13.42 13.79, 11.15 14.76, 9.24 14.88 C7.33 15.01, 4.35 14.4, 3.02 13.47 C1.69 12.55, 1.64 10.81, 1.25 9.36 C0.87 7.91, 0.24 6.22, 0.71 4.8 C1.18 3.37, 2.44 1.69, 4.07 0.83 C5.7 -0.04, 9.47 -0.43, 10.5 -0.42 C11.53 -0.4, 10.12 0.81, 10.26 0.9 M7.52 0.65 C8.85 0.88, 11.29 1.21, 12.98 2.15 C14.67 3.09, 17.4 4.99, 17.66 6.29 C17.93 7.6, 15.78 8.67, 14.56 9.99 C13.34 11.3, 12.02 13.64, 10.34 14.19 C8.65 14.74, 5.83 14.06, 4.45 13.29 C3.07 12.52, 2.59 11.04, 2.05 9.56 C1.52 8.07, 1.07 5.58, 1.22 4.38 C1.38 3.18, 1.75 2.82, 2.98 2.33 C4.22 1.84, 7.75 1.62, 8.63 1.44 C9.52 1.25, 8.16 1.37, 8.27 1.21" stroke="#000000" stroke-width="1" fill="none"></path></g><g stroke-linecap="round" transform="translate(879.1994047619037 60.309523809523796) rotate(0 147.8571428571429 90)"><path d="M0 0 C0 0, 0 0, 0 0 M0 0 C0 0, 0 0, 0 0 M-0.26 6.4 C1.54 4.32, 3.35 2.24, 4.99 0.36 M-0.26 6.4 C1.73 4.1, 3.73 1.8, 4.99 0.36 M0.13 12.04 C3.43 8.25, 6.72 4.46, 10.63 -0.03 M0.13 12.04 C3.03 8.7, 5.93 5.37, 10.63 -0.03 M-0.13 18.44 C3.18 14.63, 6.49 10.82, 15.62 0.33 M-0.13 18.44 C5.5 11.97, 11.12 5.5, 15.62 0.33 M0.27 24.08 C4.82 18.84, 9.38 13.6, 21.26 -0.07 M0.27 24.08 C4.96 18.68, 9.66 13.28, 21.26 -0.07 M0 30.48 C9.43 19.64, 18.86 8.79, 26.25 0.29 M0 30.48 C7.93 21.36, 15.85 12.25, 26.25 0.29 M-0.26 36.88 C12.43 22.29, 25.11 7.7, 31.89 -0.1 M-0.26 36.88 C9.49 25.66, 19.24 14.45, 31.89 -0.1 M0.14 42.52 C7.6 33.94, 15.06 25.35, 36.88 0.26 M0.14 42.52 C14.22 26.33, 28.29 10.13, 36.88 0.26 M-0.12 48.92 C11.75 35.26, 23.63 21.6, 42.52 -0.14 M-0.12 48.92 C8.46 39.04, 17.05 29.16, 42.52 -0.14 M0.27 54.56 C15.3 37.27, 30.33 19.98, 47.51 0.22 M0.27 54.56 C13.52 39.32, 26.77 24.08, 47.51 0.22 M0.01 60.96 C16.72 41.73, 33.44 22.5, 53.15 -0.17 M0.01 60.96 C14.13 44.71, 28.25 28.47, 53.15 -0.17 M-0.25 67.36 C19.89 44.19, 40.03 21.02, 58.14 0.19 M-0.25 67.36 C16.35 48.26, 32.96 29.16, 58.14 0.19 M0.14 73 C16.86 53.77, 33.57 34.54, 63.78 -0.21 M0.14 73 C13.18 58.01, 26.21 43.01, 63.78 -0.21 M-0.12 79.4 C19.7 56.6, 39.51 33.81, 68.77 0.15 M-0.12 79.4 C27.18 48, 54.48 16.59, 68.77 0.15 M0.28 85.04 C22.28 59.73, 44.28 34.42, 74.41 -0.24 M0.28 85.04 C29.04 51.95, 57.8 18.87, 74.41 -0.24 M0.01 91.44 C17.07 71.82, 34.13 52.19, 79.4 0.12 M0.01 91.44 C18.16 70.56, 36.31 49.69, 79.4 0.12 M-0.25 97.84 C25.76 67.92, 51.77 37.99, 85.04 -0.28 M-0.25 97.84 C29.23 63.93, 58.7 30.03, 85.04 -0.28 M0.15 103.48 C32.43 66.34, 64.71 29.21, 90.03 0.08 M0.15 103.48 C27.52 71.99, 54.9 40.49, 90.03 0.08 M-0.11 109.88 C37.17 66.99, 74.45 24.1, 95.67 -0.31 M-0.11 109.88 C25.64 80.25, 51.4 50.62, 95.67 -0.31 M0.28 115.52 C22.07 90.45, 43.87 65.38, 100.66 0.05 M0.28 115.52 C36.27 74.11, 72.27 32.71, 100.66 0.05 M0.02 121.92 C38.89 77.21, 77.75 32.49, 106.3 -0.34 M0.02 121.92 C32.98 84, 65.95 46.08, 106.3 -0.34 M-0.24 128.32 C27.57 96.32, 55.38 64.33, 111.29 0.02 M-0.24 128.32 C26.05 98.07, 52.34 67.83, 111.29 0.02 M0.15 133.96 C30.88 98.61, 61.61 63.26, 116.27 0.38 M0.15 133.96 C32.96 96.22, 65.76 58.48, 116.27 0.38 M-0.11 140.36 C46.34 86.92, 92.8 33.48, 121.92 -0.02 M-0.11 140.36 C47.74 85.31, 95.6 30.26, 121.92 -0.02 M0.29 146 C29.44 112.47, 58.59 78.93, 126.91 0.34 M0.29 146 C45.88 93.55, 91.47 41.1, 126.91 0.34 M0.02 152.4 C39.76 106.69, 79.5 60.97, 132.55 -0.05 M0.02 152.4 C52.36 92.19, 104.7 31.98, 132.55 -0.05 M-0.24 158.8 C30.19 123.79, 60.61 88.79, 137.54 0.31 M-0.24 158.8 C51.82 98.91, 103.88 39.02, 137.54 0.31 M0.16 164.44 C51.6 105.25, 103.05 46.07, 143.18 -0.09 M0.16 164.44 C31.92 127.9, 63.67 91.37, 143.18 -0.09 M-0.1 170.84 C45.69 118.15, 91.49 65.47, 148.17 0.27 M-0.1 170.84 C49.1 114.23, 98.31 57.62, 148.17 0.27 M0.29 176.48 C42.85 127.52, 85.4 78.57, 153.81 -0.12 M0.29 176.48 C55.94 112.47, 111.58 48.45, 153.81 -0.12 M1.34 181.37 C61.29 112.4, 121.25 43.43, 158.8 0.24 M1.34 181.37 C45.27 130.83, 89.2 80.3, 158.8 0.24 M6.98 180.97 C43.72 138.71, 80.46 96.45, 164.44 -0.16 M6.98 180.97 C56.75 123.72, 106.52 66.47, 164.44 -0.16 M11.97 181.33 C49.29 138.4, 86.61 95.47, 169.43 0.2 M11.97 181.33 C49.3 138.39, 86.63 95.45, 169.43 0.2 M17.61 180.94 C76.35 113.37, 135.09 45.79, 175.07 -0.19 M17.61 180.94 C63.85 127.75, 110.09 74.56, 175.07 -0.19 M22.6 181.3 C68.61 128.37, 114.62 75.44, 180.06 0.17 M22.6 181.3 C67.46 129.69, 112.32 78.09, 180.06 0.17 M28.24 180.9 C76.36 125.56, 124.47 70.21, 185.7 -0.23 M28.24 180.9 C78.15 123.49, 128.06 66.08, 185.7 -0.23 M33.23 181.26 C76.53 131.45, 119.83 81.64, 190.69 0.13 M33.23 181.26 C74.52 133.77, 115.8 86.28, 190.69 0.13 M38.22 181.62 C70.47 144.52, 102.72 107.42, 196.33 -0.26 M38.22 181.62 C88.61 123.66, 139 65.69, 196.33 -0.26 M43.86 181.23 C95.52 121.81, 147.17 62.38, 201.32 0.1 M43.86 181.23 C86.31 132.39, 128.77 83.56, 201.32 0.1 M48.85 181.59 C97.16 126.01, 145.48 70.43, 206.96 -0.3 M48.85 181.59 C87.19 137.48, 125.54 93.37, 206.96 -0.3 M54.49 181.2 C103.02 125.37, 151.54 69.55, 211.95 0.06 M54.49 181.2 C112.56 114.4, 170.62 47.61, 211.95 0.06 M59.48 181.56 C92.94 143.07, 126.39 104.58, 217.59 -0.33 M59.48 181.56 C113.7 119.18, 167.92 56.8, 217.59 -0.33 M65.12 181.16 C110.18 129.33, 155.24 77.49, 222.58 0.03 M65.12 181.16 C109.55 130.05, 153.98 78.94, 222.58 0.03 M70.11 181.52 C131.37 111.05, 192.63 40.58, 228.22 -0.36 M70.11 181.52 C115.25 129.59, 160.39 77.67, 228.22 -0.36 M75.75 181.13 C114.63 136.4, 153.5 91.68, 233.21 0 M75.75 181.13 C121.93 128, 168.11 74.88, 233.21 0 M80.74 181.49 C122.07 133.94, 163.4 86.39, 238.19 0.36 M80.74 181.49 C119.57 136.82, 158.4 92.15, 238.19 0.36 M86.38 181.09 C147.69 110.57, 208.99 40.05, 243.84 -0.04 M86.38 181.09 C140.95 118.32, 195.52 55.54, 243.84 -0.04 M91.37 181.45 C143.37 121.63, 195.38 61.8, 248.82 0.32 M91.37 181.45 C125.01 142.75, 158.66 104.04, 248.82 0.32 M97.01 181.06 C132.68 140.03, 168.34 99, 254.47 -0.07 M97.01 181.06 C151.7 118.15, 206.39 55.24, 254.47 -0.07 M102 181.42 C141.09 136.44, 180.19 91.47, 259.45 0.29 M102 181.42 C146.87 129.79, 191.75 78.17, 259.45 0.29 M107.64 181.02 C152.59 129.31, 197.54 77.6, 265.1 -0.11 M107.64 181.02 C148.87 133.6, 190.1 86.17, 265.1 -0.11 M112.63 181.38 C165.88 120.13, 219.12 58.87, 270.08 0.25 M112.63 181.38 C170.86 114.39, 229.1 47.4, 270.08 0.25 M118.27 180.99 C150.93 143.43, 183.58 105.86, 275.73 -0.14 M118.27 180.99 C152.5 141.62, 186.72 102.25, 275.73 -0.14 M123.26 181.35 C168.23 129.62, 213.19 77.89, 280.71 0.22 M123.26 181.35 C168.67 129.11, 214.07 76.88, 280.71 0.22 M128.9 180.95 C167.86 136.14, 206.81 91.33, 286.36 -0.18 M128.9 180.95 C160.71 144.36, 192.52 107.77, 286.36 -0.18 M133.89 181.31 C171.72 137.8, 209.54 94.28, 291.34 0.18 M133.89 181.31 C176.68 132.09, 219.47 82.87, 291.34 0.18 M139.53 180.92 C198.31 113.31, 257.08 45.69, 296.33 0.54 M139.53 180.92 C196.75 115.09, 253.97 49.27, 296.33 0.54 M144.52 181.28 C192.4 126.2, 240.29 71.11, 296.07 6.94 M144.52 181.28 C184.23 135.6, 223.94 89.92, 296.07 6.94 M150.16 180.88 C204.73 118.11, 259.3 55.34, 296.46 12.58 M150.16 180.88 C196.41 127.68, 242.66 74.48, 296.46 12.58 M155.15 181.24 C196.14 134.09, 237.12 86.94, 296.2 18.98 M155.15 181.24 C185.08 146.81, 215.01 112.38, 296.2 18.98 M160.14 181.6 C206.43 128.35, 252.73 75.09, 296.6 24.63 M160.14 181.6 C191.05 146.04, 221.97 110.47, 296.6 24.63 M165.78 181.21 C205.73 135.25, 245.69 89.29, 296.34 31.02 M165.78 181.21 C216.2 123.21, 266.62 65.2, 296.34 31.02 M170.77 181.57 C219.02 126.06, 267.27 70.55, 296.07 37.42 M170.77 181.57 C211.89 134.26, 253.01 86.96, 296.07 37.42 M176.41 181.18 C220.63 130.31, 264.84 79.45, 296.47 43.06 M176.41 181.18 C207.5 145.41, 238.58 109.65, 296.47 43.06 M181.4 181.54 C219.97 137.16, 258.54 92.79, 296.21 49.46 M181.4 181.54 C205.94 153.3, 230.49 125.07, 296.21 49.46 M187.04 181.14 C214.14 149.96, 241.25 118.78, 296.6 55.1 M187.04 181.14 C210.73 153.89, 234.41 126.65, 296.6 55.1 M192.03 181.5 C216.18 153.72, 240.32 125.94, 296.34 61.5 M192.03 181.5 C227.2 141.04, 262.37 100.58, 296.34 61.5 M197.67 181.11 C234.82 138.38, 271.96 95.64, 296.08 67.9 M197.67 181.11 C222.74 152.27, 247.81 123.43, 296.08 67.9 M202.66 181.47 C223.8 157.15, 244.94 132.83, 296.47 73.54 M202.66 181.47 C232.03 147.68, 261.41 113.88, 296.47 73.54 M208.3 181.07 C239.65 145, 271.01 108.93, 296.21 79.94 M208.3 181.07 C233.11 152.53, 257.93 123.98, 296.21 79.94 M213.29 181.43 C237.04 154.1, 260.8 126.77, 296.61 85.58 M213.29 181.43 C231.38 160.61, 249.48 139.8, 296.61 85.58 M218.93 181.04 C238.07 159.02, 257.21 137.01, 296.34 91.98 M218.93 181.04 C235.76 161.68, 252.59 142.32, 296.34 91.98 M223.92 181.4 C245.04 157.1, 266.16 132.8, 296.08 98.38 M223.92 181.4 C244.56 157.65, 265.21 133.9, 296.08 98.38 M229.56 181 C247.99 159.8, 266.42 138.6, 296.48 104.02 M229.56 181 C248.95 158.7, 268.33 136.4, 296.48 104.02 M234.55 181.36 C255.75 156.97, 276.95 132.58, 296.22 110.42 M234.55 181.36 C247.94 165.95, 261.34 150.54, 296.22 110.42 M240.19 180.97 C258.9 159.44, 277.61 137.92, 296.61 116.06 M240.19 180.97 C259.35 158.92, 278.52 136.88, 296.61 116.06 M245.18 181.33 C257.89 166.7, 270.6 152.08, 296.35 122.46 M245.18 181.33 C258.95 165.48, 272.73 149.64, 296.35 122.46 M250.82 180.93 C263.06 166.86, 275.29 152.78, 296.09 128.86 M250.82 180.93 C265.25 164.34, 279.68 147.74, 296.09 128.86 M255.81 181.29 C265.18 170.51, 274.55 159.73, 296.48 134.5 M255.81 181.29 C270.5 164.39, 285.2 147.48, 296.48 134.5 M261.45 180.9 C268.75 172.51, 276.04 164.11, 296.22 140.9 M261.45 180.9 C274.99 165.33, 288.52 149.76, 296.22 140.9 M266.44 181.26 C273.31 173.35, 280.19 165.44, 296.62 146.54 M266.44 181.26 C277.72 168.28, 289.01 155.29, 296.62 146.54 M271.42 181.62 C277.23 174.94, 283.03 168.26, 296.35 152.94 M271.42 181.62 C277.03 175.18, 282.63 168.73, 296.35 152.94 M277.07 181.23 C284.54 172.63, 292.01 164.03, 296.09 159.34 M277.07 181.23 C281.79 175.79, 286.52 170.35, 296.09 159.34 M282.05 181.59 C286.18 176.84, 290.31 172.09, 296.49 164.98 M282.05 181.59 C286.52 176.45, 290.98 171.32, 296.49 164.98 M287.7 181.19 C291.04 177.35, 294.37 173.51, 296.23 171.38 M287.7 181.19 C290.14 178.38, 292.59 175.56, 296.23 171.38 M292.68 181.55 C293.79 180.28, 294.89 179.02, 296.62 177.02 M292.68 181.55 C293.62 180.47, 294.56 179.4, 296.62 177.02" stroke="#ced4da" stroke-width="0.5" fill="none"></path><path d="M0 0 C72.68 0, 145.36 0, 295.71 0 M0 0 C110.77 0, 221.55 0, 295.71 0 M295.71 0 C295.71 41.63, 295.71 83.27, 295.71 180 M295.71 0 C295.71 37.89, 295.71 75.79, 295.71 180 M295.71 180 C214.4 180, 133.08 180, 0 180 M295.71 180 C196.36 180, 97 180, 0 180 M0 180 C0 141.75, 0 103.5, 0 0 M0 180 C0 141.53, 0 103.06, 0 0" stroke="#000000" stroke-width="1" fill="none"></path></g><g stroke-linecap="round" transform="translate(914.1994047619037 181.59523809523813) rotate(0 110.71428571428555 20.857142857142833)"><path d="M1.27 -1.48 C87.1 -0.73, 170.21 -0.15, 220.34 1.29 M0.51 -0.38 C79.06 0.12, 157.64 -0.79, 222.03 -0.59 M220.23 0.72 C223.33 11.46, 221.71 27.86, 219.91 39.92 M222.31 -0.14 C220.93 13.42, 221.16 28.59, 221.22 41.46 M220.33 41.16 C137.4 42.67, 52.65 42.27, 1.2 42.34 M220.95 42.34 C158.56 43.98, 96.23 43.84, -0.79 40.96 M0.36 40.38 C1.22 26.21, 1.43 13.97, -0.45 -1.73 M0.21 40.83 C1.2 27.1, 0.49 12.16, 0.08 0.68" stroke="#000000" stroke-width="1" fill="none"></path></g><g transform="translate(927.1279761904752 189.9523809523809) rotate(0 46.5 12.5)"><text x="0" y="18" font-family="Virgil, Segoe UI Emoji" font-size="20px" fill="#000000" text-anchor="start" style="white-space: pre;" direction="ltr">Password</text></g><g stroke-linecap="round" transform="translate(914.1994047619037 130.16666666666669) rotate(0 110.71428571428555 20.857142857142833)"><path d="M1.21 0.29 C76.65 2.51, 155.36 2.93, 222.38 0.84 M0.4 0.85 C75.19 0.78, 150.32 0.25, 221.57 -0.11 M223.38 -1.76 C221.51 10.84, 219.66 17.03, 222.26 40.42 M221.2 -0.84 C221.8 12.79, 221.59 25.18, 222.28 41.28 M222.6 41.45 C142.58 40.44, 61.67 41.73, -0.31 41.08 M221.05 42.52 C137.89 43.78, 54.01 42.35, 0.22 42.12 M1.42 39.78 C1.55 25.36, -0.53 8.49, 1.25 -1.14 M0.96 42.21 C0.16 28.43, -0.01 14.47, -0.89 -0.42" stroke="#000000" stroke-width="1" fill="none"></path></g><g transform="translate(927.1279761904752 138.52380952380946) rotate(0 25 12.5)"><text x="0" y="18" font-family="Virgil, Segoe UI Emoji" font-size="20px" fill="#000000" text-anchor="start" style="white-space: pre;" direction="ltr">Email</text></g><g transform="translate(922.0565476190459 70.80952380952368) rotate(0 96 12.5)"><text x="0" y="18" font-family="Virgil, Segoe UI Emoji" font-size="20px" fill="#000000" text-anchor="start" style="white-space: pre;" direction="ltr">accounts.google.com</text></g><g stroke-linecap="round"><g transform="translate(1183.4540631469963 258.4430500465787) rotate(0 16.90583804303401 -14.4882970459729)" fill-rule="evenodd"><path d="M8.97 -25.33 C8.97 -25.33, 8.97 -25.33, 8.97 -25.33 M8.97 -25.33 C8.97 -25.33, 8.97 -25.33, 8.97 -25.33 M7.69 -17.63 C8.87 -18.72, 11.83 -21.44, 16 -26.95 M7.31 -17.09 C10.61 -20.77, 14.06 -24.43, 17.16 -28.68 M6.71 -8.4 C6.99 -11.11, 9.6 -14.59, 19.65 -26.57 M5.51 -8.55 C7.39 -11.43, 12 -15.84, 20.93 -26.04 M3.52 2.9 C9.02 -9.92, 16.43 -15.51, 23.83 -24.23 M2.16 1.4 C9.47 -6.45, 16.79 -16.2, 23.43 -23.77 M5.64 -0.65 C15.67 -7.72, 20.23 -14.19, 27.85 -23 M7.16 1.04 C13.87 -7.74, 22.66 -15.39, 26.89 -20.85 M13.98 0.77 C18.34 -5.31, 24.64 -11.79, 29.96 -19.22 M11.96 1.96 C18.01 -5.06, 22.1 -9.23, 30.57 -19.15 M18.5 2.23 C19.23 -0.99, 25.36 -5.93, 32.98 -16.6 M18.79 1.59 C22.56 -4.74, 27.15 -9.4, 31.52 -15.32 M21.86 0.03 C24.5 0.31, 26.78 -4.78, 32.38 -11.45 M22.81 1.51 C25.25 -2.05, 28.07 -4.72, 33.97 -10.5 M27 1.21 C30.36 -1.01, 32.19 -3.86, 34.3 -5.41 M27.72 1.87 C29.71 -0.03, 31.74 -2.19, 34.2 -5.24" stroke="#15aabf" stroke-width="0.5" fill="none"></path><path d="M-1.1 0.61 C-0.77 -2.42, -0.03 -13.22, 2.82 -17.97 C5.67 -22.71, 11.88 -27.51, 16.01 -27.88 C20.13 -28.26, 24.99 -24.63, 27.56 -20.22 C30.14 -15.8, 35.84 -4.84, 31.44 -1.4 C27.04 2.05, 6.43 0.08, 1.18 0.46 M0.53 -0.12 C1.17 -3.5, 2.63 -14.65, 5.14 -19.62 C7.65 -24.59, 11.77 -29.45, 15.59 -29.92 C19.41 -30.38, 25.09 -27.27, 28.05 -22.4 C31.01 -17.53, 38.1 -4.39, 33.35 -0.71 C28.6 2.96, 5.02 -0.45, -0.45 -0.34" stroke="#000000" stroke-width="1" fill="none"></path></g></g><g stroke-linecap="round" transform="translate(1191.338974910498 214.8127633395082) rotate(0 8.183329809053248 7.160413582921677)"><path d="M1.85 2.93 C1.85 2.93, 1.85 2.93, 1.85 2.93 M1.85 2.93 C1.85 2.93, 1.85 2.93, 1.85 2.93 M0.51 11.03 C3.64 7.3, 3.93 4.58, 8.42 2.48 M0.9 10.35 C2.87 8.05, 5.22 5.7, 7.28 2.29 M3.1 11.57 C5.93 10.18, 9.55 4.95, 13.32 2.78 M3.95 12.64 C6 9.69, 8.02 8.16, 13.7 2.1 M7.38 15.7 C10.44 11.19, 13.85 7.96, 15.89 4.76 M7.45 14.39 C10.49 12.28, 12.02 8.92, 16.55 5.16" stroke="#15aabf" stroke-width="0.5" fill="none"></path><path d="M11.55 1.08 C12.97 1.52, 13.99 2.89, 14.93 4.2 C15.87 5.51, 17.47 7.41, 17.19 8.95 C16.9 10.49, 14.87 12.52, 13.22 13.45 C11.58 14.37, 9.06 14.76, 7.3 14.49 C5.54 14.21, 3.95 12.77, 2.64 11.79 C1.34 10.81, -0.43 10.13, -0.51 8.59 C-0.59 7.05, 1.13 3.8, 2.17 2.55 C3.21 1.3, 4.26 1.54, 5.73 1.09 C7.21 0.64, 9.87 -0.06, 11.03 -0.16 C12.2 -0.26, 12.65 0.09, 12.72 0.5 M7.61 0.14 C9.27 0.09, 11.05 0.22, 12.68 0.99 C14.31 1.76, 16.76 3.37, 17.39 4.76 C18.03 6.16, 17.55 7.68, 16.49 9.34 C15.43 10.99, 12.84 13.7, 11.04 14.72 C9.24 15.74, 7.41 15.87, 5.71 15.46 C4.01 15.04, 1.68 13.76, 0.83 12.21 C-0.02 10.66, 0.4 7.66, 0.58 6.15 C0.77 4.64, 0.91 4, 1.94 3.16 C2.97 2.32, 5.94 1.38, 6.77 1.11 C7.61 0.84, 6.87 1.42, 6.95 1.55" stroke="#000000" stroke-width="1" fill="none"></path></g><g stroke-linecap="round" transform="translate(166.34226190476147 270.30952380952397) rotate(0 153.57142857142844 72.14285714285712)"><path d="M0 0 C0 0, 0 0, 0 0 M0 0 C0 0, 0 0, 0 0 M-0.26 6.4 C1.38 4.51, 3.03 2.62, 4.99 0.36 M-0.26 6.4 C1.74 4.09, 3.75 1.79, 4.99 0.36 M0.13 12.04 C3.07 8.66, 6.01 5.28, 10.63 -0.03 M0.13 12.04 C3.92 7.68, 7.71 3.33, 10.63 -0.03 M-0.13 18.44 C4.3 13.34, 8.73 8.24, 15.62 0.33 M-0.13 18.44 C5.89 11.52, 11.9 4.6, 15.62 0.33 M0.27 24.08 C5.36 18.22, 10.45 12.37, 21.26 -0.07 M0.27 24.08 C4.69 19, 9.11 13.91, 21.26 -0.07 M0 30.48 C5.73 23.89, 11.46 17.31, 26.25 0.29 M0 30.48 C9.18 19.93, 18.35 9.37, 26.25 0.29 M-0.26 36.88 C8.83 26.43, 17.91 15.98, 31.89 -0.1 M-0.26 36.88 C9.38 25.8, 19.01 14.72, 31.89 -0.1 M0.14 42.52 C11.9 28.99, 23.66 15.46, 36.88 0.26 M0.14 42.52 C11.84 29.06, 23.54 15.6, 36.88 0.26 M-0.12 48.92 C13.37 33.4, 26.86 17.88, 42.52 -0.14 M-0.12 48.92 C11.82 35.18, 23.76 21.44, 42.52 -0.14 M0.27 54.56 C16.71 35.65, 33.15 16.73, 47.51 0.22 M0.27 54.56 C11.32 41.85, 22.37 29.14, 47.51 0.22 M0.01 60.96 C14.58 44.2, 29.15 27.43, 53.15 -0.17 M0.01 60.96 C14.09 44.76, 28.17 28.56, 53.15 -0.17 M-0.25 67.36 C18.82 45.42, 37.89 23.48, 58.14 0.19 M-0.25 67.36 C14.47 50.42, 29.2 33.48, 58.14 0.19 M0.14 73 C12.89 58.34, 25.64 43.67, 63.78 -0.21 M0.14 73 C21.05 48.95, 41.96 24.9, 63.78 -0.21 M-0.12 79.4 C16.72 60.02, 33.57 40.65, 68.77 0.15 M-0.12 79.4 C16.43 60.36, 32.97 41.33, 68.77 0.15 M0.28 85.04 C26.44 54.94, 52.61 24.84, 74.41 -0.24 M0.28 85.04 C15.53 67.49, 30.79 49.94, 74.41 -0.24 M0.01 91.44 C28.17 59.05, 56.33 26.66, 79.4 0.12 M0.01 91.44 C21.92 66.24, 43.83 41.03, 79.4 0.12 M-0.25 97.84 C25.73 67.95, 51.71 38.07, 85.04 -0.28 M-0.25 97.84 C33.24 59.31, 66.73 20.78, 85.04 -0.28 M0.15 103.48 C24.78 75.14, 49.41 46.81, 90.03 0.08 M0.15 103.48 C31.47 67.45, 62.79 31.41, 90.03 0.08 M-0.11 109.88 C23.03 83.25, 46.18 56.63, 95.67 -0.31 M-0.11 109.88 C23.46 82.76, 47.03 55.64, 95.67 -0.31 M0.28 115.52 C28.75 82.77, 57.22 50.02, 100.66 0.05 M0.28 115.52 C26.14 85.77, 52 56.02, 100.66 0.05 M0.02 121.92 C28.14 89.56, 56.27 57.21, 106.3 -0.34 M0.02 121.92 C30.2 87.2, 60.38 52.48, 106.3 -0.34 M-0.24 128.32 C25.23 99.02, 50.7 69.72, 111.29 0.02 M-0.24 128.32 C34.8 88, 69.84 47.69, 111.29 0.02 M0.15 133.96 C33.61 95.47, 67.06 56.99, 116.27 0.38 M0.15 133.96 C33.25 95.89, 66.34 57.82, 116.27 0.38 M-0.11 140.36 C26.42 109.83, 52.96 79.31, 121.92 -0.02 M-0.11 140.36 C29.17 106.68, 58.45 73, 121.92 -0.02 M0.94 145.25 C43.86 95.87, 86.78 46.49, 126.91 0.34 M0.94 145.25 C49.93 88.89, 98.92 32.53, 126.91 0.34 M6.58 144.85 C47.4 97.9, 88.21 50.96, 132.55 -0.05 M6.58 144.85 C40.28 106.08, 73.98 67.32, 132.55 -0.05 M11.57 145.21 C44.98 106.78, 78.39 68.35, 137.54 0.31 M11.57 145.21 C61.5 87.77, 111.44 30.33, 137.54 0.31 M17.21 144.82 C53.15 103.48, 89.08 62.14, 143.18 -0.09 M17.21 144.82 C47.52 109.95, 77.83 75.08, 143.18 -0.09 M22.2 145.18 C49.7 113.54, 77.2 81.91, 148.17 0.27 M22.2 145.18 C56.09 106.19, 89.99 67.2, 148.17 0.27 M27.19 145.54 C52.84 116.03, 78.48 86.53, 153.81 -0.12 M27.19 145.54 C66.92 99.83, 106.65 54.13, 153.81 -0.12 M32.83 145.14 C79.54 91.41, 126.25 37.67, 158.8 0.24 M32.83 145.14 C61.73 111.9, 90.63 78.66, 158.8 0.24 M37.82 145.5 C68.36 110.37, 98.9 75.23, 164.44 -0.16 M37.82 145.5 C69.79 108.72, 101.76 71.94, 164.44 -0.16 M43.46 145.11 C69.62 115.02, 95.78 84.93, 169.43 0.2 M43.46 145.11 C76.33 107.3, 109.2 69.49, 169.43 0.2 M48.45 145.47 C90.32 97.3, 132.18 49.14, 175.07 -0.19 M48.45 145.47 C90.64 96.93, 132.84 48.39, 175.07 -0.19 M54.09 145.07 C82.78 112.07, 111.47 79.06, 180.06 0.17 M54.09 145.07 C80.29 114.93, 106.5 84.79, 180.06 0.17 M59.08 145.43 C92.55 106.93, 126.03 68.42, 185.7 -0.23 M59.08 145.43 C89.89 109.99, 120.7 74.54, 185.7 -0.23 M64.72 145.04 C95.48 109.66, 126.23 74.28, 190.69 0.13 M64.72 145.04 C99.49 105.04, 134.26 65.04, 190.69 0.13 M69.71 145.4 C120.34 87.15, 170.98 28.9, 196.33 -0.26 M69.71 145.4 C117.97 89.88, 166.23 34.36, 196.33 -0.26 M75.35 145 C111.11 103.86, 146.88 62.72, 201.32 0.1 M75.35 145 C117.08 97, 158.8 49, 201.32 0.1 M80.34 145.36 C125.77 93.1, 171.21 40.83, 206.96 -0.3 M80.34 145.36 C125.4 93.52, 170.47 41.68, 206.96 -0.3 M85.98 144.97 C122.28 103.21, 158.58 61.46, 211.95 0.06 M85.98 144.97 C111.29 115.86, 136.6 86.75, 211.95 0.06 M90.97 145.33 C132.36 97.72, 173.75 50.11, 217.59 -0.33 M90.97 145.33 C127.41 103.41, 163.85 61.49, 217.59 -0.33 M96.61 144.93 C123.33 114.2, 150.05 83.47, 222.58 0.03 M96.61 144.93 C143.61 90.87, 190.62 36.8, 222.58 0.03 M101.6 145.29 C146.39 93.77, 191.18 42.25, 228.22 -0.36 M101.6 145.29 C140.59 100.44, 179.59 55.58, 228.22 -0.36 M107.24 144.9 C148.18 97.81, 189.12 50.71, 233.21 0 M107.24 144.9 C144.66 101.85, 182.08 58.81, 233.21 0 M112.23 145.26 C144.12 108.57, 176.02 71.88, 238.19 0.36 M112.23 145.26 C144.79 107.81, 177.34 70.36, 238.19 0.36 M117.87 144.87 C156.95 99.92, 196.02 54.97, 243.84 -0.04 M117.87 144.87 C153.48 103.9, 189.09 62.94, 243.84 -0.04 M122.86 145.23 C161.04 101.3, 199.23 57.38, 248.82 0.32 M122.86 145.23 C172.27 88.38, 221.69 31.54, 248.82 0.32 M128.5 144.83 C174.49 91.93, 220.47 39.04, 254.47 -0.07 M128.5 144.83 C153.83 115.7, 179.15 86.57, 254.47 -0.07 M133.49 145.19 C177.01 95.13, 220.52 45.07, 259.45 0.29 M133.49 145.19 C167.93 105.57, 202.37 65.96, 259.45 0.29 M139.13 144.8 C177.05 101.18, 214.97 57.56, 265.1 -0.11 M139.13 144.8 C187.5 89.16, 235.86 33.52, 265.1 -0.11 M144.12 145.16 C180.17 103.69, 216.21 62.22, 270.08 0.25 M144.12 145.16 C178.97 105.07, 213.82 64.97, 270.08 0.25 M149.11 145.52 C179.96 110.03, 210.81 74.54, 275.73 -0.14 M149.11 145.52 C190.17 98.27, 231.24 51.03, 275.73 -0.14 M154.75 145.12 C204.54 87.85, 254.33 30.57, 280.71 0.22 M154.75 145.12 C191.02 103.4, 227.28 61.68, 280.71 0.22 M159.74 145.48 C201.83 97.05, 243.93 48.63, 286.36 -0.18 M159.74 145.48 C207.34 90.72, 254.94 35.97, 286.36 -0.18 M165.38 145.09 C191.44 115.11, 217.51 85.12, 291.34 0.18 M165.38 145.09 C191.06 115.55, 216.74 86, 291.34 0.18 M170.37 145.45 C198.37 113.24, 226.37 81.02, 296.99 -0.21 M170.37 145.45 C202.46 108.52, 234.56 71.6, 296.99 -0.21 M176.01 145.05 C203.63 113.29, 231.24 81.52, 301.97 0.15 M176.01 145.05 C205.27 111.4, 234.52 77.74, 301.97 0.15 M181 145.41 C228.78 90.45, 276.56 35.48, 307.62 -0.25 M181 145.41 C223.12 96.96, 265.24 48.5, 307.62 -0.25 M186.64 145.02 C234.26 90.24, 281.88 35.46, 307.36 6.15 M186.64 145.02 C233.92 90.63, 281.2 36.24, 307.36 6.15 M191.63 145.38 C235.84 94.52, 280.05 43.66, 307.09 12.55 M191.63 145.38 C232.04 98.88, 272.46 52.39, 307.09 12.55 M197.27 144.98 C225.81 112.15, 254.35 79.32, 307.49 18.19 M197.27 144.98 C220.6 118.14, 243.94 91.3, 307.49 18.19 M202.26 145.34 C226.77 117.14, 251.29 88.94, 307.23 24.59 M202.26 145.34 C234.08 108.74, 265.9 72.13, 307.23 24.59 M207.9 144.95 C228.01 121.82, 248.12 98.69, 306.97 30.99 M207.9 144.95 C230.97 118.42, 254.03 91.88, 306.97 30.99 M212.89 145.31 C235.49 119.31, 258.09 93.31, 307.36 36.63 M212.89 145.31 C246 107.22, 279.11 69.13, 307.36 36.63 M218.53 144.92 C252.27 106.1, 286.02 67.28, 307.1 43.03 M218.53 144.92 C245.68 113.68, 272.83 82.45, 307.1 43.03 M223.52 145.28 C250.72 113.98, 277.92 82.69, 307.49 48.67 M223.52 145.28 C249.67 115.19, 275.82 85.1, 307.49 48.67 M229.16 144.88 C245.67 125.89, 262.18 106.89, 307.23 55.07 M229.16 144.88 C252.2 118.37, 275.24 91.87, 307.23 55.07 M234.15 145.24 C257.86 117.97, 281.57 90.69, 306.97 61.47 M234.15 145.24 C260.83 114.55, 287.51 83.86, 306.97 61.47 M239.79 144.85 C258.51 123.31, 277.23 101.78, 307.36 67.11 M239.79 144.85 C264.93 115.93, 290.07 87.01, 307.36 67.11 M244.78 145.21 C263.24 123.96, 281.71 102.72, 307.1 73.51 M244.78 145.21 C267 119.64, 289.22 94.08, 307.1 73.51 M250.42 144.81 C263.21 130.09, 276.01 115.38, 307.5 79.15 M250.42 144.81 C268.76 123.71, 287.11 102.61, 307.5 79.15 M255.41 145.17 C265.89 133.12, 276.37 121.06, 307.24 85.55 M255.41 145.17 C270.14 128.23, 284.87 111.28, 307.24 85.55 M260.39 145.53 C272.67 131.41, 284.95 117.28, 306.97 91.95 M260.39 145.53 C271.5 132.76, 282.6 119.98, 306.97 91.95 M266.04 145.14 C275.28 134.51, 284.51 123.88, 307.37 97.59 M266.04 145.14 C274.82 135.04, 283.6 124.93, 307.37 97.59 M271.02 145.5 C280.77 134.29, 290.51 123.08, 307.11 103.99 M271.02 145.5 C279.3 135.98, 287.57 126.46, 307.11 103.99 M276.67 145.1 C284.52 136.08, 292.36 127.05, 307.5 109.63 M276.67 145.1 C287.94 132.14, 299.21 119.17, 307.5 109.63 M281.65 145.46 C288.88 137.15, 296.1 128.85, 307.24 116.03 M281.65 145.46 C289.61 136.31, 297.57 127.15, 307.24 116.03 M287.3 145.07 C291.3 140.46, 295.31 135.86, 306.98 122.43 M287.3 145.07 C291.79 139.9, 296.28 134.73, 306.98 122.43 M292.29 145.43 C295.35 141.9, 298.42 138.37, 307.37 128.07 M292.29 145.43 C296.99 140.02, 301.69 134.61, 307.37 128.07 M297.93 145.03 C300.62 141.94, 303.31 138.85, 307.11 134.47 M297.93 145.03 C300.19 142.43, 302.46 139.82, 307.11 134.47 M302.92 145.39 C304.29 143.81, 305.67 142.23, 307.51 140.11 M302.92 145.39 C304.61 143.44, 306.31 141.48, 307.51 140.11" stroke="#ced4da" stroke-width="0.5" fill="none"></path><path d="M0 0 C64.04 0, 128.08 0, 307.14 0 M0 0 C103.81 0, 207.62 0, 307.14 0 M307.14 0 C307.14 45.68, 307.14 91.35, 307.14 144.29 M307.14 0 C307.14 43.31, 307.14 86.61, 307.14 144.29 M307.14 144.29 C186.09 144.29, 65.04 144.29, 0 144.29 M307.14 144.29 C222.89 144.29, 138.63 144.29, 0 144.29 M0 144.29 C0 89.3, 0 34.31, 0 0 M0 144.29 C0 97.36, 0 50.44, 0 0" stroke="#000000" stroke-width="1" fill="none"></path></g><g transform="translate(239.19940476190368 287.9523809523811) rotate(0 76 12.500000000000014)"><text x="0" y="18" font-family="Virgil, Segoe UI Emoji" font-size="20px" fill="#000000" text-anchor="start" style="white-space: pre;" direction="ltr">google.contacts</text></g><g stroke-linecap="round"><g transform="translate(314.38759557349204 373.01618571018446) rotate(0 16.460451810097993 -14.500439383953562)" fill-rule="evenodd"><path d="M8.97 -25.32 C8.97 -25.32, 8.97 -25.32, 8.97 -25.32 M8.97 -25.32 C8.97 -25.32, 8.97 -25.32, 8.97 -25.32 M6.52 -15.25 C8.53 -18.36, 11.97 -22.34, 16.03 -26.84 M7.44 -16.85 C9.65 -20.07, 10.82 -21.96, 16.94 -27.4 M3.24 -7.13 C9.49 -14.83, 13.16 -18.66, 19.12 -25.42 M5.67 -8.5 C10.85 -14.4, 15.7 -20.95, 19.84 -25.16 M-0.2 3.28 C10.01 -7.95, 19.17 -15.83, 23.81 -23.16 M2.07 1 C7.65 -5.94, 15.26 -13.99, 23.33 -25.06 M6.71 1.29 C12.26 -5.15, 17.22 -7.21, 26.96 -21.82 M7.86 1.84 C13.33 -5.01, 19.47 -13.14, 26.77 -20.76 M13.42 0.98 C16.99 -4.31, 21.3 -10.83, 29.43 -19.57 M12.2 1.99 C19.07 -5.93, 23.93 -13.37, 29.04 -18.69 M19.53 0.62 C24.33 -6.57, 29.16 -8.85, 29.84 -13.07 M17.46 1.81 C22.74 -5.15, 27.03 -9.46, 31.3 -15.5 M22.35 0.43 C24.22 -2.11, 26.29 -5.42, 32.5 -10.87 M23.28 0.63 C26.87 -2.2, 30.13 -6.52, 32.63 -11.5 M27.94 0.97 C29.83 -0.26, 30.77 -1.82, 34.03 -5.38 M28.17 1.93 C30.3 -0.78, 32.28 -2.66, 33.79 -5.06 M0 0 C0 0, 0 0, 0 0 M0 0 C0 0, 0 0, 0 0 M6.64 0.4 C4.76 -1.67, 3.55 -2.86, 0.99 -4.55 M6.14 0.33 C4.21 -1.83, 2.27 -3.08, 1.35 -4.28 M13.31 0.1 C8.66 -2.79, 3.71 -5.82, 2.8 -9.09 M12.15 -0.27 C8.97 -2.91, 6.88 -4.29, 1.45 -8.89 M19.63 1.09 C13.41 -3.9, 8.47 -8.22, 1.67 -12.48 M18.39 -0.53 C14.64 -4.34, 10.21 -8.02, 3.43 -14.21 M23.57 -0.78 C17.21 -4.77, 13.08 -7.22, 1.99 -16.6 M23.68 -0.62 C20.4 -4.45, 15.54 -7.13, 4.42 -18.14 M29.29 -2.1 C20.92 -8.92, 14.78 -15.2, 5.35 -23.47 M26.83 -3.11 C22.22 -7.55, 16.31 -12.7, 6.07 -22.27 M32.18 -5.02 C22.64 -9.15, 13.78 -19.12, 8.41 -26.26 M33.85 -2.74 C25.17 -8.75, 18.53 -15.43, 7.66 -25.2 M33.18 -8.46 C31.19 -10.11, 26.93 -15.03, 12.65 -27.45 M33.56 -7.95 C28.9 -12.31, 23.86 -16.67, 10.03 -27.68 M33.13 -11.94 C28.76 -17.51, 25.07 -23.09, 15.34 -27.64 M34.66 -13.94 C26.61 -18.12, 19.97 -23.38, 16.19 -27.78" stroke="#fa5252" stroke-width="0.5" fill="none"></path><path d="M0.66 0.58 C1.46 -2.59, 1.68 -13.39, 4.03 -18.14 C6.39 -22.88, 10.76 -27.49, 14.8 -27.87 C18.84 -28.25, 25.41 -24.9, 28.26 -20.44 C31.1 -15.98, 36.69 -4.57, 31.85 -1.13 C27 2.31, 4.51 0.16, -0.82 0.2 M-0.45 -0.16 C0.3 -3.75, 0.96 -14.93, 3.32 -19.89 C5.69 -24.85, 10.07 -30.05, 13.76 -29.92 C17.45 -29.79, 22.7 -24.03, 25.46 -19.1 C28.22 -14.16, 34.55 -3.36, 30.33 -0.3 C26.11 2.76, 5.14 -0.94, 0.16 -0.73" stroke="#000000" stroke-width="1" fill="none"></path></g></g><g stroke-linecap="round"><g transform="translate(278.00601416634345 375.83321899457144) rotate(0 16.83208090386165 -14.259600738622538)" fill-rule="evenodd"><path d="M8.97 -25.32 C8.97 -25.32, 8.97 -25.32, 8.97 -25.32 M8.97 -25.32 C8.97 -25.32, 8.97 -25.32, 8.97 -25.32 M8.16 -17.24 C10.35 -19.14, 11.68 -23.27, 17.73 -28.82 M6.55 -16.08 C9.78 -21.63, 14.32 -24.84, 17.17 -27.85 M6.79 -9.35 C8.12 -14.39, 13.34 -17.85, 20.96 -25.69 M5.42 -8.08 C8.28 -11.82, 10.49 -16.59, 21.21 -25.37 M3.5 1.31 C7.44 -4.04, 14.71 -11.24, 25.02 -24.26 M1.22 0.92 C9.94 -7.46, 17.57 -17.73, 23.12 -25.08 M7.54 1.93 C13.56 -5.99, 23.94 -16.26, 26.75 -21.58 M8.09 0.97 C12.57 -4.12, 15.78 -9.62, 27.82 -21.92 M11.86 1.38 C17.77 -5.74, 22.43 -12.36, 29.39 -17.82 M12.87 1.99 C18.91 -7.13, 25.41 -14.79, 30.27 -18.37 M17.53 2.3 C19.1 -1.46, 25.6 -7.93, 33.47 -13.65 M18.72 0.83 C21.46 -4.36, 26.85 -8.49, 31.04 -15.68 M21.97 0.35 C24.85 -3.05, 26.95 -5.92, 33.24 -10.38 M22.17 1.94 C26.28 -1.72, 28.88 -6.45, 32.62 -11.16 M27.14 2.24 C29.59 -0.58, 31.7 -2.66, 33.48 -4.74 M28.1 2.14 C29.51 -0.01, 31.75 -2.53, 33.8 -5.4 M0 0 C0 0, 0 0, 0 0 M0 0 C0 0, 0 0, 0 0 M6.54 0.37 C3.91 -0.97, 2.09 -3.51, 0.9 -3.74 M6.46 0.09 C4.6 -1.11, 3.68 -2.05, 1.16 -4.24 M12.27 -0.02 C8.95 -4.5, 5.39 -4.87, 1.7 -10 M11.9 -0.57 C8.59 -2.57, 6.54 -5.31, 1.91 -9.28 M19.4 -0.17 C15.21 -3.15, 11.66 -6.67, 3.75 -14.38 M17.78 0.53 C12.36 -4.18, 7.19 -7.93, 2.02 -14.15 M23.57 -1.91 C16.57 -7.57, 11 -15.17, 5.08 -19.63 M23.73 0.61 C16.09 -6.51, 9.65 -12.85, 3.55 -18.14 M27.99 -3.02 C20.67 -7.9, 13.86 -12.97, 3.76 -22.7 M26.98 -2.51 C21.74 -8.25, 15.43 -12.48, 4.95 -21.16 M31.11 -4.78 C27.22 -11.51, 17.38 -15.87, 6.61 -24.95 M33.39 -3.63 C23.75 -11.53, 13.41 -20.5, 7.67 -25.66 M33.11 -5.88 C31.22 -9.65, 25.68 -13.85, 11.07 -29.26 M33.62 -7.53 C26.87 -13.3, 20.39 -19.82, 10.83 -27.77 M34.88 -12.84 C29.11 -15.27, 23.56 -21.38, 16.81 -27.56 M32.88 -13.71 C29.02 -18.29, 24.13 -21.54, 16.67 -28.05" stroke="#fa5252" stroke-width="0.5" fill="none"></path><path d="M0.58 0.46 C1.15 -2.88, 1.73 -14.75, 4.28 -19.37 C6.83 -23.98, 12.01 -26.98, 15.89 -27.25 C19.76 -27.52, 24.72 -25.06, 27.53 -20.98 C30.34 -16.9, 37.31 -6.25, 32.76 -2.78 C28.2 0.69, 5.81 -0.5, 0.2 -0.16 M-0.57 -0.35 C-0.18 -3.59, 1.04 -13.33, 3.7 -18.11 C6.37 -22.88, 11.36 -28.67, 15.42 -28.98 C19.47 -29.28, 25.3 -24.28, 28.02 -19.92 C30.74 -15.56, 36.11 -5.93, 31.72 -2.82 C27.34 0.28, 7.13 -1.95, 1.72 -1.28" stroke="#000000" stroke-width="1" fill="none"></path></g></g><g stroke-linecap="round" transform="translate(322.19663241171384 330.07701377610215) rotate(0 8.173845474323343 7.152114790032954)"><path d="M1.35 2.5 C1.35 2.5, 1.35 2.5, 1.35 2.5 M1.35 2.5 C1.35 2.5, 1.35 2.5, 1.35 2.5 M-0.58 10.68 C3.12 6.62, 6.27 4.47, 7.58 1.94 M0.67 9.42 C2.26 7.38, 4.94 4.69, 7.31 0.9 M3.03 12.47 C6.17 8.84, 8.83 8.53, 13.29 0.8 M3.89 12.89 C6.46 9.45, 9.58 5.07, 13.15 1.6 M7.28 14.62 C8.92 11.91, 11.07 8.34, 15.27 3.93 M6.42 15.32 C10.11 11.08, 12.36 7.2, 15 4.54 M12.6 14.39 C13.97 12.32, 15.34 11.72, 15.49 10.51 M11.98 14.75 C13.49 12.74, 14.71 11.53, 15.93 9.78 M6.12 14.3 C6.12 14.3, 6.12 14.3, 6.12 14.3 M6.12 14.3 C6.12 14.3, 6.12 14.3, 6.12 14.3 M11.85 12.85 C10.08 11.32, 6.93 9.38, 2.3 4.95 M12.18 14.23 C9.06 10.89, 5.74 8.6, 1.96 5.41 M13.95 11.27 C11.96 9, 9.58 5.33, 4.07 0.13 M15.76 11.54 C11.82 9.08, 8.32 6.85, 2.32 1.4 M16.66 7.46 C13.45 3.9, 11.37 1.87, 6.98 -1.03 M15.81 7.33 C12.5 3.62, 9.18 1.49, 7.59 -0.58" stroke="#fa5252" stroke-width="0.5" fill="none"></path><path d="M6.78 0.1 C8.41 -0.58, 11.11 -0.58, 12.63 0.12 C14.15 0.81, 15.46 2.85, 15.89 4.28 C16.32 5.71, 15.72 7.05, 15.23 8.7 C14.73 10.34, 14.43 13.21, 12.93 14.16 C11.43 15.11, 7.91 14.9, 6.24 14.41 C4.56 13.92, 4.05 12.32, 2.87 11.23 C1.68 10.15, -0.58 9.29, -0.89 7.89 C-1.19 6.49, -0.64 4.19, 1.04 2.85 C2.72 1.51, 7.69 0.41, 9.17 -0.14 C10.65 -0.7, 10.05 -0.64, 9.9 -0.48 M6.68 0.99 C8.22 0.46, 10.07 0.09, 11.8 0.75 C13.53 1.42, 16.18 3.51, 17.05 4.97 C17.93 6.43, 17.76 7.97, 17.05 9.5 C16.33 11.03, 14.64 13.45, 12.78 14.13 C10.93 14.8, 7.6 14.14, 5.91 13.53 C4.23 12.93, 3.5 11.77, 2.7 10.51 C1.9 9.25, 0.95 7.43, 1.11 5.97 C1.28 4.52, 2.47 3.01, 3.7 1.79 C4.93 0.57, 8.11 -1.13, 8.5 -1.33 C8.89 -1.54, 6.1 0.02, 6.04 0.56" stroke="#000000" stroke-width="1" fill="none"></path></g><g stroke-linecap="round" transform="translate(285.7905364911694 332.8774826930668) rotate(0 8.173845474323343 7.152114790032954)"><path d="M1.12 3.63 C1.12 3.63, 1.12 3.63, 1.12 3.63 M1.12 3.63 C1.12 3.63, 1.12 3.63, 1.12 3.63 M1.7 9.98 C2.4 8.71, 4.65 6.65, 7.25 3.22 M0.68 9.8 C3.15 7.76, 5.1 4.84, 6.4 2.86 M4.05 13.24 C6.31 9.96, 11.43 5.16, 12.28 2.87 M4.41 12.62 C6.35 10.45, 7.46 8, 12.97 2.64 M5.95 16.03 C9.26 11.98, 11.65 8.29, 15.65 5.59 M6.7 16.48 C9.91 11.13, 13.5 6.86, 16.31 5.18 M3.86 13.85 C3.86 13.85, 3.86 13.85, 3.86 13.85 M3.86 13.85 C3.86 13.85, 3.86 13.85, 3.86 13.85 M8.87 12.77 C6.73 10.67, 4.05 8.98, 1.1 6.48 M9.01 13.86 C7.33 11.74, 4.63 8.8, 0.67 5.94 M12.41 12.63 C9.3 8.45, 5.64 5.49, 1.82 2.48 M14.01 12.47 C9.81 9.48, 6.98 5.74, 2.35 1.38 M15.3 7.83 C11.91 5.13, 7.6 2.94, 5.75 -0.44 M15.5 7.89 C11.9 4.48, 8.61 1.42, 6.71 0.33" stroke="#fa5252" stroke-width="0.5" fill="none"></path><path d="M10 0.89 C11.36 1.1, 13.02 2.07, 14.05 3.06 C15.08 4.05, 16.29 5.27, 16.2 6.83 C16.11 8.39, 14.53 11.33, 13.51 12.43 C12.49 13.52, 11.7 13.14, 10.09 13.38 C8.48 13.61, 5.59 14.68, 3.84 13.84 C2.09 12.99, 0.04 9.99, -0.42 8.3 C-0.87 6.6, 0.26 4.78, 1.09 3.67 C1.92 2.56, 2.94 2.22, 4.56 1.64 C6.18 1.06, 9.75 0.32, 10.8 0.19 C11.85 0.06, 10.87 0.74, 10.86 0.86 M8.11 -0.9 C9.45 -0.89, 10.85 0.94, 12.13 2.16 C13.4 3.39, 15.26 4.98, 15.76 6.45 C16.26 7.92, 15.69 9.84, 15.13 10.97 C14.58 12.1, 14 12.53, 12.45 13.25 C10.89 13.97, 7.74 15.38, 5.8 15.27 C3.87 15.16, 1.9 13.75, 0.83 12.57 C-0.25 11.39, -0.82 9.71, -0.66 8.19 C-0.49 6.67, 0.72 5.03, 1.79 3.45 C2.87 1.88, 4.82 -0.83, 5.78 -1.26 C6.74 -1.68, 7.12 0.52, 7.56 0.9" stroke="#000000" stroke-width="1" fill="none"></path></g><g stroke-linecap="round"><g transform="translate(295.288634917948 379.0913538672646) rotate(0 17.635078314154725 -15.66445846649961)" fill-rule="evenodd"><path d="M9.66 -27.37 C9.66 -27.37, 9.66 -27.37, 9.66 -27.37 M9.66 -27.37 C9.66 -27.37, 9.66 -27.37, 9.66 -27.37 M7.35 -18.24 C10.37 -21.57, 14.21 -26.38, 16.57 -28.55 M6.08 -17.75 C9.94 -20.55, 12.59 -25.02, 17.84 -30.8 M3.48 -8.8 C10.37 -16.51, 18.19 -26.16, 23.52 -27.93 M5.88 -10.95 C9.99 -15.25, 16.49 -22.85, 20.61 -29.83 M1.71 2.63 C10.44 -9.03, 20.1 -19.91, 26.74 -26.17 M1.45 0.97 C6.82 -7.28, 12.88 -12.86, 24.75 -27.33 M8.26 1.96 C13.32 -7.37, 20.14 -16.41, 28.02 -23.25 M6.79 -0.03 C14.74 -8.33, 22.89 -18.49, 28.14 -23.84 M11.16 -0.41 C16.43 -5.85, 23.48 -9.92, 28.96 -21.17 M10.74 0.56 C17.44 -6.72, 25.86 -15.73, 31.28 -20.23 M18.42 2.19 C19.75 -2.73, 27.24 -9.84, 32.65 -18.56 M16.45 1.41 C22.94 -7.04, 28.52 -13.67, 33.99 -18 M20.82 -0.86 C24.33 -2.78, 28.82 -6.29, 32.97 -12.62 M22.83 0.58 C23.89 -3.16, 26.9 -4.9, 34.39 -13.47 M28.59 -0.65 C30.73 -2.89, 32.72 -4.46, 38.07 -9.31 M29.18 0.04 C31.46 -3.71, 33.98 -6.72, 37.63 -10.64 M0 0 C0 0, 0 0, 0 0 M0 0 C0 0, 0 0, 0 0 M6.98 0.13 C4.57 -1.46, 3.6 -2.9, 1.28 -4.84 M6.32 0.44 C4.97 -1.21, 3.15 -2.59, 0.94 -4.01 M10.66 0.25 C10.01 -2.78, 4.66 -6.18, 1.53 -9.1 M12.17 0.32 C9.11 -2.35, 6.22 -5.93, 1.44 -8.9 M18.05 0.21 C12.02 -3.49, 6.69 -8.99, 3.45 -13.75 M18.58 -0.83 C15.52 -3.8, 10.47 -5.76, 2.28 -13.9 M23.4 1.7 C16.92 -3.75, 11.4 -8.52, 4.02 -18.78 M24.53 0.54 C19.24 -5.19, 12.97 -10.02, 3.63 -17.06 M28.66 -3.07 C21.14 -9.87, 12.68 -15.34, 3.79 -22.92 M28.6 -1.77 C23.54 -7.07, 17.64 -11.59, 5.33 -22.12 M31.95 -3.26 C28.98 -8.36, 23.2 -9.46, 7.31 -23.85 M33.73 -2.37 C24.78 -10.31, 15.65 -18.31, 6.58 -25.85 M39.16 -4.01 C32.25 -10.05, 22.21 -16.41, 11.36 -29.66 M37.21 -5.19 C29.96 -10.56, 24.15 -16.72, 10.78 -28.7 M36.34 -13.36 C27 -17.5, 21.37 -25.02, 14.56 -28.38 M33.73 -11.45 C30.99 -14.92, 27.01 -19.44, 14.98 -30.46 M28.51 -20.79 C24.12 -26.02, 22.27 -30.8, 16.03 -32.69 M29.7 -22.22 C25.63 -24.09, 23.42 -27.16, 16.92 -32.37" stroke="#fa5252" stroke-width="0.5" fill="none"></path><path d="M-0.53 0.56 C0.24 -2.88, 2.21 -14.87, 5.05 -19.96 C7.9 -25.05, 12.62 -29.57, 16.53 -29.98 C20.44 -30.4, 25.53 -26.94, 28.52 -22.44 C31.51 -17.95, 39.32 -6.83, 34.45 -3.01 C29.57 0.8, 4.83 0.1, -0.72 0.43 M1.4 -0.19 C2.07 -4.06, 2.34 -16.56, 4.73 -21.85 C7.11 -27.13, 11.78 -31.99, 15.72 -31.89 C19.65 -31.79, 25.47 -26.03, 28.33 -21.23 C31.2 -16.43, 37.56 -6.57, 32.89 -3.09 C28.23 0.38, 6 -1.02, 0.32 -0.38" stroke="#000000" stroke-width="1" fill="none"></path></g></g><g stroke-linecap="round" transform="translate(303.78346665254867 332.5101635844205) rotate(0 8.858503605525357 7.75119065483463)"><path d="M4.19 0.99 C4.19 0.99, 4.19 0.99, 4.19 0.99 M4.19 0.99 C4.19 0.99, 4.19 0.99, 4.19 0.99 M1.32 10.87 C4.13 8.29, 5.47 6.31, 10.61 1.55 M1.62 10.7 C4.34 6.69, 6.69 3.16, 10.37 0.26 M2.57 15.08 C7.69 10.46, 9.2 7.21, 13.02 1.49 M4.29 13.9 C6.93 9.31, 11.8 4.89, 14.34 1.59 M7.84 14.55 C10.61 10.44, 14.64 7.68, 18.95 2.31 M7.89 14.23 C10.61 10.82, 13.94 8.66, 17.24 4.05 M10.81 17.35 C15.06 12.93, 17.59 11.58, 18.12 9.04 M11.45 16.36 C13.77 14.67, 14.65 12.52, 18.07 9.71 M3.9 13.81 C3.9 13.81, 3.9 13.81, 3.9 13.81 M3.9 13.81 C3.9 13.81, 3.9 13.81, 3.9 13.81 M10.56 14.75 C7.56 12.35, 4.17 9.68, 0.62 6.59 M10.82 15.39 C7.56 11.48, 3.33 7.63, 0.98 6.12 M14.21 12.41 C10.48 11.06, 8.46 7.08, 4.48 3.83 M14.44 11.63 C10.49 7.92, 6.21 5.05, 3.85 1.89 M16.86 11.33 C13.46 6.22, 9.22 4.35, 5.3 -0.12 M17.03 9.83 C15.46 8.09, 12.41 5.4, 6.01 -0.9 M19.21 4.68 C16.24 4.06, 13.18 0.06, 11.19 -0.86 M18.58 5.76 C16.88 3.53, 14.48 1.51, 10.96 -0.92" stroke="#fa5252" stroke-width="0.5" fill="none"></path><path d="M9.84 0.31 C11.63 0.27, 14.39 0.8, 15.6 2.12 C16.81 3.44, 16.96 6.59, 17.12 8.23 C17.27 9.87, 17.65 10.63, 16.53 11.95 C15.42 13.26, 12.59 15.86, 10.43 16.12 C8.26 16.38, 5.14 14.59, 3.55 13.51 C1.97 12.43, 1.39 10.92, 0.91 9.64 C0.42 8.37, 0.05 7.36, 0.63 5.87 C1.21 4.39, 2.49 1.58, 4.41 0.75 C6.32 -0.08, 10.36 0.66, 12.12 0.88 C13.88 1.11, 14.96 1.85, 14.99 2.1 M6.45 1.2 C7.99 1.16, 11.05 1.51, 12.71 2.28 C14.38 3.05, 15.61 4.57, 16.47 5.82 C17.32 7.07, 18.42 8.21, 17.85 9.81 C17.28 11.41, 14.9 14.31, 13.07 15.43 C11.24 16.55, 8.78 16.7, 6.88 16.53 C4.98 16.36, 2.88 15.6, 1.67 14.39 C0.46 13.17, -0.17 11.37, -0.38 9.26 C-0.58 7.15, -0.83 3.12, 0.46 1.73 C1.74 0.33, 6.03 1.08, 7.31 0.89 C8.59 0.71, 8.33 0.42, 8.13 0.61" stroke="#000000" stroke-width="1" fill="none"></path></g><g stroke-linecap="round"><g transform="translate(377.1428571428569 137.78735168605095) rotate(0 249.414140456734 -1.1077485392296822)"><path d="M1.18 0.46 C84.35 0.2, 415.73 -0.64, 498.49 -0.98 M0.34 -0.35 C83.39 -0.99, 414.19 -2.7, 497.5 -2.67" stroke="#000000" stroke-width="1" fill="none"></path></g><g transform="translate(377.1428571428569 137.78735168605095) rotate(0 249.414140456734 -1.1077485392296822)"><path d="M470.1 7.53 C477.88 3.37, 484.05 1.84, 496.01 -3.87 M469.5 8.38 C477.94 3.55, 488.57 0.33, 497.55 -1.79" stroke="#000000" stroke-width="1" fill="none"></path></g><g transform="translate(377.1428571428569 137.78735168605095) rotate(0 249.414140456734 -1.1077485392296822)"><path d="M470.04 -12.99 C477.94 -11.89, 484.12 -8.17, 496.01 -3.87 M469.44 -12.14 C478.1 -10.08, 488.75 -6.41, 497.55 -1.79" stroke="#000000" stroke-width="1" fill="none"></path></g></g><g transform="translate(432.32142857142844 73.57142857142861) rotate(0 135 12.5)"><text x="0" y="18" font-family="Virgil, Segoe UI Emoji" font-size="20px" fill="#000000" text-anchor="start" style="white-space: pre;" direction="ltr">Go to authorization server</text></g><g transform="translate(432.8571428571422 151.42857142857144) rotate(0 153.5 37.5)"><text x="0" y="18" font-family="Virgil, Segoe UI Emoji" font-size="20px" fill="#000000" text-anchor="start" style="white-space: pre;" direction="ltr">Redirect URI: yelp.com/callback</text><text x="0" y="43" font-family="Virgil, Segoe UI Emoji" font-size="20px" fill="#000000" text-anchor="start" style="white-space: pre;" direction="ltr">Response type: code</text><text x="0" y="68" font-family="Virgil, Segoe UI Emoji" font-size="20px" fill="#000000" text-anchor="start" style="white-space: pre;" direction="ltr">Scope: profile contacts</text></g><g transform="translate(931.4285714285716 10) rotate(0 101 12.5)"><text x="0" y="18" font-family="Virgil, Segoe UI Emoji" font-size="20px" fill="#000000" text-anchor="start" style="white-space: pre;" direction="ltr">Authorization Server</text></g><g transform="translate(197.1428571428578 20) rotate(0 27 12.5)"><text x="0" y="18" font-family="Virgil, Segoe UI Emoji" font-size="20px" fill="#000000" text-anchor="start" style="white-space: pre;" direction="ltr">Client</text></g><g transform="translate(10 248.57142857142856) rotate(0 43.5 25)"><text x="43.5" y="18" font-family="Virgil, Segoe UI Emoji" font-size="20px" fill="#000000" text-anchor="middle" style="white-space: pre;" direction="ltr">Resource</text><text x="43.5" y="43" font-family="Virgil, Segoe UI Emoji" font-size="20px" fill="#000000" text-anchor="middle" style="white-space: pre;" direction="ltr">Owner</text></g><g stroke-linecap="round"><g transform="translate(1018.9388594680704 246.34275917984826) rotate(0 1.205522402394081 141.81161667390987)"><path d="M-0.16 -0.89 C0.28 46.49, 1.14 237.2, 1.77 284.52 M-1.7 1.25 C-0.8 48.25, 3.24 235.53, 4.11 282.62" stroke="#000000" stroke-width="1" fill="none"></path></g><g transform="translate(1018.9388594680704 246.34275917984826) rotate(0 1.205522402394081 141.81161667390987)"><path d="M-8.21 253.44 C-3.45 263.08, -3.42 267.93, 5.53 281.11 M-6.67 255.53 C-4.47 260.37, -2.88 266.49, 4.19 282.41" stroke="#000000" stroke-width="1" fill="none"></path></g><g transform="translate(1018.9388594680704 246.34275917984826) rotate(0 1.205522402394081 141.81161667390987)"><path d="M12.31 253.03 C12.32 262.74, 7.6 267.68, 5.53 281.11 M13.84 255.11 C11.73 259.91, 9 266.12, 4.19 282.41" stroke="#000000" stroke-width="1" fill="none"></path></g></g><g stroke-linecap="round"><g transform="translate(844.2857142857147 631.8571428571428) rotate(0 -225.4405942227081 0.9412229587457546)"><path d="M-0.89 -0.72 C-76.09 -0.26, -375.73 2.21, -451 2.6 M0.84 1.52 C-74.5 1.69, -376.56 0.84, -451.72 1.09" stroke="#000000" stroke-width="1" fill="none"></path></g><g transform="translate(844.2857142857147 631.8571428571428) rotate(0 -225.4405942227081 0.9412229587457546)"><path d="M-424.73 -8.45 C-430.52 -7.88, -441.08 -1.45, -453.23 -0.69 M-422.64 -9.3 C-433.46 -6.48, -442.87 -2.06, -451.93 0.84" stroke="#000000" stroke-width="1" fill="none"></path></g><g transform="translate(844.2857142857147 631.8571428571428) rotate(0 -225.4405942227081 0.9412229587457546)"><path d="M-424.73 12.07 C-430.5 6.14, -441.05 6.07, -453.23 -0.69 M-422.64 11.22 C-433.33 7.03, -442.73 4.43, -451.93 0.84" stroke="#000000" stroke-width="1" fill="none"></path></g></g><g transform="translate(478.57142857142844 595.7142857142858) rotate(0 107.5 12.5)"><text x="0" y="18" font-family="Virgil, Segoe UI Emoji" font-size="20px" fill="#000000" text-anchor="start" style="white-space: pre;" direction="ltr">Back to redirect URI</text></g><g transform="translate(478.57142857142844 650.0000000000001) rotate(0 50 12.5)"><text x="0" y="18" font-family="Virgil, Segoe UI Emoji" font-size="20px" fill="#000000" text-anchor="start" style="white-space: pre;" direction="ltr">with token</text></g><g stroke-linecap="round"><g transform="translate(259.934629869892 550.4285714285714) rotate(0 43.71709046880483 -61.492839530714406)"><path d="M0.86 -0.91 C15.27 -21.33, 71.29 -102.04, 85.44 -122.36 M-0.15 1.23 C14.71 -19.58, 72.86 -103.77, 87.59 -124.21" stroke="#000000" stroke-width="1" fill="none"></path></g><g transform="translate(259.934629869892 550.4285714285714) rotate(0 43.71709046880483 -61.492839530714406)"><path d="M78.25 -97.04 C82.21 -102.74, 83.13 -105.82, 87.31 -124.68 M79.55 -95.5 C82.3 -101.96, 83.78 -108.43, 87.27 -123.54" stroke="#000000" stroke-width="1" fill="none"></path></g><g transform="translate(259.934629869892 550.4285714285714) rotate(0 43.71709046880483 -61.492839530714406)"><path d="M61.46 -108.85 C69 -112.17, 73.49 -112.74, 87.31 -124.68 M62.77 -107.31 C69.15 -111.23, 74.26 -115.14, 87.27 -123.54" stroke="#000000" stroke-width="1" fill="none"></path></g></g><g transform="translate(25.714285714285325 458.57142857142856) rotate(0 125 25)"><text x="0" y="18" font-family="Virgil, Segoe UI Emoji" font-size="20px" fill="#000000" text-anchor="start" style="white-space: pre;" direction="ltr">Talk to resources server</text><text x="0" y="43" font-family="Virgil, Segoe UI Emoji" font-size="20px" fill="#000000" text-anchor="start" style="white-space: pre;" direction="ltr">with access token</text></g><g stroke-linecap="round" transform="translate(850.6279761904761 534.5952380952378) rotate(0 188.57142857142844 94.99999999999994)"><path d="M0 0 C0 0, 0 0, 0 0 M0 0 C0 0, 0 0, 0 0 M-0.26 6.4 C1.31 4.59, 2.89 2.78, 4.99 0.36 M-0.26 6.4 C1.63 4.22, 3.52 2.04, 4.99 0.36 M0.13 12.04 C3.97 7.63, 7.8 3.22, 10.63 -0.03 M0.13 12.04 C3.12 8.6, 6.11 5.17, 10.63 -0.03 M-0.13 18.44 C3.61 14.14, 7.35 9.84, 15.62 0.33 M-0.13 18.44 C5.76 11.67, 11.65 4.89, 15.62 0.33 M0.27 24.08 C7.8 15.42, 15.33 6.75, 21.26 -0.07 M0.27 24.08 C8.58 14.52, 16.89 4.96, 21.26 -0.07 M0 30.48 C7.33 22.05, 14.66 13.62, 26.25 0.29 M0 30.48 C7.06 22.36, 14.11 14.25, 26.25 0.29 M-0.26 36.88 C9.87 25.22, 20 13.57, 31.89 -0.1 M-0.26 36.88 C7.85 27.55, 15.96 18.22, 31.89 -0.1 M0.14 42.52 C11.46 29.5, 22.78 16.47, 36.88 0.26 M0.14 42.52 C8.88 32.46, 17.62 22.41, 36.88 0.26 M-0.12 48.92 C12.04 34.93, 24.2 20.93, 42.52 -0.14 M-0.12 48.92 C14.4 32.21, 28.92 15.51, 42.52 -0.14 M0.27 54.56 C10.55 42.73, 20.84 30.9, 47.51 0.22 M0.27 54.56 C18.6 33.48, 36.92 12.4, 47.51 0.22 M0.01 60.96 C14.92 43.8, 29.84 26.65, 53.15 -0.17 M0.01 60.96 C16.6 41.87, 33.19 22.79, 53.15 -0.17 M-0.25 67.36 C12.15 53.09, 24.55 38.82, 58.14 0.19 M-0.25 67.36 C13.75 51.25, 27.75 35.14, 58.14 0.19 M0.14 73 C23.94 45.63, 47.73 18.25, 63.78 -0.21 M0.14 73 C18.13 52.31, 36.11 31.62, 63.78 -0.21 M-0.12 79.4 C21.09 55, 42.3 30.6, 68.77 0.15 M-0.12 79.4 C15.61 61.31, 31.33 43.22, 68.77 0.15 M0.28 85.04 C29.82 51.06, 59.36 17.07, 74.41 -0.24 M0.28 85.04 C24.82 56.8, 49.37 28.57, 74.41 -0.24 M0.01 91.44 C18.31 70.39, 36.61 49.33, 79.4 0.12 M0.01 91.44 C16.08 72.96, 32.15 54.47, 79.4 0.12 M-0.25 97.84 C20.98 73.42, 42.2 49.01, 85.04 -0.28 M-0.25 97.84 C16.92 78.09, 34.08 58.35, 85.04 -0.28 M0.15 103.48 C28.7 70.63, 57.26 37.78, 90.03 0.08 M0.15 103.48 C29.37 69.86, 58.59 36.25, 90.03 0.08 M-0.11 109.88 C36.31 67.98, 72.73 26.08, 95.67 -0.31 M-0.11 109.88 C19.09 87.78, 38.3 65.69, 95.67 -0.31 M0.28 115.52 C22.14 90.38, 43.99 65.24, 100.66 0.05 M0.28 115.52 C37.78 72.39, 75.27 29.25, 100.66 0.05 M0.02 121.92 C32.86 84.14, 65.7 46.36, 106.3 -0.34 M0.02 121.92 C31.96 85.17, 63.91 48.42, 106.3 -0.34 M-0.24 128.32 C43.24 78.3, 86.72 28.28, 111.29 0.02 M-0.24 128.32 C26.39 97.68, 53.03 67.04, 111.29 0.02 M0.15 133.96 C36.42 92.23, 72.7 50.51, 116.27 0.38 M0.15 133.96 C27.68 102.29, 55.2 70.63, 116.27 0.38 M-0.11 140.36 C24.82 111.68, 49.75 83, 121.92 -0.02 M-0.11 140.36 C27.48 108.61, 55.08 76.87, 121.92 -0.02 M0.29 146 C41.87 98.16, 83.46 50.32, 126.91 0.34 M0.29 146 C26.84 115.46, 53.39 84.91, 126.91 0.34 M0.02 152.4 C32.11 115.48, 64.2 78.57, 132.55 -0.05 M0.02 152.4 C47.04 98.32, 94.05 44.24, 132.55 -0.05 M-0.24 158.8 C35.09 118.16, 70.41 77.53, 137.54 0.31 M-0.24 158.8 C52.43 98.21, 105.1 37.62, 137.54 0.31 M0.16 164.44 C56.72 99.37, 113.28 34.31, 143.18 -0.09 M0.16 164.44 C37.05 121.99, 73.95 79.55, 143.18 -0.09 M-0.1 170.84 C37.88 127.14, 75.87 83.44, 148.17 0.27 M-0.1 170.84 C56.64 105.56, 113.38 40.28, 148.17 0.27 M0.29 176.48 C56.68 111.61, 113.07 46.74, 153.81 -0.12 M0.29 176.48 C43.77 126.46, 87.25 76.44, 153.81 -0.12 M0.03 182.88 C39.54 137.43, 79.05 91.97, 158.8 0.24 M0.03 182.88 C32.24 145.83, 64.44 108.78, 158.8 0.24 M-0.23 189.27 C60.96 118.89, 122.15 48.5, 164.44 -0.16 M-0.23 189.27 C64.31 115.03, 128.86 40.78, 164.44 -0.16 M2.79 191.9 C38.83 150.44, 74.87 108.98, 169.43 0.2 M2.79 191.9 C52.56 134.64, 102.34 77.37, 169.43 0.2 M7.77 192.26 C46.78 147.39, 85.79 102.51, 175.07 -0.19 M7.77 192.26 C51.21 142.29, 94.65 92.32, 175.07 -0.19 M13.42 191.86 C63.62 134.11, 113.83 76.35, 180.06 0.17 M13.42 191.86 C61.8 136.21, 110.18 80.55, 180.06 0.17 M18.4 192.22 C66.56 136.82, 114.72 81.42, 185.7 -0.23 M18.4 192.22 C81.29 119.88, 144.18 47.53, 185.7 -0.23 M24.05 191.83 C75.32 132.85, 126.59 73.86, 190.69 0.13 M24.05 191.83 C67.68 141.64, 111.31 91.45, 190.69 0.13 M29.03 192.19 C76.29 137.83, 123.54 83.47, 196.33 -0.26 M29.03 192.19 C86.64 125.92, 144.25 59.64, 196.33 -0.26 M34.02 192.55 C67.51 154.02, 101.01 115.49, 201.32 0.1 M34.02 192.55 C77.74 142.25, 121.46 91.96, 201.32 0.1 M39.66 192.16 C85.61 139.3, 131.55 86.45, 206.96 -0.3 M39.66 192.16 C103.69 118.5, 167.71 44.85, 206.96 -0.3 M44.65 192.52 C78.86 153.16, 113.07 113.81, 211.95 0.06 M44.65 192.52 C78.3 153.81, 111.95 115.1, 211.95 0.06 M50.29 192.12 C106 128.04, 161.7 63.96, 217.59 -0.33 M50.29 192.12 C87.55 149.26, 124.8 106.41, 217.59 -0.33 M55.28 192.48 C106.66 133.38, 158.04 74.27, 222.58 0.03 M55.28 192.48 C115.08 123.69, 174.89 54.89, 222.58 0.03 M60.92 192.09 C100.59 146.46, 140.25 100.83, 228.22 -0.36 M60.92 192.09 C96.08 151.64, 131.24 111.19, 228.22 -0.36 M65.91 192.45 C125.41 124, 184.91 55.55, 233.21 0 M65.91 192.45 C111.2 140.34, 156.49 88.24, 233.21 0 M71.55 192.05 C134.46 119.69, 197.36 47.33, 238.19 0.36 M71.55 192.05 C105.72 152.75, 139.88 113.46, 238.19 0.36 M76.54 192.41 C136.53 123.41, 196.51 54.4, 243.84 -0.04 M76.54 192.41 C117.58 145.2, 158.62 97.99, 243.84 -0.04 M82.18 192.02 C124.77 143.02, 167.36 94.03, 248.82 0.32 M82.18 192.02 C129.04 138.12, 175.89 84.22, 248.82 0.32 M87.17 192.38 C151.62 118.24, 216.07 44.09, 254.47 -0.07 M87.17 192.38 C128.95 144.32, 170.73 96.25, 254.47 -0.07 M92.81 191.98 C156.76 118.42, 220.71 44.85, 259.45 0.29 M92.81 191.98 C130.58 148.54, 168.35 105.09, 259.45 0.29 M97.8 192.34 C142.31 141.14, 186.83 89.93, 265.1 -0.11 M97.8 192.34 C134.02 150.68, 170.24 109.01, 265.1 -0.11 M103.44 191.95 C167.66 118.08, 231.87 44.21, 270.08 0.25 M103.44 191.95 C144.03 145.26, 184.61 98.58, 270.08 0.25 M108.43 192.31 C157.33 136.06, 206.23 79.81, 275.73 -0.14 M108.43 192.31 C165.69 126.44, 222.94 60.58, 275.73 -0.14 M114.07 191.91 C163.16 135.45, 212.25 78.98, 280.71 0.22 M114.07 191.91 C155.4 144.38, 196.72 96.84, 280.71 0.22 M119.06 192.27 C171.95 131.43, 224.84 70.59, 286.36 -0.18 M119.06 192.27 C183.91 117.68, 248.75 43.08, 286.36 -0.18 M124.7 191.88 C167.47 142.68, 210.24 93.48, 291.34 0.18 M124.7 191.88 C186.39 120.92, 248.07 49.96, 291.34 0.18 M129.69 192.24 C171.65 143.97, 213.6 95.71, 296.99 -0.21 M129.69 192.24 C192.82 119.62, 255.95 47, 296.99 -0.21 M135.33 191.85 C173.28 148.2, 211.22 104.55, 301.97 0.15 M135.33 191.85 C177.72 143.09, 220.1 94.33, 301.97 0.15 M140.32 192.21 C202.27 120.94, 264.23 49.67, 307.62 -0.25 M140.32 192.21 C190.55 134.42, 240.78 76.64, 307.62 -0.25 M145.31 192.57 C191.28 139.68, 237.25 86.8, 312.6 0.11 M145.31 192.57 C205.34 123.5, 265.38 54.44, 312.6 0.11 M150.95 192.17 C186.05 151.8, 221.14 111.43, 318.25 -0.28 M150.95 192.17 C185.94 151.92, 220.94 111.66, 318.25 -0.28 M155.94 192.53 C202.1 139.43, 248.26 86.33, 323.23 0.08 M155.94 192.53 C198.78 143.25, 241.62 93.96, 323.23 0.08 M161.58 192.14 C205.94 141.11, 250.29 90.09, 328.88 -0.31 M161.58 192.14 C215.29 130.35, 268.99 68.57, 328.88 -0.31 M166.57 192.5 C203.38 150.15, 240.19 107.81, 333.86 0.05 M166.57 192.5 C222.19 128.51, 277.82 64.52, 333.86 0.05 M172.21 192.1 C221.28 135.66, 270.34 79.22, 339.51 -0.35 M172.21 192.1 C225.21 131.13, 278.21 70.17, 339.51 -0.35 M177.2 192.46 C228.56 133.38, 279.91 74.3, 344.49 0.01 M177.2 192.46 C225.48 136.92, 273.76 81.39, 344.49 0.01 M182.84 192.07 C218.18 151.41, 253.52 110.76, 349.48 0.37 M182.84 192.07 C223.09 145.77, 263.34 99.47, 349.48 0.37 M187.83 192.43 C229.26 144.77, 270.68 97.12, 355.12 -0.02 M187.83 192.43 C227.8 146.45, 267.77 100.46, 355.12 -0.02 M193.47 192.03 C226.85 153.64, 260.23 115.24, 360.11 0.34 M193.47 192.03 C227.52 152.86, 261.57 113.69, 360.11 0.34 M198.46 192.39 C259.3 122.4, 320.15 52.41, 365.75 -0.06 M198.46 192.39 C233.95 151.56, 269.45 110.73, 365.75 -0.06 M204.1 192 C270.37 115.76, 336.64 39.53, 370.74 0.3 M204.1 192 C250.49 138.64, 296.88 85.27, 370.74 0.3 M209.09 192.36 C257.25 136.96, 305.41 81.55, 376.38 -0.09 M209.09 192.36 C251.08 144.05, 293.07 95.75, 376.38 -0.09 M214.73 191.96 C248.47 153.15, 282.21 114.34, 379.4 2.53 M214.73 191.96 C247.81 153.91, 280.89 115.86, 379.4 2.53 M219.72 192.32 C261.95 143.74, 304.18 95.16, 379.8 8.17 M219.72 192.32 C269.69 134.83, 319.67 77.35, 379.8 8.17 M225.36 191.93 C284.49 123.91, 343.61 55.9, 379.54 14.57 M225.36 191.93 C267.47 143.49, 309.58 95.04, 379.54 14.57 M230.35 192.29 C267.15 149.95, 303.96 107.61, 379.93 20.22 M230.35 192.29 C285.18 129.21, 340.01 66.14, 379.93 20.22 M235.99 191.89 C287.15 133.04, 338.31 74.19, 379.67 26.61 M235.99 191.89 C273.42 148.83, 310.86 105.77, 379.67 26.61 M240.98 192.25 C268.68 160.39, 296.38 128.53, 379.41 33.01 M240.98 192.25 C282.37 144.64, 323.76 97.03, 379.41 33.01 M246.62 191.86 C287.38 144.97, 328.14 98.09, 379.8 38.65 M246.62 191.86 C285.57 147.05, 324.52 102.25, 379.8 38.65 M251.61 192.22 C277.5 162.43, 303.4 132.64, 379.54 45.05 M251.61 192.22 C278.28 161.54, 304.95 130.86, 379.54 45.05 M257.25 191.83 C291.34 152.62, 325.42 113.4, 379.94 50.7 M257.25 191.83 C301.71 140.68, 346.17 89.54, 379.94 50.7 M262.24 192.19 C302.21 146.21, 342.18 100.23, 379.67 57.09 M262.24 192.19 C298.41 150.58, 334.57 108.98, 379.67 57.09 M267.23 192.55 C298.28 156.82, 329.33 121.1, 379.41 63.49 M267.23 192.55 C292.79 163.13, 318.36 133.72, 379.41 63.49 M272.87 192.15 C295.57 166.04, 318.26 139.93, 379.81 69.13 M272.87 192.15 C296.88 164.53, 320.9 136.9, 379.81 69.13 M277.86 192.51 C315.4 149.32, 352.95 106.13, 379.55 75.53 M277.86 192.51 C309.44 156.18, 341.02 119.85, 379.55 75.53 M283.5 192.12 C305.42 166.9, 327.35 141.68, 379.94 81.17 M283.5 192.12 C312.38 158.9, 341.25 125.68, 379.94 81.17 M288.49 192.48 C323.35 152.37, 358.22 112.26, 379.68 87.57 M288.49 192.48 C324.61 150.92, 360.73 109.37, 379.68 87.57 M294.13 192.08 C320.21 162.08, 346.29 132.08, 379.42 93.97 M294.13 192.08 C318.67 163.85, 343.21 135.62, 379.42 93.97 M299.12 192.44 C315.6 173.48, 332.09 154.52, 379.81 99.61 M299.12 192.44 C326.08 161.42, 353.05 130.4, 379.81 99.61 M304.76 192.05 C333.09 159.46, 361.42 126.87, 379.55 106.01 M304.76 192.05 C324.11 169.79, 343.46 147.53, 379.55 106.01 M309.75 192.41 C329.69 169.46, 349.64 146.51, 379.95 111.65 M309.75 192.41 C333.52 165.06, 357.29 137.72, 379.95 111.65 M315.39 192.01 C333.93 170.68, 352.47 149.36, 379.68 118.05 M315.39 192.01 C334.41 170.14, 353.42 148.26, 379.68 118.05 M320.38 192.37 C339.98 169.82, 359.58 147.27, 379.42 124.45 M320.38 192.37 C337.34 172.86, 354.3 153.34, 379.42 124.45 M326.02 191.98 C341.49 174.18, 356.96 156.39, 379.82 130.09 M326.02 191.98 C347.34 167.46, 368.65 142.94, 379.82 130.09 M331.01 192.34 C341.63 180.12, 352.25 167.9, 379.56 136.49 M331.01 192.34 C341.79 179.93, 352.57 167.53, 379.56 136.49 M336.65 191.94 C351.38 175, 366.11 158.05, 379.95 142.13 M336.65 191.94 C352.74 173.44, 368.83 154.93, 379.95 142.13 M341.64 192.3 C352.16 180.2, 362.67 168.1, 379.69 148.53 M341.64 192.3 C351.11 181.4, 360.59 170.5, 379.69 148.53 M347.28 191.91 C354.4 183.72, 361.51 175.54, 379.43 154.93 M347.28 191.91 C358.44 179.07, 369.61 166.22, 379.43 154.93 M352.27 192.27 C363.23 179.66, 374.19 167.05, 379.82 160.57 M352.27 192.27 C358.83 184.72, 365.39 177.17, 379.82 160.57 M357.91 191.88 C362.6 186.48, 367.29 181.08, 379.56 166.97 M357.91 191.88 C363.6 185.33, 369.3 178.78, 379.56 166.97 M362.9 192.24 C368.64 185.63, 374.38 179.03, 379.95 172.61 M362.9 192.24 C368.42 185.89, 373.93 179.54, 379.95 172.61 M368.54 191.84 C371.03 188.98, 373.51 186.12, 379.69 179.01 M368.54 191.84 C372.69 187.06, 376.84 182.29, 379.69 179.01 M373.53 192.2 C374.75 190.79, 375.98 189.38, 379.43 185.41 M373.53 192.2 C374.73 190.82, 375.93 189.44, 379.43 185.41" stroke="#ced4da" stroke-width="0.5" fill="none"></path><path d="M0 0 C140.03 0, 280.05 0, 377.14 0 M0 0 C116.12 0, 232.24 0, 377.14 0 M377.14 0 C377.14 49.73, 377.14 99.46, 377.14 190 M377.14 0 C377.14 71.76, 377.14 143.51, 377.14 190 M377.14 190 C275.32 190, 173.49 190, 0 190 M377.14 190 C238.51 190, 99.88 190, 0 190 M0 190 C0 133.97, 0 77.93, 0 0 M0 190 C0 142.51, 0 95.02, 0 0" stroke="#000000" stroke-width="1" fill="none"></path></g><g transform="translate(942.0565476190468 550.8095238095235) rotate(0 95.5 12.5)"><text x="0" y="18" font-family="Virgil, Segoe UI Emoji" font-size="20px" fill="#000000" text-anchor="start" style="white-space: pre;" direction="ltr">accounts.google.com</text></g><g transform="translate(882.0565476190468 589.3809523809521) rotate(0 161.5 25)"><text x="161.5" y="18" font-family="Virgil, Segoe UI Emoji" font-size="20px" fill="#000000" text-anchor="middle" style="white-space: pre;" direction="ltr">Allow Yelp to access your public </text><text x="161.5" y="43" font-family="Virgil, Segoe UI Emoji" font-size="20px" fill="#000000" text-anchor="middle" style="white-space: pre;" direction="ltr">profile and contacts?</text></g><g stroke-linecap="round" transform="translate(1042.770833333333 669.4523809523805) rotate(0 37.14285714285711 19.428571428571388)"><path d="M1.48 0 L74.08 0.04 L72.85 38.58 L1.18 40.49" stroke="none" stroke-width="0" fill="#ced4da"></path><path d="M1.77 -0.28 C24.93 -1.71, 50.78 0.12, 73.87 -0.5 M-0.64 -0.32 C29.26 -0.62, 58.11 -0.85, 74.98 0.36 M73.18 1.46 C73.25 12.82, 73.63 23.49, 72.46 37.11 M74.47 -0.67 C75.18 11.68, 75.28 24.98, 74.06 37.99 M74.71 37.09 C49.28 40.11, 20.96 40.47, 0.16 40.21 M75.03 38.34 C57.66 38.65, 43.94 39.51, 0.01 39.21 M-0.02 40.05 C1.49 24.67, -0.8 7.73, 0.96 0.88 M-0.83 39.69 C-0.29 26.54, 0.37 15.24, -0.69 0.8" stroke="#000000" stroke-width="1" fill="none"></path></g><g transform="translate(1065.3422619047615 674.9523809523803) rotate(0 12.5 12.5)"><text x="12.5" y="18" font-family="Virgil, Segoe UI Emoji" font-size="20px" fill="#000000" text-anchor="middle" style="white-space: pre;" direction="ltr">No</text></g><g stroke-linecap="round" transform="translate(1131.3422619047615 669.4523809523805) rotate(0 37.14285714285711 19.428571428571388)"><path d="M-0.2 0.04 L72.85 -0.28 L75.46 40.49 L-0.1 40.41" stroke="none" stroke-width="0" fill="#fd7e14"></path><path d="M-0.46 -1.67 C22.64 0.26, 44.87 -0.4, 75.98 -0.88 M0.68 -0.15 C27.94 -0.15, 54.69 0.6, 74.11 -0.37 M73.4 1.86 C73.56 16.17, 72.24 27.49, 74.79 39.8 M74.99 -0.96 C75.17 14.37, 74.13 28.48, 74.91 38.29 M76.2 39.85 C49.92 39.55, 24.71 39.56, -1.79 38.02 M73.29 37.94 C45.87 38.42, 15.6 38.82, 0.88 38.79 M1.46 39.74 C-0.82 24.1, 0.96 12.23, 0.19 -1.21 M-0.53 38.58 C0.46 30.81, -0.36 22.66, 0.74 0" stroke="#000000" stroke-width="1" fill="none"></path></g><g transform="translate(1149.91369047619 674.9523809523803) rotate(0 16.5 12.5)"><text x="16.5" y="18" font-family="Virgil, Segoe UI Emoji" font-size="20px" fill="#000000" text-anchor="middle" style="white-space: pre;" direction="ltr">Yes</text></g><g stroke-linecap="round"><g transform="translate(1225.4455053952634 749.3865719249636) rotate(0 16.688875955073627 -14.684362829696113)" fill-rule="evenodd"><path d="M8.97 -25.33 C8.97 -25.33, 8.97 -25.33, 8.97 -25.33 M8.97 -25.33 C8.97 -25.33, 8.97 -25.33, 8.97 -25.33 M5.88 -16.15 C9.88 -21.2, 13.73 -22.27, 16.95 -26.98 M6.42 -15.96 C10.25 -20.46, 11.98 -24.24, 17.28 -28.03 M5.04 -7.68 C9.62 -12.93, 15.65 -18.46, 19.43 -27.12 M4.56 -9.58 C9.5 -13.99, 15.06 -21.14, 20.38 -25.67 M1.62 1.21 C6.62 -6.13, 11.46 -9.46, 25.56 -24.36 M1.43 2.27 C9.71 -7.96, 18.28 -17.28, 23.73 -24.25 M6.72 0.43 C14.18 -3.92, 16.99 -12.07, 28.16 -20.42 M6.33 1.32 C13.7 -6.19, 19.31 -11.03, 26.76 -20.97 M10.41 3.16 C17.13 -3.36, 19.32 -8.37, 31.61 -19.31 M11.87 0.74 C16.12 -4.34, 22.43 -9.53, 29.39 -19.63 M16.79 0.8 C21.97 -3.16, 23.19 -6.02, 29.88 -13.39 M16.95 0.02 C21.8 -3.82, 26.52 -9.37, 30.85 -14.28 M23.32 0.81 C26.26 -1.67, 29.64 -3.99, 34.17 -9.2 M22.89 1.38 C25.01 -1.38, 29.04 -5.77, 33.24 -10.9 M28.44 1.18 C29.06 0.64, 32.02 -1.42, 33.77 -5.37 M27.45 1.89 C29.81 0.07, 31.12 -2.27, 33.86 -5.02" stroke="#15aabf" stroke-width="0.5" fill="none"></path><path d="M-1 0 C-0.36 -3.14, 1 -14.53, 3.67 -19.11 C6.35 -23.68, 11.23 -27.27, 15.04 -27.45 C18.86 -27.62, 23.89 -24.34, 26.58 -20.16 C29.27 -15.97, 35.49 -5.67, 31.2 -2.34 C26.91 0.99, 5.83 -0.49, 0.81 -0.18 M0.67 -1.04 C1.17 -3.97, 0.53 -13, 2.78 -17.7 C5.02 -22.4, 10.16 -28.49, 14.12 -29.26 C18.08 -30.02, 23.41 -26.83, 26.55 -22.31 C29.7 -17.8, 37.58 -5.65, 32.99 -2.15 C28.39 1.35, 4.71 -1.94, -1.01 -1.32" stroke="#000000" stroke-width="1" fill="none"></path></g></g><g stroke-linecap="round" transform="translate(1233.330417158767 705.7562852178932) rotate(0 8.183329809053248 7.160413582921649)"><path d="M3.45 1.67 C3.45 1.67, 3.45 1.67, 3.45 1.67 M3.45 1.67 C3.45 1.67, 3.45 1.67, 3.45 1.67 M3.78 8.07 C4.96 5.96, 6.28 3.75, 8.91 2.69 M2.99 8 C5.03 6.16, 6.32 4.44, 8.67 1.95 M3.37 12.58 C6.6 10.64, 10.8 5.45, 13.34 3.24 M4.04 12.31 C7.78 9.67, 10.31 5.86, 13.99 2.26 M9.05 13.63 C12.28 11.99, 14.08 7.36, 15.86 6.08 M8.54 14.58 C9.97 11.58, 12.59 9.95, 16.22 4.64" stroke="#15aabf" stroke-width="0.5" fill="none"></path><path d="M6.91 0.67 C8.49 0.24, 10.5 0.18, 12.13 0.91 C13.77 1.64, 15.99 3.58, 16.73 5.05 C17.48 6.51, 17.31 8.22, 16.59 9.7 C15.88 11.19, 14.21 13.29, 12.45 13.96 C10.69 14.63, 7.7 14.26, 6.01 13.74 C4.32 13.21, 3.19 12.06, 2.32 10.8 C1.44 9.55, 0.6 7.68, 0.75 6.2 C0.9 4.72, 1.81 3.1, 3.24 1.92 C4.67 0.73, 8.39 -0.67, 9.33 -0.91 C10.26 -1.14, 8.9 0.13, 8.85 0.53 M7.47 1.25 C9.23 1.05, 12.28 0.73, 13.54 1.77 C14.8 2.81, 14.96 5.82, 15.04 7.49 C15.12 9.16, 14.76 10.93, 14.02 11.81 C13.28 12.68, 11.91 12.33, 10.6 12.76 C9.28 13.19, 7.72 14.65, 6.14 14.38 C4.56 14.12, 2.09 12.53, 1.13 11.18 C0.18 9.83, 0.23 8.06, 0.41 6.3 C0.58 4.55, 0.51 1.52, 2.17 0.66 C3.82 -0.2, 9.35 1.47, 10.35 1.15 C11.34 0.82, 8.61 -1.48, 8.13 -1.32" stroke="#000000" stroke-width="1" fill="none"></path></g><g transform="translate(1044.3571428571431 421.42857142857144) rotate(0 98.5 25)"><text x="0" y="18" font-family="Virgil, Segoe UI Emoji" font-size="20px" fill="#000000" text-anchor="start" style="white-space: pre;" direction="ltr">Request consent</text><text x="0" y="43" font-family="Virgil, Segoe UI Emoji" font-size="20px" fill="#000000" text-anchor="start" style="white-space: pre;" direction="ltr">from resource owner</text></g><g transform="translate(431.07142857142844 105.35714285714306) rotate(0 71.5 12.5)"><text x="0" y="18" font-family="Virgil, Segoe UI Emoji" font-size="20px" fill="#d9480f" text-anchor="start" style="white-space: pre;" direction="ltr">(front channel)</text></g><g transform="translate(477.32142857142844 682.857142857143) rotate(0 71.5 12.5)"><text x="0" y="18" font-family="Virgil, Segoe UI Emoji" font-size="20px" fill="#d9480f" text-anchor="start" style="white-space: pre;" direction="ltr">(front channel)</text></g><g transform="translate(25.955818730939427 516.1218573910534) rotate(0 71.5 12.5)"><text x="0" y="18" font-family="Virgil, Segoe UI Emoji" font-size="20px" fill="#d9480f" text-anchor="start" style="white-space: pre;" direction="ltr">(front channel)</text></g></svg>