<svg version="1.1" xmlns="http://www.w3.org/2000/svg" viewBox="0 0 1269.6264425300044 760.1531436035574" width="3808.8793275900134" height="2280.459430810672">
  <!-- svg-source:excalidraw -->
  
  <defs>
    <style>
      @font-face {
        font-family: "Virgil";
        src: url("https://excalidraw.com/Virgil.woff2");
      }
      @font-face {
        font-family: "Cascadia";
        src: url("https://excalidraw.com/Cascadia.woff2");
      }
    </style>
  </defs>
  <rect x="0" y="0" width="1269.6264425300044" height="760.1531436035574" fill="#ffffff"></rect><g stroke-linecap="round" transform="translate(82.05654761904702 554.5952380952384) rotate(0 153.57142857142844 72.14285714285711)"><path d="M0 0 C0 0, 0 0, 0 0 M0 0 C0 0, 0 0, 0 0 M-0.26 6.4 C0.99 4.95, 2.25 3.51, 4.99 0.36 M-0.26 6.4 C1.17 4.75, 2.61 3.1, 4.99 0.36 M0.13 12.04 C3.02 8.71, 5.92 5.39, 10.63 -0.03 M0.13 12.04 C2.29 9.56, 4.44 7.09, 10.63 -0.03 M-0.13 18.44 C3.12 14.7, 6.37 10.96, 15.62 0.33 M-0.13 18.44 C6.01 11.37, 12.16 4.31, 15.62 0.33 M0.27 24.08 C8.34 14.79, 16.42 5.5, 21.26 -0.07 M0.27 24.08 C4.96 18.69, 9.65 13.29, 21.26 -0.07 M0 30.48 C8.31 20.93, 16.61 11.38, 26.25 0.29 M0 30.48 C9.83 19.18, 19.65 7.88, 26.25 0.29 M-0.26 36.88 C11.15 23.75, 22.56 10.63, 31.89 -0.1 M-0.26 36.88 C12.37 22.35, 25 7.82, 31.89 -0.1 M0.14 42.52 C14.66 25.82, 29.18 9.12, 36.88 0.26 M0.14 42.52 C11.75 29.17, 23.36 15.81, 36.88 0.26 M-0.12 48.92 C15.52 30.92, 31.17 12.92, 42.52 -0.14 M-0.12 48.92 C11.56 35.48, 23.23 22.05, 42.52 -0.14 M0.27 54.56 C15.78 36.72, 31.3 18.87, 47.51 0.22 M0.27 54.56 C14.25 38.48, 28.24 22.39, 47.51 0.22 M0.01 60.96 C19.18 38.91, 38.35 16.86, 53.15 -0.17 M0.01 60.96 C16.89 41.54, 33.78 22.12, 53.15 -0.17 M-0.25 67.36 C14.98 49.83, 30.21 32.31, 58.14 0.19 M-0.25 67.36 C22.29 41.43, 44.82 15.5, 58.14 0.19 M0.14 73 C15.16 55.72, 30.18 38.44, 63.78 -0.21 M0.14 73 C17.08 53.51, 34.02 34.03, 63.78 -0.21 M-0.12 79.4 C27.22 47.95, 54.56 16.49, 68.77 0.15 M-0.12 79.4 C16.97 59.74, 34.05 40.09, 68.77 0.15 M0.28 85.04 C18.94 63.57, 37.6 42.1, 74.41 -0.24 M0.28 85.04 C26.36 55.04, 52.44 25.03, 74.41 -0.24 M0.01 91.44 C15.9 73.17, 31.78 54.9, 79.4 0.12 M0.01 91.44 C26.6 60.85, 53.19 30.27, 79.4 0.12 M-0.25 97.84 C19.05 75.64, 38.34 53.45, 85.04 -0.28 M-0.25 97.84 C25.14 68.63, 50.53 39.42, 85.04 -0.28 M0.15 103.48 C35.5 62.81, 70.86 22.14, 90.03 0.08 M0.15 103.48 C26.22 73.49, 52.29 43.5, 90.03 0.08 M-0.11 109.88 C32.17 72.74, 64.46 35.59, 95.67 -0.31 M-0.11 109.88 C30.3 74.89, 60.71 39.9, 95.67 -0.31 M0.28 115.52 C36.33 74.05, 72.39 32.57, 100.66 0.05 M0.28 115.52 C35.16 75.39, 70.05 35.27, 100.66 0.05 M0.02 121.92 C34.18 82.62, 68.34 43.32, 106.3 -0.34 M0.02 121.92 C33.57 83.33, 67.11 44.74, 106.3 -0.34 M-0.24 128.32 C37.6 84.79, 75.43 41.26, 111.29 0.02 M-0.24 128.32 C36.78 85.73, 73.8 43.14, 111.29 0.02 M0.15 133.96 C32.16 97.14, 64.17 60.31, 116.27 0.38 M0.15 133.96 C33.48 95.62, 66.81 57.27, 116.27 0.38 M-0.11 140.36 C28.54 107.41, 57.18 74.45, 121.92 -0.02 M-0.11 140.36 C31.44 104.06, 63 67.76, 121.92 -0.02 M0.94 145.25 C33.14 108.21, 65.34 71.17, 126.91 0.34 M0.94 145.25 C40.91 99.27, 80.88 53.29, 126.91 0.34 M6.58 144.85 C32.55 114.99, 58.51 85.12, 132.55 -0.05 M6.58 144.85 C48.58 96.54, 90.57 48.24, 132.55 -0.05 M11.57 145.21 C46.4 105.15, 81.22 65.09, 137.54 0.31 M11.57 145.21 C59.77 89.76, 107.97 34.32, 137.54 0.31 M17.21 144.82 C51.63 105.22, 86.05 65.63, 143.18 -0.09 M17.21 144.82 C61.66 93.69, 106.11 42.56, 143.18 -0.09 M22.2 145.18 C61.6 99.85, 101 54.52, 148.17 0.27 M22.2 145.18 C66.28 94.47, 110.35 43.77, 148.17 0.27 M27.19 145.54 C67.12 99.6, 107.05 53.67, 153.81 -0.12 M27.19 145.54 C65.7 101.23, 104.22 56.93, 153.81 -0.12 M32.83 145.14 C70.43 101.88, 108.04 58.63, 158.8 0.24 M32.83 145.14 C80.27 90.57, 127.71 36, 158.8 0.24 M37.82 145.5 C72.15 106.01, 106.48 66.52, 164.44 -0.16 M37.82 145.5 C84.05 92.32, 130.28 39.14, 164.44 -0.16 M43.46 145.11 C84.65 97.73, 125.83 50.35, 169.43 0.2 M43.46 145.11 C82.61 100.07, 121.75 55.04, 169.43 0.2 M48.45 145.47 C91.31 96.16, 134.17 46.85, 175.07 -0.19 M48.45 145.47 C86.95 101.18, 125.45 56.88, 175.07 -0.19 M54.09 145.07 C85.68 108.73, 117.27 72.4, 180.06 0.17 M54.09 145.07 C90.77 102.88, 127.45 60.69, 180.06 0.17 M59.08 145.43 C106.55 90.82, 154.02 36.22, 185.7 -0.23 M59.08 145.43 C94.55 104.63, 130.02 63.83, 185.7 -0.23 M64.72 145.04 C100.25 104.17, 135.78 63.3, 190.69 0.13 M64.72 145.04 C108.45 94.74, 152.18 44.43, 190.69 0.13 M69.71 145.4 C107.32 102.13, 144.93 58.86, 196.33 -0.26 M69.71 145.4 C100.46 110.02, 131.22 74.64, 196.33 -0.26 M75.35 145 C124.76 88.17, 174.16 31.34, 201.32 0.1 M75.35 145 C125.57 87.24, 175.78 29.47, 201.32 0.1 M80.34 145.36 C115.93 104.42, 151.52 63.48, 206.96 -0.3 M80.34 145.36 C122.46 96.91, 164.58 48.46, 206.96 -0.3 M85.98 144.97 C125.29 99.75, 164.61 54.52, 211.95 0.06 M85.98 144.97 C118.26 107.83, 150.54 70.7, 211.95 0.06 M90.97 145.33 C136.86 92.53, 182.76 39.74, 217.59 -0.33 M90.97 145.33 C126.46 104.5, 161.96 63.67, 217.59 -0.33 M96.61 144.93 C138.41 96.85, 180.21 48.76, 222.58 0.03 M96.61 144.93 C124.48 112.87, 152.35 80.81, 222.58 0.03 M101.6 145.29 C131.49 110.9, 161.39 76.52, 228.22 -0.36 M101.6 145.29 C127.87 115.08, 154.13 84.86, 228.22 -0.36 M107.24 144.9 C145.16 101.28, 183.08 57.65, 233.21 0 M107.24 144.9 C143.2 103.54, 179.15 62.18, 233.21 0 M112.23 145.26 C144.5 108.13, 176.78 71, 238.19 0.36 M112.23 145.26 C140.72 112.49, 169.21 79.71, 238.19 0.36 M117.87 144.87 C146.67 111.74, 175.47 78.61, 243.84 -0.04 M117.87 144.87 C159.6 96.86, 201.33 48.85, 243.84 -0.04 M122.86 145.23 C152.65 110.96, 182.43 76.69, 248.82 0.32 M122.86 145.23 C153 110.55, 183.15 75.87, 248.82 0.32 M128.5 144.83 C164.14 103.84, 199.78 62.84, 254.47 -0.07 M128.5 144.83 C170.31 96.74, 212.12 48.64, 254.47 -0.07 M133.49 145.19 C164.96 108.99, 196.43 72.79, 259.45 0.29 M133.49 145.19 C176.34 95.89, 219.2 46.59, 259.45 0.29 M139.13 144.8 C188.46 88.06, 237.78 31.32, 265.1 -0.11 M139.13 144.8 C183.35 93.93, 227.56 43.07, 265.1 -0.11 M144.12 145.16 C172.92 112.02, 201.73 78.89, 270.08 0.25 M144.12 145.16 C170.95 114.3, 197.77 83.44, 270.08 0.25 M149.11 145.52 C179.71 110.32, 210.3 75.12, 275.73 -0.14 M149.11 145.52 C192.53 95.56, 235.95 45.61, 275.73 -0.14 M154.75 145.12 C200.7 92.27, 246.64 39.41, 280.71 0.22 M154.75 145.12 C196.6 96.98, 238.44 48.85, 280.71 0.22 M159.74 145.48 C195.14 104.75, 230.55 64.02, 286.36 -0.18 M159.74 145.48 C204.39 94.11, 249.05 42.74, 286.36 -0.18 M165.38 145.09 C204.33 100.28, 243.27 55.48, 291.34 0.18 M165.38 145.09 C211.13 92.46, 256.88 39.83, 291.34 0.18 M170.37 145.45 C209.78 100.11, 249.2 54.76, 296.99 -0.21 M170.37 145.45 C210.35 99.45, 250.34 53.45, 296.99 -0.21 M176.01 145.05 C222.93 91.08, 269.85 37.1, 301.97 0.15 M176.01 145.05 C221.6 92.61, 267.18 40.17, 301.97 0.15 M181 145.41 C219.21 101.45, 257.43 57.49, 307.62 -0.25 M181 145.41 C213.74 107.75, 246.47 70.09, 307.62 -0.25 M186.64 145.02 C225.81 99.96, 264.99 54.89, 307.36 6.15 M186.64 145.02 C231.88 92.97, 277.13 40.93, 307.36 6.15 M191.63 145.38 C235.02 95.47, 278.4 45.55, 307.09 12.55 M191.63 145.38 C226.01 105.83, 260.39 66.27, 307.09 12.55 M197.27 144.98 C240.75 94.96, 284.23 44.94, 307.49 18.19 M197.27 144.98 C223.62 114.67, 249.97 84.36, 307.49 18.19 M202.26 145.34 C225.05 119.13, 247.83 92.91, 307.23 24.59 M202.26 145.34 C227.55 116.25, 252.84 87.16, 307.23 24.59 M207.9 144.95 C234.76 114.05, 261.62 83.16, 306.97 30.99 M207.9 144.95 C245.79 101.36, 283.68 57.77, 306.97 30.99 M212.89 145.31 C238.31 116.07, 263.73 86.82, 307.36 36.63 M212.89 145.31 C249.36 103.35, 285.84 61.39, 307.36 36.63 M218.53 144.92 C245.31 114.11, 272.08 83.31, 307.1 43.03 M218.53 144.92 C238.32 122.15, 258.12 99.38, 307.1 43.03 M223.52 145.28 C251.6 112.97, 279.69 80.66, 307.49 48.67 M223.52 145.28 C250.56 114.17, 277.6 83.06, 307.49 48.67 M229.16 144.88 C252.23 118.34, 275.3 91.81, 307.23 55.07 M229.16 144.88 C258.13 111.56, 287.1 78.23, 307.23 55.07 M234.15 145.24 C261.47 113.81, 288.8 82.37, 306.97 61.47 M234.15 145.24 C258.04 117.76, 281.93 90.28, 306.97 61.47 M239.79 144.85 C261.24 120.18, 282.68 95.51, 307.36 67.11 M239.79 144.85 C254.99 127.36, 270.18 109.88, 307.36 67.11 M244.78 145.21 C264.28 122.77, 283.78 100.34, 307.1 73.51 M244.78 145.21 C268.1 118.38, 291.42 91.56, 307.1 73.51 M250.42 144.81 C267.21 125.5, 283.99 106.19, 307.5 79.15 M250.42 144.81 C271.84 120.17, 293.26 95.53, 307.5 79.15 M255.41 145.17 C267.24 131.57, 279.06 117.96, 307.24 85.55 M255.41 145.17 C272.04 126.04, 288.67 106.91, 307.24 85.55 M260.39 145.53 C270.23 134.22, 280.07 122.9, 306.97 91.95 M260.39 145.53 C269.85 134.65, 279.31 123.77, 306.97 91.95 M266.04 145.14 C280.97 127.95, 295.91 110.77, 307.37 97.59 M266.04 145.14 C279.25 129.94, 292.45 114.75, 307.37 97.59 M271.02 145.5 C282.34 132.49, 293.65 119.47, 307.11 103.99 M271.02 145.5 C281.12 133.88, 291.22 122.26, 307.11 103.99 M276.67 145.1 C286.29 134.04, 295.91 122.97, 307.5 109.63 M276.67 145.1 C283.2 137.59, 289.74 130.07, 307.5 109.63 M281.65 145.46 C289.46 136.48, 297.27 127.5, 307.24 116.03 M281.65 145.46 C291.07 134.64, 300.48 123.81, 307.24 116.03 M287.3 145.07 C292 139.66, 296.7 134.25, 306.98 122.43 M287.3 145.07 C293.8 137.59, 300.31 130.1, 306.98 122.43 M292.29 145.43 C297.57 139.35, 302.85 133.28, 307.37 128.07 M292.29 145.43 C295.6 141.62, 298.91 137.8, 307.37 128.07 M297.93 145.03 C300.32 142.28, 302.71 139.53, 307.11 134.47 M297.93 145.03 C300.67 141.88, 303.41 138.73, 307.11 134.47 M302.92 145.39 C304.16 143.96, 305.4 142.53, 307.51 140.11 M302.92 145.39 C304.66 143.39, 306.39 141.39, 307.51 140.11" stroke="#ced4da" stroke-width="0.5" fill="none"></path><path d="M0 0 C90.83 0, 181.66 0, 307.14 0 M0 0 C64.28 0, 128.56 0, 307.14 0 M307.14 0 C307.14 47.02, 307.14 94.03, 307.14 144.29 M307.14 0 C307.14 33.58, 307.14 67.16, 307.14 144.29 M307.14 144.29 C210.9 144.29, 114.66 144.29, 0 144.29 M307.14 144.29 C235.89 144.29, 164.63 144.29, 0 144.29 M0 144.29 C0 108.46, 0 72.64, 0 0 M0 144.29 C0 97.58, 0 50.87, 0 0" stroke="#000000" stroke-width="1" fill="none"></path></g><g transform="translate(154.91369047618946 572.2380952380955) rotate(0 81.5 12.5)"><text x="0" y="18" font-family="Virgil, Segoe UI Emoji" font-size="20px" fill="#000000" text-anchor="start" style="white-space: pre;" direction="ltr">yelp.com/callback</text></g><g transform="translate(176.84226190476102 624.1666666666667) rotate(0 49.5 12.5)"><text x="49.5" y="18" font-family="Virgil, Segoe UI Emoji" font-size="20px" fill="#000000" text-anchor="middle" style="white-space: pre;" direction="ltr">Loading ...</text></g><g stroke-linecap="round" transform="translate(67.7708333333328 63.166666666666615) rotate(0 153.57142857142844 72.14285714285712)"><path d="M0 0 C0 0, 0 0, 0 0 M0 0 C0 0, 0 0, 0 0 M-0.26 6.4 C1.62 4.23, 3.51 2.06, 4.99 0.36 M-0.26 6.4 C1.17 4.75, 2.61 3.1, 4.99 0.36 M0.13 12.04 C3.65 8, 7.16 3.95, 10.63 -0.03 M0.13 12.04 C2.76 9.02, 5.39 5.99, 10.63 -0.03 M-0.13 18.44 C5.05 12.49, 10.22 6.53, 15.62 0.33 M-0.13 18.44 C4.17 13.5, 8.46 8.56, 15.62 0.33 M0.27 24.08 C7.3 15.99, 14.33 7.9, 21.26 -0.07 M0.27 24.08 C8.65 14.44, 17.03 4.79, 21.26 -0.07 M0 30.48 C10.22 18.73, 20.43 6.98, 26.25 0.29 M0 30.48 C7.26 22.13, 14.51 13.79, 26.25 0.29 M-0.26 36.88 C8.15 27.2, 16.56 17.53, 31.89 -0.1 M-0.26 36.88 C10.79 24.17, 21.84 11.46, 31.89 -0.1 M0.14 42.52 C13.04 27.67, 25.95 12.83, 36.88 0.26 M0.14 42.52 C8.95 32.38, 17.77 22.24, 36.88 0.26 M-0.12 48.92 C16.07 30.28, 32.27 11.65, 42.52 -0.14 M-0.12 48.92 C8.83 38.62, 17.77 28.33, 42.52 -0.14 M0.27 54.56 C13.73 39.08, 27.19 23.59, 47.51 0.22 M0.27 54.56 C14.91 37.72, 29.55 20.88, 47.51 0.22 M0.01 60.96 C16.72 41.74, 33.42 22.52, 53.15 -0.17 M0.01 60.96 C11.42 47.84, 22.83 34.71, 53.15 -0.17 M-0.25 67.36 C18.4 45.9, 37.05 24.44, 58.14 0.19 M-0.25 67.36 C12.79 52.36, 25.83 37.35, 58.14 0.19 M0.14 73 C15.99 54.76, 31.85 36.53, 63.78 -0.21 M0.14 73 C17.05 53.56, 33.95 34.11, 63.78 -0.21 M-0.12 79.4 C16.64 60.11, 33.41 40.83, 68.77 0.15 M-0.12 79.4 C21.11 54.98, 42.34 30.56, 68.77 0.15 M0.28 85.04 C24.54 57.13, 48.8 29.22, 74.41 -0.24 M0.28 85.04 C27.02 54.27, 53.77 23.51, 74.41 -0.24 M0.01 91.44 C24.2 63.62, 48.38 35.8, 79.4 0.12 M0.01 91.44 C22.46 65.62, 44.9 39.81, 79.4 0.12 M-0.25 97.84 C21.22 73.15, 42.68 48.45, 85.04 -0.28 M-0.25 97.84 C32.92 59.68, 66.08 21.53, 85.04 -0.28 M0.15 103.48 C19.09 81.69, 38.03 59.9, 90.03 0.08 M0.15 103.48 C23.16 77.01, 46.17 50.53, 90.03 0.08 M-0.11 109.88 C27.11 78.55, 54.34 47.23, 95.67 -0.31 M-0.11 109.88 C31.42 73.6, 62.96 37.32, 95.67 -0.31 M0.28 115.52 C33.24 77.61, 66.2 39.69, 100.66 0.05 M0.28 115.52 C33.19 77.67, 66.09 39.81, 100.66 0.05 M0.02 121.92 C26.22 91.77, 52.43 61.63, 106.3 -0.34 M0.02 121.92 C26.79 91.12, 53.56 60.33, 106.3 -0.34 M-0.24 128.32 C31.39 91.93, 63.02 55.54, 111.29 0.02 M-0.24 128.32 C43.07 78.49, 86.38 28.67, 111.29 0.02 M0.15 133.96 C37.23 91.3, 74.31 48.65, 116.27 0.38 M0.15 133.96 C37 91.57, 73.85 49.17, 116.27 0.38 M-0.11 140.36 C44.07 89.53, 88.25 38.71, 121.92 -0.02 M-0.11 140.36 C38.75 95.65, 77.61 50.95, 121.92 -0.02 M0.94 145.25 C31.52 110.07, 62.09 74.9, 126.91 0.34 M0.94 145.25 C48.42 90.63, 95.89 36.02, 126.91 0.34 M6.58 144.85 C45.44 100.15, 84.3 55.44, 132.55 -0.05 M6.58 144.85 C55.68 88.37, 104.78 31.89, 132.55 -0.05 M11.57 145.21 C51.43 99.36, 91.28 53.52, 137.54 0.31 M11.57 145.21 C58.48 91.25, 105.38 37.3, 137.54 0.31 M17.21 144.82 C58.43 97.4, 99.65 49.98, 143.18 -0.09 M17.21 144.82 C50.52 106.5, 83.82 68.19, 143.18 -0.09 M22.2 145.18 C72.49 87.33, 122.78 29.48, 148.17 0.27 M22.2 145.18 C64.55 96.46, 106.91 47.74, 148.17 0.27 M27.19 145.54 C62.88 104.48, 98.56 63.43, 153.81 -0.12 M27.19 145.54 C77.22 87.98, 127.25 30.43, 153.81 -0.12 M32.83 145.14 C71.82 100.29, 110.81 55.44, 158.8 0.24 M32.83 145.14 C82.15 88.4, 131.48 31.66, 158.8 0.24 M37.82 145.5 C75.22 102.48, 112.62 59.46, 164.44 -0.16 M37.82 145.5 C66.36 112.67, 94.89 79.84, 164.44 -0.16 M43.46 145.11 C71.8 112.51, 100.14 79.91, 169.43 0.2 M43.46 145.11 C87.81 94.08, 132.17 43.06, 169.43 0.2 M48.45 145.47 C92.78 94.47, 137.12 43.46, 175.07 -0.19 M48.45 145.47 C97.73 88.78, 147.01 32.09, 175.07 -0.19 M54.09 145.07 C89.7 104.12, 125.3 63.16, 180.06 0.17 M54.09 145.07 C94.68 98.38, 135.26 51.7, 180.06 0.17 M59.08 145.43 C95.54 103.49, 132 61.55, 185.7 -0.23 M59.08 145.43 C98.48 100.11, 137.88 54.78, 185.7 -0.23 M64.72 145.04 C112.46 90.12, 160.2 35.21, 190.69 0.13 M64.72 145.04 C102.11 102.03, 139.5 59.02, 190.69 0.13 M69.71 145.4 C96.29 114.83, 122.86 84.25, 196.33 -0.26 M69.71 145.4 C95.88 115.29, 122.05 85.19, 196.33 -0.26 M75.35 145 C121.93 91.42, 168.51 37.84, 201.32 0.1 M75.35 145 C120.89 92.61, 166.44 40.22, 201.32 0.1 M80.34 145.36 C115.35 105.09, 150.35 64.82, 206.96 -0.3 M80.34 145.36 C115.99 104.35, 151.65 63.33, 206.96 -0.3 M85.98 144.97 C120.02 105.81, 154.06 66.65, 211.95 0.06 M85.98 144.97 C122.84 102.57, 159.7 60.17, 211.95 0.06 M90.97 145.33 C129.91 100.53, 168.85 55.73, 217.59 -0.33 M90.97 145.33 C133.06 96.91, 175.15 48.49, 217.59 -0.33 M96.61 144.93 C128.72 108, 160.83 71.06, 222.58 0.03 M96.61 144.93 C141.56 93.22, 186.52 41.51, 222.58 0.03 M101.6 145.29 C150.02 89.59, 198.44 33.89, 228.22 -0.36 M101.6 145.29 C145.45 94.85, 189.3 44.4, 228.22 -0.36 M107.24 144.9 C139.7 107.56, 172.16 70.22, 233.21 0 M107.24 144.9 C146.51 99.72, 185.79 54.55, 233.21 0 M112.23 145.26 C142.41 110.54, 172.6 75.81, 238.19 0.36 M112.23 145.26 C150.16 101.63, 188.09 58, 238.19 0.36 M117.87 144.87 C164.73 90.97, 211.58 37.06, 243.84 -0.04 M117.87 144.87 C143.75 115.1, 169.62 85.33, 243.84 -0.04 M122.86 145.23 C157.78 105.05, 192.7 64.88, 248.82 0.32 M122.86 145.23 C168.86 92.31, 214.86 39.39, 248.82 0.32 M128.5 144.83 C160.04 108.55, 191.58 72.27, 254.47 -0.07 M128.5 144.83 C175.93 90.27, 223.36 35.71, 254.47 -0.07 M133.49 145.19 C177.9 94.1, 222.32 43.01, 259.45 0.29 M133.49 145.19 C170.97 102.07, 208.46 58.95, 259.45 0.29 M139.13 144.8 C177.55 100.6, 215.97 56.4, 265.1 -0.11 M139.13 144.8 C171.19 107.92, 203.24 71.05, 265.1 -0.11 M144.12 145.16 C192.3 89.74, 240.47 34.32, 270.08 0.25 M144.12 145.16 C175.35 109.23, 206.58 73.31, 270.08 0.25 M149.11 145.52 C188.01 100.76, 226.92 56.01, 275.73 -0.14 M149.11 145.52 C194.59 93.2, 240.07 40.87, 275.73 -0.14 M154.75 145.12 C197.95 95.43, 241.15 45.74, 280.71 0.22 M154.75 145.12 C199.66 93.46, 244.57 41.79, 280.71 0.22 M159.74 145.48 C208.86 88.97, 257.99 32.46, 286.36 -0.18 M159.74 145.48 C197.89 101.59, 236.04 57.71, 286.36 -0.18 M165.38 145.09 C199.33 106.03, 233.29 66.97, 291.34 0.18 M165.38 145.09 C210.01 93.75, 254.64 42.4, 291.34 0.18 M170.37 145.45 C200.42 110.88, 230.46 76.31, 296.99 -0.21 M170.37 145.45 C218.74 89.8, 267.11 34.16, 296.99 -0.21 M176.01 145.05 C208.4 107.79, 240.79 70.53, 301.97 0.15 M176.01 145.05 C221.71 92.48, 267.41 39.91, 301.97 0.15 M181 145.41 C219.6 101.01, 258.2 56.6, 307.62 -0.25 M181 145.41 C230.78 88.14, 280.56 30.87, 307.62 -0.25 M186.64 145.02 C218.02 108.91, 249.41 72.81, 307.36 6.15 M186.64 145.02 C222.14 104.18, 257.65 63.33, 307.36 6.15 M191.63 145.38 C237.76 92.31, 283.89 39.24, 307.09 12.55 M191.63 145.38 C216.71 116.52, 241.8 87.67, 307.09 12.55 M197.27 144.98 C229.42 108, 261.57 71.01, 307.49 18.19 M197.27 144.98 C224.94 113.15, 252.62 81.31, 307.49 18.19 M202.26 145.34 C232.66 110.37, 263.07 75.39, 307.23 24.59 M202.26 145.34 C226.12 117.89, 249.98 90.44, 307.23 24.59 M207.9 144.95 C230.22 119.28, 252.53 93.61, 306.97 30.99 M207.9 144.95 C240.3 107.67, 272.71 70.4, 306.97 30.99 M212.89 145.31 C241.5 112.39, 270.12 79.47, 307.36 36.63 M212.89 145.31 C240.02 114.1, 267.15 82.89, 307.36 36.63 M218.53 144.92 C253.34 104.87, 288.16 64.82, 307.1 43.03 M218.53 144.92 C236.79 123.91, 255.06 102.9, 307.1 43.03 M223.52 145.28 C250.92 113.75, 278.33 82.23, 307.49 48.67 M223.52 145.28 C253 111.36, 282.48 77.45, 307.49 48.67 M229.16 144.88 C259.36 110.14, 289.57 75.39, 307.23 55.07 M229.16 144.88 C257.5 112.28, 285.85 79.67, 307.23 55.07 M234.15 145.24 C249.18 127.95, 264.21 110.66, 306.97 61.47 M234.15 145.24 C253.37 123.12, 272.6 101, 306.97 61.47 M239.79 144.85 C257.21 124.81, 274.63 104.77, 307.36 67.11 M239.79 144.85 C257.56 124.41, 275.32 103.98, 307.36 67.11 M244.78 145.21 C266.52 120.19, 288.27 95.18, 307.1 73.51 M244.78 145.21 C267.32 119.28, 289.86 93.35, 307.1 73.51 M250.42 144.81 C268.47 124.04, 286.53 103.28, 307.5 79.15 M250.42 144.81 C271.06 121.06, 291.71 97.32, 307.5 79.15 M255.41 145.17 C271.94 126.15, 288.47 107.13, 307.24 85.55 M255.41 145.17 C269.41 129.07, 283.41 112.96, 307.24 85.55 M260.39 145.53 C275.87 127.73, 291.35 109.92, 306.97 91.95 M260.39 145.53 C274.64 129.14, 288.89 112.75, 306.97 91.95 M266.04 145.14 C276.01 133.66, 285.98 122.19, 307.37 97.59 M266.04 145.14 C278.7 130.57, 291.36 116.01, 307.37 97.59 M271.02 145.5 C283.11 131.59, 295.2 117.69, 307.11 103.99 M271.02 145.5 C283.03 131.68, 295.04 117.87, 307.11 103.99 M276.67 145.1 C288.99 130.92, 301.32 116.75, 307.5 109.63 M276.67 145.1 C285.23 135.25, 293.79 125.41, 307.5 109.63 M281.65 145.46 C287.11 139.19, 292.56 132.92, 307.24 116.03 M281.65 145.46 C288.56 137.51, 295.47 129.57, 307.24 116.03 M287.3 145.07 C291.97 139.69, 296.65 134.31, 306.98 122.43 M287.3 145.07 C292.85 138.68, 298.41 132.28, 306.98 122.43 M292.29 145.43 C297.03 139.97, 301.78 134.51, 307.37 128.07 M292.29 145.43 C297.36 139.59, 302.43 133.76, 307.37 128.07 M297.93 145.03 C301.21 141.26, 304.5 137.48, 307.11 134.47 M297.93 145.03 C300.77 141.77, 303.6 138.5, 307.11 134.47 M302.92 145.39 C304.05 144.09, 305.18 142.79, 307.51 140.11 M302.92 145.39 C304.48 143.6, 306.04 141.8, 307.51 140.11" stroke="#ced4da" stroke-width="0.5" fill="none"></path><path d="M0 0 C71.35 0, 142.7 0, 307.14 0 M0 0 C84.44 0, 168.88 0, 307.14 0 M307.14 0 C307.14 50.38, 307.14 100.75, 307.14 144.29 M307.14 0 C307.14 31.04, 307.14 62.09, 307.14 144.29 M307.14 144.29 C230.27 144.29, 153.4 144.29, 0 144.29 M307.14 144.29 C218.68 144.29, 130.22 144.29, 0 144.29 M0 144.29 C0 96.66, 0 49.03, 0 0 M0 144.29 C0 99.25, 0 54.21, 0 0" stroke="#000000" stroke-width="1" fill="none"></path></g><g stroke-linecap="round" transform="translate(114.19940476190368 133.02380952380952) rotate(0 110.71428571428567 20.857142857142833)"><path d="M-0.5 -1.13 L222.7 0.42 L219.43 43.04 L1 42.77" stroke="none" stroke-width="0" fill="#fd7e14"></path><path d="M1.13 -0.3 C54.51 1.15, 112.41 3.05, 222.93 -0.26 M-0.01 0.22 C74.61 0.16, 150.12 -0.75, 221.4 0.26 M222.22 -1.78 C221.79 11.55, 220.93 23.1, 219.49 43.32 M222.25 -0.5 C221.54 17.47, 220.63 34.04, 220.84 42.38 M219.96 42.38 C154.51 40.75, 89.7 42.17, -1.68 42.17 M221.57 40.97 C169.03 42.11, 115.96 42.51, -0.75 41.05 M1.93 41.14 C1.78 27.88, -1.14 18.58, 1.24 1.99 M-0.56 41.38 C-0.18 31.05, -0.06 18.75, -0.18 0.33" stroke="#000000" stroke-width="1" fill="none"></path></g><g transform="translate(125.9851190476179 141.3809523809523) rotate(0 99 12.5)"><text x="99" y="18" font-family="Virgil, Segoe UI Emoji" font-size="20px" fill="#000000" text-anchor="middle" style="white-space: pre;" direction="ltr">Connect with Google</text></g><g transform="translate(183.4851190476179 77.95238095238084) rotate(0 38 12.5)"><text x="0" y="18" font-family="Virgil, Segoe UI Emoji" font-size="20px" fill="#000000" text-anchor="start" style="white-space: pre;" direction="ltr">yelp.com</text></g><g stroke-linecap="round"><g transform="translate(39.168348861282084 238.44305004657855) rotate(0 16.82944487804002 -13.965166504021596)" fill-rule="evenodd"><path d="M8.97 -25.33 C8.97 -25.33, 8.97 -25.33, 8.97 -25.33 M8.97 -25.33 C8.97 -25.33, 8.97 -25.33, 8.97 -25.33 M5.79 -15.9 C10.34 -19.76, 13.9 -23.19, 17.29 -26.61 M6.92 -16.48 C10.11 -21.37, 14.46 -25.59, 16.46 -27.77 M6.92 -8.91 C7.5 -13.34, 13.02 -17.29, 19.31 -28.05 M4.7 -9.51 C8.96 -13.45, 13.07 -19.12, 20.88 -25.62 M1.61 3.31 C8.91 -4.61, 12.86 -11.17, 22.68 -22.93 M2.07 0.86 C9.04 -4.72, 15.03 -12.19, 23.62 -25.17 M8.77 -0.16 C14.74 -7.02, 19.93 -13.31, 25.45 -19.97 M6.92 1.35 C10.8 -4.26, 16.95 -9.88, 26.43 -20.78 M14.25 0.34 C19.33 -5.11, 21.52 -11.82, 31.48 -20.29 M12.53 1.71 C18.41 -5.59, 25.7 -13.58, 29.29 -18.89 M18.79 2.21 C22.58 -5.55, 26.5 -12.06, 31.54 -15.29 M18.65 1.86 C21.16 -2.22, 24.88 -6.7, 31.98 -14.11 M24.07 2.14 C26.74 -3.35, 30.5 -5.59, 32.28 -10.2 M22.75 1.68 C24.67 -1.27, 26.33 -3.61, 33.59 -10.54 M27.44 1.69 C29.64 0.23, 30.65 -0.87, 33.75 -4.38 M27.64 1.97 C30.06 -1.13, 32.41 -3.44, 34.08 -5.2" stroke="#15aabf" stroke-width="0.5" fill="none"></path><path d="M-0.72 -0.85 C-0.25 -3.93, 0.3 -13.68, 2.86 -18.11 C5.43 -22.54, 10.6 -27, 14.68 -27.44 C18.75 -27.88, 24.57 -24.88, 27.31 -20.74 C30.05 -16.61, 35.79 -6.01, 31.12 -2.63 C26.46 0.76, 4.53 -1.02, -0.69 -0.42 M1.1 1.31 C1.95 -2.13, 3.12 -14.75, 5.2 -19.84 C7.28 -24.94, 9.81 -29.29, 13.56 -29.24 C17.3 -29.19, 24.44 -23.99, 27.66 -19.55 C30.88 -15.1, 37.42 -5.56, 32.87 -2.58 C28.32 0.39, 5.78 -2.14, 0.37 -1.68" stroke="#000000" stroke-width="1" fill="none"></path></g></g><g stroke-linecap="round" transform="translate(47.053260624784116 194.81276333950808) rotate(0 8.183329809053362 7.160413582921677)"><path d="M1.39 2.53 C1.39 2.53, 1.39 2.53, 1.39 2.53 M1.39 2.53 C1.39 2.53, 1.39 2.53, 1.39 2.53 M0.22 9.68 C4.09 7.77, 5.7 4.01, 7.69 0.69 M0.08 9.93 C2.82 7.22, 6.3 4.01, 8.09 1.21 M2.28 14.19 C3.94 11.19, 6.76 7.53, 13.83 0.62 M3.48 12.81 C6.94 8.06, 10.45 5.01, 12.28 1.35 M5.88 15.48 C9.78 11.64, 13.26 5.94, 14.72 5.35 M6.94 14.36 C9.33 11.69, 11.37 9.93, 15.56 3.93 M11.64 16.45 C13.19 13.82, 14.14 11.26, 16.02 9.2 M11.16 16.39 C12.93 14.25, 14.38 12.64, 16.52 9.39" stroke="#15aabf" stroke-width="0.5" fill="none"></path><path d="M10.86 0.49 C12.46 0.62, 13.6 1.58, 14.41 2.8 C15.22 4.01, 15.87 6.04, 15.72 7.79 C15.57 9.54, 14.67 12.32, 13.53 13.3 C12.38 14.28, 10.74 13.89, 8.86 13.67 C6.99 13.46, 3.66 12.67, 2.27 11.98 C0.87 11.3, 0.68 11.08, 0.48 9.56 C0.29 8.04, 0.22 4.5, 1.09 2.87 C1.96 1.25, 4.15 0.3, 5.68 -0.18 C7.22 -0.66, 9.21 -0.35, 10.31 -0.02 C11.4 0.31, 12.28 1.62, 12.26 1.79 M8.85 1.21 C10.32 1.48, 11.44 1.27, 12.66 2.22 C13.88 3.17, 15.96 5.25, 16.16 6.9 C16.36 8.55, 14.77 10.86, 13.87 12.12 C12.97 13.38, 12.13 14.15, 10.79 14.46 C9.44 14.77, 7.35 14.47, 5.79 13.97 C4.23 13.47, 2.15 12.94, 1.43 11.47 C0.72 10, 1.25 6.81, 1.49 5.16 C1.73 3.52, 1.57 2.58, 2.88 1.61 C4.2 0.64, 8.53 -0.52, 9.4 -0.67 C10.26 -0.82, 8.29 0.52, 8.08 0.72" stroke="#000000" stroke-width="1" fill="none"></path></g><g stroke-linecap="round" transform="translate(879.1994047619039 60.30952380952378) rotate(0 147.8571428571429 90)"><path d="M0 0 C0 0, 0 0, 0 0 M0 0 C0 0, 0 0, 0 0 M-0.26 6.4 C1.34 4.55, 2.95 2.7, 4.99 0.36 M-0.26 6.4 C0.93 5.02, 2.13 3.65, 4.99 0.36 M0.13 12.04 C3.95 7.65, 7.77 3.26, 10.63 -0.03 M0.13 12.04 C2.35 9.49, 4.56 6.95, 10.63 -0.03 M-0.13 18.44 C3.55 14.21, 7.23 9.97, 15.62 0.33 M-0.13 18.44 C3.08 14.75, 6.29 11.06, 15.62 0.33 M0.27 24.08 C5.31 18.28, 10.35 12.48, 21.26 -0.07 M0.27 24.08 C6.34 17.1, 12.41 10.11, 21.26 -0.07 M0 30.48 C7.07 22.35, 14.13 14.23, 26.25 0.29 M0 30.48 C8.15 21.11, 16.29 11.75, 26.25 0.29 M-0.26 36.88 C11.81 23, 23.87 9.12, 31.89 -0.1 M-0.26 36.88 C11.43 23.43, 23.12 9.98, 31.89 -0.1 M0.14 42.52 C14.36 26.16, 28.58 9.8, 36.88 0.26 M0.14 42.52 C10.93 30.11, 21.71 17.7, 36.88 0.26 M-0.12 48.92 C13.27 33.51, 26.67 18.09, 42.52 -0.14 M-0.12 48.92 C16.32 30, 32.76 11.09, 42.52 -0.14 M0.27 54.56 C16.94 35.39, 33.6 16.22, 47.51 0.22 M0.27 54.56 C12.54 40.44, 24.81 26.33, 47.51 0.22 M0.01 60.96 C15.55 43.08, 31.09 25.21, 53.15 -0.17 M0.01 60.96 C19.43 38.62, 38.84 16.29, 53.15 -0.17 M-0.25 67.36 C18.55 45.73, 37.36 24.09, 58.14 0.19 M-0.25 67.36 C15.74 48.96, 31.73 30.57, 58.14 0.19 M0.14 73 C15.18 55.71, 30.21 38.41, 63.78 -0.21 M0.14 73 C23.88 45.69, 47.62 18.39, 63.78 -0.21 M-0.12 79.4 C16.51 60.26, 33.15 41.13, 68.77 0.15 M-0.12 79.4 C24.71 50.83, 49.54 22.27, 68.77 0.15 M0.28 85.04 C27.14 54.13, 54.01 23.22, 74.41 -0.24 M0.28 85.04 C25.31 56.25, 50.34 27.45, 74.41 -0.24 M0.01 91.44 C19.72 68.77, 39.42 46.11, 79.4 0.12 M0.01 91.44 C24.1 63.73, 48.19 36.01, 79.4 0.12 M-0.25 97.84 C32.03 60.7, 64.32 23.57, 85.04 -0.28 M-0.25 97.84 C20.9 73.51, 42.05 49.18, 85.04 -0.28 M0.15 103.48 C24.42 75.56, 48.68 47.64, 90.03 0.08 M0.15 103.48 C22.28 78.02, 44.41 52.57, 90.03 0.08 M-0.11 109.88 C26.95 78.74, 54.01 47.61, 95.67 -0.31 M-0.11 109.88 C33.6 71.1, 67.31 32.32, 95.67 -0.31 M0.28 115.52 C22.9 89.5, 45.52 63.48, 100.66 0.05 M0.28 115.52 C29.53 81.87, 58.78 48.23, 100.66 0.05 M0.02 121.92 C38.63 77.5, 77.24 33.09, 106.3 -0.34 M0.02 121.92 C37.96 78.28, 75.89 34.63, 106.3 -0.34 M-0.24 128.32 C24.65 99.68, 49.54 71.05, 111.29 0.02 M-0.24 128.32 C33.33 89.69, 66.91 51.07, 111.29 0.02 M0.15 133.96 C23.38 107.24, 46.61 80.52, 116.27 0.38 M0.15 133.96 C26.83 103.27, 53.51 72.58, 116.27 0.38 M-0.11 140.36 C44.21 89.37, 88.54 38.38, 121.92 -0.02 M-0.11 140.36 C36.09 98.72, 72.28 57.08, 121.92 -0.02 M0.29 146 C33.56 107.72, 66.84 69.44, 126.91 0.34 M0.29 146 C50.48 88.25, 100.68 30.51, 126.91 0.34 M0.02 152.4 C44.52 101.21, 89.01 50.03, 132.55 -0.05 M0.02 152.4 C34.34 112.92, 68.65 73.45, 132.55 -0.05 M-0.24 158.8 C42.77 109.32, 85.78 59.85, 137.54 0.31 M-0.24 158.8 C46.96 104.51, 94.15 50.22, 137.54 0.31 M0.16 164.44 C31.86 127.97, 63.55 91.51, 143.18 -0.09 M0.16 164.44 C47.09 110.45, 94.03 56.45, 143.18 -0.09 M-0.1 170.84 C59.11 102.72, 118.32 34.6, 148.17 0.27 M-0.1 170.84 C31.47 134.52, 63.03 98.2, 148.17 0.27 M0.29 176.48 C45.19 124.83, 90.08 73.18, 153.81 -0.12 M0.29 176.48 C31.59 140.47, 62.89 104.47, 153.81 -0.12 M1.34 181.37 C43.26 133.15, 85.17 84.93, 158.8 0.24 M1.34 181.37 C34.69 143, 68.04 104.63, 158.8 0.24 M6.98 180.97 C40.1 142.87, 73.22 104.77, 164.44 -0.16 M6.98 180.97 C61.31 118.48, 115.63 55.99, 164.44 -0.16 M11.97 181.33 C66.33 118.81, 120.68 56.28, 169.43 0.2 M11.97 181.33 C43.91 144.59, 75.86 107.84, 169.43 0.2 M17.61 180.94 C53.53 139.62, 89.44 98.31, 175.07 -0.19 M17.61 180.94 C75.85 113.95, 134.08 46.96, 175.07 -0.19 M22.6 181.3 C79.2 116.19, 135.79 51.09, 180.06 0.17 M22.6 181.3 C71.26 125.32, 119.93 69.34, 180.06 0.17 M28.24 180.9 C89.51 110.43, 150.78 39.95, 185.7 -0.23 M28.24 180.9 C68.57 134.52, 108.89 88.13, 185.7 -0.23 M33.23 181.26 C84.03 122.83, 134.83 64.39, 190.69 0.13 M33.23 181.26 C82.48 124.61, 131.73 67.96, 190.69 0.13 M38.22 181.62 C89.99 122.07, 141.75 62.52, 196.33 -0.26 M38.22 181.62 C92.11 119.63, 146 57.64, 196.33 -0.26 M43.86 181.23 C97.25 119.81, 150.65 58.39, 201.32 0.1 M43.86 181.23 C84.13 134.91, 124.4 88.58, 201.32 0.1 M48.85 181.59 C91.17 132.9, 133.49 84.22, 206.96 -0.3 M48.85 181.59 C99.52 123.3, 150.18 65.02, 206.96 -0.3 M54.49 181.2 C86.59 144.27, 118.69 107.35, 211.95 0.06 M54.49 181.2 C92.14 137.88, 129.79 94.57, 211.95 0.06 M59.48 181.56 C95.08 140.6, 130.69 99.64, 217.59 -0.33 M59.48 181.56 C99.13 135.94, 138.79 90.32, 217.59 -0.33 M65.12 181.16 C97 144.49, 128.88 107.82, 222.58 0.03 M65.12 181.16 C100.29 140.7, 135.46 100.24, 222.58 0.03 M70.11 181.52 C102.66 144.08, 135.2 106.64, 228.22 -0.36 M70.11 181.52 C124.98 118.4, 179.86 55.27, 228.22 -0.36 M75.75 181.13 C124.75 124.76, 173.74 68.4, 233.21 0 M75.75 181.13 C111.71 139.76, 147.67 98.39, 233.21 0 M80.74 181.49 C113.2 144.14, 145.67 106.79, 238.19 0.36 M80.74 181.49 C141.17 111.97, 201.59 42.46, 238.19 0.36 M86.38 181.09 C148.86 109.22, 211.34 37.34, 243.84 -0.04 M86.38 181.09 C138.88 120.7, 191.37 60.31, 243.84 -0.04 M91.37 181.45 C124.96 142.81, 158.56 104.16, 248.82 0.32 M91.37 181.45 C137.8 128.04, 184.23 74.63, 248.82 0.32 M97.01 181.06 C131.16 141.78, 165.3 102.5, 254.47 -0.07 M97.01 181.06 C140.64 130.87, 184.26 80.69, 254.47 -0.07 M102 181.42 C134.3 144.26, 166.61 107.09, 259.45 0.29 M102 181.42 C160.84 113.73, 219.68 46.04, 259.45 0.29 M107.64 181.02 C142.19 141.29, 176.73 101.55, 265.1 -0.11 M107.64 181.02 C148.16 134.41, 188.68 87.8, 265.1 -0.11 M112.63 181.38 C167.74 117.99, 222.85 54.59, 270.08 0.25 M112.63 181.38 C155.6 131.95, 198.57 82.51, 270.08 0.25 M118.27 180.99 C172.3 118.83, 226.33 56.68, 275.73 -0.14 M118.27 180.99 C170.49 120.92, 222.7 60.85, 275.73 -0.14 M123.26 181.35 C155.84 143.87, 188.41 106.4, 280.71 0.22 M123.26 181.35 C155.47 144.29, 187.69 107.23, 280.71 0.22 M128.9 180.95 C163.14 141.56, 197.38 102.17, 286.36 -0.18 M128.9 180.95 C163.02 141.71, 197.13 102.47, 286.36 -0.18 M133.89 181.31 C185.14 122.35, 236.4 63.39, 291.34 0.18 M133.89 181.31 C187.45 119.7, 241.01 58.09, 291.34 0.18 M139.53 180.92 C196.34 115.56, 253.16 50.21, 296.33 0.54 M139.53 180.92 C184.78 128.87, 230.03 76.82, 296.33 0.54 M144.52 181.28 C181.82 138.37, 219.12 95.46, 296.07 6.94 M144.52 181.28 C176.41 144.6, 208.29 107.91, 296.07 6.94 M150.16 180.88 C206.97 115.53, 263.79 50.18, 296.46 12.58 M150.16 180.88 C206.17 116.45, 262.19 52.02, 296.46 12.58 M155.15 181.24 C197.42 132.62, 239.69 83.99, 296.2 18.98 M155.15 181.24 C198.25 131.66, 241.35 82.08, 296.2 18.98 M160.14 181.6 C214.27 119.34, 268.39 57.07, 296.6 24.63 M160.14 181.6 C213.95 119.7, 267.77 57.79, 296.6 24.63 M165.78 181.21 C192.89 150.02, 220 118.83, 296.34 31.02 M165.78 181.21 C201.7 139.89, 237.62 98.56, 296.34 31.02 M170.77 181.57 C218.28 126.91, 265.8 72.25, 296.07 37.42 M170.77 181.57 C205.53 141.58, 240.29 101.6, 296.07 37.42 M176.41 181.18 C210.3 142.19, 244.18 103.21, 296.47 43.06 M176.41 181.18 C215.8 135.86, 255.2 90.54, 296.47 43.06 M181.4 181.54 C206.47 152.69, 231.55 123.84, 296.21 49.46 M181.4 181.54 C209.59 149.11, 237.78 116.68, 296.21 49.46 M187.04 181.14 C211.83 152.63, 236.61 124.11, 296.6 55.1 M187.04 181.14 C212.54 151.8, 238.05 122.46, 296.6 55.1 M192.03 181.5 C222.01 147.01, 251.98 112.53, 296.34 61.5 M192.03 181.5 C230.81 136.89, 269.59 92.27, 296.34 61.5 M197.67 181.11 C230.44 143.41, 263.21 105.71, 296.08 67.9 M197.67 181.11 C228.85 145.24, 260.03 109.37, 296.08 67.9 M202.66 181.47 C226.1 154.5, 249.54 127.54, 296.47 73.54 M202.66 181.47 C239.11 139.54, 275.56 97.61, 296.47 73.54 M208.3 181.07 C233.5 152.09, 258.69 123.1, 296.21 79.94 M208.3 181.07 C231.8 154.04, 255.3 127, 296.21 79.94 M213.29 181.43 C234.96 156.5, 256.64 131.56, 296.61 85.58 M213.29 181.43 C237.24 153.88, 261.19 126.32, 296.61 85.58 M218.93 181.04 C246.93 148.83, 274.93 116.61, 296.34 91.98 M218.93 181.04 C244.53 151.59, 270.13 122.14, 296.34 91.98 M223.92 181.4 C250.13 151.24, 276.34 121.09, 296.08 98.38 M223.92 181.4 C247 154.85, 270.08 128.3, 296.08 98.38 M229.56 181 C244.52 163.79, 259.48 146.58, 296.48 104.02 M229.56 181 C250.49 156.93, 271.42 132.85, 296.48 104.02 M234.55 181.36 C252.72 160.45, 270.9 139.55, 296.22 110.42 M234.55 181.36 C258.97 153.27, 283.39 125.18, 296.22 110.42 M240.19 180.97 C258.7 159.67, 277.22 138.37, 296.61 116.06 M240.19 180.97 C261.55 156.39, 282.92 131.82, 296.61 116.06 M245.18 181.33 C259.55 164.8, 273.92 148.26, 296.35 122.46 M245.18 181.33 C259.81 164.5, 274.44 147.67, 296.35 122.46 M250.82 180.93 C265.39 164.17, 279.96 147.41, 296.09 128.86 M250.82 180.93 C262.27 167.76, 273.73 154.58, 296.09 128.86 M255.81 181.29 C265.5 170.14, 275.2 158.98, 296.48 134.5 M255.81 181.29 C264.71 171.06, 273.61 160.82, 296.48 134.5 M261.45 180.9 C269.87 171.22, 278.28 161.54, 296.22 140.9 M261.45 180.9 C269.09 172.11, 276.73 163.32, 296.22 140.9 M266.44 181.26 C277.75 168.24, 289.07 155.23, 296.62 146.54 M266.44 181.26 C274.99 171.42, 283.54 161.59, 296.62 146.54 M271.42 181.62 C279.31 172.55, 287.2 163.48, 296.35 152.94 M271.42 181.62 C279.45 172.38, 287.48 163.14, 296.35 152.94 M277.07 181.23 C284.46 172.72, 291.85 164.22, 296.09 159.34 M277.07 181.23 C281.39 176.25, 285.72 171.27, 296.09 159.34 M282.05 181.59 C287.3 175.56, 292.54 169.53, 296.49 164.98 M282.05 181.59 C287.29 175.56, 292.53 169.54, 296.49 164.98 M287.7 181.19 C289.98 178.56, 292.26 175.94, 296.23 171.38 M287.7 181.19 C289.9 178.66, 292.11 176.12, 296.23 171.38 M292.68 181.55 C294.23 179.78, 295.77 178, 296.62 177.02 M292.68 181.55 C293.88 180.17, 295.08 178.8, 296.62 177.02" stroke="#ced4da" stroke-width="0.5" fill="none"></path><path d="M0 0 C117.33 0, 234.66 0, 295.71 0 M0 0 C98.65 0, 197.31 0, 295.71 0 M295.71 0 C295.71 41.08, 295.71 82.16, 295.71 180 M295.71 0 C295.71 50.13, 295.71 100.26, 295.71 180 M295.71 180 C218.7 180, 141.68 180, 0 180 M295.71 180 C196.39 180, 97.06 180, 0 180 M0 180 C0 125.66, 0 71.31, 0 0 M0 180 C0 108.85, 0 37.7, 0 0" stroke="#000000" stroke-width="1" fill="none"></path></g><g stroke-linecap="round" transform="translate(914.1994047619035 181.59523809523813) rotate(0 110.71428571428555 20.857142857142833)"><path d="M0.52 0.13 C62.03 -0.74, 121.63 0.99, 222.79 -1.18 M0.33 0.29 C58.81 1.3, 116.16 0.31, 221.61 0.72 M220.81 0.41 C221.55 14.72, 221.79 26.29, 221.01 40.75 M221.85 -0.17 C221.86 14.45, 221.14 30.32, 221.82 41.9 M221.17 40.96 C159.03 43, 94.27 42.77, -0.2 42.83 M221.39 40.95 C144.11 42.11, 66.75 42.46, -0.14 41.61 M-1.17 42.47 C0.68 26.6, -1.81 8.61, 0.72 -1.25 M-0.55 41.8 C0.17 26.21, 0.53 9.84, -0.08 0.28" stroke="#000000" stroke-width="1" fill="none"></path></g><g transform="translate(927.127976190475 189.9523809523809) rotate(0 46.5 12.5)"><text x="0" y="18" font-family="Virgil, Segoe UI Emoji" font-size="20px" fill="#000000" text-anchor="start" style="white-space: pre;" direction="ltr">Password</text></g><g stroke-linecap="round" transform="translate(914.1994047619035 130.16666666666669) rotate(0 110.71428571428555 20.857142857142833)"><path d="M0.16 0.96 C46.01 -0.52, 92.19 -1.2, 221.96 1.3 M0.18 0.73 C51.59 1.31, 102.8 1.15, 221.86 0.35 M221.19 0.11 C221.59 7.48, 222.98 16.44, 219.82 40.17 M221.66 0.17 C221.97 10.02, 222.11 20.46, 221.03 41.73 M222.72 42.96 C158.01 41.34, 94.1 40.89, -0.03 43.22 M221.27 41.37 C161.98 39.96, 102.61 39.55, -0.25 42.51 M1.88 40.01 C-0.37 28.31, 1.87 14, 1.58 -0.43 M-0.4 41.92 C-1.15 26.39, -0.01 10.54, -0.46 0.19" stroke="#000000" stroke-width="1" fill="none"></path></g><g transform="translate(927.127976190475 138.52380952380946) rotate(0 25 12.5)"><text x="0" y="18" font-family="Virgil, Segoe UI Emoji" font-size="20px" fill="#000000" text-anchor="start" style="white-space: pre;" direction="ltr">Email</text></g><g transform="translate(922.0565476190457 70.80952380952367) rotate(0 96 12.5)"><text x="0" y="18" font-family="Virgil, Segoe UI Emoji" font-size="20px" fill="#000000" text-anchor="start" style="white-space: pre;" direction="ltr">accounts.google.com</text></g><g stroke-linecap="round"><g transform="translate(1183.454063146996 258.4430500465787) rotate(0 16.518051544355785 -13.782506244725397)" fill-rule="evenodd"><path d="M8.97 -25.33 C8.97 -25.33, 8.97 -25.33, 8.97 -25.33 M8.97 -25.33 C8.97 -25.33, 8.97 -25.33, 8.97 -25.33 M7.07 -15.22 C9.17 -19.58, 11 -21.55, 16.02 -27.9 M6.96 -16.4 C9.68 -19.23, 12.06 -23.54, 16.72 -28.65 M5.82 -9.58 C9.55 -15.79, 14.98 -20.11, 19.28 -25.48 M4.56 -8.64 C9.94 -15.47, 15.99 -20.89, 19.81 -25.71 M2.99 2.26 C8.48 -8.33, 14.55 -14.65, 23.9 -24.74 M1.99 0.63 C8.48 -7.7, 17.55 -16.59, 24.14 -24.51 M6.87 1.58 C15.08 -5.87, 20.41 -13.99, 27.84 -22.23 M6.36 2.01 C13.06 -5.76, 19.19 -11.11, 26.06 -22.16 M12.65 -0.37 C15.38 -4.22, 19.33 -7.67, 31.69 -20.86 M12.9 1.3 C18.79 -4.86, 24.09 -11.71, 30.83 -19.36 M18.79 -0.94 C21.09 -2.52, 24.74 -8.3, 31.3 -16.17 M18.2 0.64 C23.19 -4.36, 27.59 -8.94, 32.35 -14.83 M21.65 -0.07 C27.78 -4.28, 30.01 -6.39, 34.28 -11.58 M23.2 0.62 C24.61 -0.87, 27.3 -3.74, 32.82 -10.53 M27.36 2.11 C28.66 -0.99, 31.43 -1.46, 32.97 -4.38 M27.56 1.9 C28.97 0.42, 30.65 -1.26, 33.76 -5.19" stroke="#15aabf" stroke-width="0.5" fill="none"></path><path d="M-0.02 0.5 C0.59 -2.55, 1.03 -13.99, 3.71 -18.83 C6.39 -23.66, 12.03 -28.27, 16.09 -28.49 C20.14 -28.72, 25.25 -24.65, 28.06 -20.16 C30.87 -15.67, 37.71 -5.03, 32.93 -1.55 C28.15 1.93, 4.83 0.61, -0.61 0.72 M-1.49 -0.29 C-1.03 -3.07, -0.04 -12.79, 2.83 -17.27 C5.7 -21.75, 11.38 -26.35, 15.71 -27.19 C20.04 -28.03, 26.1 -26.69, 28.81 -22.32 C31.52 -17.94, 36.68 -4.67, 31.96 -0.94 C27.24 2.78, 5.63 -0.26, 0.48 0.05" stroke="#000000" stroke-width="1" fill="none"></path></g></g><g stroke-linecap="round" transform="translate(1191.3389749104983 214.8127633395082) rotate(0 8.183329809053248 7.160413582921677)"><path d="M2.89 1.19 C2.89 1.19, 2.89 1.19, 2.89 1.19 M2.89 1.19 C2.89 1.19, 2.89 1.19, 2.89 1.19 M2.14 9.02 C4.63 5.75, 5.59 2.74, 8.51 0.78 M2.07 8.52 C3.35 5.82, 5.5 4.38, 8.51 0.9 M2.89 12.24 C6.13 10.47, 8.54 7.01, 12.07 3.95 M3.34 11.93 C6.41 10.19, 7.68 8.06, 11.95 2.88 M7.57 14.62 C8.46 10.9, 11.54 8.02, 17.19 4.99 M7.13 14.8 C9.17 12.56, 11.51 9.91, 16.94 4.38" stroke="#15aabf" stroke-width="0.5" fill="none"></path><path d="M9.1 0.63 C10.8 0.62, 13.23 1.09, 14.34 2.09 C15.45 3.08, 15.57 5.29, 15.75 6.62 C15.94 7.95, 16.13 8.91, 15.43 10.06 C14.74 11.21, 13.13 12.93, 11.55 13.52 C9.97 14.11, 7.71 14.14, 5.95 13.62 C4.19 13.09, 1.96 11.58, 1 10.36 C0.04 9.14, -0.14 7.85, 0.2 6.3 C0.53 4.74, 1.39 2.17, 3.03 1.03 C4.66 -0.11, 8.6 -0.42, 10.03 -0.55 C11.46 -0.68, 11.79 0.07, 11.63 0.23 M10.67 0.12 C12.17 0.36, 12.95 1.26, 13.65 2.47 C14.36 3.68, 14.8 5.5, 14.89 7.38 C14.98 9.26, 15.25 12.62, 14.19 13.76 C13.14 14.9, 10.52 14.23, 8.57 14.23 C6.63 14.23, 4.01 14.66, 2.53 13.79 C1.05 12.91, 0.04 10.39, -0.31 8.98 C-0.67 7.56, -0.63 6.62, 0.4 5.3 C1.43 3.99, 4.09 1.78, 5.85 1.07 C7.62 0.36, 10.03 1.1, 10.98 1.02 C11.93 0.94, 11.89 0.54, 11.54 0.58" stroke="#000000" stroke-width="1" fill="none"></path></g><g stroke-linecap="round" transform="translate(166.34226190476124 270.30952380952397) rotate(0 153.57142857142844 72.14285714285714)"><path d="M0 0 C0 0, 0 0, 0 0 M0 0 C0 0, 0 0, 0 0 M-0.26 6.4 C1.55 4.31, 3.36 2.23, 4.99 0.36 M-0.26 6.4 C1.38 4.51, 3.02 2.63, 4.99 0.36 M0.13 12.04 C2.98 8.77, 5.83 5.49, 10.63 -0.03 M0.13 12.04 C4.19 7.38, 8.24 2.71, 10.63 -0.03 M-0.13 18.44 C3.22 14.58, 6.57 10.73, 15.62 0.33 M-0.13 18.44 C3.52 14.24, 7.17 10.04, 15.62 0.33 M0.27 24.08 C5.3 18.29, 10.33 12.5, 21.26 -0.07 M0.27 24.08 C6.79 16.58, 13.32 9.07, 21.26 -0.07 M0 30.48 C6.74 22.73, 13.48 14.98, 26.25 0.29 M0 30.48 C9.94 19.05, 19.87 7.63, 26.25 0.29 M-0.26 36.88 C9.29 25.89, 18.85 14.9, 31.89 -0.1 M-0.26 36.88 C9.05 26.18, 18.35 15.48, 31.89 -0.1 M0.14 42.52 C8.11 33.35, 16.07 24.19, 36.88 0.26 M0.14 42.52 C7.62 33.91, 15.1 25.31, 36.88 0.26 M-0.12 48.92 C16.43 29.88, 32.98 10.84, 42.52 -0.14 M-0.12 48.92 C16.65 29.62, 33.43 10.32, 42.52 -0.14 M0.27 54.56 C18.83 33.21, 37.39 11.86, 47.51 0.22 M0.27 54.56 C12.03 41.03, 23.8 27.5, 47.51 0.22 M0.01 60.96 C16.86 41.58, 33.71 22.19, 53.15 -0.17 M0.01 60.96 C15.16 43.53, 30.32 26.09, 53.15 -0.17 M-0.25 67.36 C13.98 50.98, 28.22 34.61, 58.14 0.19 M-0.25 67.36 C20.02 44.03, 40.3 20.71, 58.14 0.19 M0.14 73 C22.26 47.56, 44.37 22.12, 63.78 -0.21 M0.14 73 C13.98 57.08, 27.82 41.16, 63.78 -0.21 M-0.12 79.4 C26.59 48.67, 53.3 17.95, 68.77 0.15 M-0.12 79.4 C15.12 61.86, 30.37 44.33, 68.77 0.15 M0.28 85.04 C15.29 67.77, 30.3 50.5, 74.41 -0.24 M0.28 85.04 C17.59 65.12, 34.91 45.2, 74.41 -0.24 M0.01 91.44 C16.08 72.95, 32.15 54.47, 79.4 0.12 M0.01 91.44 C22.63 65.42, 45.25 39.41, 79.4 0.12 M-0.25 97.84 C22.3 71.9, 44.85 45.96, 85.04 -0.28 M-0.25 97.84 C31.11 61.77, 62.46 25.7, 85.04 -0.28 M0.15 103.48 C20.37 80.21, 40.59 56.95, 90.03 0.08 M0.15 103.48 C21.94 78.41, 43.73 53.35, 90.03 0.08 M-0.11 109.88 C35.79 68.57, 71.7 27.27, 95.67 -0.31 M-0.11 109.88 C23.28 82.96, 46.68 56.04, 95.67 -0.31 M0.28 115.52 C35.6 74.89, 70.92 34.26, 100.66 0.05 M0.28 115.52 C29.28 82.16, 58.27 48.81, 100.66 0.05 M0.02 121.92 C25.01 93.17, 50 64.42, 106.3 -0.34 M0.02 121.92 C29.65 87.83, 59.28 53.75, 106.3 -0.34 M-0.24 128.32 C26.39 97.68, 53.02 67.04, 111.29 0.02 M-0.24 128.32 C34.31 88.57, 68.86 48.82, 111.29 0.02 M0.15 133.96 C24.03 106.49, 47.92 79.01, 116.27 0.38 M0.15 133.96 C32.33 96.95, 64.5 59.93, 116.27 0.38 M-0.11 140.36 C36.62 98.1, 73.35 55.85, 121.92 -0.02 M-0.11 140.36 C34.24 100.85, 68.58 61.34, 121.92 -0.02 M0.94 145.25 C39.53 100.86, 78.11 56.47, 126.91 0.34 M0.94 145.25 C30.63 111.1, 60.31 76.95, 126.91 0.34 M6.58 144.85 C46.02 99.49, 85.45 54.12, 132.55 -0.05 M6.58 144.85 C40.68 105.63, 74.77 66.41, 132.55 -0.05 M11.57 145.21 C38.83 113.86, 66.08 82.5, 137.54 0.31 M11.57 145.21 C54.62 95.69, 97.66 46.18, 137.54 0.31 M17.21 144.82 C43.53 114.55, 69.84 84.28, 143.18 -0.09 M17.21 144.82 C46.8 110.78, 76.39 76.75, 143.18 -0.09 M22.2 145.18 C56.77 105.41, 91.34 65.64, 148.17 0.27 M22.2 145.18 C69.19 91.12, 116.18 37.07, 148.17 0.27 M27.19 145.54 C62.87 104.49, 98.55 63.44, 153.81 -0.12 M27.19 145.54 C55.33 113.17, 83.47 80.8, 153.81 -0.12 M32.83 145.14 C67.91 104.79, 102.99 64.43, 158.8 0.24 M32.83 145.14 C70.37 101.96, 107.9 58.78, 158.8 0.24 M37.82 145.5 C86.5 89.5, 135.19 33.49, 164.44 -0.16 M37.82 145.5 C84.85 91.4, 131.88 37.3, 164.44 -0.16 M43.46 145.11 C79.48 103.67, 115.5 62.24, 169.43 0.2 M43.46 145.11 C78.18 105.17, 112.9 65.23, 169.43 0.2 M48.45 145.47 C90.11 97.55, 131.76 49.62, 175.07 -0.19 M48.45 145.47 C87.93 100.05, 127.41 54.63, 175.07 -0.19 M54.09 145.07 C80.99 114.13, 107.88 83.2, 180.06 0.17 M54.09 145.07 C86.29 108.03, 118.49 70.99, 180.06 0.17 M59.08 145.43 C95.39 103.66, 131.7 61.89, 185.7 -0.23 M59.08 145.43 C105.09 92.5, 151.1 39.58, 185.7 -0.23 M64.72 145.04 C94.62 110.65, 124.51 76.26, 190.69 0.13 M64.72 145.04 C112.37 90.23, 160.02 35.42, 190.69 0.13 M69.71 145.4 C118.92 88.79, 168.13 32.18, 196.33 -0.26 M69.71 145.4 C112.34 96.36, 154.97 47.32, 196.33 -0.26 M75.35 145 C124.84 88.07, 174.33 31.14, 201.32 0.1 M75.35 145 C122.52 90.75, 169.68 36.49, 201.32 0.1 M80.34 145.36 C121.46 98.06, 162.58 50.76, 206.96 -0.3 M80.34 145.36 C122.5 96.86, 164.66 48.37, 206.96 -0.3 M85.98 144.97 C133.23 90.62, 180.47 36.27, 211.95 0.06 M85.98 144.97 C132.04 91.98, 178.1 39, 211.95 0.06 M90.97 145.33 C134.61 95.12, 178.25 44.92, 217.59 -0.33 M90.97 145.33 C134.54 95.21, 178.1 45.1, 217.59 -0.33 M96.61 144.93 C139.2 95.94, 181.79 46.95, 222.58 0.03 M96.61 144.93 C129.88 106.66, 163.15 68.39, 222.58 0.03 M101.6 145.29 C134.19 107.81, 166.78 70.32, 228.22 -0.36 M101.6 145.29 C133.57 108.52, 165.53 71.75, 228.22 -0.36 M107.24 144.9 C144.48 102.06, 181.73 59.22, 233.21 0 M107.24 144.9 C154.18 90.91, 201.11 36.91, 233.21 0 M112.23 145.26 C141.34 111.77, 170.46 78.28, 238.19 0.36 M112.23 145.26 C141.36 111.75, 170.49 78.24, 238.19 0.36 M117.87 144.87 C158.27 98.4, 198.66 51.93, 243.84 -0.04 M117.87 144.87 C166.31 89.15, 214.74 33.43, 243.84 -0.04 M122.86 145.23 C172.44 88.19, 222.03 31.14, 248.82 0.32 M122.86 145.23 C166.21 95.36, 209.56 45.49, 248.82 0.32 M128.5 144.83 C172.03 94.76, 215.56 44.68, 254.47 -0.07 M128.5 144.83 C176.86 89.21, 225.21 33.58, 254.47 -0.07 M133.49 145.19 C162.71 111.58, 191.93 77.96, 259.45 0.29 M133.49 145.19 C177.01 95.12, 220.53 45.06, 259.45 0.29 M139.13 144.8 C184.74 92.33, 230.35 39.87, 265.1 -0.11 M139.13 144.8 C170.04 109.24, 200.94 73.69, 265.1 -0.11 M144.12 145.16 C193.57 88.27, 243.01 31.39, 270.08 0.25 M144.12 145.16 C179.43 104.54, 214.73 63.92, 270.08 0.25 M149.11 145.52 C177.13 113.28, 205.15 81.05, 275.73 -0.14 M149.11 145.52 C178.76 111.4, 208.42 77.29, 275.73 -0.14 M154.75 145.12 C190.17 104.38, 225.59 63.63, 280.71 0.22 M154.75 145.12 C190.54 103.95, 226.32 62.79, 280.71 0.22 M159.74 145.48 C189.34 111.43, 218.94 77.38, 286.36 -0.18 M159.74 145.48 C185.87 115.42, 212 85.36, 286.36 -0.18 M165.38 145.09 C198.52 106.97, 231.65 68.85, 291.34 0.18 M165.38 145.09 C213.64 89.57, 261.91 34.05, 291.34 0.18 M170.37 145.45 C217.13 91.65, 263.9 37.85, 296.99 -0.21 M170.37 145.45 C196.75 115.09, 223.14 84.74, 296.99 -0.21 M176.01 145.05 C209.11 106.98, 242.21 68.9, 301.97 0.15 M176.01 145.05 C213.08 102.41, 250.15 59.77, 301.97 0.15 M181 145.41 C213.57 107.94, 246.14 70.47, 307.62 -0.25 M181 145.41 C216.12 105.01, 251.25 64.6, 307.62 -0.25 M186.64 145.02 C230.6 94.44, 274.57 43.87, 307.36 6.15 M186.64 145.02 C213.8 113.78, 240.96 82.53, 307.36 6.15 M191.63 145.38 C236.21 94.09, 280.8 42.79, 307.09 12.55 M191.63 145.38 C219.48 113.34, 247.33 81.3, 307.09 12.55 M197.27 144.98 C220.49 118.27, 243.71 91.56, 307.49 18.19 M197.27 144.98 C227.4 110.33, 257.52 75.67, 307.49 18.19 M202.26 145.34 C234.17 108.63, 266.08 71.92, 307.23 24.59 M202.26 145.34 C235.65 106.92, 269.05 68.51, 307.23 24.59 M207.9 144.95 C228.2 121.6, 248.5 98.25, 306.97 30.99 M207.9 144.95 C230.49 118.96, 253.09 92.97, 306.97 30.99 M212.89 145.31 C233.5 121.59, 254.12 97.88, 307.36 36.63 M212.89 145.31 C242.87 110.82, 272.85 76.33, 307.36 36.63 M218.53 144.92 C245.89 113.44, 273.25 81.97, 307.1 43.03 M218.53 144.92 C251.17 107.37, 283.81 69.82, 307.1 43.03 M223.52 145.28 C256.73 107.06, 289.95 68.85, 307.49 48.67 M223.52 145.28 C243.54 122.24, 263.56 99.21, 307.49 48.67 M229.16 144.88 C248.22 122.95, 267.29 101.02, 307.23 55.07 M229.16 144.88 C249.82 121.11, 270.48 97.34, 307.23 55.07 M234.15 145.24 C260.51 114.91, 286.88 84.58, 306.97 61.47 M234.15 145.24 C253.93 122.48, 273.71 99.72, 306.97 61.47 M239.79 144.85 C259.49 122.19, 279.18 99.53, 307.36 67.11 M239.79 144.85 C265.27 115.53, 290.75 86.22, 307.36 67.11 M244.78 145.21 C263.68 123.46, 282.59 101.71, 307.1 73.51 M244.78 145.21 C269.58 116.67, 294.39 88.14, 307.1 73.51 M250.42 144.81 C267.03 125.7, 283.64 106.6, 307.5 79.15 M250.42 144.81 C265.09 127.94, 279.76 111.06, 307.5 79.15 M255.41 145.17 C269.1 129.42, 282.79 113.67, 307.24 85.55 M255.41 145.17 C275.56 121.99, 295.72 98.8, 307.24 85.55 M260.39 145.53 C271.68 132.55, 282.97 119.56, 306.97 91.95 M260.39 145.53 C276.53 126.97, 292.66 108.42, 306.97 91.95 M266.04 145.14 C280.45 128.55, 294.87 111.97, 307.37 97.59 M266.04 145.14 C274.57 135.32, 283.11 125.5, 307.37 97.59 M271.02 145.5 C282.01 132.86, 292.99 120.23, 307.11 103.99 M271.02 145.5 C284.64 129.83, 298.26 114.16, 307.11 103.99 M276.67 145.1 C286.56 133.72, 296.46 122.33, 307.5 109.63 M276.67 145.1 C282.95 137.88, 289.23 130.65, 307.5 109.63 M281.65 145.46 C291.77 133.82, 301.89 122.18, 307.24 116.03 M281.65 145.46 C291.21 134.47, 300.77 123.48, 307.24 116.03 M287.3 145.07 C291.3 140.46, 295.31 135.85, 306.98 122.43 M287.3 145.07 C293.67 137.73, 300.05 130.4, 306.98 122.43 M292.29 145.43 C298.22 138.6, 304.15 131.78, 307.37 128.07 M292.29 145.43 C296.03 141.12, 299.77 136.81, 307.37 128.07 M297.93 145.03 C300.49 142.09, 303.05 139.14, 307.11 134.47 M297.93 145.03 C300.69 141.85, 303.46 138.67, 307.11 134.47 M302.92 145.39 C304.45 143.63, 305.99 141.86, 307.51 140.11 M302.92 145.39 C303.86 144.31, 304.81 143.22, 307.51 140.11" stroke="#ced4da" stroke-width="0.5" fill="none"></path><path d="M0 0 C104.39 0, 208.78 0, 307.14 0 M0 0 C86.26 0, 172.52 0, 307.14 0 M307.14 0 C307.14 53.94, 307.14 107.88, 307.14 144.29 M307.14 0 C307.14 29.34, 307.14 58.68, 307.14 144.29 M307.14 144.29 C209.58 144.29, 112.02 144.29, 0 144.29 M307.14 144.29 C194.64 144.29, 82.14 144.29, 0 144.29 M0 144.29 C0 104.97, 0 65.66, 0 0 M0 144.29 C0 106.84, 0 69.39, 0 0" stroke="#000000" stroke-width="1" fill="none"></path></g><g transform="translate(239.19940476190368 287.9523809523811) rotate(0 76 12.5)"><text x="0" y="18" font-family="Virgil, Segoe UI Emoji" font-size="20px" fill="#000000" text-anchor="start" style="white-space: pre;" direction="ltr">google.contacts</text></g><g stroke-linecap="round"><g transform="translate(314.38759557349135 373.0161857101845) rotate(0 16.64520083680918 -14.243447252196404)" fill-rule="evenodd"><path d="M8.97 -25.32 C8.97 -25.32, 8.97 -25.32, 8.97 -25.32 M8.97 -25.32 C8.97 -25.32, 8.97 -25.32, 8.97 -25.32 M5.94 -16.22 C10.13 -20.42, 15.31 -25.55, 18.05 -28.26 M6.1 -16.88 C11.01 -20.27, 14.68 -24.56, 16.33 -28.1 M6.64 -9.38 C9.74 -15.82, 17.34 -23.82, 21.82 -27.44 M5.9 -9.27 C9.65 -14.21, 16.2 -21.14, 20.98 -27.05 M2.92 1.1 C8.46 -7.22, 15.91 -14.7, 23.48 -24.98 M0.95 1.31 C6.32 -4.68, 12.87 -12.5, 23.68 -23.41 M6.87 2.48 C15.19 -8.19, 21.33 -15.62, 26.84 -20.23 M7.73 0.4 C14.94 -7.99, 21.83 -14.53, 27.8 -22.54 M10.83 3.38 C16.02 -3.87, 19.57 -8.63, 30.61 -19.74 M12.66 1.35 C17.88 -3.23, 22.69 -9.85, 29.3 -19.05 M19.41 2.77 C21.77 -2.16, 24.02 -8.23, 29.81 -15.72 M16.98 0.39 C22.89 -5.53, 27.32 -10.56, 32.23 -15.09 M23.65 0.05 C25.95 -1.5, 28.07 -4.84, 32.63 -9.7 M22.09 0.68 C25.56 -1.85, 28.51 -5.15, 34.15 -11.33 M27.34 1.84 C29.79 -1.24, 31.98 -2.44, 34.03 -4.31 M27.99 1.95 C29.23 0.25, 31.5 -1.87, 34.19 -5.35 M0 0 C0 0, 0 0, 0 0 M0 0 C0 0, 0 0, 0 0 M6.7 0.3 C3.92 -1.08, 3.07 -3.11, 0.84 -4.3 M6.48 0.47 C4.57 -1.26, 3 -2.71, 1.33 -4.27 M12.61 -1.09 C7.87 -3.83, 4.88 -7.09, 1.67 -10.65 M11.5 -0.51 C7.8 -3.93, 4.79 -7.47, 1.1 -9.82 M17.33 -0.37 C16.87 -4.65, 11.6 -5.43, 4.57 -15.28 M18.33 0.51 C13.28 -4.51, 7.55 -10.39, 2.54 -13.48 M25.78 -2.16 C18.4 -2.8, 16.4 -8.06, 3.53 -17.8 M24.13 0.33 C18.17 -5.7, 10.14 -12.69, 4.11 -17.29 M29.4 -2.63 C22.85 -9.24, 17.87 -11.88, 6.1 -19.74 M28.12 -3.09 C20.84 -8.55, 16.97 -11.88, 6.34 -22.27 M31.65 -4.17 C26.95 -8.33, 15.61 -18.77, 6.37 -25.79 M33.91 -2.12 C23.9 -10.36, 14.12 -19.52, 7.7 -25.03 M35.04 -9.09 C28.63 -15.27, 19.62 -19.62, 9.16 -26.45 M34.81 -6.7 C28.55 -12.39, 22.77 -17.59, 11.37 -27.98 M34.4 -11.34 C30.02 -17.68, 25.04 -19.1, 13.93 -28.91 M33.92 -13.84 C28.57 -18.58, 22.48 -22.76, 15.97 -27.97" stroke="#fa5252" stroke-width="0.5" fill="none"></path><path d="M1.18 -0.11 C2.15 -3.13, 2.48 -13.87, 4.69 -18.44 C6.89 -23.02, 10.51 -27.17, 14.4 -27.57 C18.3 -27.96, 25.34 -25.05, 28.07 -20.82 C30.79 -16.58, 35.56 -5.46, 30.74 -2.17 C25.92 1.11, 4.43 -1.42, -0.87 -1.1 M0.34 -1.21 C1.35 -4.58, 1.58 -15.65, 4.32 -20.36 C7.07 -25.06, 12.73 -29.57, 16.81 -29.46 C20.9 -29.34, 26.25 -24.26, 28.83 -19.67 C31.42 -15.08, 37.1 -5.33, 32.31 -1.9 C27.51 1.54, 5.63 0.91, 0.09 0.95" stroke="#000000" stroke-width="1" fill="none"></path></g></g><g stroke-linecap="round"><g transform="translate(278.00601416634277 375.83321899457144) rotate(0 15.836030020205726 -14.087435260947501)" fill-rule="evenodd"><path d="M8.97 -25.32 C8.97 -25.32, 8.97 -25.32, 8.97 -25.32 M8.97 -25.32 C8.97 -25.32, 8.97 -25.32, 8.97 -25.32 M7.19 -17.05 C11.15 -19.94, 14.17 -23.71, 16.3 -27.01 M6.53 -16.04 C9.78 -18.75, 12.11 -22.59, 16.47 -27.32 M4.55 -10.07 C9.12 -13.37, 12.15 -17.16, 18.94 -24.97 M4.66 -9.6 C10.95 -14.36, 15.27 -19.77, 19.32 -25.6 M1.31 0.6 C10.51 -9.67, 20.51 -18.65, 23.2 -25.06 M1.53 0.42 C9.63 -7.24, 15.92 -15.84, 24.77 -23.6 M8.73 1.67 C11.39 -5.15, 17.28 -10.72, 28.34 -20.39 M6.65 1.37 C10.56 -3.64, 16.28 -7.61, 26.04 -22.5 M14.26 1.47 C17.36 -5.57, 22.97 -11.78, 29.23 -19.42 M12.23 2.07 C18.68 -4.27, 23.06 -11.63, 29.92 -19.22 M19.69 1.01 C23.18 -5.3, 25.54 -10.24, 30.82 -13.73 M17.31 0.97 C20.42 -3.27, 24.42 -6.13, 31.45 -15.5 M21.6 1.82 C25.14 -1.16, 26.88 -4.6, 34.41 -11.1 M22.22 1.06 C25.67 -1.84, 28.37 -3.89, 32.79 -10.35 M28.01 1.54 C28.8 -0.03, 31.47 -1.49, 34.56 -5.4 M28.11 1.43 C29.41 0.74, 30.29 -0.66, 33.52 -4.87 M0 0 C0 0, 0 0, 0 0 M0 0 C0 0, 0 0, 0 0 M6.43 -0.41 C5.65 -0.35, 4.12 -1.91, 1.14 -4.33 M6.61 0.06 C4.1 -1.71, 1.95 -3.11, 1.18 -4.23 M11.08 -0.81 C7.74 -3.29, 4.03 -5.92, 0.14 -8.34 M11.67 -0.56 C9.38 -1.58, 7.12 -4.27, 0.97 -9.86 M17.94 1.94 C13.45 -2.66, 12.56 -3.5, 0.95 -12.32 M18.82 0.76 C14.42 -3.08, 9.12 -7.73, 2.76 -14.44 M22.18 -1.42 C18.85 -4.44, 10.96 -11.65, 3.88 -17.49 M24.68 0.42 C18.6 -6.11, 11.48 -10.1, 4.39 -18.36 M27.46 -1.57 C20.24 -5.75, 16.67 -12.18, 7.48 -22.46 M27 -3.56 C19.79 -7.42, 14.7 -13.38, 4.96 -21.41 M31.96 -1.04 C27.01 -11.45, 15.58 -18.98, 7.08 -23.18 M34 -2.79 C25.18 -10.59, 15.44 -18.43, 7.84 -24.43 M32.48 -5.47 C27.28 -11.88, 23.68 -19.07, 12.06 -28.39 M34.87 -6.92 C28.78 -11.53, 23.03 -16.98, 10.54 -28.67 M35.48 -13.1 C26.2 -19.6, 21.95 -25.18, 15.54 -28.23 M32.98 -12.24 C26.33 -18.3, 20.5 -24.5, 16.48 -29.51" stroke="#fa5252" stroke-width="0.5" fill="none"></path><path d="M-0.11 1.11 C0.61 -2.38, 1.26 -15, 3.97 -19.76 C6.69 -24.52, 12.33 -27.05, 16.19 -27.44 C20.05 -27.83, 24.57 -26.19, 27.15 -22.08 C29.74 -17.98, 36.42 -6.33, 31.71 -2.82 C27 0.69, 4.23 -1.49, -1.1 -1.04 M-1.62 0.65 C-1.01 -2.21, 0.32 -13.72, 3.24 -18.71 C6.15 -23.69, 11.84 -28.78, 15.88 -29.26 C19.91 -29.75, 25.07 -26, 27.44 -21.6 C29.82 -17.21, 34.75 -6.66, 30.13 -2.88 C25.51 0.89, 4.71 0.81, -0.26 1.04" stroke="#000000" stroke-width="1" fill="none"></path></g></g><g stroke-linecap="round" transform="translate(322.1966324117136 330.0770137761022) rotate(0 8.173845474323343 7.152114790032954)"><path d="M0.36 2.97 C0.36 2.97, 0.36 2.97, 0.36 2.97 M0.36 2.97 C0.36 2.97, 0.36 2.97, 0.36 2.97 M1.4 8.45 C2.6 6.12, 4.71 4.23, 7.09 0.69 M0.42 8.56 C1.93 6.93, 4.02 4.39, 7.19 1.48 M2.16 13.84 C6.58 7.88, 9.4 4.37, 12.22 2.46 M2.81 12.27 C6.39 7.99, 9.78 5.13, 12.94 0.74 M4.41 16.87 C7.59 12.3, 9.52 9.57, 15.8 3.49 M5.79 15.34 C8.74 12.99, 11.38 9.13, 14.82 4 M11.73 15.69 C12.6 13.8, 13.43 11.45, 15.63 8.59 M10.76 14.74 C13.03 12.47, 14.71 10.57, 16.6 8.84 M3.05 13.26 C3.05 13.26, 3.05 13.26, 3.05 13.26 M3.05 13.26 C3.05 13.26, 3.05 13.26, 3.05 13.26 M8.79 13.68 C6.4 10.37, 3.68 9.28, 1.46 7.25 M9.58 13.81 C6.98 12.12, 5.65 9.81, 1.65 5.98 M13 13.2 C10.71 8.29, 4.65 5.55, 0.19 -0.2 M13.78 13.02 C10.69 8.96, 6.03 6.03, 1.29 1.09 M16.8 8.86 C11.26 6.11, 9.55 2.06, 5.1 -0.33 M16.37 9.21 C12.55 5.76, 9.41 2.84, 6.07 -0.26" stroke="#fa5252" stroke-width="0.5" fill="none"></path><path d="M5.18 -0.47 C6.53 -1.36, 9.02 -0.87, 10.52 -0.37 C12.02 0.12, 13.26 1.09, 14.19 2.5 C15.12 3.9, 16.17 6.3, 16.07 8.05 C15.97 9.8, 14.74 12.05, 13.58 12.99 C12.43 13.94, 10.94 13.71, 9.13 13.7 C7.32 13.7, 4.24 13.89, 2.72 12.97 C1.2 12.06, 0.41 9.89, 0.01 8.23 C-0.39 6.57, -0.85 4.48, 0.33 3.01 C1.51 1.54, 5.81 -0.23, 7.09 -0.57 C8.37 -0.91, 8.05 0.64, 8 0.98 M12.65 -0.31 C14.37 0.36, 16.52 3.89, 16.96 5.31 C17.41 6.73, 15.92 6.99, 15.3 8.21 C14.69 9.43, 14.5 11.46, 13.3 12.63 C12.09 13.8, 9.9 15.05, 8.07 15.22 C6.24 15.4, 3.7 14.75, 2.31 13.67 C0.92 12.58, 0 10.57, -0.25 8.73 C-0.5 6.9, -0.04 4.12, 0.8 2.64 C1.64 1.15, 2.76 -0.03, 4.78 -0.19 C6.79 -0.35, 11.52 1.39, 12.89 1.67 C14.26 1.95, 13.34 1.56, 12.99 1.46" stroke="#000000" stroke-width="1" fill="none"></path></g><g stroke-linecap="round" transform="translate(285.7905364911692 332.87748269306684) rotate(0 8.173845474323343 7.152114790032954)"><path d="M0.53 3.11 C0.53 3.11, 0.53 3.11, 0.53 3.11 M0.53 3.11 C0.53 3.11, 0.53 3.11, 0.53 3.11 M0.78 8.39 C3.31 5.6, 6.25 3.36, 6.5 1.59 M0.88 8.3 C3.15 6.42, 4.59 4.14, 7.2 2.25 M3.65 13.34 C4.31 9.92, 7.25 7.38, 12.79 3.18 M2.19 13.13 C3.93 10.74, 6.99 9.06, 11.17 1.7 M8.36 14.06 C9.46 10.38, 12.29 7.29, 15.62 3.14 M6.94 14.48 C10.46 11.17, 12.57 7.13, 16.11 3.28 M2.5 12.37 C2.5 12.37, 2.5 12.37, 2.5 12.37 M2.5 12.37 C2.5 12.37, 2.5 12.37, 2.5 12.37 M8.84 13.58 C8.05 12, 6.14 10.06, 2.74 6.49 M9.23 13.11 C7.83 11.4, 5.95 10.37, 1.73 6.96 M14.02 11.29 C9.64 8.77, 8.6 6.57, 3.09 0.52 M14.21 11.09 C11.92 10.24, 8.9 8.07, 1.24 1.47 M16.21 8.49 C13.16 5.21, 11.76 2.87, 4.68 -0.68 M16.07 8.06 C11.94 4.37, 8.82 1.76, 5.67 -0.3" stroke="#fa5252" stroke-width="0.5" fill="none"></path><path d="M10.07 0.28 C11.4 0.54, 13.7 1.4, 14.58 2.73 C15.46 4.06, 15.56 6.63, 15.34 8.28 C15.12 9.92, 14.38 11.5, 13.26 12.62 C12.14 13.74, 10.44 15.05, 8.61 14.98 C6.77 14.9, 3.64 13.3, 2.25 12.16 C0.87 11.02, 0.55 9.69, 0.29 8.15 C0.04 6.6, 0 4.15, 0.73 2.88 C1.46 1.6, 2.99 1.03, 4.68 0.51 C6.37 -0.02, 9.54 -0.31, 10.89 -0.29 C12.23 -0.26, 12.56 0.25, 12.72 0.65 M8.18 1.43 C9.98 1.22, 14.1 0.55, 15.33 1.51 C16.55 2.48, 15.7 5.46, 15.53 7.22 C15.36 8.98, 15.08 10.94, 14.32 12.08 C13.56 13.22, 12.36 13.85, 10.96 14.05 C9.56 14.24, 7.48 14.04, 5.93 13.24 C4.37 12.45, 2.62 10.84, 1.62 9.26 C0.62 7.68, -0.33 4.91, -0.05 3.77 C0.23 2.62, 1.59 2.79, 3.29 2.4 C4.99 2.02, 9.08 1.92, 10.16 1.47 C11.25 1.02, 10.03 -0.41, 9.8 -0.31" stroke="#000000" stroke-width="1" fill="none"></path></g><g stroke-linecap="round"><g transform="translate(295.2886349179478 379.0913538672646) rotate(0 17.789802764047636 -15.113773737693492)" fill-rule="evenodd"><path d="M9.66 -27.37 C9.66 -27.37, 9.66 -27.37, 9.66 -27.37 M9.66 -27.37 C9.66 -27.37, 9.66 -27.37, 9.66 -27.37 M7.79 -18.04 C11.83 -22.28, 14.76 -26.69, 16.84 -31.41 M7.53 -17.61 C9.26 -21.43, 13.07 -24.7, 17.26 -29.45 M5.63 -11.65 C11.3 -16.42, 15.29 -19.47, 22.37 -27.47 M5.52 -9.99 C10.17 -15.81, 14.04 -18.77, 20.88 -28.27 M-0.2 2.64 C7.56 -7.82, 14.09 -14.33, 25.39 -28.41 M0.77 0.27 C8.07 -6.52, 16 -15.87, 24.83 -27.25 M6.27 0.25 C14.52 -7.31, 23.95 -19.83, 26.56 -23.51 M6.77 1.13 C12.56 -6.14, 15.97 -10.72, 29.13 -25.14 M11.52 -0.38 C19.87 -8.58, 26.42 -16.57, 29.52 -20.24 M12.19 0.87 C16.46 -5.9, 22.56 -12.41, 30.6 -20.29 M15.73 0.03 C21.54 -7.56, 30.67 -14.84, 33.54 -19.51 M16.8 0.23 C21.62 -4.01, 24.22 -9.01, 32.45 -17.19 M22.41 0.16 C24.06 -1.11, 27.24 -6.37, 35.66 -15.42 M21.98 1.08 C25.92 -3.04, 28.16 -5.85, 35.19 -14.1 M28.53 0.52 C31.64 -2.26, 33.49 -7.72, 37.88 -9.83 M29.18 -0.27 C32.23 -4.26, 34.96 -7.78, 37.05 -10.66 M0 0 C0 0, 0 0, 0 0 M0 0 C0 0, 0 0, 0 0 M6.72 0.15 C4.56 -1.09, 3.22 -1.87, 1.75 -4.17 M6.21 -0.01 C4.74 -1.36, 2.72 -2.98, 1.4 -4.19 M11.85 -1.14 C9.83 -3.65, 8.17 -5.84, 2.51 -10.41 M12.51 -0.75 C9.11 -2.97, 6.34 -5.43, 1.69 -9.71 M18.5 0.65 C15.93 -5.44, 10.92 -7.94, 2.27 -13.87 M19.14 -0.26 C12.94 -4.29, 6.84 -8.91, 2.73 -12.8 M25.42 -0.27 C19.83 -3.58, 16.32 -7.61, 3.18 -17.89 M23.36 -1.13 C17.04 -5.87, 8.93 -13.22, 2.9 -17.01 M30.79 -0.43 C22.37 -5.68, 14.02 -13.56, 5.46 -20.34 M29.86 -0.67 C23.98 -7.33, 17.52 -11.66, 5.13 -22.38 M32.59 -3.94 C25.39 -8.81, 22.3 -12.29, 7.51 -23.72 M33.64 -2.65 C23.01 -11.47, 13.45 -20.57, 6.92 -24.92 M37.69 -3.7 C29.56 -8.69, 24.73 -15.89, 9.45 -27.16 M38.08 -4.11 C27.76 -13.53, 16.3 -21.55, 10.37 -28.06 M33.15 -12.14 C25 -19.45, 19.5 -24.58, 15.78 -29.86 M35.15 -11.99 C30.3 -15.52, 24.88 -19.51, 13.63 -29.95 M29.7 -21.62 C26.22 -23.98, 25.66 -26.64, 16.7 -31.9 M29.65 -21.34 C27.27 -23.48, 24.11 -27.04, 16.96 -32.08" stroke="#fa5252" stroke-width="0.5" fill="none"></path><path d="M-0.92 0.86 C-0.3 -2.59, 2.14 -15.02, 4.87 -20.34 C7.59 -25.66, 11.49 -30.46, 15.42 -31.03 C19.36 -31.6, 25.45 -28.52, 28.48 -23.74 C31.5 -18.96, 38.33 -6.3, 33.57 -2.36 C28.8 1.59, 5.37 -0.6, -0.12 -0.07 M0.79 0.27 C1.25 -3.01, 1.62 -13.74, 4.44 -18.76 C7.25 -23.78, 13.72 -29.08, 17.69 -29.83 C21.66 -30.57, 25.35 -27.84, 28.27 -23.22 C31.19 -18.59, 39.72 -5.77, 35.21 -2.09 C30.71 1.59, 6.83 -1.48, 1.23 -1.15" stroke="#000000" stroke-width="1" fill="none"></path></g></g><g stroke-linecap="round" transform="translate(303.783466652548 332.5101635844206) rotate(0 8.858503605525243 7.75119065483463)"><path d="M2.58 0.92 C2.58 0.92, 2.58 0.92, 2.58 0.92 M2.58 0.92 C2.58 0.92, 2.58 0.92, 2.58 0.92 M1.79 7.41 C5.28 4.83, 6.53 1.6, 9.26 -0.17 M1.97 7.94 C3.01 6.08, 5.48 4.65, 8.65 -0.48 M1.93 12.67 C5.21 9.67, 9.18 7.51, 11.17 0.34 M1.97 13.05 C6.68 9.65, 8.9 4.44, 12.87 2.26 M5.8 14.74 C7.61 12.71, 10.22 9.33, 16.24 2.65 M7.12 15.24 C9.76 10.4, 13.05 6.89, 16.17 3.46 M12.06 14.33 C13.78 11.04, 16.25 9.57, 18 7.17 M10.92 14.92 C12.8 13.77, 14.3 11.39, 18.11 6.57 M0.98 11.07 C0.98 11.07, 0.98 11.07, 0.98 11.07 M0.98 11.07 C0.98 11.07, 0.98 11.07, 0.98 11.07 M10.28 14.57 C9.53 12.79, 7.27 9.69, -0.77 6.27 M11.73 15.28 C7.75 12.2, 3.82 8.92, 0.1 5.38 M14.99 12.07 C13.24 9.17, 8.03 7.95, 3.25 3.07 M14.97 12.24 C12.26 10.11, 8.97 8.13, 1.68 0.99 M19.46 11.38 C13.71 5.67, 9.41 2.32, 6.73 0.38 M18.17 10.07 C13.51 7.21, 9.97 3.09, 5.33 -0.53" stroke="#fa5252" stroke-width="0.5" fill="none"></path><path d="M8.43 -0.91 C10.26 -0.96, 12.39 0.53, 13.91 1.78 C15.43 3.03, 17.03 4.81, 17.53 6.6 C18.03 8.39, 17.99 11.17, 16.91 12.52 C15.82 13.87, 12.88 14.32, 11.02 14.7 C9.16 15.08, 7.47 15.43, 5.74 14.78 C4.01 14.12, 1.69 12.19, 0.63 10.77 C-0.42 9.35, -0.95 7.93, -0.6 6.26 C-0.25 4.58, 0.56 1.76, 2.74 0.73 C4.93 -0.29, 10.54 -0.18, 12.52 0.11 C14.49 0.4, 14.75 2.24, 14.61 2.46 M12.96 -0.33 C14.72 -0.06, 14.96 2.58, 15.67 4.23 C16.38 5.89, 17.23 8.07, 17.22 9.62 C17.2 11.18, 16.72 12.62, 15.59 13.55 C14.46 14.48, 12.33 15.3, 10.44 15.22 C8.54 15.14, 6 14.29, 4.22 13.07 C2.44 11.85, 0.34 9.21, -0.25 7.9 C-0.84 6.59, -0.46 6.21, 0.7 5.21 C1.86 4.21, 4.76 2.8, 6.72 1.92 C8.67 1.04, 11.64 -0.07, 12.44 -0.07 C13.23 -0.07, 11.68 1.7, 11.48 1.9" stroke="#000000" stroke-width="1" fill="none"></path></g><g stroke-linecap="round"><g transform="translate(377.14285714285666 137.78735168605095) rotate(0 249.20651894894047 -0.546285962691357)"><path d="M0.5 1.13 C83.75 0.97, 416.27 -0.23, 499.1 -0.69 M-0.69 0.68 C82.47 0.19, 415.01 -2.08, 498.43 -2.22" stroke="#000000" stroke-width="1" fill="none"></path></g><g transform="translate(377.14285714285666 137.78735168605095) rotate(0 249.20651894894047 -0.546285962691357)"><path d="M472.18 9.05 C479.78 3.44, 485.87 2.63, 498.87 -2.75 M469.51 8.21 C478.26 5.62, 486.02 2.48, 498.08 -1.96" stroke="#000000" stroke-width="1" fill="none"></path></g><g transform="translate(377.14285714285666 137.78735168605095) rotate(0 249.20651894894047 -0.546285962691357)"><path d="M472.08 -11.47 C479.76 -11.51, 485.87 -6.75, 498.87 -2.75 M469.41 -12.31 C478.21 -9.47, 485.99 -7.18, 498.08 -1.96" stroke="#000000" stroke-width="1" fill="none"></path></g></g><g transform="translate(432.3214285714282 73.57142857142857) rotate(0 135 12.5)"><text x="0" y="18" font-family="Virgil, Segoe UI Emoji" font-size="20px" fill="#000000" text-anchor="start" style="white-space: pre;" direction="ltr">Go to authorization server</text></g><g transform="translate(432.85714285714243 151.42857142857144) rotate(0 153.5 37.5)"><text x="0" y="18" font-family="Virgil, Segoe UI Emoji" font-size="20px" fill="#000000" text-anchor="start" style="white-space: pre;" direction="ltr">Redirect URI: yelp.com/callback</text><text x="0" y="43" font-family="Virgil, Segoe UI Emoji" font-size="20px" fill="#000000" text-anchor="start" style="white-space: pre;" direction="ltr">Response type: code</text><text x="0" y="68" font-family="Virgil, Segoe UI Emoji" font-size="20px" fill="#000000" text-anchor="start" style="white-space: pre;" direction="ltr">Scope: profile contacts</text></g><g transform="translate(931.4285714285713 10) rotate(0 101 12.5)"><text x="0" y="18" font-family="Virgil, Segoe UI Emoji" font-size="20px" fill="#000000" text-anchor="start" style="white-space: pre;" direction="ltr">Authorization Server</text></g><g transform="translate(197.1428571428571 20) rotate(0 27 12.5)"><text x="0" y="18" font-family="Virgil, Segoe UI Emoji" font-size="20px" fill="#000000" text-anchor="start" style="white-space: pre;" direction="ltr">Client</text></g><g transform="translate(10 248.57142857142856) rotate(0 43.5 25)"><text x="43.5" y="18" font-family="Virgil, Segoe UI Emoji" font-size="20px" fill="#000000" text-anchor="middle" style="white-space: pre;" direction="ltr">Resource</text><text x="43.5" y="43" font-family="Virgil, Segoe UI Emoji" font-size="20px" fill="#000000" text-anchor="middle" style="white-space: pre;" direction="ltr">Owner</text></g><g stroke-linecap="round"><g transform="translate(1018.9388594680706 246.34275917984826) rotate(0 2.2870139870415187 142.2063828822717)"><path d="M1.2 0.82 C1.59 48.01, 1.67 235.84, 1.84 283.16 M0.37 0.2 C1.2 47.52, 4.06 237.12, 4.2 284.21" stroke="#000000" stroke-width="1" fill="none"></path></g><g transform="translate(1018.9388594680706 246.34275917984826) rotate(0 2.2870139870415187 142.2063828822717)"><path d="M-4.98 255.03 C-5.18 262.68, 0.14 272.3, 4.06 285.8 M-5.54 255.92 C-3.81 262.62, -0.41 269.18, 3.56 283.29" stroke="#000000" stroke-width="1" fill="none"></path></g><g transform="translate(1018.9388594680706 246.34275917984826) rotate(0 2.2870139870415187 142.2063828822717)"><path d="M15.54 254.83 C10.09 262.73, 10.15 272.41, 4.06 285.8 M14.98 255.71 C11.87 262.6, 10.42 269.21, 3.56 283.29" stroke="#000000" stroke-width="1" fill="none"></path></g></g><g stroke-linecap="round"><g transform="translate(844.285714285714 631.8571428571429) rotate(0 -225.86084739448904 1.1277026961970478)"><path d="M1.04 0.67 C-74.26 1.04, -376.28 2.18, -451.68 2.28 M0.13 -0.02 C-75.36 0.02, -377.39 0.19, -452.76 0.6" stroke="#000000" stroke-width="1" fill="none"></path></g><g transform="translate(844.285714285714 631.8571428571429) rotate(0 -225.86084739448904 1.1277026961970478)"><path d="M-423.48 -10.16 C-431.89 -6.2, -442.33 -4.79, -452.27 1.09 M-424.91 -9.92 C-433.92 -6.49, -443.66 -3.51, -453.01 1.42" stroke="#000000" stroke-width="1" fill="none"></path></g><g transform="translate(844.285714285714 631.8571428571429) rotate(0 -225.86084739448904 1.1277026961970478)"><path d="M-423.42 10.36 C-431.86 7.97, -442.32 3.03, -452.27 1.09 M-424.85 10.6 C-433.96 7.26, -443.71 3.49, -453.01 1.42" stroke="#000000" stroke-width="1" fill="none"></path></g></g><g transform="translate(478.5714285714282 595.7142857142858) rotate(0 107.5 12.5)"><text x="0" y="18" font-family="Virgil, Segoe UI Emoji" font-size="20px" fill="#000000" text-anchor="start" style="white-space: pre;" direction="ltr">Back to redirect URI</text></g><g transform="translate(478.5714285714282 650.0000000000001) rotate(0 116 12.5)"><text x="0" y="18" font-family="Virgil, Segoe UI Emoji" font-size="20px" fill="#000000" text-anchor="start" style="white-space: pre;" direction="ltr">with authorization code</text></g><g stroke-linecap="round"><g transform="translate(391.42857142857133 567.5714285714286) rotate(0 240.79053209322888 -174.76767328780494)"><path d="M0.6 -0.02 C80.62 -58.26, 401.01 -291.08, 480.98 -349.52" stroke="#000000" stroke-width="1.5" fill="none" stroke-dasharray="8 9"></path></g><g transform="translate(391.42857142857133 567.5714285714286) rotate(0 240.79053209322888 -174.76767328780494)"><path d="M464.2 -325.36 C470.78 -335.55, 475.12 -342.58, 481.83 -350.98" stroke="#000000" stroke-width="1.5" fill="none"></path></g><g transform="translate(391.42857142857133 567.5714285714286) rotate(0 240.79053209322888 -174.76767328780494)"><path d="M452.12 -341.95 C463.17 -346.05, 471.98 -346.94, 481.83 -350.98" stroke="#000000" stroke-width="1.5" fill="none"></path></g></g><g transform="translate(488.5714285714282 347.14285714285717) rotate(323.6491125488689 141.5 12.5)"><text x="0" y="18" font-family="Virgil, Segoe UI Emoji" font-size="20px" fill="#000000" text-anchor="start" style="white-space: pre;" direction="ltr">Exchange authorization code</text></g><g transform="translate(531.1893754645198 419.7961878785392) rotate(323.6491125488689 84 12.5)"><text x="0" y="18" font-family="Virgil, Segoe UI Emoji" font-size="20px" fill="#000000" text-anchor="start" style="white-space: pre;" direction="ltr">for access token</text></g><g stroke-linecap="round"><g transform="translate(259.9346298698915 550.4285714285714) rotate(0 43.5586720896581 -61.806419316519595)"><path d="M0.86 -0.92 C15.18 -21.52, 72.03 -102.48, 86.25 -122.7" stroke="#000000" stroke-width="1.5" fill="none" stroke-dasharray="8 9"></path></g><g transform="translate(259.9346298698915 550.4285714285714) rotate(0 43.5586720896581 -61.806419316519595)"><path d="M76.92 -94.17 C81.07 -103.91, 84.42 -113.71, 85.96 -121.46" stroke="#000000" stroke-width="1.5" fill="none"></path></g><g transform="translate(259.9346298698915 550.4285714285714) rotate(0 43.5586720896581 -61.806419316519595)"><path d="M60.13 -105.96 C69.92 -111.93, 78.81 -117.83, 85.96 -121.46" stroke="#000000" stroke-width="1.5" fill="none"></path></g></g><g transform="translate(25.714285714285325 458.5714285714286) rotate(0 125 25)"><text x="0" y="18" font-family="Virgil, Segoe UI Emoji" font-size="20px" fill="#000000" text-anchor="start" style="white-space: pre;" direction="ltr">Talk to resources server</text><text x="0" y="43" font-family="Virgil, Segoe UI Emoji" font-size="20px" fill="#000000" text-anchor="start" style="white-space: pre;" direction="ltr">with access token</text></g><g stroke-linecap="round" transform="translate(850.6279761904755 534.5952380952378) rotate(0 188.57142857142844 94.99999999999994)"><path d="M0 0 C0 0, 0 0, 0 0 M0 0 C0 0, 0 0, 0 0 M-0.26 6.4 C1.51 4.36, 3.27 2.33, 4.99 0.36 M-0.26 6.4 C1.45 4.43, 3.17 2.45, 4.99 0.36 M0.13 12.04 C3.2 8.52, 6.26 4.99, 10.63 -0.03 M0.13 12.04 C3.8 7.83, 7.46 3.61, 10.63 -0.03 M-0.13 18.44 C5.61 11.84, 11.35 5.24, 15.62 0.33 M-0.13 18.44 C5.37 12.12, 10.87 5.79, 15.62 0.33 M0.27 24.08 C6.52 16.89, 12.77 9.7, 21.26 -0.07 M0.27 24.08 C4.66 19.03, 9.06 13.97, 21.26 -0.07 M0 30.48 C6.82 22.64, 13.64 14.8, 26.25 0.29 M0 30.48 C8.14 21.12, 16.27 11.77, 26.25 0.29 M-0.26 36.88 C7.74 27.67, 15.74 18.47, 31.89 -0.1 M-0.26 36.88 C6.89 28.66, 14.03 20.44, 31.89 -0.1 M0.14 42.52 C11.18 29.82, 22.23 17.11, 36.88 0.26 M0.14 42.52 C7.58 33.96, 15.02 25.4, 36.88 0.26 M-0.12 48.92 C12.39 34.52, 24.91 20.13, 42.52 -0.14 M-0.12 48.92 C12.07 34.89, 24.26 20.87, 42.52 -0.14 M0.27 54.56 C17.06 35.25, 33.85 15.93, 47.51 0.22 M0.27 54.56 C18.2 33.93, 36.14 13.3, 47.51 0.22 M0.01 60.96 C14.37 44.44, 28.73 27.92, 53.15 -0.17 M0.01 60.96 C19.01 39.1, 38.01 17.24, 53.15 -0.17 M-0.25 67.36 C16.29 48.33, 32.84 29.29, 58.14 0.19 M-0.25 67.36 C20.37 43.63, 41 19.9, 58.14 0.19 M0.14 73 C19.77 50.42, 39.41 27.83, 63.78 -0.21 M0.14 73 C16.31 54.4, 32.48 35.81, 63.78 -0.21 M-0.12 79.4 C22.88 52.94, 45.88 26.48, 68.77 0.15 M-0.12 79.4 C27.08 48.11, 54.27 16.83, 68.77 0.15 M0.28 85.04 C17.2 65.58, 34.12 46.11, 74.41 -0.24 M0.28 85.04 C18.92 63.6, 37.56 42.15, 74.41 -0.24 M0.01 91.44 C27.59 59.72, 55.16 28, 79.4 0.12 M0.01 91.44 C26.61 60.84, 53.21 30.24, 79.4 0.12 M-0.25 97.84 C28.75 64.47, 57.76 31.11, 85.04 -0.28 M-0.25 97.84 C24.09 69.84, 48.42 41.85, 85.04 -0.28 M0.15 103.48 C32.02 66.81, 63.9 30.14, 90.03 0.08 M0.15 103.48 C32.89 65.81, 65.64 28.14, 90.03 0.08 M-0.11 109.88 C23.37 82.87, 46.85 55.85, 95.67 -0.31 M-0.11 109.88 C33.46 71.26, 67.03 32.64, 95.67 -0.31 M0.28 115.52 C38.16 71.95, 76.04 28.37, 100.66 0.05 M0.28 115.52 C23.58 88.72, 46.87 61.92, 100.66 0.05 M0.02 121.92 C25.04 93.14, 50.05 64.36, 106.3 -0.34 M0.02 121.92 C32.03 85.09, 64.04 48.27, 106.3 -0.34 M-0.24 128.32 C25.14 99.11, 50.53 69.91, 111.29 0.02 M-0.24 128.32 C27.34 96.59, 54.92 64.86, 111.29 0.02 M0.15 133.96 C34.2 94.79, 68.25 55.62, 116.27 0.38 M0.15 133.96 C29.31 100.42, 58.47 66.87, 116.27 0.38 M-0.11 140.36 C37.5 97.09, 75.11 53.83, 121.92 -0.02 M-0.11 140.36 C33.85 101.3, 67.8 62.23, 121.92 -0.02 M0.29 146 C37.23 103.5, 74.17 61.01, 126.91 0.34 M0.29 146 C47.54 91.64, 94.79 37.29, 126.91 0.34 M0.02 152.4 C28.19 120, 56.35 87.6, 132.55 -0.05 M0.02 152.4 C46.76 98.63, 93.5 44.87, 132.55 -0.05 M-0.24 158.8 C54.14 96.24, 108.52 33.68, 137.54 0.31 M-0.24 158.8 C41.07 111.28, 82.37 63.77, 137.54 0.31 M0.16 164.44 C46.58 111.04, 93 57.63, 143.18 -0.09 M0.16 164.44 C36.99 122.06, 73.83 79.68, 143.18 -0.09 M-0.1 170.84 C37.92 127.1, 75.94 83.35, 148.17 0.27 M-0.1 170.84 C47.74 115.79, 95.59 60.75, 148.17 0.27 M0.29 176.48 C33.92 137.79, 67.56 99.1, 153.81 -0.12 M0.29 176.48 C52.4 116.54, 104.5 56.6, 153.81 -0.12 M0.03 182.88 C35.26 142.35, 70.5 101.81, 158.8 0.24 M0.03 182.88 C62.43 111.09, 124.84 39.3, 158.8 0.24 M-0.23 189.27 C42.8 139.78, 85.82 90.28, 164.44 -0.16 M-0.23 189.27 C49.83 131.69, 99.89 74.1, 164.44 -0.16 M2.79 191.9 C57.23 129.27, 111.68 66.63, 169.43 0.2 M2.79 191.9 C56.33 130.3, 109.87 68.71, 169.43 0.2 M7.77 192.26 C42.42 152.4, 77.08 112.54, 175.07 -0.19 M7.77 192.26 C44 150.59, 80.22 108.92, 175.07 -0.19 M13.42 191.86 C62.92 134.91, 112.43 77.96, 180.06 0.17 M13.42 191.86 C76.3 119.53, 139.18 47.19, 180.06 0.17 M18.4 192.22 C52.38 153.14, 86.36 114.05, 185.7 -0.23 M18.4 192.22 C68.85 134.19, 119.3 76.16, 185.7 -0.23 M24.05 191.83 C82.35 124.76, 140.64 57.7, 190.69 0.13 M24.05 191.83 C72.45 136.15, 120.85 80.47, 190.69 0.13 M29.03 192.19 C93.68 117.83, 158.32 43.46, 196.33 -0.26 M29.03 192.19 C86.41 126.18, 143.79 60.17, 196.33 -0.26 M34.02 192.55 C99.68 117.02, 165.34 41.48, 201.32 0.1 M34.02 192.55 C75.71 144.59, 117.4 96.63, 201.32 0.1 M39.66 192.16 C87.31 137.35, 134.95 82.54, 206.96 -0.3 M39.66 192.16 C87.2 137.47, 134.74 82.78, 206.96 -0.3 M44.65 192.52 C81.97 149.58, 119.29 106.65, 211.95 0.06 M44.65 192.52 C95.11 134.47, 145.57 76.42, 211.95 0.06 M50.29 192.12 C86.54 150.42, 122.79 108.73, 217.59 -0.33 M50.29 192.12 C88.4 148.28, 126.51 104.45, 217.59 -0.33 M55.28 192.48 C110.55 128.9, 165.82 65.32, 222.58 0.03 M55.28 192.48 C114.68 124.15, 174.08 55.81, 222.58 0.03 M60.92 192.09 C109.62 136.07, 158.31 80.05, 228.22 -0.36 M60.92 192.09 C100.39 146.69, 139.85 101.3, 228.22 -0.36 M65.91 192.45 C115.05 135.92, 164.18 79.4, 233.21 0 M65.91 192.45 C128.86 120.03, 191.82 47.61, 233.21 0 M71.55 192.05 C106.16 152.24, 140.77 112.43, 238.19 0.36 M71.55 192.05 C126.53 128.81, 181.5 65.57, 238.19 0.36 M76.54 192.41 C140.62 118.7, 204.7 44.98, 243.84 -0.04 M76.54 192.41 C142.03 117.08, 207.51 41.75, 243.84 -0.04 M82.18 192.02 C124.97 142.8, 167.76 93.58, 248.82 0.32 M82.18 192.02 C130.62 136.3, 179.05 80.58, 248.82 0.32 M87.17 192.38 C147.22 123.29, 207.28 54.21, 254.47 -0.07 M87.17 192.38 C135.01 137.34, 182.86 82.31, 254.47 -0.07 M92.81 191.98 C146.01 130.79, 199.2 69.6, 259.45 0.29 M92.81 191.98 C135.86 142.46, 178.91 92.95, 259.45 0.29 M97.8 192.34 C143.43 139.86, 189.05 87.37, 265.1 -0.11 M97.8 192.34 C132.06 152.93, 166.32 113.52, 265.1 -0.11 M103.44 191.95 C147.87 140.84, 192.3 89.74, 270.08 0.25 M103.44 191.95 C158.85 128.22, 214.25 64.48, 270.08 0.25 M108.43 192.31 C152.96 141.09, 197.48 89.87, 275.73 -0.14 M108.43 192.31 C167.34 124.54, 226.25 56.77, 275.73 -0.14 M114.07 191.91 C174.24 122.7, 234.4 53.49, 280.71 0.22 M114.07 191.91 C176.07 120.6, 238.06 49.28, 280.71 0.22 M119.06 192.27 C181.24 120.74, 243.43 49.21, 286.36 -0.18 M119.06 192.27 C184.58 116.91, 250.09 41.54, 286.36 -0.18 M124.7 191.88 C167.26 142.93, 209.81 93.98, 291.34 0.18 M124.7 191.88 C190.58 116.1, 256.45 40.32, 291.34 0.18 M129.69 192.24 C181.97 132.1, 234.25 71.96, 296.99 -0.21 M129.69 192.24 C170.89 144.85, 212.08 97.46, 296.99 -0.21 M135.33 191.85 C200.81 116.52, 266.29 41.2, 301.97 0.15 M135.33 191.85 C198.66 119, 261.98 46.15, 301.97 0.15 M140.32 192.21 C190.88 134.04, 241.44 75.88, 307.62 -0.25 M140.32 192.21 C190.24 134.78, 240.16 77.35, 307.62 -0.25 M145.31 192.57 C180.07 152.57, 214.84 112.58, 312.6 0.11 M145.31 192.57 C189.34 141.92, 233.36 91.27, 312.6 0.11 M150.95 192.17 C191.98 144.97, 233.02 97.76, 318.25 -0.28 M150.95 192.17 C216.16 117.15, 281.38 42.13, 318.25 -0.28 M155.94 192.53 C210.25 130.05, 264.56 67.58, 323.23 0.08 M155.94 192.53 C213.03 126.86, 270.11 61.19, 323.23 0.08 M161.58 192.14 C217.89 127.36, 274.2 62.58, 328.88 -0.31 M161.58 192.14 C198.66 149.49, 235.73 106.84, 328.88 -0.31 M166.57 192.5 C226.58 123.46, 286.59 54.43, 333.86 0.05 M166.57 192.5 C211.74 140.53, 256.92 88.56, 333.86 0.05 M172.21 192.1 C216 141.72, 259.8 91.35, 339.51 -0.35 M172.21 192.1 C231.48 123.92, 290.76 55.73, 339.51 -0.35 M177.2 192.46 C230.05 131.66, 282.91 70.86, 344.49 0.01 M177.2 192.46 C221.48 141.52, 265.77 90.57, 344.49 0.01 M182.84 192.07 C249 115.96, 315.16 39.85, 349.48 0.37 M182.84 192.07 C217.46 152.24, 252.08 112.42, 349.48 0.37 M187.83 192.43 C253.55 116.83, 319.27 41.23, 355.12 -0.02 M187.83 192.43 C237.99 134.72, 288.16 77.01, 355.12 -0.02 M193.47 192.03 C228.34 151.92, 263.2 111.81, 360.11 0.34 M193.47 192.03 C237 141.96, 280.53 91.89, 360.11 0.34 M198.46 192.39 C261.46 119.92, 324.46 47.45, 365.75 -0.06 M198.46 192.39 C250.22 132.85, 301.99 73.3, 365.75 -0.06 M204.1 192 C246.73 142.96, 289.37 93.91, 370.74 0.3 M204.1 192 C246.31 143.44, 288.52 94.88, 370.74 0.3 M209.09 192.36 C250.07 145.22, 291.04 98.08, 376.38 -0.09 M209.09 192.36 C273.78 117.94, 338.47 43.53, 376.38 -0.09 M214.73 191.96 C278.12 119.04, 341.51 46.12, 379.4 2.53 M214.73 191.96 C277.64 119.6, 340.55 47.23, 379.4 2.53 M219.72 192.32 C278.36 124.86, 337 57.41, 379.8 8.17 M219.72 192.32 C281.24 121.55, 342.76 50.78, 379.8 8.17 M225.36 191.93 C277.05 132.47, 328.74 73.01, 379.54 14.57 M225.36 191.93 C272.35 137.88, 319.33 83.83, 379.54 14.57 M230.35 192.29 C275.19 140.7, 320.03 89.12, 379.93 20.22 M230.35 192.29 C277.38 138.18, 324.41 84.08, 379.93 20.22 M235.99 191.89 C284.29 136.34, 332.59 80.78, 379.67 26.61 M235.99 191.89 C284.59 135.99, 333.18 80.09, 379.67 26.61 M240.98 192.25 C295.65 129.36, 350.33 66.46, 379.41 33.01 M240.98 192.25 C289.21 136.77, 337.44 81.29, 379.41 33.01 M246.62 191.86 C287.58 144.74, 328.55 97.62, 379.8 38.65 M246.62 191.86 C281.06 152.25, 315.49 112.63, 379.8 38.65 M251.61 192.22 C301.78 134.51, 351.95 76.79, 379.54 45.05 M251.61 192.22 C279.39 160.27, 307.16 128.31, 379.54 45.05 M257.25 191.83 C289.17 155.11, 321.08 118.4, 379.94 50.7 M257.25 191.83 C294.22 149.31, 331.18 106.78, 379.94 50.7 M262.24 192.19 C288.34 162.16, 314.44 132.13, 379.67 57.09 M262.24 192.19 C286.98 163.72, 311.73 135.26, 379.67 57.09 M267.23 192.55 C300.32 154.47, 333.42 116.4, 379.41 63.49 M267.23 192.55 C307.75 145.92, 348.28 99.3, 379.41 63.49 M272.87 192.15 C294.99 166.71, 317.1 141.27, 379.81 69.13 M272.87 192.15 C313.37 145.56, 353.87 98.97, 379.81 69.13 M277.86 192.51 C298.61 168.63, 319.37 144.75, 379.55 75.53 M277.86 192.51 C317.79 146.57, 357.72 100.63, 379.55 75.53 M283.5 192.12 C308.38 163.5, 333.26 134.88, 379.94 81.17 M283.5 192.12 C315.34 155.49, 347.18 118.86, 379.94 81.17 M288.49 192.48 C313.1 164.16, 337.71 135.85, 379.68 87.57 M288.49 192.48 C307.57 170.52, 326.66 148.57, 379.68 87.57 M294.13 192.08 C317.88 164.76, 341.64 137.43, 379.42 93.97 M294.13 192.08 C314.02 169.2, 333.92 146.31, 379.42 93.97 M299.12 192.44 C320.54 167.8, 341.96 143.16, 379.81 99.61 M299.12 192.44 C322.03 166.08, 344.95 139.72, 379.81 99.61 M304.76 192.05 C331.82 160.92, 358.88 129.78, 379.55 106.01 M304.76 192.05 C320.9 173.49, 337.03 154.92, 379.55 106.01 M309.75 192.41 C327.61 171.86, 345.47 151.31, 379.95 111.65 M309.75 192.41 C334.26 164.21, 358.76 136.02, 379.95 111.65 M315.39 192.01 C340.59 163.02, 365.8 134.03, 379.68 118.05 M315.39 192.01 C338.84 165.04, 362.28 138.07, 379.68 118.05 M320.38 192.37 C343.48 165.79, 366.59 139.21, 379.42 124.45 M320.38 192.37 C343.79 165.44, 367.21 138.5, 379.42 124.45 M326.02 191.98 C339.13 176.9, 352.24 161.82, 379.82 130.09 M326.02 191.98 C343.58 171.78, 361.15 151.57, 379.82 130.09 M331.01 192.34 C346.59 174.41, 362.17 156.49, 379.56 136.49 M331.01 192.34 C344.47 176.85, 357.93 161.36, 379.56 136.49 M336.65 191.94 C353.19 172.91, 369.74 153.88, 379.95 142.13 M336.65 191.94 C349.94 176.66, 363.23 161.37, 379.95 142.13 M341.64 192.3 C356.06 175.71, 370.48 159.12, 379.69 148.53 M341.64 192.3 C353.13 179.09, 364.62 165.87, 379.69 148.53 M347.28 191.91 C355.74 182.18, 364.2 172.44, 379.43 154.93 M347.28 191.91 C356 181.88, 364.72 171.84, 379.43 154.93 M352.27 192.27 C363.06 179.85, 373.85 167.44, 379.82 160.57 M352.27 192.27 C358.89 184.65, 365.51 177.04, 379.82 160.57 M357.91 191.88 C365.13 183.57, 372.35 175.26, 379.56 166.97 M357.91 191.88 C365.36 183.31, 372.81 174.74, 379.56 166.97 M362.9 192.24 C367.6 186.82, 372.31 181.41, 379.95 172.61 M362.9 192.24 C368.38 185.92, 373.87 179.61, 379.95 172.61 M368.54 191.84 C371.11 188.89, 373.68 185.93, 379.69 179.01 M368.54 191.84 C370.87 189.16, 373.21 186.47, 379.69 179.01 M373.53 192.2 C374.94 190.58, 376.35 188.96, 379.43 185.41 M373.53 192.2 C374.91 190.61, 376.3 189.01, 379.43 185.41" stroke="#ced4da" stroke-width="0.5" fill="none"></path><path d="M0 0 C84.8 0, 169.6 0, 377.14 0 M0 0 C149.07 0, 298.15 0, 377.14 0 M377.14 0 C377.14 62.13, 377.14 124.26, 377.14 190 M377.14 0 C377.14 60.99, 377.14 121.97, 377.14 190 M377.14 190 C234.97 190, 92.79 190, 0 190 M377.14 190 C229.44 190, 81.73 190, 0 190 M0 190 C0 134.93, 0 79.85, 0 0 M0 190 C0 150.31, 0 110.63, 0 0" stroke="#000000" stroke-width="1" fill="none"></path></g><g transform="translate(942.0565476190461 550.8095238095235) rotate(0 95.5 12.5)"><text x="0" y="18" font-family="Virgil, Segoe UI Emoji" font-size="20px" fill="#000000" text-anchor="start" style="white-space: pre;" direction="ltr">accounts.google.com</text></g><g transform="translate(882.0565476190461 589.3809523809521) rotate(0 161.5 25)"><text x="161.5" y="18" font-family="Virgil, Segoe UI Emoji" font-size="20px" fill="#000000" text-anchor="middle" style="white-space: pre;" direction="ltr">Allow Yelp to access your public </text><text x="161.5" y="43" font-family="Virgil, Segoe UI Emoji" font-size="20px" fill="#000000" text-anchor="middle" style="white-space: pre;" direction="ltr">profile and contacts?</text></g><g stroke-linecap="round" transform="translate(1042.7708333333328 669.4523809523805) rotate(0 37.14285714285711 19.428571428571388)"><path d="M0.36 -0.05 L75.35 -0.9 L75.71 37.18 L0.47 39.03" stroke="none" stroke-width="0" fill="#ced4da"></path><path d="M1.78 1.27 C17 0.77, 30.06 -0.01, 72.39 -0.3 M0.2 -0.36 C25.68 -0.23, 50.58 -0.6, 73.3 -0.16 M75.86 0.47 C74.1 10.23, 75.06 18.54, 74.88 37.32 M73.44 -0.85 C73.67 7.43, 73.72 15.81, 73.89 38.87 M76.01 40.79 C49.8 40.15, 25.73 39.19, 1.67 37.19 M74.33 39.29 C48.85 38.95, 22.44 38.94, 0.63 38.13 M-1.4 38.94 C-0.09 28.34, 1.35 13.8, 0.96 0.61 M-0.7 39.77 C0.12 28.73, -0.69 18.33, 0.4 0.55" stroke="#000000" stroke-width="1" fill="none"></path></g><g transform="translate(1065.3422619047612 674.9523809523803) rotate(0 12.5 12.5)"><text x="12.5" y="18" font-family="Virgil, Segoe UI Emoji" font-size="20px" fill="#000000" text-anchor="middle" style="white-space: pre;" direction="ltr">No</text></g><g stroke-linecap="round" transform="translate(1131.3422619047612 669.4523809523805) rotate(0 37.14285714285711 19.428571428571388)"><path d="M-1.3 -0.18 L76.14 0.1 L76 38.74 L-0.72 39.3" stroke="none" stroke-width="0" fill="#fd7e14"></path><path d="M0.45 0.05 C23.5 0.08, 48.8 -1.42, 72.38 -1.95 M0.79 0.55 C27.98 1.37, 56.24 0.07, 73.95 0.37 M75.47 0.9 C74.69 11.36, 74.88 23.01, 74.94 40.77 M75.03 0.94 C73.53 14.36, 73.78 29.81, 73.95 38.13 M73.84 39.57 C53.92 38.39, 36.68 36.91, 1.04 39.86 M74.03 38.79 C49.59 38.96, 25.61 38.32, 0.61 38.3 M1.04 37.54 C1.09 30.81, -1.79 20.79, 1.44 -1.96 M-0.19 39.72 C1.33 30.62, -0.12 22.27, 0.72 0.45" stroke="#000000" stroke-width="1" fill="none"></path></g><g transform="translate(1149.9136904761897 674.9523809523803) rotate(0 16.5 12.5)"><text x="16.5" y="18" font-family="Virgil, Segoe UI Emoji" font-size="20px" fill="#000000" text-anchor="middle" style="white-space: pre;" direction="ltr">Yes</text></g><g stroke-linecap="round"><g transform="translate(1225.4455053952636 749.3865719249636) rotate(0 16.500109620711783 -13.77877591369844)" fill-rule="evenodd"><path d="M8.97 -25.33 C8.97 -25.33, 8.97 -25.33, 8.97 -25.33 M8.97 -25.33 C8.97 -25.33, 8.97 -25.33, 8.97 -25.33 M7.31 -16.69 C8.76 -19.98, 10.66 -22.75, 16.86 -28.25 M6.59 -16.48 C10.34 -20.25, 14.32 -24.71, 16.4 -28.39 M6.9 -8.42 C8.28 -14.13, 13.85 -17.77, 18.5 -25.07 M5.94 -9.64 C10.44 -13.49, 14.22 -20.67, 19.36 -26.8 M0.96 -0.35 C5.2 -3.92, 10.71 -10.39, 23.06 -23.82 M2.61 1.56 C6.32 -4.41, 10.68 -9.85, 23.51 -23.99 M6.62 2.91 C11.96 -4.39, 17.7 -12.17, 25.36 -21.49 M7.02 1.95 C15.01 -6.34, 21.08 -14.55, 26.83 -21.71 M12.02 -0.29 C18.27 -4.26, 20.26 -10.3, 28.39 -17.42 M12.63 2.25 C18.24 -4.46, 22.87 -11.55, 29.83 -19.98 M19.86 2.11 C24.31 -3.98, 29.69 -10.96, 33.19 -15.78 M16.92 1.74 C22.24 -5.33, 26.71 -9.7, 32.08 -14.82 M22.81 1.57 C25.68 -4.61, 30.2 -8.79, 34.45 -11 M23.42 0.81 C26.22 -1.73, 29.36 -4.86, 33.65 -10.11 M27.56 2.59 C30.65 -0.93, 31.9 -3.04, 33.77 -4.71 M27.86 2.12 C29.71 0.19, 30.65 -1.22, 33.92 -4.68" stroke="#15aabf" stroke-width="0.5" fill="none"></path><path d="M-1.18 0.77 C-0.73 -2.41, 0.89 -14.35, 3.56 -19.2 C6.23 -24.05, 10.96 -28.21, 14.84 -28.32 C18.72 -28.44, 23.83 -24.33, 26.82 -19.88 C29.81 -15.43, 37.27 -4.98, 32.8 -1.6 C28.32 1.77, 5.26 0.17, -0.03 0.38 M0.4 0.12 C0.62 -2.86, 0.37 -13.33, 2.6 -17.84 C4.84 -22.35, 9.76 -26.26, 13.81 -26.93 C17.86 -27.61, 23.92 -26.21, 26.92 -21.89 C29.91 -17.57, 36.02 -4.6, 31.76 -1.03 C27.5 2.54, 6.9 -0.93, 1.37 -0.45" stroke="#000000" stroke-width="1" fill="none"></path></g></g><g stroke-linecap="round" transform="translate(1233.3304171587663 705.7562852178932) rotate(0 8.183329809053248 7.160413582921649)"><path d="M2.13 3.18 C2.13 3.18, 2.13 3.18, 2.13 3.18 M2.13 3.18 C2.13 3.18, 2.13 3.18, 2.13 3.18 M2.34 9.25 C2.57 7.13, 5.22 5.64, 8.32 1.59 M2.17 10.07 C4.11 7.02, 6.15 4.29, 8.57 1.82 M4.15 12.47 C8.87 8.42, 11.68 4.61, 14.34 0.45 M3.73 12.78 C7.89 10.05, 10.61 5.89, 14.34 1.55 M6.75 14.69 C9.24 12.93, 12.32 8.64, 15.21 4.82 M8.2 15.05 C11.41 11.77, 14.14 7.88, 15.52 5.69" stroke="#15aabf" stroke-width="0.5" fill="none"></path><path d="M6.79 0.94 C8.61 0.67, 11.68 0.66, 13.2 1.38 C14.72 2.1, 15.36 3.89, 15.94 5.26 C16.51 6.62, 17.37 8.11, 16.63 9.56 C15.89 11, 13.02 13.01, 11.49 13.91 C9.96 14.82, 8.94 15.39, 7.46 14.99 C5.99 14.59, 4.01 12.72, 2.66 11.51 C1.3 10.31, -0.58 9.15, -0.68 7.77 C-0.78 6.4, 0.44 4.41, 2.06 3.27 C3.67 2.13, 7.7 1.49, 9.01 0.95 C10.31 0.41, 9.84 0.21, 9.88 0.02 M5.73 -1.32 C7.45 -1.88, 11.78 -0.59, 13.44 0.28 C15.1 1.16, 15.22 2.34, 15.71 3.92 C16.2 5.5, 17.05 8.28, 16.37 9.77 C15.69 11.26, 13.44 12.24, 11.64 12.89 C9.84 13.54, 7.16 13.91, 5.56 13.65 C3.96 13.39, 2.79 12.34, 2.05 11.35 C1.32 10.36, 1.02 9.25, 1.16 7.71 C1.3 6.17, 1.87 3.41, 2.91 2.12 C3.94 0.83, 6.42 0.22, 7.35 -0.03 C8.29 -0.27, 8.35 0.58, 8.49 0.66" stroke="#000000" stroke-width="1" fill="none"></path></g><g transform="translate(1044.357142857143 421.4285714285715) rotate(0 98.5 25)"><text x="0" y="18" font-family="Virgil, Segoe UI Emoji" font-size="20px" fill="#000000" text-anchor="start" style="white-space: pre;" direction="ltr">Request consent</text><text x="0" y="43" font-family="Virgil, Segoe UI Emoji" font-size="20px" fill="#000000" text-anchor="start" style="white-space: pre;" direction="ltr">from resource owner</text></g><g transform="translate(431.07142857142867 105.35714285714302) rotate(0 71.5 12.5)"><text x="0" y="18" font-family="Virgil, Segoe UI Emoji" font-size="20px" fill="#d9480f" text-anchor="start" style="white-space: pre;" direction="ltr">(front channel)</text></g><g transform="translate(477.32142857142867 682.857142857143) rotate(0 71.5 12.5)"><text x="0" y="18" font-family="Virgil, Segoe UI Emoji" font-size="20px" fill="#d9480f" text-anchor="start" style="white-space: pre;" direction="ltr">(front channel)</text></g><g transform="translate(569.2139738331548 443.6282693793368) rotate(324.72757855140156 68 12.5)"><text x="0" y="18" font-family="Virgil, Segoe UI Emoji" font-size="20px" fill="#2b8a3e" text-anchor="start" style="white-space: pre;" direction="ltr">(back channel)</text></g><g transform="translate(25.463973833154796 513.6282693793368) rotate(0.11088923605051129 68 12.5)"><text x="0" y="18" font-family="Virgil, Segoe UI Emoji" font-size="20px" fill="#2b8a3e" text-anchor="start" style="white-space: pre;" direction="ltr">(back channel)</text></g></svg>