<svg version="1.1" xmlns="http://www.w3.org/2000/svg" viewBox="0 0 1270.5113724759685 759.9389770100058" width="1270.5113724759685" height="759.9389770100058">
  <!-- svg-source:excalidraw -->
  
  <defs>
    <style>
      @font-face {
        font-family: "Virgil";
        src: url("https://excalidraw.com/Virgil.woff2");
      }
      @font-face {
        font-family: "Cascadia";
        src: url("https://excalidraw.com/Cascadia.woff2");
      }
    </style>
  </defs>
  <rect x="0" y="0" width="1270.5113724759685" height="759.9389770100058" fill="#ffffff"></rect><g stroke-linecap="round" transform="translate(82.0565476190468 554.5952380952385) rotate(0 153.57142857142844 72.14285714285711)"><path d="M0 0 C0 0, 0 0, 0 0 M0 0 C0 0, 0 0, 0 0 M-0.26 6.4 C1.66 4.18, 3.59 1.97, 4.99 0.36 M-0.26 6.4 C1.12 4.81, 2.5 3.23, 4.99 0.36 M0.13 12.04 C3.68 7.97, 7.22 3.89, 10.63 -0.03 M0.13 12.04 C2.62 9.18, 5.1 6.32, 10.63 -0.03 M-0.13 18.44 C3.44 14.33, 7.01 10.23, 15.62 0.33 M-0.13 18.44 C4.7 12.88, 9.53 7.33, 15.62 0.33 M0.27 24.08 C4.83 18.83, 9.4 13.57, 21.26 -0.07 M0.27 24.08 C5.49 18.07, 10.72 12.06, 21.26 -0.07 M0 30.48 C7.9 21.4, 15.79 12.32, 26.25 0.29 M0 30.48 C7.64 21.69, 15.28 12.91, 26.25 0.29 M-0.26 36.88 C10.45 24.56, 21.15 12.25, 31.89 -0.1 M-0.26 36.88 C9.46 25.7, 19.18 14.52, 31.89 -0.1 M0.14 42.52 C14.71 25.76, 29.29 8.99, 36.88 0.26 M0.14 42.52 C10.56 30.53, 20.98 18.54, 36.88 0.26 M-0.12 48.92 C10.94 36.19, 22 23.47, 42.52 -0.14 M-0.12 48.92 C15.19 31.3, 30.51 13.68, 42.52 -0.14 M0.27 54.56 C16 36.47, 31.73 18.37, 47.51 0.22 M0.27 54.56 C12.84 40.1, 25.42 25.63, 47.51 0.22 M0.01 60.96 C17.72 40.58, 35.44 20.2, 53.15 -0.17 M0.01 60.96 C18.39 39.81, 36.78 18.66, 53.15 -0.17 M-0.25 67.36 C13.72 51.28, 27.69 35.21, 58.14 0.19 M-0.25 67.36 C13.44 51.61, 27.13 35.86, 58.14 0.19 M0.14 73 C22.57 47.2, 45 21.4, 63.78 -0.21 M0.14 73 C16.24 54.48, 32.34 35.97, 63.78 -0.21 M-0.12 79.4 C17.52 59.1, 35.16 38.81, 68.77 0.15 M-0.12 79.4 C20.44 55.75, 41 32.1, 68.77 0.15 M0.28 85.04 C20.67 61.58, 41.06 38.12, 74.41 -0.24 M0.28 85.04 C17.66 65.04, 35.05 45.04, 74.41 -0.24 M0.01 91.44 C18.65 70, 37.3 48.55, 79.4 0.12 M0.01 91.44 C30.34 56.56, 60.66 21.68, 79.4 0.12 M-0.25 97.84 C27.11 66.37, 54.47 34.9, 85.04 -0.28 M-0.25 97.84 C26.13 67.5, 52.5 37.16, 85.04 -0.28 M0.15 103.48 C21.52 78.89, 42.9 54.3, 90.03 0.08 M0.15 103.48 C29.19 70.07, 58.23 36.66, 90.03 0.08 M-0.11 109.88 C25.73 80.15, 51.57 50.43, 95.67 -0.31 M-0.11 109.88 C24.75 81.28, 49.61 52.68, 95.67 -0.31 M0.28 115.52 C24.22 87.98, 48.16 60.45, 100.66 0.05 M0.28 115.52 C37.82 72.34, 75.36 29.16, 100.66 0.05 M0.02 121.92 C38.64 77.49, 77.27 33.05, 106.3 -0.34 M0.02 121.92 C35.32 81.31, 70.62 40.71, 106.3 -0.34 M-0.24 128.32 C24.4 99.96, 49.05 71.61, 111.29 0.02 M-0.24 128.32 C33.29 89.74, 66.82 51.17, 111.29 0.02 M0.15 133.96 C23.83 106.72, 47.51 79.48, 116.27 0.38 M0.15 133.96 C39.36 88.86, 78.56 43.76, 116.27 0.38 M-0.11 140.36 C34.13 100.97, 68.36 61.59, 121.92 -0.02 M-0.11 140.36 C34.46 100.59, 69.04 60.81, 121.92 -0.02 M0.94 145.25 C32.99 108.38, 65.03 71.52, 126.91 0.34 M0.94 145.25 C45.12 94.42, 89.31 43.59, 126.91 0.34 M6.58 144.85 C47.31 98, 88.04 51.15, 132.55 -0.05 M6.58 144.85 C33.83 113.51, 61.08 82.17, 132.55 -0.05 M11.57 145.21 C54.28 96.09, 96.98 46.96, 137.54 0.31 M11.57 145.21 C38.07 114.73, 64.56 84.25, 137.54 0.31 M17.21 144.82 C63.36 91.73, 109.51 38.64, 143.18 -0.09 M17.21 144.82 C43.4 114.69, 69.59 84.57, 143.18 -0.09 M22.2 145.18 C65.38 95.51, 108.55 45.84, 148.17 0.27 M22.2 145.18 C49.82 113.41, 77.43 81.65, 148.17 0.27 M27.19 145.54 C57.28 110.92, 87.37 76.31, 153.81 -0.12 M27.19 145.54 C62.7 104.68, 98.22 63.83, 153.81 -0.12 M32.83 145.14 C72.09 99.99, 111.34 54.83, 158.8 0.24 M32.83 145.14 C63.61 109.74, 94.38 74.34, 158.8 0.24 M37.82 145.5 C72.78 105.28, 107.74 65.07, 164.44 -0.16 M37.82 145.5 C72.07 106.1, 106.32 66.7, 164.44 -0.16 M43.46 145.11 C87.87 94.03, 132.27 42.95, 169.43 0.2 M43.46 145.11 C70.75 113.72, 98.03 82.33, 169.43 0.2 M48.45 145.47 C77.78 111.72, 107.12 77.98, 175.07 -0.19 M48.45 145.47 C90.05 97.62, 131.64 49.76, 175.07 -0.19 M54.09 145.07 C96.07 96.78, 138.05 48.49, 180.06 0.17 M54.09 145.07 C83.21 111.58, 112.33 78.08, 180.06 0.17 M59.08 145.43 C105.31 92.25, 151.54 39.07, 185.7 -0.23 M59.08 145.43 C86.82 113.52, 114.55 81.62, 185.7 -0.23 M64.72 145.04 C112.92 89.59, 161.12 34.14, 190.69 0.13 M64.72 145.04 C95.84 109.24, 126.96 73.44, 190.69 0.13 M69.71 145.4 C113.8 94.68, 157.89 43.96, 196.33 -0.26 M69.71 145.4 C97.66 113.24, 125.62 81.08, 196.33 -0.26 M75.35 145 C124.53 88.43, 173.71 31.85, 201.32 0.1 M75.35 145 C124.16 88.86, 172.96 32.72, 201.32 0.1 M80.34 145.36 C126.38 92.4, 172.43 39.43, 206.96 -0.3 M80.34 145.36 C109 112.39, 137.66 79.42, 206.96 -0.3 M85.98 144.97 C124.68 100.45, 163.38 55.93, 211.95 0.06 M85.98 144.97 C116.16 110.25, 146.35 75.53, 211.95 0.06 M90.97 145.33 C116.93 115.46, 142.89 85.6, 217.59 -0.33 M90.97 145.33 C121.69 109.99, 152.41 74.66, 217.59 -0.33 M96.61 144.93 C127.43 109.48, 158.25 74.02, 222.58 0.03 M96.61 144.93 C141.3 93.52, 186 42.11, 222.58 0.03 M101.6 145.29 C149.33 90.39, 197.06 35.48, 228.22 -0.36 M101.6 145.29 C138.36 103.01, 175.11 60.73, 228.22 -0.36 M107.24 144.9 C154.51 90.52, 201.79 36.14, 233.21 0 M107.24 144.9 C151.13 94.41, 195.02 43.93, 233.21 0 M112.23 145.26 C161.98 88.03, 211.72 30.81, 238.19 0.36 M112.23 145.26 C150.57 101.16, 188.9 57.06, 238.19 0.36 M117.87 144.87 C147.16 111.17, 176.45 77.48, 243.84 -0.04 M117.87 144.87 C168.24 86.93, 218.6 28.99, 243.84 -0.04 M122.86 145.23 C158.8 103.88, 194.75 62.53, 248.82 0.32 M122.86 145.23 C152.3 111.36, 181.73 77.5, 248.82 0.32 M128.5 144.83 C155.06 114.29, 181.61 83.74, 254.47 -0.07 M128.5 144.83 C172.91 93.75, 217.32 42.66, 254.47 -0.07 M133.49 145.19 C169.47 103.8, 205.45 62.41, 259.45 0.29 M133.49 145.19 C176.49 95.73, 219.49 46.26, 259.45 0.29 M139.13 144.8 C172.57 106.33, 206.01 67.86, 265.1 -0.11 M139.13 144.8 C166.1 113.77, 193.07 82.75, 265.1 -0.11 M144.12 145.16 C187.46 95.3, 230.8 45.44, 270.08 0.25 M144.12 145.16 C182.46 101.05, 220.81 56.94, 270.08 0.25 M149.11 145.52 C176.05 114.52, 203 83.52, 275.73 -0.14 M149.11 145.52 C181.54 108.21, 213.97 70.9, 275.73 -0.14 M154.75 145.12 C182.46 113.25, 210.16 81.38, 280.71 0.22 M154.75 145.12 C194.3 99.62, 233.85 54.12, 280.71 0.22 M159.74 145.48 C188.87 111.97, 218 78.46, 286.36 -0.18 M159.74 145.48 C199.53 99.71, 239.32 53.93, 286.36 -0.18 M165.38 145.09 C213.68 89.53, 261.97 33.97, 291.34 0.18 M165.38 145.09 C212.65 90.71, 259.93 36.32, 291.34 0.18 M170.37 145.45 C215.36 93.69, 260.36 41.93, 296.99 -0.21 M170.37 145.45 C206.86 103.46, 243.36 61.48, 296.99 -0.21 M176.01 145.05 C215.77 99.32, 255.53 53.58, 301.97 0.15 M176.01 145.05 C202.16 114.97, 228.31 84.89, 301.97 0.15 M181 145.41 C230.1 88.92, 279.21 32.44, 307.62 -0.25 M181 145.41 C211.62 110.18, 242.25 74.95, 307.62 -0.25 M186.64 145.02 C211.83 116.04, 237.01 87.07, 307.36 6.15 M186.64 145.02 C228.19 97.22, 269.74 49.42, 307.36 6.15 M191.63 145.38 C236.37 93.91, 281.1 42.45, 307.09 12.55 M191.63 145.38 C226.61 105.13, 261.6 64.88, 307.09 12.55 M197.27 144.98 C226.53 111.32, 255.79 77.67, 307.49 18.19 M197.27 144.98 C222.9 115.5, 248.53 86.02, 307.49 18.19 M202.26 145.34 C241.65 100.03, 281.04 54.72, 307.23 24.59 M202.26 145.34 C240.42 101.44, 278.58 57.54, 307.23 24.59 M207.9 144.95 C227.72 122.15, 247.53 99.36, 306.97 30.99 M207.9 144.95 C240.99 106.89, 274.08 68.82, 306.97 30.99 M212.89 145.31 C234.91 119.97, 256.93 94.64, 307.36 36.63 M212.89 145.31 C248.74 104.06, 284.6 62.82, 307.36 36.63 M218.53 144.92 C248.4 110.56, 278.27 76.2, 307.1 43.03 M218.53 144.92 C238.38 122.08, 258.23 99.24, 307.1 43.03 M223.52 145.28 C240.64 125.58, 257.76 105.88, 307.49 48.67 M223.52 145.28 C246.27 119.1, 269.02 92.93, 307.49 48.67 M229.16 144.88 C253.59 116.78, 278.01 88.68, 307.23 55.07 M229.16 144.88 C252 118.61, 274.84 92.34, 307.23 55.07 M234.15 145.24 C262.65 112.45, 291.15 79.67, 306.97 61.47 M234.15 145.24 C250.3 126.65, 266.46 108.07, 306.97 61.47 M239.79 144.85 C265.04 115.8, 290.29 86.75, 307.36 67.11 M239.79 144.85 C256.2 125.97, 272.6 107.1, 307.36 67.11 M244.78 145.21 C261 126.54, 277.22 107.88, 307.1 73.51 M244.78 145.21 C268.5 117.92, 292.21 90.64, 307.1 73.51 M250.42 144.81 C266.25 126.6, 282.09 108.38, 307.5 79.15 M250.42 144.81 C272.83 119.03, 295.24 93.25, 307.5 79.15 M255.41 145.17 C272.84 125.12, 290.26 105.07, 307.24 85.55 M255.41 145.17 C274.02 123.76, 292.64 102.34, 307.24 85.55 M260.39 145.53 C278.68 124.49, 296.97 103.46, 306.97 91.95 M260.39 145.53 C277.81 125.5, 295.22 105.47, 306.97 91.95 M266.04 145.14 C278.68 130.59, 291.33 116.05, 307.37 97.59 M266.04 145.14 C279.84 129.25, 293.65 113.37, 307.37 97.59 M271.02 145.5 C285.42 128.94, 299.81 112.38, 307.11 103.99 M271.02 145.5 C279.4 135.86, 287.78 126.23, 307.11 103.99 M276.67 145.1 C286.44 133.87, 296.2 122.63, 307.5 109.63 M276.67 145.1 C287.32 132.85, 297.98 120.59, 307.5 109.63 M281.65 145.46 C291.55 134.08, 301.45 122.69, 307.24 116.03 M281.65 145.46 C290.04 135.82, 298.42 126.18, 307.24 116.03 M287.3 145.07 C292.76 138.79, 298.22 132.51, 306.98 122.43 M287.3 145.07 C295.13 136.06, 302.97 127.04, 306.98 122.43 M292.29 145.43 C297.68 139.22, 303.08 133.01, 307.37 128.07 M292.29 145.43 C295.82 141.37, 299.35 137.31, 307.37 128.07 M297.93 145.03 C301.21 141.26, 304.49 137.49, 307.11 134.47 M297.93 145.03 C301.23 141.23, 304.54 137.43, 307.11 134.47 M302.92 145.39 C304.4 143.68, 305.89 141.97, 307.51 140.11 M302.92 145.39 C304.01 144.13, 305.11 142.86, 307.51 140.11" stroke="#ced4da" stroke-width="0.5" fill="none"></path><path d="M0 0 C81.92 0, 163.85 0, 307.14 0 M0 0 C118.89 0, 237.78 0, 307.14 0 M307.14 0 C307.14 45.14, 307.14 90.27, 307.14 144.29 M307.14 0 C307.14 42.67, 307.14 85.33, 307.14 144.29 M307.14 144.29 C188.77 144.29, 70.4 144.29, 0 144.29 M307.14 144.29 C212.55 144.29, 117.96 144.29, 0 144.29 M0 144.29 C0 111.97, 0 79.66, 0 0 M0 144.29 C0 100.2, 0 56.11, 0 0" stroke="#000000" stroke-width="1" fill="none"></path></g><g transform="translate(154.9136904761899 572.2380952380956) rotate(0 81.5 12.5)"><text x="0" y="18" font-family="Virgil, Segoe UI Emoji" font-size="20px" fill="#000000" text-anchor="start" style="white-space: pre;" direction="ltr">yelp.com/callback</text></g><g transform="translate(175.34226190476147 624.1666666666667) rotate(0 51 12.5)"><text x="51" y="18" font-family="Virgil, Segoe UI Emoji" font-size="20px" fill="#000000" text-anchor="middle" style="white-space: pre;" direction="ltr">Hello John!</text></g><g stroke-linecap="round" transform="translate(67.77083333333303 63.1666666666666) rotate(0 153.57142857142844 72.14285714285712)"><path d="M0 0 C0 0, 0 0, 0 0 M0 0 C0 0, 0 0, 0 0 M-0.26 6.4 C0.96 4.99, 2.19 3.58, 4.99 0.36 M-0.26 6.4 C1.43 4.45, 3.12 2.51, 4.99 0.36 M0.13 12.04 C2.88 8.88, 5.63 5.71, 10.63 -0.03 M0.13 12.04 C3.71 7.93, 7.29 3.81, 10.63 -0.03 M-0.13 18.44 C5.93 11.47, 11.98 4.51, 15.62 0.33 M-0.13 18.44 C4.27 13.38, 8.66 8.33, 15.62 0.33 M0.27 24.08 C8.1 15.07, 15.94 6.05, 21.26 -0.07 M0.27 24.08 C5.01 18.62, 9.75 13.17, 21.26 -0.07 M0 30.48 C9.56 19.49, 19.11 8.5, 26.25 0.29 M0 30.48 C5.87 23.73, 11.74 16.98, 26.25 0.29 M-0.26 36.88 C7.66 27.77, 15.58 18.66, 31.89 -0.1 M-0.26 36.88 C7.06 28.46, 14.37 20.05, 31.89 -0.1 M0.14 42.52 C13.17 27.53, 26.21 12.53, 36.88 0.26 M0.14 42.52 C13.58 27.06, 27.01 11.6, 36.88 0.26 M-0.12 48.92 C10.92 36.22, 21.96 23.52, 42.52 -0.14 M-0.12 48.92 C12.6 34.28, 25.32 19.65, 42.52 -0.14 M0.27 54.56 C12.28 40.74, 24.29 26.93, 47.51 0.22 M0.27 54.56 C13.33 39.53, 26.4 24.51, 47.51 0.22 M0.01 60.96 C18.76 39.38, 37.52 17.81, 53.15 -0.17 M0.01 60.96 C16.08 42.47, 32.15 23.99, 53.15 -0.17 M-0.25 67.36 C21.58 42.24, 43.42 17.12, 58.14 0.19 M-0.25 67.36 C22.4 41.3, 45.04 15.25, 58.14 0.19 M0.14 73 C21.42 48.52, 42.7 24.04, 63.78 -0.21 M0.14 73 C20.16 49.97, 40.17 26.95, 63.78 -0.21 M-0.12 79.4 C23.26 52.5, 46.64 25.61, 68.77 0.15 M-0.12 79.4 C20.04 56.21, 40.19 33.03, 68.77 0.15 M0.28 85.04 C27.95 53.21, 55.62 21.37, 74.41 -0.24 M0.28 85.04 C24.04 57.7, 47.8 30.36, 74.41 -0.24 M0.01 91.44 C30.98 55.82, 61.94 20.2, 79.4 0.12 M0.01 91.44 C19.42 69.11, 38.83 46.79, 79.4 0.12 M-0.25 97.84 C25.66 68.03, 51.57 38.22, 85.04 -0.28 M-0.25 97.84 C26.81 66.71, 53.87 35.58, 85.04 -0.28 M0.15 103.48 C25.28 74.57, 50.41 45.66, 90.03 0.08 M0.15 103.48 C23.36 76.78, 46.57 50.08, 90.03 0.08 M-0.11 109.88 C30.93 74.17, 61.97 38.46, 95.67 -0.31 M-0.11 109.88 C20.22 86.48, 40.56 63.09, 95.67 -0.31 M0.28 115.52 C38 72.13, 75.72 28.73, 100.66 0.05 M0.28 115.52 C21.31 91.33, 42.35 67.13, 100.66 0.05 M0.02 121.92 C31.51 85.69, 63 49.47, 106.3 -0.34 M0.02 121.92 C34.49 82.26, 68.96 42.61, 106.3 -0.34 M-0.24 128.32 C39.95 82.08, 80.14 35.85, 111.29 0.02 M-0.24 128.32 C37.12 85.34, 74.48 42.36, 111.29 0.02 M0.15 133.96 C28.81 100.99, 57.48 68.02, 116.27 0.38 M0.15 133.96 C33.01 96.17, 65.86 58.37, 116.27 0.38 M-0.11 140.36 C40.05 94.16, 80.21 47.95, 121.92 -0.02 M-0.11 140.36 C40.42 93.73, 80.95 47.11, 121.92 -0.02 M0.94 145.25 C34.45 106.7, 67.95 68.16, 126.91 0.34 M0.94 145.25 C42.33 97.64, 83.71 50.03, 126.91 0.34 M6.58 144.85 C43.36 102.54, 80.14 60.24, 132.55 -0.05 M6.58 144.85 C39.26 107.26, 71.94 69.67, 132.55 -0.05 M11.57 145.21 C37.8 115.04, 64.02 84.88, 137.54 0.31 M11.57 145.21 C38.36 114.4, 65.15 83.58, 137.54 0.31 M17.21 144.82 C51.58 105.28, 85.95 65.74, 143.18 -0.09 M17.21 144.82 C46.97 110.58, 76.73 76.35, 143.18 -0.09 M22.2 145.18 C71.57 88.38, 120.94 31.59, 148.17 0.27 M22.2 145.18 C59.69 102.05, 97.18 58.92, 148.17 0.27 M27.19 145.54 C53.75 114.98, 80.31 84.42, 153.81 -0.12 M27.19 145.54 C70.62 95.57, 114.05 45.61, 153.81 -0.12 M32.83 145.14 C70.59 101.71, 108.35 58.27, 158.8 0.24 M32.83 145.14 C65.18 107.93, 97.53 70.72, 158.8 0.24 M37.82 145.5 C70.09 108.38, 102.35 71.26, 164.44 -0.16 M37.82 145.5 C78.46 98.75, 119.1 52, 164.44 -0.16 M43.46 145.11 C78.51 104.79, 113.56 64.46, 169.43 0.2 M43.46 145.11 C90.62 90.86, 137.78 36.61, 169.43 0.2 M48.45 145.47 C83.16 105.53, 117.87 65.6, 175.07 -0.19 M48.45 145.47 C82.93 105.8, 117.41 66.14, 175.07 -0.19 M54.09 145.07 C84.09 110.57, 114.08 76.06, 180.06 0.17 M54.09 145.07 C85.03 109.48, 115.97 73.89, 180.06 0.17 M59.08 145.43 C103.13 94.75, 147.19 44.07, 185.7 -0.23 M59.08 145.43 C104.69 92.96, 150.31 40.49, 185.7 -0.23 M64.72 145.04 C109.32 93.73, 153.92 42.43, 190.69 0.13 M64.72 145.04 C99.56 104.96, 134.4 64.88, 190.69 0.13 M69.71 145.4 C103.95 106.01, 138.19 66.62, 196.33 -0.26 M69.71 145.4 C108.81 100.41, 147.92 55.43, 196.33 -0.26 M75.35 145 C121.32 92.13, 167.28 39.25, 201.32 0.1 M75.35 145 C123.77 89.31, 172.19 33.61, 201.32 0.1 M80.34 145.36 C111.99 108.95, 143.65 72.54, 206.96 -0.3 M80.34 145.36 C118.72 101.21, 157.11 57.05, 206.96 -0.3 M85.98 144.97 C120.43 105.34, 154.87 65.72, 211.95 0.06 M85.98 144.97 C123.39 101.93, 160.8 58.9, 211.95 0.06 M90.97 145.33 C117.43 114.89, 143.89 84.45, 217.59 -0.33 M90.97 145.33 C127.58 103.22, 164.18 61.11, 217.59 -0.33 M96.61 144.93 C127.69 109.19, 158.76 73.44, 222.58 0.03 M96.61 144.93 C128.53 108.22, 160.44 71.51, 222.58 0.03 M101.6 145.29 C137.54 103.95, 173.48 62.6, 228.22 -0.36 M101.6 145.29 C136.25 105.43, 170.9 65.57, 228.22 -0.36 M107.24 144.9 C146.99 99.18, 186.73 53.46, 233.21 0 M107.24 144.9 C145.46 100.94, 183.67 56.98, 233.21 0 M112.23 145.26 C153.18 98.15, 194.14 51.03, 238.19 0.36 M112.23 145.26 C140.53 112.71, 168.83 80.15, 238.19 0.36 M117.87 144.87 C152.52 105.01, 187.17 65.15, 243.84 -0.04 M117.87 144.87 C144.05 114.75, 170.24 84.63, 243.84 -0.04 M122.86 145.23 C172.92 87.64, 222.97 30.06, 248.82 0.32 M122.86 145.23 C169.57 91.49, 216.29 37.75, 248.82 0.32 M128.5 144.83 C176.92 89.13, 225.34 33.43, 254.47 -0.07 M128.5 144.83 C171.15 95.78, 213.79 46.72, 254.47 -0.07 M133.49 145.19 C168.67 104.73, 203.84 64.26, 259.45 0.29 M133.49 145.19 C171.53 101.43, 209.57 57.67, 259.45 0.29 M139.13 144.8 C172.72 106.16, 206.31 67.51, 265.1 -0.11 M139.13 144.8 C186.76 90.01, 234.39 35.22, 265.1 -0.11 M144.12 145.16 C189.9 92.49, 235.68 39.83, 270.08 0.25 M144.12 145.16 C177.97 106.22, 211.82 67.27, 270.08 0.25 M149.11 145.52 C175.59 115.05, 202.07 84.59, 275.73 -0.14 M149.11 145.52 C176.99 113.44, 204.87 81.37, 275.73 -0.14 M154.75 145.12 C199.68 93.44, 244.61 41.75, 280.71 0.22 M154.75 145.12 C190.36 104.16, 225.96 63.2, 280.71 0.22 M159.74 145.48 C193.05 107.16, 226.36 68.84, 286.36 -0.18 M159.74 145.48 C193.85 106.24, 227.96 67, 286.36 -0.18 M165.38 145.09 C213.23 90.05, 261.08 35, 291.34 0.18 M165.38 145.09 C192.63 113.74, 219.88 82.4, 291.34 0.18 M170.37 145.45 C213.91 95.36, 257.45 45.28, 296.99 -0.21 M170.37 145.45 C213.57 95.75, 256.77 46.05, 296.99 -0.21 M176.01 145.05 C209.74 106.25, 243.48 67.44, 301.97 0.15 M176.01 145.05 C214.2 101.12, 252.39 57.19, 301.97 0.15 M181 145.41 C222.9 97.21, 264.79 49.02, 307.62 -0.25 M181 145.41 C226.84 92.68, 272.68 39.95, 307.62 -0.25 M186.64 145.02 C219.17 107.6, 251.7 70.17, 307.36 6.15 M186.64 145.02 C215.32 112.02, 244.01 79.02, 307.36 6.15 M191.63 145.38 C234.08 96.54, 276.54 47.7, 307.09 12.55 M191.63 145.38 C222.72 109.61, 253.81 73.85, 307.09 12.55 M197.27 144.98 C235.62 100.87, 273.97 56.75, 307.49 18.19 M197.27 144.98 C227.58 110.11, 257.9 75.24, 307.49 18.19 M202.26 145.34 C240.23 101.66, 278.2 57.98, 307.23 24.59 M202.26 145.34 C234.93 107.76, 267.6 70.18, 307.23 24.59 M207.9 144.95 C235.66 113.02, 263.42 81.09, 306.97 30.99 M207.9 144.95 C240.76 107.15, 273.62 69.35, 306.97 30.99 M212.89 145.31 C239.78 114.37, 266.68 83.43, 307.36 36.63 M212.89 145.31 C245.69 107.58, 278.48 69.85, 307.36 36.63 M218.53 144.92 C250.19 108.5, 281.84 72.08, 307.1 43.03 M218.53 144.92 C243.75 115.9, 268.98 86.88, 307.1 43.03 M223.52 145.28 C246.37 118.98, 269.23 92.69, 307.49 48.67 M223.52 145.28 C252.68 111.73, 281.85 78.18, 307.49 48.67 M229.16 144.88 C251.4 119.3, 273.63 93.72, 307.23 55.07 M229.16 144.88 C250.44 120.41, 271.71 95.93, 307.23 55.07 M234.15 145.24 C257.74 118.1, 281.33 90.96, 306.97 61.47 M234.15 145.24 C255.46 120.72, 276.78 96.2, 306.97 61.47 M239.79 144.85 C258.82 122.95, 277.86 101.06, 307.36 67.11 M239.79 144.85 C266.41 114.22, 293.03 83.6, 307.36 67.11 M244.78 145.21 C257.48 130.59, 270.19 115.97, 307.1 73.51 M244.78 145.21 C261.95 125.45, 279.12 105.7, 307.1 73.51 M250.42 144.81 C272.18 119.78, 293.94 94.75, 307.5 79.15 M250.42 144.81 C262.36 131.08, 274.3 117.35, 307.5 79.15 M255.41 145.17 C273.01 124.92, 290.62 104.67, 307.24 85.55 M255.41 145.17 C276.07 121.4, 296.73 97.63, 307.24 85.55 M260.39 145.53 C275.81 127.8, 291.23 110.06, 306.97 91.95 M260.39 145.53 C271.53 132.72, 282.67 119.91, 306.97 91.95 M266.04 145.14 C279.4 129.76, 292.77 114.39, 307.37 97.59 M266.04 145.14 C277.45 132.01, 288.86 118.88, 307.37 97.59 M271.02 145.5 C281.57 133.37, 292.12 121.23, 307.11 103.99 M271.02 145.5 C280.61 134.47, 290.19 123.45, 307.11 103.99 M276.67 145.1 C283.17 137.62, 289.67 130.14, 307.5 109.63 M276.67 145.1 C286.93 133.3, 297.19 121.5, 307.5 109.63 M281.65 145.46 C290.37 135.44, 299.09 125.41, 307.24 116.03 M281.65 145.46 C287.58 138.65, 293.51 131.83, 307.24 116.03 M287.3 145.07 C291.67 140.04, 296.05 135, 306.98 122.43 M287.3 145.07 C293.29 138.18, 299.28 131.28, 306.98 122.43 M292.29 145.43 C297.8 139.08, 303.32 132.73, 307.37 128.07 M292.29 145.43 C297.43 139.51, 302.57 133.59, 307.37 128.07 M297.93 145.03 C300.15 142.48, 302.37 139.93, 307.11 134.47 M297.93 145.03 C301.03 141.46, 304.13 137.89, 307.11 134.47 M302.92 145.39 C304.62 143.43, 306.32 141.47, 307.51 140.11 M302.92 145.39 C304.56 143.5, 306.21 141.61, 307.51 140.11" stroke="#ced4da" stroke-width="0.5" fill="none"></path><path d="M0 0 C86.11 0, 172.21 0, 307.14 0 M0 0 C66.51 0, 133.01 0, 307.14 0 M307.14 0 C307.14 36.28, 307.14 72.55, 307.14 144.29 M307.14 0 C307.14 48.46, 307.14 96.93, 307.14 144.29 M307.14 144.29 C235.52 144.29, 163.9 144.29, 0 144.29 M307.14 144.29 C226.78 144.29, 146.42 144.29, 0 144.29 M0 144.29 C0 95.16, 0 46.03, 0 0 M0 144.29 C0 114.87, 0 85.45, 0 0" stroke="#000000" stroke-width="1" fill="none"></path></g><g stroke-linecap="round" transform="translate(114.19940476190368 133.02380952380952) rotate(0 110.71428571428578 20.857142857142833)"><path d="M-0.45 -1.57 L222.38 -1.64 L222.6 41.94 L0.76 43.07" stroke="none" stroke-width="0" fill="#fd7e14"></path><path d="M0.18 -0.08 C52.91 0.14, 108.77 0.46, 222.55 -1.44 M0.03 0.53 C84.77 -2.2, 169.81 -1.77, 221.47 -0.42 M222.7 -0.45 C222.15 12.68, 221.16 27.25, 222.51 42.43 M222.01 0.61 C221.06 14.06, 222.37 26.6, 220.75 41.05 M223.08 40.29 C134.27 43.79, 44.92 44.26, -0.47 41.05 M221.16 41.58 C172.19 41.07, 121.77 40.04, 0.65 42.06 M-0.53 40.35 C2.03 29.74, 0.3 22.96, 0.68 -1.92 M-0.54 41 C0.51 31.25, 0.95 20.94, -0.47 0.98" stroke="#000000" stroke-width="1" fill="none"></path></g><g transform="translate(125.98511904761835 141.3809523809523) rotate(0 99 12.5)"><text x="99" y="18" font-family="Virgil, Segoe UI Emoji" font-size="20px" fill="#000000" text-anchor="middle" style="white-space: pre;" direction="ltr">Connect with Google</text></g><g transform="translate(183.48511904761835 77.95238095238082) rotate(0 38 12.5)"><text x="0" y="18" font-family="Virgil, Segoe UI Emoji" font-size="20px" fill="#000000" text-anchor="start" style="white-space: pre;" direction="ltr">yelp.com</text></g><g stroke-linecap="round"><g transform="translate(39.16834886128254 238.44305004657855) rotate(0 16.65816082432002 -14.376952488790934)" fill-rule="evenodd"><path d="M8.97 -25.33 C8.97 -25.33, 8.97 -25.33, 8.97 -25.33 M8.97 -25.33 C8.97 -25.33, 8.97 -25.33, 8.97 -25.33 M8.22 -16.36 C10.09 -18.14, 10.75 -21.54, 17.61 -27.87 M6.16 -16.48 C10.27 -21.35, 14.44 -25.37, 16.89 -28.56 M4.03 -9.69 C9.49 -13.19, 10.33 -14.65, 18.44 -26.01 M4.59 -9.18 C11.47 -15.72, 15.8 -21.4, 19.91 -25.34 M1.17 -0.17 C8.22 -6.81, 13.96 -11.29, 24.69 -22.89 M2.43 0.41 C7.7 -6.25, 14.71 -11.66, 24.74 -23.58 M8.31 2.24 C14.29 -7.39, 22.24 -17.03, 28.2 -22.37 M7.97 0.26 C10.67 -3.95, 15.28 -7.34, 26.77 -21.25 M10.33 0.88 C16.62 -5.43, 22.26 -6.99, 30.17 -20.27 M11.93 0.95 C16.95 -5.44, 22.74 -11.32, 29.02 -19.74 M16.16 -0.65 C23.66 -2.74, 26.56 -10.34, 31.4 -14.74 M18.29 0.36 C21.74 -2.43, 25.33 -6.56, 30.81 -15.69 M22.32 2.79 C25.18 -2.39, 32.06 -6.64, 32.34 -11.55 M22.56 1.98 C25.93 -2.19, 30.43 -7.29, 33.31 -10.73 M27.92 1.95 C30.01 -0.13, 30.74 -0.7, 34.64 -5.17 M28.3 1.82 C29.18 -0.14, 30.45 -1.47, 33.92 -4.94" stroke="#15aabf" stroke-width="0.5" fill="none"></path><path d="M-0.5 0.8 C0.25 -2.17, 1.85 -12.8, 4.63 -17.85 C7.4 -22.89, 12.21 -28.77, 16.12 -29.47 C20.04 -30.17, 25.31 -26.64, 28.11 -22.05 C30.91 -17.46, 37.49 -5.58, 32.93 -1.92 C28.36 1.73, 6.38 -0.46, 0.73 -0.11 M1.43 0.17 C2.11 -3.1, 1.84 -14.63, 4.23 -19.43 C6.61 -24.24, 11.66 -28.32, 15.77 -28.67 C19.87 -29.02, 26.18 -26.06, 28.88 -21.53 C31.58 -17.01, 36.96 -4.9, 31.96 -1.51 C26.96 1.88, 4.33 -1.28, -1.13 -1.21" stroke="#000000" stroke-width="1" fill="none"></path></g></g><g stroke-linecap="round" transform="translate(47.05326062478434 194.81276333950805) rotate(0 8.183329809053248 7.160413582921677)"><path d="M1.95 3.02 C1.95 3.02, 1.95 3.02, 1.95 3.02 M1.95 3.02 C1.95 3.02, 1.95 3.02, 1.95 3.02 M2.12 9.93 C2.94 7.59, 5.63 4.58, 8.38 2.29 M0.65 10.62 C3.17 7.08, 5.89 4.56, 8.63 2.32 M2.33 14.39 C8.14 8.91, 10.93 4.98, 12.84 2.48 M3.58 14.12 C5.67 9.88, 8.77 7.19, 14.62 1.34 M7.2 13.33 C10.54 11.18, 12.67 8.53, 17.99 4.25 M8.01 14.44 C9.6 11.77, 11.65 9.59, 16.66 3.44" stroke="#15aabf" stroke-width="0.5" fill="none"></path><path d="M12.38 -0.31 C13.97 0.35, 15.63 2.56, 16.36 4.08 C17.08 5.61, 17.42 7.33, 16.73 8.83 C16.03 10.33, 13.76 12.18, 12.19 13.1 C10.62 14.02, 9 14.45, 7.3 14.35 C5.6 14.24, 3.27 13.46, 1.98 12.47 C0.7 11.48, -0.4 9.99, -0.39 8.39 C-0.38 6.8, 0.92 4.31, 2.06 2.9 C3.19 1.5, 4.5 0.1, 6.41 -0.03 C8.33 -0.16, 12.01 1.49, 13.53 2.13 C15.06 2.77, 15.59 3.75, 15.54 3.82 M11.15 1.62 C12.75 1.94, 16.33 2.66, 16.97 3.75 C17.62 4.85, 15.48 6.59, 15.01 8.2 C14.54 9.82, 15.35 12.2, 14.17 13.45 C12.99 14.7, 10.13 15.77, 7.94 15.71 C5.74 15.65, 2.15 14.42, 1 13.09 C-0.14 11.76, 0.71 9.47, 1.05 7.71 C1.39 5.94, 2.28 3.93, 3.05 2.49 C3.83 1.05, 4.18 -0.53, 5.71 -0.95 C7.24 -1.37, 11.29 -0.29, 12.22 -0.02 C13.15 0.24, 11.36 0.31, 11.31 0.65" stroke="#000000" stroke-width="1" fill="none"></path></g><g stroke-linecap="round" transform="translate(879.1994047619037 60.30952380952377) rotate(0 147.85714285714312 90)"><path d="M0 0 C0 0, 0 0, 0 0 M0 0 C0 0, 0 0, 0 0 M-0.26 6.4 C0.97 4.98, 2.2 3.57, 4.99 0.36 M-0.26 6.4 C1.79 4.04, 3.83 1.69, 4.99 0.36 M0.13 12.04 C4.09 7.49, 8.04 2.94, 10.63 -0.03 M0.13 12.04 C2.89 8.86, 5.66 5.69, 10.63 -0.03 M-0.13 18.44 C3.85 13.86, 7.83 9.28, 15.62 0.33 M-0.13 18.44 C4.94 12.6, 10.02 6.77, 15.62 0.33 M0.27 24.08 C7.91 15.29, 15.56 6.49, 21.26 -0.07 M0.27 24.08 C5.11 18.51, 9.95 12.94, 21.26 -0.07 M0 30.48 C10.3 18.64, 20.59 6.8, 26.25 0.29 M0 30.48 C8.94 20.2, 17.88 9.92, 26.25 0.29 M-0.26 36.88 C9 26.23, 18.25 15.58, 31.89 -0.1 M-0.26 36.88 C11.01 23.91, 22.29 10.94, 31.89 -0.1 M0.14 42.52 C9.77 31.44, 19.39 20.37, 36.88 0.26 M0.14 42.52 C9.95 31.23, 19.77 19.94, 36.88 0.26 M-0.12 48.92 C11.68 35.34, 23.48 21.77, 42.52 -0.14 M-0.12 48.92 C11.07 36.04, 22.26 23.17, 42.52 -0.14 M0.27 54.56 C11.39 41.78, 22.5 28.99, 47.51 0.22 M0.27 54.56 C11.36 41.81, 22.45 29.05, 47.51 0.22 M0.01 60.96 C14.54 44.25, 29.06 27.54, 53.15 -0.17 M0.01 60.96 C14.2 44.64, 28.38 28.32, 53.15 -0.17 M-0.25 67.36 C20.14 43.9, 40.53 20.45, 58.14 0.19 M-0.25 67.36 C22.34 41.37, 44.92 15.39, 58.14 0.19 M0.14 73 C21.43 48.51, 42.72 24.02, 63.78 -0.21 M0.14 73 C14.51 56.48, 28.87 39.96, 63.78 -0.21 M-0.12 79.4 C14 63.15, 28.13 46.9, 68.77 0.15 M-0.12 79.4 C25.93 49.44, 51.97 19.47, 68.77 0.15 M0.28 85.04 C24.82 56.81, 49.36 28.58, 74.41 -0.24 M0.28 85.04 C19.64 62.77, 39 40.5, 74.41 -0.24 M0.01 91.44 C21.3 66.95, 42.59 42.46, 79.4 0.12 M0.01 91.44 C21.76 66.42, 43.51 41.4, 79.4 0.12 M-0.25 97.84 C20.89 73.52, 42.03 49.2, 85.04 -0.28 M-0.25 97.84 C21.66 72.63, 43.57 47.43, 85.04 -0.28 M0.15 103.48 C33.23 65.43, 66.31 27.37, 90.03 0.08 M0.15 103.48 C22.7 77.54, 45.25 51.59, 90.03 0.08 M-0.11 109.88 C27.07 78.6, 54.26 47.33, 95.67 -0.31 M-0.11 109.88 C34.1 70.52, 68.31 31.16, 95.67 -0.31 M0.28 115.52 C40.24 69.55, 80.2 23.58, 100.66 0.05 M0.28 115.52 C30.02 81.31, 59.76 47.09, 100.66 0.05 M0.02 121.92 C37.44 78.87, 74.86 35.83, 106.3 -0.34 M0.02 121.92 C28.45 89.21, 56.89 56.5, 106.3 -0.34 M-0.24 128.32 C23.84 100.61, 47.92 72.91, 111.29 0.02 M-0.24 128.32 C34.16 88.74, 68.56 49.17, 111.29 0.02 M0.15 133.96 C44.23 83.25, 88.31 32.55, 116.27 0.38 M0.15 133.96 C41.27 86.65, 82.39 39.35, 116.27 0.38 M-0.11 140.36 C41.76 92.19, 83.63 44.03, 121.92 -0.02 M-0.11 140.36 C48.29 84.68, 96.68 29.01, 121.92 -0.02 M0.29 146 C26.56 115.77, 52.84 85.54, 126.91 0.34 M0.29 146 C43.87 95.86, 87.45 45.73, 126.91 0.34 M0.02 152.4 C35.19 111.95, 70.35 71.5, 132.55 -0.05 M0.02 152.4 C50.51 94.32, 101 36.24, 132.55 -0.05 M-0.24 158.8 C39.87 112.66, 79.98 66.52, 137.54 0.31 M-0.24 158.8 C30.89 122.99, 62.02 87.18, 137.54 0.31 M0.16 164.44 C47.68 109.77, 95.21 55.1, 143.18 -0.09 M0.16 164.44 C42.01 116.29, 83.87 68.14, 143.18 -0.09 M-0.1 170.84 C59.15 102.68, 118.39 34.52, 148.17 0.27 M-0.1 170.84 C51.56 111.41, 103.21 51.98, 148.17 0.27 M0.29 176.48 C39.87 130.95, 79.45 85.42, 153.81 -0.12 M0.29 176.48 C42.31 128.14, 84.34 79.79, 153.81 -0.12 M1.34 181.37 C51.15 124.07, 100.95 66.78, 158.8 0.24 M1.34 181.37 C51.99 123.1, 102.64 64.84, 158.8 0.24 M6.98 180.97 C41.58 141.17, 76.18 101.37, 164.44 -0.16 M6.98 180.97 C50.63 130.76, 94.29 80.54, 164.44 -0.16 M11.97 181.33 C65.29 120, 118.61 58.66, 169.43 0.2 M11.97 181.33 C61.84 123.97, 111.7 66.61, 169.43 0.2 M17.61 180.94 C74.3 115.73, 130.98 50.53, 175.07 -0.19 M17.61 180.94 C75.41 114.45, 133.2 47.97, 175.07 -0.19 M22.6 181.3 C82.12 112.83, 141.64 44.36, 180.06 0.17 M22.6 181.3 C80.13 115.12, 137.66 48.94, 180.06 0.17 M28.24 180.9 C73.05 129.36, 117.85 77.82, 185.7 -0.23 M28.24 180.9 C62.59 141.4, 96.93 101.89, 185.7 -0.23 M33.23 181.26 C74.16 134.18, 115.09 87.1, 190.69 0.13 M33.23 181.26 C74.26 134.07, 115.28 86.88, 190.69 0.13 M38.22 181.62 C95.69 115.51, 153.15 49.41, 196.33 -0.26 M38.22 181.62 C72.4 142.3, 106.58 102.98, 196.33 -0.26 M43.86 181.23 C79.14 140.65, 114.41 100.07, 201.32 0.1 M43.86 181.23 C84.17 134.86, 124.49 88.48, 201.32 0.1 M48.85 181.59 C85.35 139.6, 121.85 97.62, 206.96 -0.3 M48.85 181.59 C105.46 116.47, 162.07 51.34, 206.96 -0.3 M54.49 181.2 C89.75 140.64, 125.01 100.08, 211.95 0.06 M54.49 181.2 C112.2 114.81, 169.91 48.42, 211.95 0.06 M59.48 181.56 C104.51 129.75, 149.55 77.94, 217.59 -0.33 M59.48 181.56 C115.04 117.64, 170.6 53.73, 217.59 -0.33 M65.12 181.16 C100.91 139.99, 136.7 98.82, 222.58 0.03 M65.12 181.16 C107.27 132.68, 149.42 84.19, 222.58 0.03 M70.11 181.52 C131.41 111, 192.71 40.49, 228.22 -0.36 M70.11 181.52 C119.89 124.26, 169.67 66.99, 228.22 -0.36 M75.75 181.13 C125.49 123.91, 175.23 66.69, 233.21 0 M75.75 181.13 C138.12 109.38, 200.49 37.63, 233.21 0 M80.74 181.49 C138.32 115.24, 195.9 49, 238.19 0.36 M80.74 181.49 C124.5 131.14, 168.27 80.79, 238.19 0.36 M86.38 181.09 C147.09 111.25, 207.81 41.41, 243.84 -0.04 M86.38 181.09 C125.64 135.93, 164.91 90.76, 243.84 -0.04 M91.37 181.45 C140.06 125.44, 188.75 69.43, 248.82 0.32 M91.37 181.45 C135.65 130.51, 179.94 79.57, 248.82 0.32 M97.01 181.06 C135.78 136.46, 174.55 91.86, 254.47 -0.07 M97.01 181.06 C142.02 129.28, 187.04 77.5, 254.47 -0.07 M102 181.42 C144.93 132.03, 187.87 82.64, 259.45 0.29 M102 181.42 C145.48 131.4, 188.96 81.38, 259.45 0.29 M107.64 181.02 C158.31 122.74, 208.98 64.45, 265.1 -0.11 M107.64 181.02 C143.08 140.26, 178.52 99.49, 265.1 -0.11 M112.63 181.38 C171.6 113.54, 230.58 45.7, 270.08 0.25 M112.63 181.38 C148.06 140.62, 183.5 99.86, 270.08 0.25 M118.27 180.99 C173.42 117.54, 228.58 54.1, 275.73 -0.14 M118.27 180.99 C172.96 118.08, 227.64 55.17, 275.73 -0.14 M123.26 181.35 C170.08 127.49, 216.9 73.63, 280.71 0.22 M123.26 181.35 C154.95 144.9, 186.63 108.44, 280.71 0.22 M128.9 180.95 C173.58 129.56, 218.26 78.16, 286.36 -0.18 M128.9 180.95 C190.92 109.62, 252.93 38.28, 286.36 -0.18 M133.89 181.31 C194.94 111.08, 255.99 40.86, 291.34 0.18 M133.89 181.31 C179.4 128.97, 224.9 76.62, 291.34 0.18 M139.53 180.92 C200.43 110.87, 261.33 40.81, 296.33 0.54 M139.53 180.92 C181.39 132.77, 223.24 84.62, 296.33 0.54 M144.52 181.28 C198.52 119.16, 252.52 57.04, 296.07 6.94 M144.52 181.28 C187.49 131.85, 230.45 82.42, 296.07 6.94 M150.16 180.88 C200.54 122.93, 250.92 64.98, 296.46 12.58 M150.16 180.88 C198.4 125.39, 246.64 69.9, 296.46 12.58 M155.15 181.24 C208.45 119.93, 261.75 58.61, 296.2 18.98 M155.15 181.24 C210.29 117.81, 265.43 54.38, 296.2 18.98 M160.14 181.6 C207.34 127.31, 254.54 73.01, 296.6 24.63 M160.14 181.6 C201.93 133.52, 243.73 85.44, 296.6 24.63 M165.78 181.21 C216.85 122.46, 267.93 63.7, 296.34 31.02 M165.78 181.21 C208.63 131.91, 251.49 82.61, 296.34 31.02 M170.77 181.57 C196 152.54, 221.23 123.52, 296.07 37.42 M170.77 181.57 C218.6 126.55, 266.43 71.53, 296.07 37.42 M176.41 181.18 C224.33 126.05, 272.25 70.92, 296.47 43.06 M176.41 181.18 C203.25 150.3, 230.08 119.43, 296.47 43.06 M181.4 181.54 C208.17 150.74, 234.94 119.95, 296.21 49.46 M181.4 181.54 C216.06 141.66, 250.72 101.79, 296.21 49.46 M187.04 181.14 C227.42 134.68, 267.81 88.23, 296.6 55.1 M187.04 181.14 C221.63 141.35, 256.21 101.56, 296.6 55.1 M192.03 181.5 C231.43 136.18, 270.83 90.85, 296.34 61.5 M192.03 181.5 C220.59 148.64, 249.15 115.79, 296.34 61.5 M197.67 181.11 C230.2 143.68, 262.73 106.26, 296.08 67.9 M197.67 181.11 C222.73 152.28, 247.78 123.46, 296.08 67.9 M202.66 181.47 C229.45 150.65, 256.24 119.83, 296.47 73.54 M202.66 181.47 C227.54 152.84, 252.43 124.21, 296.47 73.54 M208.3 181.07 C232.92 152.75, 257.55 124.42, 296.21 79.94 M208.3 181.07 C225.98 160.73, 243.66 140.39, 296.21 79.94 M213.29 181.43 C231.72 160.23, 250.15 139.02, 296.61 85.58 M213.29 181.43 C238.71 152.19, 264.13 122.95, 296.61 85.58 M218.93 181.04 C240.32 156.43, 261.71 131.83, 296.34 91.98 M218.93 181.04 C244.24 151.92, 269.56 122.8, 296.34 91.98 M223.92 181.4 C250.14 151.23, 276.37 121.06, 296.08 98.38 M223.92 181.4 C251.55 149.61, 279.19 117.81, 296.08 98.38 M229.56 181 C252.47 154.65, 275.37 128.3, 296.48 104.02 M229.56 181 C250.63 156.77, 271.7 132.53, 296.48 104.02 M234.55 181.36 C253.34 159.74, 272.14 138.12, 296.22 110.42 M234.55 181.36 C256.1 156.57, 277.66 131.77, 296.22 110.42 M240.19 180.97 C260.8 157.25, 281.42 133.54, 296.61 116.06 M240.19 180.97 C254.77 164.2, 269.34 147.43, 296.61 116.06 M245.18 181.33 C263.19 160.6, 281.21 139.88, 296.35 122.46 M245.18 181.33 C256.25 168.59, 267.33 155.85, 296.35 122.46 M250.82 180.93 C268.78 160.27, 286.75 139.61, 296.09 128.86 M250.82 180.93 C267.21 162.08, 283.6 143.22, 296.09 128.86 M255.81 181.29 C265.01 170.71, 274.21 160.13, 296.48 134.5 M255.81 181.29 C266.23 169.31, 276.65 157.32, 296.48 134.5 M261.45 180.9 C273.69 166.82, 285.93 152.74, 296.22 140.9 M261.45 180.9 C269.85 171.24, 278.25 161.58, 296.22 140.9 M266.44 181.26 C277.36 168.7, 288.28 156.13, 296.62 146.54 M266.44 181.26 C275.56 170.77, 284.68 160.27, 296.62 146.54 M271.42 181.62 C279.16 172.72, 286.89 163.83, 296.35 152.94 M271.42 181.62 C276.99 175.22, 282.55 168.82, 296.35 152.94 M277.07 181.23 C281.03 176.67, 284.99 172.11, 296.09 159.34 M277.07 181.23 C281.81 175.77, 286.55 170.32, 296.09 159.34 M282.05 181.59 C285.16 178.01, 288.26 174.44, 296.49 164.98 M282.05 181.59 C285.58 177.53, 289.11 173.47, 296.49 164.98 M287.7 181.19 C290.5 177.97, 293.3 174.75, 296.23 171.38 M287.7 181.19 C290.7 177.74, 293.7 174.28, 296.23 171.38 M292.68 181.55 C294.16 179.86, 295.63 178.16, 296.62 177.02 M292.68 181.55 C294.08 179.95, 295.47 178.35, 296.62 177.02" stroke="#ced4da" stroke-width="0.5" fill="none"></path><path d="M0 0 C76.33 0, 152.65 0, 295.71 0 M0 0 C85.89 0, 171.77 0, 295.71 0 M295.71 0 C295.71 62.07, 295.71 124.14, 295.71 180 M295.71 0 C295.71 45.63, 295.71 91.26, 295.71 180 M295.71 180 C187.1 180, 78.49 180, 0 180 M295.71 180 C198.04 180, 100.36 180, 0 180 M0 180 C0 109.44, 0 38.88, 0 0 M0 180 C0 119.89, 0 59.78, 0 0" stroke="#000000" stroke-width="1" fill="none"></path></g><g stroke-linecap="round" transform="translate(914.1994047619037 181.5952380952381) rotate(0 110.71428571428578 20.857142857142833)"><path d="M1.12 -1.44 C82.61 -3.24, 163.72 -1.57, 222.49 -0.17 M0.04 -0.42 C49.47 0.16, 99.06 1.08, 221.23 0.39 M222.51 0.72 C221.88 11.72, 223.27 23.74, 222.65 40.78 M220.75 -0.67 C222.77 15.11, 222.25 30.76, 220.6 42.39 M220.96 41.05 C138.36 43.98, 57.03 43.02, -0.27 42.24 M222.07 42.06 C145.41 39.8, 70.85 39.97, -0.59 42.51 M0.68 39.79 C-1.17 32.15, 1.3 23.18, -1.42 0.68 M-0.47 42.7 C-0.55 29.83, 0.15 18.69, 0.59 0.11" stroke="#000000" stroke-width="1" fill="none"></path></g><g transform="translate(927.1279761904752 189.95238095238088) rotate(0 46.5 12.5)"><text x="0" y="18" font-family="Virgil, Segoe UI Emoji" font-size="20px" fill="#000000" text-anchor="start" style="white-space: pre;" direction="ltr">Password</text></g><g stroke-linecap="round" transform="translate(914.1994047619037 130.16666666666666) rotate(0 110.71428571428578 20.857142857142833)"><path d="M1.44 -1.62 C86.57 1.65, 171.44 1.43, 220.09 0.22 M0.16 -0.37 C60.74 1.48, 120.39 1.32, 221.17 -0.04 M221.9 0.44 C223.51 15.16, 222.88 27.06, 222.57 43.42 M222.42 0.21 C221.61 11.91, 220.32 22.59, 222.12 41.79 M220.11 42.14 C132.81 40.45, 45.72 41.5, 0.71 40.4 M220.94 41.31 C173 42.26, 123.01 43.28, -0.78 41.76 M-1.15 40.88 C1.19 24.87, -1.56 10.86, -0.68 1.56 M-0.22 40.93 C0.67 30.56, 0.78 21.17, 0.38 0.68" stroke="#000000" stroke-width="1" fill="none"></path></g><g transform="translate(927.1279761904752 138.52380952380943) rotate(0 25 12.5)"><text x="0" y="18" font-family="Virgil, Segoe UI Emoji" font-size="20px" fill="#000000" text-anchor="start" style="white-space: pre;" direction="ltr">Email</text></g><g transform="translate(922.0565476190459 70.80952380952365) rotate(0 96 12.5)"><text x="0" y="18" font-family="Virgil, Segoe UI Emoji" font-size="20px" fill="#000000" text-anchor="start" style="white-space: pre;" direction="ltr">accounts.google.com</text></g><g stroke-linecap="round"><g transform="translate(1183.4540631469963 258.4430500465787) rotate(0 17.012013076159747 -13.798225843441102)" fill-rule="evenodd"><path d="M8.97 -25.33 C8.97 -25.33, 8.97 -25.33, 8.97 -25.33 M8.97 -25.33 C8.97 -25.33, 8.97 -25.33, 8.97 -25.33 M8.18 -17.07 C9.7 -21.98, 14.26 -25.77, 16.12 -28.23 M6.14 -16.11 C10.24 -20.76, 12.84 -23.65, 16.38 -28.5 M6.72 -8.09 C9.31 -16.72, 16.32 -21.05, 19.17 -27.54 M4.64 -9.24 C11.25 -14.9, 14.51 -20, 19.43 -25.53 M1.04 -0.22 C7.06 -5.11, 13.43 -15.08, 22.2 -22.67 M2.35 1.75 C8.97 -7.68, 18.48 -17.79, 23.88 -24.06 M5.33 0.4 C12.18 -2.8, 14.84 -10.85, 26.31 -21.75 M6.71 1.94 C14.6 -8.85, 22.41 -16.61, 26 -20.86 M12.27 2.97 C19.72 -6.84, 24.72 -14.81, 28.74 -19 M12.49 2.09 C17.95 -4.72, 20.95 -8.51, 30.73 -19.07 M16.81 2.66 C20.98 -2.23, 23.64 -5.85, 32.58 -13.27 M18.59 1.34 C23.2 -4.36, 27.81 -10.08, 32.18 -13.96 M23.48 2.13 C25.6 -3.64, 31.88 -8.26, 34.32 -9.69 M22.36 1.65 C25.82 -1.4, 27.96 -3.54, 33.21 -10.62 M27.42 2.29 C29.43 -0.1, 32.67 -3.86, 33.41 -5.76 M28.11 2.04 C29.61 -1.05, 32.27 -2.95, 33.81 -5.17" stroke="#15aabf" stroke-width="0.5" fill="none"></path><path d="M0.96 0.04 C1.51 -2.94, 2.07 -14.25, 4.31 -18.98 C6.56 -23.7, 10.67 -28, 14.42 -28.31 C18.16 -28.63, 23.95 -25.29, 26.77 -20.86 C29.6 -16.44, 35.93 -5.32, 31.38 -1.74 C26.83 1.84, 4.59 0.38, -0.52 0.62 M0 -0.99 C0.38 -3.67, 0.95 -13.18, 3.75 -17.5 C6.55 -21.82, 12.97 -26.54, 16.82 -26.91 C20.67 -27.28, 24.11 -24.01, 26.85 -19.73 C29.59 -15.45, 37.64 -4.51, 33.27 -1.24 C28.9 2.04, 5.87 -0.01, 0.63 -0.09" stroke="#000000" stroke-width="1" fill="none"></path></g></g><g stroke-linecap="round" transform="translate(1191.338974910498 214.8127633395082) rotate(0 8.183329809053248 7.160413582921677)"><path d="M3.26 2.83 C3.26 2.83, 3.26 2.83, 3.26 2.83 M3.26 2.83 C3.26 2.83, 3.26 2.83, 3.26 2.83 M3.68 8.94 C4.53 5.79, 8.5 2.8, 9.38 0.82 M3.33 9.59 C5.6 5.98, 8.18 3.76, 9.5 1.66 M4.18 12.01 C7.28 10.24, 11.64 5.5, 12.96 2.35 M4.97 12.98 C7.96 10.01, 9.34 6.99, 13.97 2.14 M6.9 16 C11.9 12.81, 13.65 8.03, 15.64 5.38 M7.25 16.14 C10.78 13.68, 12.31 9.65, 16.71 6.67" stroke="#15aabf" stroke-width="0.5" fill="none"></path><path d="M7.52 0.05 C9.22 -0.1, 11.28 0.64, 12.65 1.64 C14.02 2.65, 15.16 4.67, 15.74 6.1 C16.31 7.53, 16.75 8.99, 16.09 10.22 C15.44 11.44, 13.52 12.78, 11.79 13.47 C10.06 14.16, 7.37 14.7, 5.71 14.35 C4.05 14.01, 2.74 12.7, 1.84 11.39 C0.94 10.08, 0.01 7.96, 0.3 6.48 C0.58 4.99, 1.93 3.63, 3.56 2.49 C5.19 1.35, 8.74 -0.2, 10.09 -0.38 C11.43 -0.55, 11.8 1.38, 11.62 1.46 M6.19 1.83 C7.28 1.38, 8.16 1.15, 9.86 1.48 C11.56 1.81, 15.07 2.69, 16.37 3.79 C17.67 4.9, 18.26 6.81, 17.66 8.1 C17.06 9.4, 14.31 10.66, 12.77 11.57 C11.24 12.47, 10.17 13.41, 8.43 13.54 C6.7 13.67, 3.68 13.11, 2.37 12.34 C1.06 11.57, 0.95 10.59, 0.56 8.92 C0.17 7.24, -0.99 3.62, 0.02 2.3 C1.03 0.98, 5.84 1.41, 6.62 1 C7.4 0.59, 4.71 -0.11, 4.71 -0.16" stroke="#000000" stroke-width="1" fill="none"></path></g><g stroke-linecap="round" transform="translate(167.77083333333303 268.8809523809525) rotate(0 153.57142857142844 72.14285714285714)"><path d="M0 0 C0 0, 0 0, 0 0 M0 0 C0 0, 0 0, 0 0 M-0.26 6.4 C0.96 4.99, 2.19 3.58, 4.99 0.36 M-0.26 6.4 C1.37 4.52, 3.01 2.64, 4.99 0.36 M0.13 12.04 C2.79 8.98, 5.45 5.93, 10.63 -0.03 M0.13 12.04 C4.03 7.56, 7.92 3.08, 10.63 -0.03 M-0.13 18.44 C5.53 11.93, 11.19 5.42, 15.62 0.33 M-0.13 18.44 C3.08 14.75, 6.28 11.07, 15.62 0.33 M0.27 24.08 C5.43 18.14, 10.6 12.19, 21.26 -0.07 M0.27 24.08 C8.39 14.74, 16.52 5.39, 21.26 -0.07 M0 30.48 C7.19 22.22, 14.37 13.96, 26.25 0.29 M0 30.48 C7.88 21.42, 15.75 12.37, 26.25 0.29 M-0.26 36.88 C11.31 23.57, 22.87 10.27, 31.89 -0.1 M-0.26 36.88 C12 22.78, 24.25 8.69, 31.89 -0.1 M0.14 42.52 C13.72 26.9, 27.3 11.27, 36.88 0.26 M0.14 42.52 C10.74 30.33, 21.33 18.14, 36.88 0.26 M-0.12 48.92 C8.71 38.75, 17.55 28.59, 42.52 -0.14 M-0.12 48.92 C15.17 31.32, 30.47 13.72, 42.52 -0.14 M0.27 54.56 C9.96 43.42, 19.64 32.28, 47.51 0.22 M0.27 54.56 C17.61 34.61, 34.95 14.67, 47.51 0.22 M0.01 60.96 C11.46 47.78, 22.91 34.61, 53.15 -0.17 M0.01 60.96 C20.52 37.36, 41.04 13.76, 53.15 -0.17 M-0.25 67.36 C11.5 53.84, 23.25 40.32, 58.14 0.19 M-0.25 67.36 C19.9 44.17, 40.05 20.99, 58.14 0.19 M0.14 73 C20.88 49.15, 41.61 25.3, 63.78 -0.21 M0.14 73 C18.61 51.75, 37.08 30.5, 63.78 -0.21 M-0.12 79.4 C23.59 52.13, 47.29 24.86, 68.77 0.15 M-0.12 79.4 C23.5 52.23, 47.12 25.06, 68.77 0.15 M0.28 85.04 C22.02 60.03, 43.77 35.01, 74.41 -0.24 M0.28 85.04 C26.93 54.38, 53.59 23.71, 74.41 -0.24 M0.01 91.44 C22.5 65.57, 44.99 39.7, 79.4 0.12 M0.01 91.44 C23.14 64.83, 46.27 38.23, 79.4 0.12 M-0.25 97.84 C32.78 59.84, 65.81 21.84, 85.04 -0.28 M-0.25 97.84 C20.48 73.99, 41.21 50.14, 85.04 -0.28 M0.15 103.48 C21.05 79.43, 41.95 55.39, 90.03 0.08 M0.15 103.48 C21.06 79.42, 41.97 55.37, 90.03 0.08 M-0.11 109.88 C27.76 77.81, 55.63 45.75, 95.67 -0.31 M-0.11 109.88 C23.9 82.25, 47.92 54.62, 95.67 -0.31 M0.28 115.52 C27.36 84.37, 54.44 53.21, 100.66 0.05 M0.28 115.52 C22.35 90.14, 44.41 64.75, 100.66 0.05 M0.02 121.92 C21.48 97.23, 42.94 72.54, 106.3 -0.34 M0.02 121.92 C26.98 90.91, 53.94 59.89, 106.3 -0.34 M-0.24 128.32 C26.18 97.92, 52.61 67.52, 111.29 0.02 M-0.24 128.32 C23.93 100.51, 48.11 72.7, 111.29 0.02 M0.15 133.96 C38.64 89.68, 77.13 45.4, 116.27 0.38 M0.15 133.96 C44.7 82.71, 89.25 31.46, 116.27 0.38 M-0.11 140.36 C29.17 106.68, 58.45 73, 121.92 -0.02 M-0.11 140.36 C48.5 84.44, 97.11 28.52, 121.92 -0.02 M0.94 145.25 C26.78 115.52, 52.62 85.8, 126.91 0.34 M0.94 145.25 C42.96 96.9, 84.98 48.56, 126.91 0.34 M6.58 144.85 C50.53 94.3, 94.47 43.75, 132.55 -0.05 M6.58 144.85 C38.13 108.57, 69.67 72.28, 132.55 -0.05 M11.57 145.21 C57.23 92.68, 102.9 40.15, 137.54 0.31 M11.57 145.21 C43.98 107.93, 76.39 70.65, 137.54 0.31 M17.21 144.82 C54.73 101.67, 92.24 58.51, 143.18 -0.09 M17.21 144.82 C51.19 105.74, 85.16 66.66, 143.18 -0.09 M22.2 145.18 C54.6 107.9, 87.01 70.63, 148.17 0.27 M22.2 145.18 C56.14 106.14, 90.07 67.1, 148.17 0.27 M27.19 145.54 C75.93 89.47, 124.66 33.4, 153.81 -0.12 M27.19 145.54 C60.6 107.1, 94.01 68.66, 153.81 -0.12 M32.83 145.14 C77.8 93.41, 122.77 41.68, 158.8 0.24 M32.83 145.14 C76.37 95.06, 119.91 44.97, 158.8 0.24 M37.82 145.5 C84.98 91.25, 132.14 36.99, 164.44 -0.16 M37.82 145.5 C69.68 108.85, 101.54 72.2, 164.44 -0.16 M43.46 145.11 C74.15 109.81, 104.83 74.51, 169.43 0.2 M43.46 145.11 C71.5 112.85, 99.54 80.6, 169.43 0.2 M48.45 145.47 C97.42 89.14, 146.39 32.8, 175.07 -0.19 M48.45 145.47 C94.34 92.67, 140.24 39.87, 175.07 -0.19 M54.09 145.07 C93.5 99.74, 132.9 54.41, 180.06 0.17 M54.09 145.07 C91.6 101.92, 129.11 58.78, 180.06 0.17 M59.08 145.43 C86.69 113.67, 114.3 81.9, 185.7 -0.23 M59.08 145.43 C101.74 96.36, 144.4 47.28, 185.7 -0.23 M64.72 145.04 C99.31 105.25, 133.89 65.47, 190.69 0.13 M64.72 145.04 C106.25 97.27, 147.78 49.5, 190.69 0.13 M69.71 145.4 C97.68 113.22, 125.65 81.05, 196.33 -0.26 M69.71 145.4 C98.38 112.42, 127.05 79.43, 196.33 -0.26 M75.35 145 C107.19 108.37, 139.04 71.74, 201.32 0.1 M75.35 145 C117.89 96.07, 160.43 47.14, 201.32 0.1 M80.34 145.36 C107.4 114.24, 134.46 83.11, 206.96 -0.3 M80.34 145.36 C117.49 102.63, 154.63 59.9, 206.96 -0.3 M85.98 144.97 C121.94 103.6, 157.91 62.23, 211.95 0.06 M85.98 144.97 C124.05 101.18, 162.11 57.39, 211.95 0.06 M90.97 145.33 C138.96 90.12, 186.95 34.91, 217.59 -0.33 M90.97 145.33 C130.35 100.02, 169.74 54.71, 217.59 -0.33 M96.61 144.93 C124.92 112.37, 153.24 79.8, 222.58 0.03 M96.61 144.93 C129.92 106.62, 163.23 68.3, 222.58 0.03 M101.6 145.29 C147.62 92.35, 193.64 39.41, 228.22 -0.36 M101.6 145.29 C134.99 106.88, 168.39 68.46, 228.22 -0.36 M107.24 144.9 C137.06 110.6, 166.88 76.29, 233.21 0 M107.24 144.9 C135.79 112.06, 164.34 79.21, 233.21 0 M112.23 145.26 C159.81 90.53, 207.38 35.8, 238.19 0.36 M112.23 145.26 C143.29 109.53, 174.35 73.79, 238.19 0.36 M117.87 144.87 C155.86 101.16, 193.85 57.46, 243.84 -0.04 M117.87 144.87 C149.62 108.35, 181.36 71.83, 243.84 -0.04 M122.86 145.23 C160.2 102.27, 197.54 59.31, 248.82 0.32 M122.86 145.23 C168.93 92.22, 215.01 39.22, 248.82 0.32 M128.5 144.83 C168.01 99.38, 207.51 53.94, 254.47 -0.07 M128.5 144.83 C174.43 92, 220.35 39.17, 254.47 -0.07 M133.49 145.19 C178.65 93.24, 223.81 41.29, 259.45 0.29 M133.49 145.19 C163.51 110.65, 193.53 76.12, 259.45 0.29 M139.13 144.8 C187.14 89.57, 235.15 34.34, 265.1 -0.11 M139.13 144.8 C170.55 108.65, 201.98 72.5, 265.1 -0.11 M144.12 145.16 C177.72 106.5, 211.33 67.84, 270.08 0.25 M144.12 145.16 C180.94 102.8, 217.76 60.45, 270.08 0.25 M149.11 145.52 C190.45 97.95, 231.8 50.39, 275.73 -0.14 M149.11 145.52 C193.75 94.17, 238.38 42.82, 275.73 -0.14 M154.75 145.12 C191.04 103.37, 227.33 61.63, 280.71 0.22 M154.75 145.12 C188.33 106.5, 221.9 67.87, 280.71 0.22 M159.74 145.48 C208.64 89.22, 257.55 32.96, 286.36 -0.18 M159.74 145.48 C207.95 90.02, 256.16 34.56, 286.36 -0.18 M165.38 145.09 C209.91 93.86, 254.44 42.63, 291.34 0.18 M165.38 145.09 C204.56 100.02, 243.74 54.95, 291.34 0.18 M170.37 145.45 C209.72 100.18, 249.08 54.9, 296.99 -0.21 M170.37 145.45 C195.94 116.02, 221.52 86.6, 296.99 -0.21 M176.01 145.05 C221.11 93.17, 266.21 41.29, 301.97 0.15 M176.01 145.05 C212.1 103.53, 248.19 62.02, 301.97 0.15 M181 145.41 C214.52 106.85, 248.05 68.28, 307.62 -0.25 M181 145.41 C224.68 95.16, 268.37 44.91, 307.62 -0.25 M186.64 145.02 C218.12 108.8, 249.61 72.59, 307.36 6.15 M186.64 145.02 C218.6 108.25, 250.57 71.48, 307.36 6.15 M191.63 145.38 C229.36 101.97, 267.1 58.56, 307.09 12.55 M191.63 145.38 C226.21 105.6, 260.79 65.81, 307.09 12.55 M197.27 144.98 C239.7 96.18, 282.13 47.37, 307.49 18.19 M197.27 144.98 C222.46 116.01, 247.64 87.04, 307.49 18.19 M202.26 145.34 C243.15 98.3, 284.04 51.26, 307.23 24.59 M202.26 145.34 C224.95 119.24, 247.64 93.14, 307.23 24.59 M207.9 144.95 C239.38 108.74, 270.85 72.53, 306.97 30.99 M207.9 144.95 C244.69 102.63, 281.47 60.32, 306.97 30.99 M212.89 145.31 C237.44 117.07, 261.99 88.83, 307.36 36.63 M212.89 145.31 C232.4 122.86, 251.92 100.41, 307.36 36.63 M218.53 144.92 C237.17 123.48, 255.8 102.04, 307.1 43.03 M218.53 144.92 C253.76 104.39, 288.99 63.86, 307.1 43.03 M223.52 145.28 C253.62 110.65, 283.72 76.02, 307.49 48.67 M223.52 145.28 C243.95 121.77, 264.38 98.27, 307.49 48.67 M229.16 144.88 C250.89 119.88, 272.63 94.88, 307.23 55.07 M229.16 144.88 C246.6 124.82, 264.04 104.75, 307.23 55.07 M234.15 145.24 C250.19 126.78, 266.24 108.33, 306.97 61.47 M234.15 145.24 C253.06 123.48, 271.98 101.72, 306.97 61.47 M239.79 144.85 C260.13 121.44, 280.48 98.04, 307.36 67.11 M239.79 144.85 C258.35 123.5, 276.91 102.15, 307.36 67.11 M244.78 145.21 C269.36 116.93, 293.93 88.66, 307.1 73.51 M244.78 145.21 C260.38 127.25, 275.99 109.3, 307.1 73.51 M250.42 144.81 C268.79 123.68, 287.16 102.54, 307.5 79.15 M250.42 144.81 C272.61 119.28, 294.81 93.75, 307.5 79.15 M255.41 145.17 C273.21 124.69, 291.02 104.2, 307.24 85.55 M255.41 145.17 C274.61 123.08, 293.82 100.99, 307.24 85.55 M260.39 145.53 C276.62 126.86, 292.85 108.19, 306.97 91.95 M260.39 145.53 C275.04 128.69, 289.68 111.85, 306.97 91.95 M266.04 145.14 C280.3 128.73, 294.56 112.33, 307.37 97.59 M266.04 145.14 C275.81 133.89, 285.59 122.65, 307.37 97.59 M271.02 145.5 C280.13 135.02, 289.23 124.55, 307.11 103.99 M271.02 145.5 C278.61 136.77, 286.2 128.03, 307.11 103.99 M276.67 145.1 C288.69 131.27, 300.72 117.44, 307.5 109.63 M276.67 145.1 C283.62 137.11, 290.57 129.11, 307.5 109.63 M281.65 145.46 C288.54 137.54, 295.43 129.62, 307.24 116.03 M281.65 145.46 C290.54 135.25, 299.42 125.03, 307.24 116.03 M287.3 145.07 C292.88 138.65, 298.45 132.23, 306.98 122.43 M287.3 145.07 C294.69 136.56, 302.08 128.06, 306.98 122.43 M292.29 145.43 C296.79 140.24, 301.3 135.06, 307.37 128.07 M292.29 145.43 C295.39 141.86, 298.49 138.29, 307.37 128.07 M297.93 145.03 C301.09 141.39, 304.26 137.75, 307.11 134.47 M297.93 145.03 C300.56 142.01, 303.18 138.99, 307.11 134.47 M302.92 145.39 C303.86 144.31, 304.8 143.23, 307.51 140.11 M302.92 145.39 C304.65 143.4, 306.39 141.4, 307.51 140.11" stroke="#ced4da" stroke-width="0.5" fill="none"></path><path d="M0 0 C116.7 0, 233.4 0, 307.14 0 M0 0 C108.02 0, 216.04 0, 307.14 0 M307.14 0 C307.14 56.67, 307.14 113.35, 307.14 144.29 M307.14 0 C307.14 49.93, 307.14 99.86, 307.14 144.29 M307.14 144.29 C230.97 144.29, 154.8 144.29, 0 144.29 M307.14 144.29 C197.72 144.29, 88.3 144.29, 0 144.29 M0 144.29 C0 91.42, 0 38.56, 0 0 M0 144.29 C0 94.15, 0 44.02, 0 0" stroke="#000000" stroke-width="1" fill="none"></path></g><g transform="translate(226.34226190476147 283.6666666666667) rotate(0 95.5 12.5)"><text x="0" y="18" font-family="Virgil, Segoe UI Emoji" font-size="20px" fill="#000000" text-anchor="start" style="white-space: pre;" direction="ltr">accounts.google.com</text></g><g stroke-linecap="round"><g transform="translate(377.1428571428569 137.78735168605093) rotate(0 249.40941952791627 -0.7313730116987713)"><path d="M-0.52 0.62 C82.8 0.24, 416.06 -1.62, 499.33 -2.08 M1.41 -0.1 C84.69 -0.32, 415.92 -0.53, 498.79 -0.69" stroke="#000000" stroke-width="1" fill="none"></path></g><g transform="translate(377.1428571428569 137.78735168605093) rotate(0 249.40941952791627 -0.7313730116987713)"><path d="M471.64 10.88 C477.23 8.04, 484.17 4.47, 499.5 0.4 M471.54 10.19 C480.66 5.62, 490.09 3.48, 498.41 -1.37" stroke="#000000" stroke-width="1" fill="none"></path></g><g transform="translate(377.1428571428569 137.78735168605093) rotate(0 249.40941952791627 -0.7313730116987713)"><path d="M471.62 -9.64 C477.25 -7.32, 484.19 -5.74, 499.5 0.4 M471.51 -10.33 C480.69 -8.01, 490.13 -3.25, 498.41 -1.37" stroke="#000000" stroke-width="1" fill="none"></path></g></g><g transform="translate(432.32142857142844 73.57142857142856) rotate(0 135 12.5)"><text x="0" y="18" font-family="Virgil, Segoe UI Emoji" font-size="20px" fill="#000000" text-anchor="start" style="white-space: pre;" direction="ltr">Go to authorization server</text></g><g transform="translate(430 151.42857142857142) rotate(0 72 37.5)"><text x="0" y="18" font-family="Virgil, Segoe UI Emoji" font-size="20px" fill="#000000" text-anchor="start" style="white-space: pre;" direction="ltr">Redirect URI:</text><text x="0" y="43" font-family="Virgil, Segoe UI Emoji" font-size="20px" fill="#000000" text-anchor="start" style="white-space: pre;" direction="ltr">Response type:</text><text x="0" y="68" font-family="Virgil, Segoe UI Emoji" font-size="20px" fill="#000000" text-anchor="start" style="white-space: pre;" direction="ltr">Scope:</text></g><g transform="translate(931.4285714285716 10) rotate(0 101 12.5)"><text x="0" y="18" font-family="Virgil, Segoe UI Emoji" font-size="20px" fill="#000000" text-anchor="start" style="white-space: pre;" direction="ltr">Authorization Server</text></g><g transform="translate(197.1428571428578 20) rotate(0 27 12.5)"><text x="0" y="18" font-family="Virgil, Segoe UI Emoji" font-size="20px" fill="#000000" text-anchor="start" style="white-space: pre;" direction="ltr">Client</text></g><g transform="translate(10 248.5714285714285) rotate(0 43.5 25)"><text x="43.5" y="18" font-family="Virgil, Segoe UI Emoji" font-size="20px" fill="#000000" text-anchor="middle" style="white-space: pre;" direction="ltr">Resource</text><text x="43.5" y="43" font-family="Virgil, Segoe UI Emoji" font-size="20px" fill="#000000" text-anchor="middle" style="white-space: pre;" direction="ltr">Owner</text></g><g stroke-linecap="round"><g transform="translate(1018.9388594680704 246.3427591798482) rotate(0 0.8026066468837598 142.0596661262147)"><path d="M-0.05 0.43 C0.38 47.9, 2.67 237.2, 3.14 284.52 M-1.54 -0.4 C-1.25 46.74, 1.92 234.92, 2.54 282.62" stroke="#000000" stroke-width="1" fill="none"></path></g><g transform="translate(1018.9388594680704 246.3427591798482) rotate(0 0.8026066468837598 142.0596661262147)"><path d="M-7.44 255.67 C-3.83 264.72, -0.42 275.78, 3.71 283.84 M-8.52 253.91 C-5.95 262.59, -2.36 269.17, 3.49 281.8" stroke="#000000" stroke-width="1" fill="none"></path></g><g transform="translate(1018.9388594680704 246.3427591798482) rotate(0 0.8026066468837598 142.0596661262147)"><path d="M13.08 255.36 C9.62 264.51, 5.95 275.68, 3.71 283.84 M12 253.6 C9.37 262.54, 7.76 269.19, 3.49 281.8" stroke="#000000" stroke-width="1" fill="none"></path></g></g><g stroke-linecap="round"><g transform="translate(844.2857142857147 631.8571428571429) rotate(0 -225.6473128429284 0.7010034757396397)"><path d="M0.43 0.65 C-74.68 0.94, -375.73 1.39, -451 1.71 M-0.81 -0.05 C-76.01 -0.14, -376.56 -0.41, -451.72 -0.27" stroke="#000000" stroke-width="1" fill="none"></path></g><g transform="translate(844.2857142857147 631.8571428571429) rotate(0 -225.6473128429284 0.7010034757396397)"><path d="M-422.45 -9.82 C-430.69 -7.22, -436.93 -3.71, -450.5 -1.2 M-424.21 -11.2 C-432.52 -6.76, -443.12 -2.35, -452.54 0.41" stroke="#000000" stroke-width="1" fill="none"></path></g><g transform="translate(844.2857142857147 631.8571428571429) rotate(0 -225.6473128429284 0.7010034757396397)"><path d="M-422.44 10.7 C-430.68 7.75, -436.92 5.71, -450.5 -1.2 M-424.2 9.32 C-432.7 6.43, -443.3 3.51, -452.54 0.41" stroke="#000000" stroke-width="1" fill="none"></path></g></g><g transform="translate(478.57142857142844 595.7142857142858) rotate(0 107.5 12.5)"><text x="0" y="18" font-family="Virgil, Segoe UI Emoji" font-size="20px" fill="#000000" text-anchor="start" style="white-space: pre;" direction="ltr">Back to redirect URI</text></g><g transform="translate(478.57142857142844 650) rotate(0 116 12.5)"><text x="0" y="18" font-family="Virgil, Segoe UI Emoji" font-size="20px" fill="#000000" text-anchor="start" style="white-space: pre;" direction="ltr">with authorization code</text></g><g stroke-linecap="round"><g transform="translate(391.42857142857156 567.5714285714286) rotate(0 241.41101218956874 -174.37294285100302)"><path d="M0.28 0.26 C80.6 -57.98, 402.23 -290.59, 482.54 -349.01" stroke="#000000" stroke-width="1.5" fill="none" stroke-dasharray="8 9"></path></g><g transform="translate(391.42857142857156 567.5714285714286) rotate(0 241.41101218956874 -174.37294285100302)"><path d="M466.18 -322.3 C472.78 -331.78, 476.62 -340.66, 484.25 -349.76" stroke="#000000" stroke-width="1.5" fill="none"></path></g><g transform="translate(391.42857142857156 567.5714285714286) rotate(0 241.41101218956874 -174.37294285100302)"><path d="M454.14 -338.91 C465.06 -342.53, 473.17 -345.53, 484.25 -349.76" stroke="#000000" stroke-width="1.5" fill="none"></path></g></g><g transform="translate(488.57142857142844 347.1428571428571) rotate(323.6491125488689 141.5 12.5)"><text x="0" y="18" font-family="Virgil, Segoe UI Emoji" font-size="20px" fill="#000000" text-anchor="start" style="white-space: pre;" direction="ltr">Exchange authorization code</text></g><g transform="translate(526.9082231128777 406.75615574612925) rotate(323.6491125488689 106 12.5)"><text x="0" y="18" font-family="Virgil, Segoe UI Emoji" font-size="20px" fill="#000000" text-anchor="start" style="white-space: pre;" direction="ltr">for access token and</text></g><g transform="translate(718.8759899140587 310.35182998640516) rotate(323.6491125488689 44.5 12.500000000000014)"><text x="0" y="18" font-family="Virgil, Segoe UI Emoji" font-size="20px" fill="#c92a2a" text-anchor="start" style="white-space: pre;" direction="ltr">ID token</text></g><g stroke-linecap="round"><g transform="translate(260.28000927842186 550.4285714285716) rotate(0 43.859824572043635 -61.43313425625013)"><path d="M0.7 0.73 C15.16 -20.05, 72.37 -102.69, 87.02 -123.6" stroke="#000000" stroke-width="1.5" fill="none" stroke-dasharray="8 9"></path></g><g transform="translate(260.28000927842186 550.4285714285716) rotate(0 43.859824572043635 -61.43313425625013)"><path d="M80.56 -95.53 C82.68 -102.27, 83.27 -114.68, 85.68 -121.62" stroke="#000000" stroke-width="1.5" fill="none"></path></g><g transform="translate(260.28000927842186 550.4285714285716) rotate(0 43.859824572043635 -61.43313425625013)"><path d="M63.71 -107.25 C71.37 -110.32, 77.38 -118.95, 85.68 -121.62" stroke="#000000" stroke-width="1.5" fill="none"></path></g></g><g transform="translate(25.714285714285325 458.57142857142856) rotate(0 88 25)"><text x="0" y="18" font-family="Virgil, Segoe UI Emoji" font-size="20px" fill="#000000" text-anchor="start" style="white-space: pre;" direction="ltr">Get user info</text><text x="0" y="43" font-family="Virgil, Segoe UI Emoji" font-size="20px" fill="#000000" text-anchor="start" style="white-space: pre;" direction="ltr">with access token</text></g><g stroke-linecap="round" transform="translate(850.6279761904761 534.5952380952378) rotate(0 188.57142857142844 94.99999999999994)"><path d="M0 0 C0 0, 0 0, 0 0 M0 0 C0 0, 0 0, 0 0 M-0.26 6.4 C0.99 4.96, 2.24 3.52, 4.99 0.36 M-0.26 6.4 C1.71 4.13, 3.69 1.85, 4.99 0.36 M0.13 12.04 C3.76 7.87, 7.38 3.7, 10.63 -0.03 M0.13 12.04 C3.81 7.81, 7.49 3.57, 10.63 -0.03 M-0.13 18.44 C5.52 11.94, 11.17 5.44, 15.62 0.33 M-0.13 18.44 C4.26 13.39, 8.65 8.34, 15.62 0.33 M0.27 24.08 C5.72 17.81, 11.17 11.54, 21.26 -0.07 M0.27 24.08 C6.75 16.63, 13.23 9.17, 21.26 -0.07 M0 30.48 C10.46 18.45, 20.92 6.41, 26.25 0.29 M0 30.48 C7.28 22.11, 14.56 13.73, 26.25 0.29 M-0.26 36.88 C11.13 23.77, 22.52 10.67, 31.89 -0.1 M-0.26 36.88 C9.39 25.78, 19.04 14.68, 31.89 -0.1 M0.14 42.52 C10.94 30.09, 21.75 17.66, 36.88 0.26 M0.14 42.52 C9.77 31.44, 19.4 20.36, 36.88 0.26 M-0.12 48.92 C9.8 37.5, 19.73 26.08, 42.52 -0.14 M-0.12 48.92 C8.79 38.67, 17.7 28.42, 42.52 -0.14 M0.27 54.56 C18.79 33.26, 37.31 11.96, 47.51 0.22 M0.27 54.56 C11.45 41.7, 22.63 28.84, 47.51 0.22 M0.01 60.96 C13.82 45.07, 27.63 29.19, 53.15 -0.17 M0.01 60.96 C15.06 43.64, 30.12 26.33, 53.15 -0.17 M-0.25 67.36 C20.18 43.85, 40.62 20.34, 58.14 0.19 M-0.25 67.36 C12.51 52.67, 25.28 37.99, 58.14 0.19 M0.14 73 C16.77 53.88, 33.39 34.76, 63.78 -0.21 M0.14 73 C15.12 55.77, 30.1 38.54, 63.78 -0.21 M-0.12 79.4 C16.19 60.64, 32.49 41.89, 68.77 0.15 M-0.12 79.4 C23.28 52.48, 46.68 25.57, 68.77 0.15 M0.28 85.04 C16.84 65.99, 33.4 46.93, 74.41 -0.24 M0.28 85.04 C25.59 55.92, 50.91 26.79, 74.41 -0.24 M0.01 91.44 C18.4 70.29, 36.79 49.14, 79.4 0.12 M0.01 91.44 C27.46 59.87, 54.9 28.31, 79.4 0.12 M-0.25 97.84 C33.36 59.18, 66.96 20.52, 85.04 -0.28 M-0.25 97.84 C28.93 64.27, 58.1 30.71, 85.04 -0.28 M0.15 103.48 C29.39 69.84, 58.63 36.2, 90.03 0.08 M0.15 103.48 C26.8 72.82, 53.46 42.15, 90.03 0.08 M-0.11 109.88 C36.43 67.84, 72.97 25.8, 95.67 -0.31 M-0.11 109.88 C32.59 72.25, 65.3 34.62, 95.67 -0.31 M0.28 115.52 C22.29 90.2, 44.29 64.89, 100.66 0.05 M0.28 115.52 C27.01 84.77, 53.74 54.03, 100.66 0.05 M0.02 121.92 C27.15 90.71, 54.28 59.5, 106.3 -0.34 M0.02 121.92 C32.77 84.24, 65.53 46.56, 106.3 -0.34 M-0.24 128.32 C24.93 99.35, 50.11 70.39, 111.29 0.02 M-0.24 128.32 C26.84 97.16, 53.92 66.01, 111.29 0.02 M0.15 133.96 C28.68 101.14, 57.2 68.33, 116.27 0.38 M0.15 133.96 C43.67 83.9, 87.19 33.83, 116.27 0.38 M-0.11 140.36 C44.81 88.68, 89.74 37, 121.92 -0.02 M-0.11 140.36 C27.75 108.31, 55.6 76.27, 121.92 -0.02 M0.29 146 C31.17 110.47, 62.06 74.93, 126.91 0.34 M0.29 146 C43.06 96.79, 85.83 47.59, 126.91 0.34 M0.02 152.4 C37.22 109.6, 74.42 66.81, 132.55 -0.05 M0.02 152.4 C44.92 100.75, 89.81 49.11, 132.55 -0.05 M-0.24 158.8 C41.42 110.87, 83.08 62.95, 137.54 0.31 M-0.24 158.8 C49.08 102.06, 98.4 45.32, 137.54 0.31 M0.16 164.44 C44.29 113.67, 88.43 62.89, 143.18 -0.09 M0.16 164.44 C43.71 114.34, 87.25 64.24, 143.18 -0.09 M-0.1 170.84 C49.43 113.85, 98.96 56.87, 148.17 0.27 M-0.1 170.84 C38.45 126.48, 77 82.13, 148.17 0.27 M0.29 176.48 C32.22 139.75, 64.14 103.03, 153.81 -0.12 M0.29 176.48 C57.05 111.18, 113.81 45.89, 153.81 -0.12 M0.03 182.88 C33.88 143.94, 67.72 105, 158.8 0.24 M0.03 182.88 C36.98 140.37, 73.93 97.86, 158.8 0.24 M-0.23 189.27 C40.26 142.7, 80.74 96.12, 164.44 -0.16 M-0.23 189.27 C64.45 114.87, 129.13 40.46, 164.44 -0.16 M2.79 191.9 C48.56 139.24, 94.34 86.58, 169.43 0.2 M2.79 191.9 C57.6 128.84, 112.42 65.78, 169.43 0.2 M7.77 192.26 C58.02 134.46, 108.26 76.67, 175.07 -0.19 M7.77 192.26 C65.67 125.65, 123.57 59.05, 175.07 -0.19 M13.42 191.86 C49.18 150.72, 84.95 109.58, 180.06 0.17 M13.42 191.86 C74.34 121.78, 135.27 51.69, 180.06 0.17 M18.4 192.22 C78.67 122.89, 138.94 53.56, 185.7 -0.23 M18.4 192.22 C54.55 150.65, 90.69 109.07, 185.7 -0.23 M24.05 191.83 C89.01 117.1, 153.97 42.37, 190.69 0.13 M24.05 191.83 C61.32 148.95, 98.6 106.07, 190.69 0.13 M29.03 192.19 C66.76 148.79, 104.49 105.38, 196.33 -0.26 M29.03 192.19 C79.76 133.84, 130.48 75.49, 196.33 -0.26 M34.02 192.55 C87.26 131.31, 140.49 70.07, 201.32 0.1 M34.02 192.55 C92.28 125.53, 150.53 58.52, 201.32 0.1 M39.66 192.16 C74.29 152.32, 108.92 112.48, 206.96 -0.3 M39.66 192.16 C93.55 130.17, 147.43 68.18, 206.96 -0.3 M44.65 192.52 C107.97 119.67, 171.3 46.82, 211.95 0.06 M44.65 192.52 C86.2 144.72, 127.74 96.93, 211.95 0.06 M50.29 192.12 C88.17 148.55, 126.04 104.99, 217.59 -0.33 M50.29 192.12 C100.71 134.12, 151.13 76.12, 217.59 -0.33 M55.28 192.48 C107.22 132.73, 159.16 72.98, 222.58 0.03 M55.28 192.48 C121.73 116.04, 188.17 39.61, 222.58 0.03 M60.92 192.09 C113.85 131.2, 166.78 70.31, 228.22 -0.36 M60.92 192.09 C108.4 137.47, 155.87 82.86, 228.22 -0.36 M65.91 192.45 C118.57 131.87, 171.22 71.3, 233.21 0 M65.91 192.45 C121.45 128.56, 176.99 64.66, 233.21 0 M71.55 192.05 C124.98 130.59, 178.41 69.12, 238.19 0.36 M71.55 192.05 C109.22 148.73, 146.88 105.4, 238.19 0.36 M76.54 192.41 C135.58 124.49, 194.63 56.57, 243.84 -0.04 M76.54 192.41 C135.77 124.27, 195.01 56.13, 243.84 -0.04 M82.18 192.02 C147.79 116.55, 213.39 41.08, 248.82 0.32 M82.18 192.02 C132 134.71, 181.82 77.41, 248.82 0.32 M87.17 192.38 C128.59 144.74, 170 97.09, 254.47 -0.07 M87.17 192.38 C125.44 148.35, 163.71 104.33, 254.47 -0.07 M92.81 191.98 C142.98 134.27, 193.15 76.56, 259.45 0.29 M92.81 191.98 C157.38 117.71, 221.94 43.44, 259.45 0.29 M97.8 192.34 C161.72 118.81, 225.65 45.27, 265.1 -0.11 M97.8 192.34 C145.56 137.4, 193.32 82.46, 265.1 -0.11 M103.44 191.95 C156.63 130.76, 209.83 69.57, 270.08 0.25 M103.44 191.95 C168.51 117.1, 233.58 42.25, 270.08 0.25 M108.43 192.31 C142.05 153.63, 175.67 114.96, 275.73 -0.14 M108.43 192.31 C161.59 131.16, 214.74 70.01, 275.73 -0.14 M114.07 191.91 C169.97 127.61, 225.87 63.3, 280.71 0.22 M114.07 191.91 C167.57 130.38, 221.06 68.84, 280.71 0.22 M119.06 192.27 C170.84 132.71, 222.62 73.14, 286.36 -0.18 M119.06 192.27 C166.41 137.8, 213.76 83.33, 286.36 -0.18 M124.7 191.88 C182.72 125.14, 240.74 58.4, 291.34 0.18 M124.7 191.88 C159.06 152.36, 193.42 112.83, 291.34 0.18 M129.69 192.24 C192.26 120.26, 254.83 48.28, 296.99 -0.21 M129.69 192.24 C163.66 153.17, 197.62 114.1, 296.99 -0.21 M135.33 191.85 C196.42 121.58, 257.5 51.31, 301.97 0.15 M135.33 191.85 C199.84 117.64, 264.34 43.44, 301.97 0.15 M140.32 192.21 C177.41 149.54, 214.49 106.88, 307.62 -0.25 M140.32 192.21 C184.38 141.53, 228.43 90.84, 307.62 -0.25 M145.31 192.57 C197.32 132.74, 249.32 72.91, 312.6 0.11 M145.31 192.57 C181.93 150.43, 218.56 108.3, 312.6 0.11 M150.95 192.17 C207.95 126.6, 264.95 61.04, 318.25 -0.28 M150.95 192.17 C203.44 131.79, 255.92 71.42, 318.25 -0.28 M155.94 192.53 C208.17 132.45, 260.39 72.37, 323.23 0.08 M155.94 192.53 C218 121.13, 280.07 49.73, 323.23 0.08 M161.58 192.14 C225.18 118.98, 288.77 45.82, 328.88 -0.31 M161.58 192.14 C223.14 121.32, 284.71 50.5, 328.88 -0.31 M166.57 192.5 C202.13 151.58, 237.7 110.67, 333.86 0.05 M166.57 192.5 C221.21 129.64, 275.84 66.79, 333.86 0.05 M172.21 192.1 C214.05 143.98, 255.88 95.85, 339.51 -0.35 M172.21 192.1 C223.06 133.6, 273.91 75.11, 339.51 -0.35 M177.2 192.46 C221.54 141.45, 265.89 90.43, 344.49 0.01 M177.2 192.46 C224.56 137.98, 271.92 83.49, 344.49 0.01 M182.84 192.07 C219.74 149.62, 256.64 107.18, 349.48 0.37 M182.84 192.07 C243.43 122.37, 304.01 52.68, 349.48 0.37 M187.83 192.43 C226.91 147.47, 265.99 102.52, 355.12 -0.02 M187.83 192.43 C229.99 143.93, 272.15 95.43, 355.12 -0.02 M193.47 192.03 C231.15 148.69, 268.83 105.34, 360.11 0.34 M193.47 192.03 C235.6 143.57, 277.73 95.11, 360.11 0.34 M198.46 192.39 C247.48 136, 296.5 79.61, 365.75 -0.06 M198.46 192.39 C258.48 123.35, 318.5 54.3, 365.75 -0.06 M204.1 192 C263.6 123.56, 323.09 55.12, 370.74 0.3 M204.1 192 C244.38 145.66, 284.66 99.33, 370.74 0.3 M209.09 192.36 C264.15 129.01, 319.22 65.67, 376.38 -0.09 M209.09 192.36 C266.47 126.35, 323.86 60.33, 376.38 -0.09 M214.73 191.96 C275.32 122.27, 335.9 52.58, 379.4 2.53 M214.73 191.96 C258.27 141.88, 301.8 91.8, 379.4 2.53 M219.72 192.32 C257.94 148.36, 296.16 104.39, 379.8 8.17 M219.72 192.32 C261.07 144.75, 302.43 97.18, 379.8 8.17 M225.36 191.93 C282.95 125.69, 340.53 59.45, 379.54 14.57 M225.36 191.93 C259.12 153.09, 292.89 114.25, 379.54 14.57 M230.35 192.29 C264.68 152.79, 299.02 113.29, 379.93 20.22 M230.35 192.29 C286.07 128.2, 341.78 64.1, 379.93 20.22 M235.99 191.89 C286.2 134.14, 336.4 76.38, 379.67 26.61 M235.99 191.89 C274.46 147.64, 312.94 103.38, 379.67 26.61 M240.98 192.25 C285.29 141.28, 329.61 90.3, 379.41 33.01 M240.98 192.25 C277.96 149.71, 314.95 107.16, 379.41 33.01 M246.62 191.86 C277.57 156.26, 308.51 120.67, 379.8 38.65 M246.62 191.86 C291.51 140.23, 336.39 88.6, 379.8 38.65 M251.61 192.22 C282.32 156.89, 313.03 121.57, 379.54 45.05 M251.61 192.22 C294.88 142.44, 338.15 92.66, 379.54 45.05 M257.25 191.83 C284.21 160.81, 311.17 129.8, 379.94 50.7 M257.25 191.83 C283.88 161.19, 310.52 130.55, 379.94 50.7 M262.24 192.19 C300.97 147.63, 339.71 103.07, 379.67 57.09 M262.24 192.19 C296.95 152.25, 331.67 112.32, 379.67 57.09 M267.23 192.55 C297.53 157.69, 327.83 122.83, 379.41 63.49 M267.23 192.55 C296.66 158.68, 326.1 124.82, 379.41 63.49 M272.87 192.15 C298.63 162.51, 324.4 132.88, 379.81 69.13 M272.87 192.15 C301.01 159.78, 329.16 127.4, 379.81 69.13 M277.86 192.51 C298.48 168.79, 319.11 145.06, 379.55 75.53 M277.86 192.51 C307.49 158.42, 337.13 124.33, 379.55 75.53 M283.5 192.12 C306.23 165.97, 328.96 139.82, 379.94 81.17 M283.5 192.12 C310.41 161.17, 337.31 130.21, 379.94 81.17 M288.49 192.48 C324.81 150.7, 361.13 108.92, 379.68 87.57 M288.49 192.48 C314.63 162.4, 340.78 132.32, 379.68 87.57 M294.13 192.08 C318.65 163.88, 343.16 135.68, 379.42 93.97 M294.13 192.08 C327.83 153.32, 361.53 114.55, 379.42 93.97 M299.12 192.44 C323.14 164.81, 347.17 137.17, 379.81 99.61 M299.12 192.44 C322.91 165.07, 346.71 137.69, 379.81 99.61 M304.76 192.05 C333.22 159.31, 361.67 126.58, 379.55 106.01 M304.76 192.05 C333.01 159.55, 361.25 127.06, 379.55 106.01 M309.75 192.41 C331.05 167.91, 352.34 143.41, 379.95 111.65 M309.75 192.41 C332.67 166.03, 355.6 139.66, 379.95 111.65 M315.39 192.01 C328.89 176.49, 342.38 160.96, 379.68 118.05 M315.39 192.01 C328.69 176.71, 342 161.41, 379.68 118.05 M320.38 192.37 C336.82 173.46, 353.26 154.54, 379.42 124.45 M320.38 192.37 C335.53 174.94, 350.68 157.52, 379.42 124.45 M326.02 191.98 C341.19 174.53, 356.35 157.08, 379.82 130.09 M326.02 191.98 C346.3 168.65, 366.59 145.31, 379.82 130.09 M331.01 192.34 C343 178.54, 354.99 164.75, 379.56 136.49 M331.01 192.34 C346.72 174.26, 362.43 156.19, 379.56 136.49 M336.65 191.94 C345.9 181.31, 355.15 170.67, 379.95 142.13 M336.65 191.94 C353.81 172.2, 370.98 152.45, 379.95 142.13 M341.64 192.3 C352.83 179.43, 364.02 166.56, 379.69 148.53 M341.64 192.3 C350.41 182.21, 359.19 172.11, 379.69 148.53 M347.28 191.91 C354.77 183.3, 362.25 174.69, 379.43 154.93 M347.28 191.91 C356.52 181.28, 365.76 170.65, 379.43 154.93 M352.27 192.27 C359.59 183.85, 366.9 175.43, 379.82 160.57 M352.27 192.27 C359 184.52, 365.74 176.77, 379.82 160.57 M357.91 191.88 C363.94 184.93, 369.98 177.99, 379.56 166.97 M357.91 191.88 C364.11 184.74, 370.32 177.61, 379.56 166.97 M362.9 192.24 C367.48 186.97, 372.06 181.7, 379.95 172.61 M362.9 192.24 C367.95 186.43, 373 180.62, 379.95 172.61 M368.54 191.84 C371.9 187.98, 375.25 184.12, 379.69 179.01 M368.54 191.84 C372.38 187.43, 376.22 183.01, 379.69 179.01 M373.53 192.2 C375.72 189.68, 377.91 187.16, 379.43 185.41 M373.53 192.2 C375.18 190.3, 376.84 188.39, 379.43 185.41" stroke="#ced4da" stroke-width="0.5" fill="none"></path><path d="M0 0 C135.25 0, 270.5 0, 377.14 0 M0 0 C149.16 0, 298.31 0, 377.14 0 M377.14 0 C377.14 51.16, 377.14 102.32, 377.14 190 M377.14 0 C377.14 51.92, 377.14 103.84, 377.14 190 M377.14 190 C284.32 190, 191.49 190, 0 190 M377.14 190 C294.97 190, 212.79 190, 0 190 M0 190 C0 149.45, 0 108.89, 0 0 M0 190 C0 133.94, 0 77.88, 0 0" stroke="#000000" stroke-width="1" fill="none"></path></g><g transform="translate(942.0565476190468 550.8095238095236) rotate(0 95.5 12.5)"><text x="0" y="18" font-family="Virgil, Segoe UI Emoji" font-size="20px" fill="#000000" text-anchor="start" style="white-space: pre;" direction="ltr">accounts.google.com</text></g><g transform="translate(882.0565476190468 589.3809523809521) rotate(0 161.5 25)"><text x="161.5" y="18" font-family="Virgil, Segoe UI Emoji" font-size="20px" fill="#000000" text-anchor="middle" style="white-space: pre;" direction="ltr">Allow Yelp to access your public </text><text x="161.5" y="43" font-family="Virgil, Segoe UI Emoji" font-size="20px" fill="#000000" text-anchor="middle" style="white-space: pre;" direction="ltr">profile and contacts?</text></g><g stroke-linecap="round" transform="translate(1042.770833333333 669.4523809523805) rotate(0 37.14285714285688 19.428571428571388)"><path d="M-0.35 0.75 L73.18 1.86 L73.53 36.94 L-0.5 39.09" stroke="none" stroke-width="0" fill="#ced4da"></path><path d="M-1.36 -1.34 C28.51 0.69, 53.99 2.19, 72.64 1.35 M-0.27 -0.38 C26.66 -0.47, 54.33 -1.02, 74.13 0.3 M75.78 0.81 C72.86 12.33, 75.12 25.98, 72.92 40.7 M74.62 -0.96 C73.73 7.71, 74.97 15.73, 73.57 39.2 M73.34 40.83 C54.07 36.89, 35.69 36.83, 1.17 39.08 M73.47 38.15 C49.98 37.65, 23.88 37.78, 0.79 39.55 M0.67 37.52 C0.79 25.27, -0.49 9.14, 0.39 -1.31 M-0.31 39.08 C0.85 24, -0.52 10.34, -0.06 0.9" stroke="#000000" stroke-width="1" fill="none"></path></g><g transform="translate(1065.3422619047615 674.9523809523803) rotate(0 12.5 12.5)"><text x="12.5" y="18" font-family="Virgil, Segoe UI Emoji" font-size="20px" fill="#000000" text-anchor="middle" style="white-space: pre;" direction="ltr">No</text></g><g stroke-linecap="round" transform="translate(1131.3422619047615 669.4523809523805) rotate(0 37.14285714285688 19.428571428571388)"><path d="M-1.11 1.86 L73.53 -1.92 L73.79 39.09 L-1.89 40.39" stroke="none" stroke-width="0" fill="#fd7e14"></path><path d="M1.98 0.42 C20.43 2.41, 37.37 1.84, 75.67 0.16 M-0.76 0.25 C28.91 -0.02, 58.7 0.59, 74.7 -0.76 M73.16 -0.92 C75.7 8.05, 73.21 19.01, 72.47 38.97 M73.71 -0.42 C75.08 14.15, 73.71 29.72, 73.95 39.64 M73.84 37.28 C56.84 37.95, 38.67 39.82, 0.76 40.21 M75.1 37.86 C53.97 37.47, 34.81 39.02, 0.81 39.52 M1.05 40.08 C-0.36 24.28, 0.26 8.6, 1.26 -0.75 M0.71 38.1 C-0.55 30.63, 0.06 23.95, -0.17 0.38" stroke="#000000" stroke-width="1" fill="none"></path></g><g transform="translate(1149.91369047619 674.9523809523803) rotate(0 16.5 12.5)"><text x="16.5" y="18" font-family="Virgil, Segoe UI Emoji" font-size="20px" fill="#000000" text-anchor="middle" style="white-space: pre;" direction="ltr">Yes</text></g><g stroke-linecap="round"><g transform="translate(1225.4455053952634 749.3865719249636) rotate(0 16.993496371180754 -14.504550648228133)" fill-rule="evenodd"><path d="M8.97 -25.33 C8.97 -25.33, 8.97 -25.33, 8.97 -25.33 M8.97 -25.33 C8.97 -25.33, 8.97 -25.33, 8.97 -25.33 M7.91 -17.46 C8.24 -17.75, 10.87 -23, 17.29 -29.22 M7.25 -16.89 C9.64 -21.29, 14.39 -25.57, 16.44 -28.64 M6.5 -7.31 C11.43 -16.8, 17.53 -20.82, 20.02 -26.22 M4.79 -9.73 C9.79 -14.18, 15.63 -20.71, 19.59 -26.44 M2.37 0.3 C9.8 -6.86, 12.58 -14.13, 24.16 -26.14 M0.99 1.42 C10.62 -7.87, 17.91 -18.38, 23.46 -24.87 M5.8 1.49 C14.68 -3.9, 17.42 -14.01, 28.36 -20.1 M7.33 0.47 C13.98 -5.8, 19.3 -12.84, 27.54 -21.17 M10.6 2.77 C19.66 -4.75, 24.97 -12.15, 28.03 -17.99 M11.74 1.75 C19.54 -7.22, 25.58 -13.65, 29.43 -18.42 M17.91 -0.32 C23.81 -3.52, 28.2 -10.04, 33.41 -15.3 M17.8 0.48 C22.73 -4.89, 27.35 -8.84, 31.41 -15.27 M23.41 2.19 C26.4 -2.28, 26.08 -2.69, 33.38 -10.6 M22.9 1.29 C25.34 -2.62, 29.61 -6.14, 33.86 -9.95 M28.74 1.98 C28.88 0.48, 31.07 -1.26, 34.5 -5.3 M27.79 2.03 C29.25 0.27, 30.91 -2.08, 34.09 -4.85" stroke="#15aabf" stroke-width="0.5" fill="none"></path><path d="M0.25 0.55 C1.17 -2.95, 2.08 -15.15, 4.73 -19.85 C7.38 -24.55, 12.41 -27.65, 16.15 -27.63 C19.9 -27.62, 24.62 -23.97, 27.2 -19.77 C29.78 -15.56, 36.33 -5.76, 31.64 -2.42 C26.96 0.93, 4.46 -0.04, -0.92 0.3 M-1.08 -0.2 C-0.15 -3.09, 1.56 -13.94, 4.38 -18.83 C7.19 -23.72, 11.96 -29.06, 15.81 -29.54 C19.66 -30.02, 24.52 -26.26, 27.5 -21.72 C30.48 -17.17, 38.24 -5.79, 33.66 -2.27 C29.08 1.25, 5.68 -1.25, 0.01 -0.58" stroke="#000000" stroke-width="1" fill="none"></path></g></g><g stroke-linecap="round" transform="translate(1233.330417158767 705.756285217893) rotate(0 8.183329809053248 7.160413582921649)"><path d="M0.5 4.41 C0.5 4.41, 0.5 4.41, 0.5 4.41 M0.5 4.41 C0.5 4.41, 0.5 4.41, 0.5 4.41 M1.41 9.6 C2.52 8.38, 4.07 5.25, 6.6 3.35 M1.59 9.05 C2.59 8.34, 3.83 6.65, 6.63 3.08 M1.09 13.01 C5.49 12.49, 8.97 7.08, 11.79 3.25 M2.5 14.24 C6.13 10.37, 10.35 5.47, 12.61 2.59 M7.22 12.8 C11.73 11.08, 14.49 7.1, 17.21 3.58 M7.86 13.49 C11.15 10.87, 13.24 7.15, 16.6 4.41" stroke="#15aabf" stroke-width="0.5" fill="none"></path><path d="M4.99 1.56 C6.31 0.71, 8.68 -0.41, 10.22 -0.09 C11.77 0.22, 13.31 2.16, 14.23 3.45 C15.16 4.74, 15.89 6.12, 15.8 7.65 C15.7 9.18, 14.78 11.67, 13.67 12.65 C12.55 13.63, 10.96 13.38, 9.11 13.55 C7.25 13.72, 3.95 14.55, 2.54 13.67 C1.12 12.79, 0.99 9.8, 0.63 8.28 C0.28 6.76, -0.65 6.02, 0.39 4.54 C1.43 3.05, 5.23 0.24, 6.89 -0.63 C8.56 -1.5, 10.32 -1.03, 10.39 -0.67 M8.93 1.1 C10.7 1.22, 12.29 0.54, 13.61 1.46 C14.94 2.38, 16.54 5.03, 16.88 6.61 C17.22 8.19, 16.98 9.43, 15.65 10.95 C14.33 12.46, 10.91 15.47, 8.94 15.68 C6.96 15.89, 5.08 13.41, 3.8 12.2 C2.51 10.99, 1.63 9.63, 1.22 8.42 C0.81 7.2, 0.79 5.99, 1.36 4.92 C1.92 3.85, 3.33 3, 4.62 2 C5.92 0.99, 8.48 -1.03, 9.12 -1.12 C9.77 -1.21, 8.67 1.18, 8.48 1.46" stroke="#000000" stroke-width="1" fill="none"></path></g><g transform="translate(1044.3571428571431 421.42857142857144) rotate(0 98.5 25)"><text x="0" y="18" font-family="Virgil, Segoe UI Emoji" font-size="20px" fill="#000000" text-anchor="start" style="white-space: pre;" direction="ltr">Request consent</text><text x="0" y="43" font-family="Virgil, Segoe UI Emoji" font-size="20px" fill="#000000" text-anchor="start" style="white-space: pre;" direction="ltr">from resource owner</text></g><g transform="translate(431.07142857142844 105.357142857143) rotate(0 71.5 12.5)"><text x="0" y="18" font-family="Virgil, Segoe UI Emoji" font-size="20px" fill="#d9480f" text-anchor="start" style="white-space: pre;" direction="ltr">(front channel)</text></g><g transform="translate(477.32142857142844 682.8571428571429) rotate(0 71.5 12.5)"><text x="0" y="18" font-family="Virgil, Segoe UI Emoji" font-size="20px" fill="#d9480f" text-anchor="start" style="white-space: pre;" direction="ltr">(front channel)</text></g><g transform="translate(569.2139738331553 443.62826937933676) rotate(324.72757855140156 68 12.5)"><text x="0" y="18" font-family="Virgil, Segoe UI Emoji" font-size="20px" fill="#2b8a3e" text-anchor="start" style="white-space: pre;" direction="ltr">(back channel)</text></g><g transform="translate(25.46397383315525 513.6282693793369) rotate(0.11088923605051129 68 12.5)"><text x="0" y="18" font-family="Virgil, Segoe UI Emoji" font-size="20px" fill="#2b8a3e" text-anchor="start" style="white-space: pre;" direction="ltr">(back channel)</text></g><g transform="translate(587.0391520642715 149.21709548629133) rotate(0 81 12.5)"><text x="0" y="18" font-family="Virgil, Segoe UI Emoji" font-size="20px" fill="#0b7285" text-anchor="start" style="white-space: pre;" direction="ltr">yelp.com/callback</text></g><g transform="translate(587.0391520642715 176.3599526291485) rotate(0 21.5 12.5)"><text x="0" y="18" font-family="Virgil, Segoe UI Emoji" font-size="20px" fill="#0b7285" text-anchor="start" style="white-space: pre;" direction="ltr">code</text></g><g transform="translate(587.0391520642715 203.50280977200566) rotate(0 63.5 12.5)"><text x="0" y="18" font-family="Virgil, Segoe UI Emoji" font-size="20px" fill="#c92a2a" text-anchor="start" style="white-space: pre;" direction="ltr">openid profile</text></g><g transform="translate(278.3422619047615 328.52380952380963) rotate(0 43 12.5)"><text x="43" y="18" font-family="Virgil, Segoe UI Emoji" font-size="20px" fill="#000000" text-anchor="middle" style="white-space: pre;" direction="ltr">/userinfo</text></g></svg>